<svg width="78" height="31" viewBox="0 0 78 31" fill="none" xmlns="http://www.w3.org/2000/svg">
<g clip-path="url(#clip0_24_213)">
<path d="M18.4502 1.85575V29.9731C18.4515 30.0373 18.4359 30.1006 18.4051 30.157C18.3744 30.2133 18.3295 30.2606 18.2748 30.2942C18.2202 30.3279 18.1577 30.3467 18.0936 30.3488C18.0294 30.3509 17.9659 30.3362 17.9091 30.3062L12.6116 27.6526C12.5499 27.6223 12.4979 27.5754 12.4614 27.5171C12.4249 27.4588 12.4055 27.3915 12.4052 27.3227V4.50775C12.4055 4.43899 12.4249 4.37167 12.4614 4.31339C12.4979 4.2551 12.5499 4.20816 12.6116 4.17787L17.9075 1.5275C17.964 1.49766 18.0273 1.48301 18.0911 1.48498C18.155 1.48694 18.2172 1.50546 18.2718 1.53871C18.3263 1.57197 18.3713 1.61882 18.4023 1.67468C18.4333 1.73054 18.4493 1.79349 18.4486 1.85737L18.4502 1.85575ZM60.1835 11.934V29.9764C60.1832 30.0394 60.1669 30.1013 60.136 30.1563C60.1052 30.2113 60.0608 30.2574 60.0071 30.2905C59.9534 30.3235 59.8922 30.3423 59.8292 30.345C59.7663 30.3478 59.7036 30.3344 59.6472 30.3062L54.3432 27.6526C54.2818 27.6221 54.2301 27.5751 54.194 27.5168C54.1578 27.4585 54.1386 27.3913 54.1385 27.3227V11.934C54.1385 11.8362 54.1774 11.7423 54.2465 11.6732C54.3157 11.604 54.4095 11.5651 54.5074 11.5651H59.8146C59.9124 11.5651 60.0063 11.604 60.0755 11.6732C60.1446 11.7423 60.1835 11.8362 60.1835 11.934ZM52.9246 29.3426L52.8206 29.4206C52.2097 29.8682 51.5176 30.1927 50.7829 30.3761C49.8901 30.6068 48.9563 30.6301 48.0532 30.4441C47.1501 30.2581 46.3015 29.8677 45.5725 29.303C44.8436 28.7383 44.2536 28.0142 43.8478 27.1862C43.442 26.3582 43.2312 25.4482 43.2315 24.5261V11.9827C43.2315 11.8852 43.2701 11.7916 43.339 11.7225C43.4078 11.6534 43.5012 11.6143 43.5987 11.6139L47.0015 11.6691H48.8962C48.9173 11.6671 48.9385 11.6671 48.9596 11.6691C49.0429 11.686 49.1179 11.7311 49.1718 11.7968C49.2257 11.8625 49.2552 11.9449 49.2554 12.0299V16.3897C49.2534 16.413 49.2534 16.4364 49.2554 16.4596V26.286C49.2562 27.0292 49.5518 27.7417 50.0773 28.2672C50.6028 28.7927 51.3153 29.0883 52.0585 29.0891H52.7914C52.8151 29.0843 52.8396 29.0854 52.8628 29.0921C52.886 29.0989 52.9072 29.1112 52.9247 29.128C52.9421 29.1448 52.9552 29.1655 52.9628 29.1885C52.9704 29.2114 52.9724 29.2359 52.9685 29.2598C52.9629 29.2908 52.9475 29.3209 52.9246 29.3426ZM11.0744 13.8434C10.7437 13.7108 10.3906 13.643 10.0344 13.6435H9.61187C9.24236 13.6435 8.87648 13.7164 8.53517 13.858C8.19387 13.9996 7.88385 14.2071 7.62287 14.4687C7.36188 14.7303 7.15506 15.0408 7.01425 15.3824C6.87344 15.7241 6.80139 16.0901 6.80225 16.4596V26.286C6.8044 27.0298 7.10136 27.7423 7.62804 28.2675C8.15471 28.7926 8.86812 29.0875 9.61187 29.0875H10.3447C10.3684 29.0846 10.3924 29.0876 10.4147 29.0961C10.437 29.1046 10.4568 29.1184 10.4725 29.1364C10.4882 29.1543 10.4993 29.1758 10.5048 29.199C10.5103 29.2222 10.51 29.2464 10.504 29.2695C10.4965 29.3 10.4794 29.3273 10.4552 29.3475L10.3529 29.4255C9.45121 30.0795 8.3863 30.4715 7.27581 30.5582C6.16531 30.6449 5.05246 30.423 4.06022 29.9168C3.06797 29.4107 2.23496 28.6401 1.65322 27.6902C1.07147 26.7403 0.763645 25.6481 0.763748 24.5342V17.8165C0.763748 14.4722 3.50187 11.6496 6.8445 11.6675C7.67103 11.6728 8.48762 11.8481 9.24353 12.1825C9.99944 12.5168 10.6785 13.0031 11.2385 13.611C11.2584 13.6359 11.2696 13.6666 11.2706 13.6985C11.2716 13.7304 11.2623 13.7617 11.244 13.7878C11.2257 13.814 11.1995 13.8335 11.1692 13.8435C11.1389 13.8535 11.1046 13.8535 11.0744 13.8434ZM77.22 24.2677C77.22 25.9252 76.7699 27.2967 75.868 28.3822C75.7331 28.5382 75.608 28.6829 75.4504 28.8291C74.3827 29.8691 73.0129 30.4281 71.3489 30.5354C71.3441 30.5379 71.3388 30.5393 71.3334 30.5393C71.328 30.5393 71.3227 30.5379 71.318 30.5354L71.162 30.5467H70.5185C69.4474 30.5102 68.3816 30.3791 67.3335 30.1551L67.184 30.1226C66.4103 29.9226 65.6522 29.6668 64.9155 29.3573C64.6488 29.2402 64.4208 29.0498 64.2582 28.8081C64.0957 28.5664 64.0052 28.2834 63.9974 27.9922L63.8511 24.4839C63.85 24.4574 63.8543 24.4309 63.8637 24.4061C63.8731 24.3813 63.8874 24.3587 63.9058 24.3396C63.9241 24.3204 63.9462 24.3052 63.9706 24.2948C63.995 24.2844 64.0212 24.2791 64.0477 24.2791C64.1972 24.2791 64.3337 24.3636 64.402 24.4953C65.1383 25.9068 66.1018 27.1876 67.2539 28.2864C68.2289 29.2126 69.2461 29.7619 70.3089 29.9358C70.5559 29.9764 70.8061 29.9975 71.0564 29.9959C71.1815 29.9959 71.3164 29.9959 71.4301 29.9796H71.4919C71.5366 29.9792 71.5812 29.9748 71.6251 29.9666C71.8575 29.9471 72.0882 29.8967 72.3076 29.8204C72.4019 29.7927 72.4929 29.7619 72.5822 29.7229C72.6521 29.6952 72.722 29.666 72.787 29.6319C73.1994 29.4244 73.5632 29.132 73.8546 28.7739C73.9131 28.7089 73.9684 28.6406 74.0171 28.5691C74.0675 28.4944 74.1195 28.4229 74.1634 28.3514C74.3259 27.9711 74.4039 27.5616 74.3957 27.1489C74.4168 26.7192 74.3275 26.2912 74.1363 25.9058C73.9452 25.5204 73.6586 25.1903 73.3037 24.947C72.344 24.3359 71.2906 23.8863 70.1854 23.6161C69.1959 23.3586 68.2265 23.0295 67.2847 22.6314C66.8026 22.4083 66.346 22.1337 65.923 21.8124C65.8011 21.7246 65.6792 21.6222 65.5574 21.5247C64.4572 20.6131 63.9064 19.201 63.9064 17.2851C63.9031 16.6676 64.0006 16.0534 64.1956 15.4667C64.2216 15.3969 64.2476 15.327 64.2785 15.2555C64.3695 15.0182 64.4751 14.7875 64.5954 14.5616C64.5954 14.5486 64.6084 14.534 64.6165 14.5177C64.8814 14.0595 65.2064 13.637 65.5801 13.2632C66.3777 12.4693 67.3978 11.9365 68.5051 11.7357C69.0446 11.6285 69.5939 11.5765 70.1431 11.5797C70.4519 11.5797 70.7752 11.596 71.0954 11.6252C71.8271 11.6969 72.5506 11.8362 73.2566 12.0412C74.1699 12.3175 75.0604 12.6685 75.9151 13.0894C75.9192 13.0915 75.9226 13.0948 75.9249 13.0989C75.9272 13.1029 75.9283 13.1075 75.9281 13.1121L76.0045 15.2587L76.063 16.9991C76.0639 17.0246 76.0596 17.0499 76.0504 17.0736C76.0412 17.0974 76.0273 17.119 76.0096 17.1372C75.9918 17.1554 75.9705 17.1699 75.947 17.1797C75.9235 17.1894 75.8983 17.1944 75.8729 17.1941C75.8049 17.194 75.7381 17.1757 75.6796 17.1411C75.621 17.1065 75.5727 17.057 75.5397 16.9975C75.0685 16.1492 74.5322 15.34 73.9359 14.5763C73.6663 14.2316 73.3783 13.9017 73.073 13.5883L73.0015 13.5184C72.0801 12.5954 71.0791 12.1355 69.9985 12.1355C68.9179 12.1355 68.0777 12.3841 67.4797 12.883C67.1917 13.128 66.9631 13.4352 66.8111 13.7814C66.6591 14.1277 66.5877 14.5039 66.6022 14.8817C66.5891 15.2689 66.6811 15.6525 66.8685 15.9916C67.0559 16.3306 67.3317 16.6126 67.6666 16.8074C68.484 17.2978 69.3687 17.6662 70.2926 17.901L70.8126 18.0424C71.565 18.2471 72.072 18.3934 72.3417 18.4811C72.6667 18.5851 73.073 18.7281 73.5556 18.9134C73.97 19.0629 74.3681 19.2579 74.7419 19.4919C75.0847 19.721 75.4114 19.9761 75.7169 20.2556C76.0419 20.5432 76.3149 20.8877 76.518 21.2729C77.0071 22.1942 77.2492 23.2261 77.22 24.2694V24.2677ZM40.2139 21.3005V21.0892V20.8097V20.6082C40.2139 20.4653 40.1976 20.319 40.183 20.176L40.1667 20.0167L40.1521 19.8949C40.1516 19.8158 40.1407 19.7371 40.1196 19.6609C40.1196 19.5829 40.0969 19.5049 40.0822 19.4301C40.066 19.3554 40.0644 19.3294 40.053 19.2774L40.0124 19.0694C39.9727 18.8826 39.9267 18.6972 39.8742 18.5136L39.8125 18.2991L39.7394 18.0781C39.715 18.0066 39.6906 17.9351 39.663 17.8636C39.6111 17.7193 39.5559 17.5763 39.4972 17.4346L39.4274 17.2689C39.3904 17.18 39.3486 17.0932 39.3022 17.0089C39.2584 16.9309 39.2015 16.7944 39.143 16.6936C38.9943 16.4017 38.8283 16.119 38.6457 15.847C38.5734 15.7376 38.4986 15.6298 38.4215 15.5236L38.3094 15.3709L38.2395 15.2799C38.0149 14.9877 37.7729 14.7093 37.5147 14.4462L37.3734 14.3049C37.2078 14.1406 37.0354 13.9834 36.8566 13.8336L36.8176 13.7995C36.7144 13.712 36.6104 13.6253 36.5056 13.5395L36.3269 13.403C36.1453 13.2681 35.9583 13.1407 35.7662 13.0211C35.7029 12.9821 35.6379 12.9399 35.5729 12.9041L35.3779 12.7904C35.3124 12.7521 35.2457 12.7158 35.178 12.6815C35.1114 12.649 35.0464 12.6116 34.9781 12.5775L34.7734 12.4767C34.7053 12.4427 34.6359 12.4113 34.5654 12.3825L34.3574 12.2915C34.2159 12.2324 34.0728 12.1772 33.9284 12.1257L33.7122 12.0494L33.4912 11.9795L33.2702 11.9145C33.1218 11.8726 32.9722 11.8347 32.8217 11.8007L32.6397 11.7617L32.3635 11.7097C32.2083 11.6812 32.0522 11.6579 31.8955 11.6399L31.6615 11.6106L31.3202 11.5814H30.277C28.7918 11.6454 27.3421 12.0561 26.044 12.7807C24.7459 13.5052 23.6353 14.5235 22.8012 15.754C21.967 16.9846 21.4324 18.3932 21.2401 19.8674C21.0478 21.3415 21.2031 22.8402 21.6936 24.2435C22.1841 25.6469 22.9962 26.916 24.065 27.9493C25.1338 28.9827 26.4295 29.7516 27.8486 30.1945C29.2677 30.6375 30.7708 30.7422 32.2376 30.5003C33.7044 30.2584 35.0943 29.6766 36.296 28.8015L36.4471 28.6877C36.569 28.5935 36.6909 28.5025 36.8046 28.4066C36.8436 28.3774 36.881 28.3465 36.9184 28.3124L37.0126 28.2246L37.0419 28.2002C37.733 27.5808 38.3312 26.865 38.818 26.0747C38.8229 26.065 38.8261 26.052 38.818 26.0422C38.8144 26.0381 38.81 26.0348 38.805 26.0325C38.7994 26.03 38.7933 26.0288 38.7871 26.0292C38.7813 26.0301 38.7757 26.0323 38.7709 26.0357L38.7384 26.0601L38.4394 26.3331C37.8273 26.9474 37.0977 27.4319 36.2942 27.7577C35.4906 28.0836 34.6296 28.244 33.7626 28.2295C32.7443 28.2303 31.7402 27.9904 30.8322 27.5292C29.9243 27.068 29.1382 26.3987 28.5382 25.5759C27.7236 24.4695 27.2851 23.1311 27.287 21.7571V21.3021H40.2139V21.3005ZM30.5337 12.4507C31.3911 12.4525 32.2128 12.7943 32.8185 13.4011C33.4241 14.008 33.7642 14.8304 33.7642 15.6877V20.93H27.2967V15.6877C27.2972 14.8294 27.6384 14.0063 28.2453 13.3993C28.8523 12.7924 29.6754 12.4512 30.5337 12.4507Z" fill="#191B1D"/>
</g>
<defs>
<clipPath id="clip0_24_213">
<rect width="78" height="30.875" fill="white"/>
</clipPath>
</defs>
</svg>
