<svg width="1244" height="452" viewBox="0 0 1244 452" fill="none" xmlns="http://www.w3.org/2000/svg">
<path d="M-195 505.781C-169.222 505.054 -147.508 497.281 -123.126 488.336C-50.9971 461.872 18.9296 431.368 87.7442 397.194C161.705 360.468 236.081 323.864 306.182 280.044C358.873 247.108 413.674 214.086 460.808 173.272C494.255 144.311 618.89 35.1947 520.765 6.28267C439.394 -17.6929 386.778 46.0484 354.307 112.912C332.618 157.575 324.004 213.733 326.003 263.183C327.821 308.168 361.314 347.752 398.684 369.795C447.966 398.865 526.091 391.02 570.721 356.053C584.873 344.964 657.5 260.959 644.578 232.001C637.933 214.202 616.474 207.185 601 213.459C577 223.189 582.584 254.459 593.882 271.481C621.218 312.665 648.023 372.031 692.613 360.062C728.598 350.402 752.054 324.678 784.649 310.054C794.474 305.647 802.533 303.321 812.648 308.413C836.603 320.475 857.737 339.093 880.277 353.433C931.078 385.746 982.846 412.309 1040.87 439.179C1107.34 448.498 1175.16 459.119 1242.97 39071.898" stroke="#D1D1D1" stroke-width="2" stroke-linecap="round" stroke-linejoin="round"/>
</svg>
