<svg width="0" height="0" class="hidden">
  <symbol id="icon-arr" viewBox="0 0 24 24" fill="none"
    xmlns="http://www.w3.org/2000/svg">
    <g id="ic:round-arrow-outward">
      <path id="Vector" d="M6.50015 7.58333C6.50015 8.17917 6.98765 8.66667 7.58348 8.66667H15.806L6.18598 18.2867C6.08569 18.387 6.00613 18.506 5.95185 18.6371C5.89757 18.7681 5.86963 18.9086 5.86963 19.0504C5.86963 19.1923 5.89757 19.3327 5.95185 19.4638C6.00613 19.5948 6.08569 19.7139 6.18598 19.8142C6.28628 19.9145 6.40535 19.994 6.5364 20.0483C6.66744 20.1026 6.80789 20.1305 6.94973 20.1305C7.09158 20.1305 7.23203 20.1026 7.36307 20.0483C7.49412 19.994 7.61319 19.9145 7.71348 19.8142L17.3335 10.1942V18.4167C17.3335 19.0125 17.821 19.5 18.4168 19.5C19.0127 19.5 19.5002 19.0125 19.5002 18.4167V7.58333C19.5002 6.9875 19.0127 6.5 18.4168 6.5H7.58348C6.98765 6.5 6.50015 6.9875 6.50015 7.58333Z" fill="black"/>
    </g>
  </symbol>
  <symbol id="icon-be" viewBox="0 0 24 24" fill="none"
    xmlns="http://www.w3.org/2000/svg">
    <path d="M16.8783 17.998C16.2622 18.0058 15.6502 17.8964 15.0743 17.6756C14.5583 17.4732 14.0921 17.1605 13.7078 16.7588C13.3293 16.3481 13.0371 15.8648 12.8485 15.3376C12.6414 14.7544 12.5388 14.1387 12.5456 13.5193C12.5412 12.9106 12.6468 12.3061 12.8571 11.7355C13.0531 11.2034 13.3549 10.7172 13.7439 10.3067C14.134 9.90134 14.6001 9.57801 15.1151 9.35547C15.6729 9.11764 16.2736 8.99935 16.8793 9.00809C17.5301 8.99407 18.1748 9.13851 18.7585 9.42917C19.2794 9.69848 19.7313 10.086 20.0783 10.5613C20.4285 11.0467 20.681 11.5964 20.8218 12.1795C20.9754 12.7995 21.0303 13.44 20.9842 14.0772H14.8777C14.8534 14.6825 15.0592 15.2744 15.4531 15.7319C15.8669 16.0977 16.4079 16.2828 16.9572 16.2467C17.3886 16.2569 17.8125 16.1322 18.1707 15.8898C18.4551 15.7148 18.6733 15.4491 18.7908 15.1347H20.837C20.605 16.0235 20.0716 16.8023 19.3291 17.3358C18.5942 17.7939 17.742 18.0242 16.8783 17.998ZM16.8129 10.7785C16.4938 10.7664 16.1765 10.8321 15.8879 10.9699C15.6624 11.0846 15.4621 11.2441 15.2993 11.4388C15.1561 11.6158 15.05 11.8203 14.9878 12.0399C14.9329 12.2227 14.8977 12.411 14.8825 12.6016H18.6635C18.6363 12.1053 18.4485 11.6317 18.1289 11.2532C17.7752 10.9167 17.2981 10.7446 16.8129 10.7785ZM7.66876 17.776H2V6.00028H7.50734C8.01752 5.99578 8.52676 6.0455 9.0266 6.14861C9.44997 6.23192 9.85335 6.397 10.2145 6.63476C10.5406 6.86294 10.8024 7.17259 10.9741 7.53337C11.1637 7.96797 11.2545 8.43978 11.24 8.9143C11.2606 9.43931 11.1225 9.95823 10.844 10.4024C10.5393 10.8264 10.1275 11.1605 9.6514 11.3699C10.2983 11.5329 10.867 11.9218 11.2561 12.4675C11.6176 13.0291 11.8004 13.6885 11.7802 14.3577C11.794 14.8928 11.6773 15.4232 11.4403 15.9022C11.2216 16.3271 10.9044 16.6925 10.5155 16.9673C10.1123 17.25 9.66206 17.4575 9.18613 17.5798C8.68929 17.7113 8.17769 17.7776 7.66402 17.777L7.66876 17.776ZM4.57325 12.5289V15.7731H7.31743C7.55996 15.7757 7.802 15.751 8.03908 15.6994C8.25612 15.6572 8.46267 15.5718 8.64679 15.4486C8.82409 15.3311 8.96806 15.1692 9.06459 14.9787C9.17654 14.7399 9.22932 14.4771 9.21841 14.2132C9.26443 13.7232 9.07612 13.2406 8.71136 12.9136C8.31781 12.6405 7.84586 12.5059 7.36871 12.5308L4.57325 12.5289ZM4.57325 8.00708V10.7584H7.17689C7.57966 10.7744 7.97672 10.6586 8.30875 10.4283C8.62174 10.1663 8.78655 9.76571 8.74933 9.35738C8.75736 9.123 8.70778 8.89026 8.605 8.67984C8.51219 8.50975 8.37534 8.3682 8.20904 8.27025C8.03394 8.16559 7.84054 8.09575 7.63933 8.0645C7.4202 8.0231 7.19757 8.00354 6.97465 8.00612L4.57325 8.00708ZM19.1401 7.95349H14.402V6.79075H19.1401V7.95349Z" fill="currentColor"/>
  </symbol>

  <symbol id="icon-tg" viewBox="0 0 24 24" fill="none"
    xmlns="http://www.w3.org/2000/svg">
    <g clip-path="url(#clip0_563_5626)">
      <path d="M4.16866 10.027C8.73205 8.05126 11.775 6.74874 13.2976 6.11944C17.6447 4.32264 18.5481 4.01051 19.1369 4.0001C19.2663 3.99794 19.5559 4.02983 19.7434 4.18107C19.9019 4.30876 19.9453 4.48126 19.9662 4.60232C19.9871 4.72339 20.0131 4.99919 19.9924 5.21469C19.7569 7.67438 18.7375 13.6434 18.2189 16.3982C17.9994 17.5639 17.5674 17.9548 17.1491 17.9931C16.2401 18.0762 15.5497 17.3961 14.6694 16.8225C13.2917 15.9252 12.5133 15.3664 11.176 14.4907C9.63044 13.4786 10.6323 12.9224 11.5131 12.0133C11.7436 11.7754 15.7489 8.15516 15.8264 7.82675C15.8361 7.78567 15.8451 7.63257 15.7536 7.55173C15.6621 7.47089 15.5269 7.49854 15.4294 7.52053C15.2912 7.55168 13.0903 8.9973 8.82662 11.8573C8.2019 12.2836 7.63603 12.4913 7.12904 12.4805C6.57012 12.4685 5.49498 12.1665 4.69572 11.9082C3.71541 11.5916 2.93628 11.4242 3.00412 10.8864C3.03945 10.6063 3.42764 10.3198 4.16866 10.027Z" fill="currentColor"/>
    </g>
    <defs>
      <clipPath id="clip0_563_5626">
        <rect width="24" height="24" fill="currentColor"/>
      </clipPath>
    </defs>
  </symbol>
  <symbol viewBox="0 0 24 24" fill="none"
    xmlns="http://www.w3.org/2000/svg" id="icon-vk">
    <path d="M12.4378 18C5.2629 18 1.17051 13.1201 1 5H4.59401C4.71206 10.96 7.3616 13.4844 9.46029 14.0049V5H12.8446V10.1401C14.917 9.91892 17.0942 7.57658 17.8287 5H21.2129C20.6489 8.17518 18.2878 10.5175 16.6088 11.4805C18.2878 12.2613 20.9769 14.3043 22 18H18.2747C17.4746 15.5276 15.481 13.6146 12.8446 13.3544V18H12.4378Z" fill="currentColor"/>
  </symbol>

  <symbol viewBox="0 0 16 10" fill="none"
    xmlns="http://www.w3.org/2000/svg" id="icon-arr-acc">
    <path d="M1.00012 1.5L7.99994 8.49982L14.9998 1.5" stroke="currentColor" stroke-width="2" stroke-linecap="round" stroke-linejoin="round"/>
  </symbol>
  <symbol viewBox="0 0 50 50" fill="none"
    xmlns="http://www.w3.org/2000/svg" id="icon-star">
    <path d="M25 0L26.9134 20.3806L42.6777 7.32233L29.6194 23.0866L50 25L29.6194 26.9134L42.6777 42.6777L26.9134 29.6194L25 50L23.0866 29.6194L7.32233 42.6777L20.3806 26.9134L0 25L20.3806 23.0866L7.32233 7.32233L23.0866 20.3806L25 0Z" fill="#FF4D01"/>
  </symbol>

  <symbol viewBox="0 0 40 40" fill="none"
    xmlns="http://www.w3.org/2000/svg" id="icon-rating">
    <path fill-rule="evenodd" clip-rule="evenodd" d="M18 1H14V3H13V19H11V17H8V18H6V23H8V25H10V28H11V31H12V34H12.9998V39H14.9998H27.9998V37H14.9998V34H14V31H13V28H12V25H10V23H8V19H11V21H13V23H15V3H16.9998V19H18.9998V11H22V19H24V13H26.9998V15H29.9998V17H31.9998V28H29.9998V33H28V39H30V33H31.9998V28H33.9998V17H31.9998V15H29.9998V13H26.9998V11H24H22.9998V9H18.9998V3H18V1Z" fill="currentColor"/>
  </symbol>
  <symbol viewBox="0 0 40 40" fill="none"
    xmlns="http://www.w3.org/2000/svg" id="icon-w">
    <g clip-path="url(#clip0_244_2085)">
      <path d="M24.1016 10L20.7202 22.8903L17.5282 10H13.1721L9.97888 22.8903L6.5999 10H1.90479L7.95101 28.7768H12.0828L15.3495 16.631L18.6175 28.7768H22.7493L28.7943 10H24.0992H24.1016ZM31.7861 25.8709C31.7861 27.6593 33.1372 29 34.9407 29C36.7429 29 38.0953 27.6581 38.0953 25.8709C38.0953 24.0826 36.7441 22.7407 34.9407 22.7407C33.1372 22.7407 31.7861 24.0826 31.7861 25.8709Z" fill="currentColor"/>
    </g>
    <defs>
      <clipPath id="clip0_244_2085">
        <rect width="36.1905" height="19" fill="white" transform="translate(1.90479 10)"/>
      </clipPath>
    </defs>
  </symbol>

  <symbol viewBox="0 0 40 40" fill="none"
    xmlns="http://www.w3.org/2000/svg" id="icon-cssda">
    <g clip-path="url(#clip0_501_4824)">
      <g clip-path="url(#clip1_501_4824)">
        <mask id="mask0_501_4824" style="mask-type:luminance" maskUnits="userSpaceOnUse" x="-1" y="4" width="41" height="33">
          <path d="M39.3006 4.62451H-0.680176V36.8041H39.3006V4.62451Z" fill="white"/>
        </mask>
        <g mask="url(#mask0_501_4824)">
          <path d="M7.05755 19.3726C7.2405 19.3709 7.42248 19.4007 7.59633 19.461C7.76927 19.5177 7.9384 19.5867 8.10259 19.6674L8.47416 18.6502C8.03965 18.4278 7.56341 18.312 7.08077 18.3111C6.67208 18.3018 6.26833 18.407 5.91033 18.6157C5.58059 18.8172 5.31531 19.1184 5.14862 19.4807C4.96694 19.8893 4.87637 20.3365 4.88388 20.788C4.84041 21.4474 5.03644 22.0995 5.43194 22.6112C5.63502 22.8272 5.87919 22.9949 6.14825 23.1034C6.41732 23.2119 6.70512 23.2585 6.99253 23.2402C7.43886 23.2499 7.88207 23.1594 8.29302 22.9748V21.879C8.10635 21.9603 7.91564 22.0308 7.72173 22.0903C7.53331 22.1496 7.33772 22.1793 7.14115 22.1787C6.47697 22.1787 6.14721 21.7168 6.14721 20.7977C6.12702 20.4305 6.21287 20.0654 6.39338 19.751C6.46607 19.6315 6.56669 19.5338 6.68548 19.4676C6.80428 19.4013 6.93723 19.3686 7.07149 19.3726H7.05755Z" fill="currentColor"/>
          <path d="M12.4734 22.1886C12.2417 22.1763 12.0123 22.1333 11.7906 22.0609C11.5392 21.9876 11.295 21.8888 11.0614 21.766V22.916C11.2652 23.0219 11.4804 23.1012 11.7024 23.1519C11.9559 23.2089 12.2142 23.2386 12.4734 23.2403C12.7927 23.2449 13.1093 23.1779 13.4023 23.0437C13.6538 22.9315 13.8686 22.7435 14.0201 22.5031C14.1648 22.2681 14.2393 21.9924 14.2337 21.7119C14.2446 21.424 14.1645 21.1405 14.0061 20.9059C13.7836 20.6423 13.505 20.4385 13.1934 20.3113C12.9341 20.197 12.6839 20.0606 12.4455 19.9034C12.4049 19.8766 12.3711 19.8398 12.3468 19.7961C12.3226 19.7525 12.3086 19.7033 12.3062 19.6528C12.3061 19.6091 12.3162 19.566 12.3357 19.5274C12.3551 19.4889 12.3833 19.4559 12.4176 19.4316C12.5201 19.3635 12.6407 19.3324 12.7614 19.3432C13.1434 19.3627 13.5171 19.4683 13.8575 19.6528L14.2337 18.6699C13.7831 18.4509 13.2943 18.3338 12.7985 18.3259C12.3542 18.2981 11.9141 18.4298 11.5491 18.6994C11.3978 18.8182 11.2764 18.9743 11.1955 19.1542C11.1144 19.3341 11.0764 19.5324 11.0846 19.7314C11.0791 19.9403 11.1154 20.148 11.1915 20.3408C11.2646 20.5207 11.3777 20.6791 11.5213 20.8028C11.7235 20.9722 11.947 21.1112 12.1854 21.2155C12.3913 21.3048 12.5915 21.4082 12.7846 21.5252C12.8484 21.5629 12.9052 21.6129 12.9518 21.6726C12.9736 21.706 12.9888 21.7437 12.9966 21.7835C13.0045 21.8232 13.0047 21.8641 12.9973 21.904C12.9899 21.9438 12.9751 21.9816 12.9538 22.0154C12.9324 22.049 12.9049 22.0779 12.8728 22.1002C12.7536 22.1791 12.6135 22.2153 12.4734 22.2034V22.1886Z" fill="currentColor"/>
          <path d="M18.2601 22.1888C18.03 22.176 17.8022 22.1331 17.582 22.0611C17.3308 21.9869 17.0867 21.8882 16.8528 21.7662V22.9162C17.0566 23.0222 17.2718 23.1013 17.4937 23.1521C17.7433 23.2015 17.9969 23.2245 18.2508 23.2208C18.5696 23.2251 18.8858 23.1599 19.1798 23.0292C19.4295 22.9161 19.6427 22.7282 19.7928 22.4886C19.9375 22.2536 20.012 21.9779 20.0065 21.6973C20.0173 21.4095 19.9372 21.1259 19.7789 20.8914C19.5578 20.6351 19.2824 20.4381 18.9754 20.3164C18.7166 20.2009 18.4666 20.0646 18.2275 19.9085C18.1876 19.8814 18.1544 19.8445 18.131 19.8008C18.1075 19.7571 18.0944 19.7081 18.0929 19.6579C18.0919 19.6145 18.1012 19.5716 18.1198 19.533C18.1384 19.4944 18.1659 19.4612 18.1997 19.4368C18.3036 19.3678 18.426 19.3368 18.5481 19.3483C18.93 19.3684 19.3036 19.4739 19.6442 19.6579L20.0157 18.675C19.5668 18.4562 19.0795 18.339 18.5852 18.331C18.1394 18.3025 17.6975 18.4341 17.3312 18.7045C17.1805 18.8238 17.0595 18.9801 16.9786 19.1598C16.8977 19.3396 16.8593 19.5376 16.8667 19.7365C16.8627 19.9452 16.8991 20.1526 16.9735 20.3459C17.0466 20.5258 17.1598 20.6843 17.3033 20.8079C17.5064 20.9761 17.7297 21.1149 17.9675 21.2207C18.1743 21.3114 18.3759 21.4148 18.5713 21.5303C18.6339 21.5679 18.6891 21.618 18.7338 21.6777C18.7672 21.7282 18.785 21.7882 18.7849 21.8498C18.7856 21.9 18.7744 21.9496 18.7526 21.9942C18.7307 22.0387 18.6987 22.077 18.6595 22.1052C18.5401 22.1835 18.4002 22.2196 18.2601 22.2085V22.1888Z" fill="currentColor"/>
          <path d="M26.0725 18.9699C25.6055 18.5502 25.0027 18.3388 24.3912 18.3801H22.8213V23.1717H24.2843C24.6031 23.1931 24.9226 23.1467 25.2242 23.0352C25.5257 22.9239 25.8031 22.7497 26.04 22.523C26.2589 22.2771 26.4276 21.9862 26.5355 21.6683C26.6433 21.3503 26.6882 21.0122 26.667 20.6752C26.6865 20.3627 26.6437 20.0493 26.5414 19.7555C26.4389 19.4617 26.2791 19.194 26.0725 18.9699ZM25.1436 21.771C25.0412 21.8904 24.9141 21.983 24.7723 22.0418C24.6306 22.1006 24.4779 22.124 24.3261 22.1102H24.0568V19.4269H24.4097C24.549 19.4173 24.6887 19.441 24.8181 19.4963C24.9476 19.5516 25.0636 19.6371 25.1575 19.7464C25.3471 20.0328 25.4344 20.3811 25.4037 20.7292C25.4269 21.0987 25.332 21.4655 25.1343 21.771H25.1436Z" fill="currentColor"/>
          <path d="M32.2129 18.3606H30.5873L29.101 23.1717H30.4433L30.6755 22.2773H32.1479L32.3708 23.1717H33.7084L32.2129 18.3606ZM30.931 21.2109C31.1168 20.464 31.2375 19.9578 31.2933 19.7022C31.3489 19.4466 31.3861 19.2648 31.4047 19.1517C31.4047 19.2697 31.4651 19.4712 31.5301 19.7465C31.5952 20.0216 31.6508 20.2378 31.6974 20.4246L31.8924 21.2109H30.931Z" fill="currentColor"/>
          <path d="M25.1577 14.9006L20.4806 10.0205L15.8964 14.9006H13.2769L23.0166 4.62451H12.7938L3.01693 14.9006H-0.680176L-0.262161 15.6181H39.3006V14.9006H25.1577Z" fill="currentColor"/>
          <path d="M-0.680176 26.6116H13.3605L17.9261 31.4375L22.5753 26.6116H25.0695L15.3901 36.8041H25.6129L30.7034 31.4719L35.3341 26.6116H39.3006V25.894H-0.680176V26.6116Z" fill="currentColor"/>
        </g>
      </g>
    </g>
    <defs>
      <clipPath id="clip0_501_4824">
        <rect width="40" height="40" fill="white"/>
      </clipPath>
      <clipPath id="clip1_501_4824">
        <rect width="40.9559" height="33.1548" fill="white" transform="translate(-0.955811 3.75)"/>
      </clipPath>
    </defs>
  </symbol>
  <symbol viewBox="0 0 18 18" fill="none"
    xmlns="http://www.w3.org/2000/svg" id="icon-corner-arr">
    <path d="M1.5 16.5L16.5 1.5M16.5 1.5V16.5M16.5 1.5H1.5" stroke="#191B1D" stroke-width="2"/>
  </symbol>

  <symbol viewBox="0 0 32 32" fill="none"
    xmlns="http://www.w3.org/2000/svg" id="icon-task">
    <path fill-rule="evenodd" clip-rule="evenodd" d="M16 32C24.8366 32 32 24.8366 32 16C32 7.16344 24.8366 0 16 0C7.16344 0 0 7.16344 0 16C0 24.8366 7.16344 32 16 32ZM14.7071 21.2071L24.2071 11.7071L22.7929 10.2929L14 19.0858L9.70711 14.7929L8.29289 16.2071L13.2929 21.2071L14 21.9142L14.7071 21.2071Z" fill="#FF4D01"/>
  </symbol>

  <svg viewBox="0 0 32 32" fill="none"
    xmlns="http://www.w3.org/2000/svg" id="icon-cross">
    <g opacity="0.2">
      <path fill-rule="evenodd" clip-rule="evenodd" d="M16 32C24.8366 32 32 24.8366 32 16C32 7.16344 24.8366 0 16 0C7.16344 0 0 7.16344 0 16C0 24.8366 7.16344 32 16 32ZM8.29289 9.70711L14.5858 16L8.29289 22.2929L9.70711 23.7071L16 17.4142L22.2929 23.7071L23.7071 22.2929L17.4142 16L23.7071 9.70711L22.2929 8.29289L16 14.5858L9.70711 8.29289L8.29289 9.70711Z" fill="white"/>
    </g>
  </svg>






</svg>