<svg width="0" height="0" class="hidden">
  <symbol fill="none"
    xmlns="http://www.w3.org/2000/svg" viewBox="0 0 60 60" id="icon-be">
    <circle cx="30" cy="30" r="29.5" stroke="#3B3D3F"></circle>
    <path d="M34.8783 35.998C34.2622 36.0058 33.6502 35.8964 33.0743 35.6756C32.5583 35.4732 32.0921 35.1605 31.7078 34.7588C31.3293 34.3481 31.0371 33.8648 30.8485 33.3376C30.6414 32.7544 30.5388 32.1387 30.5456 31.5193C30.5412 30.9106 30.6468 30.3061 30.8571 29.7355C31.0531 29.2034 31.3549 28.7172 31.7439 28.3067C32.134 27.9013 32.6001 27.578 33.1151 27.3555C33.6729 27.1176 34.2736 26.9993 34.8793 27.0081C35.5301 26.9941 36.1748 27.1385 36.7585 27.4292C37.2794 27.6985 37.7313 28.086 38.0783 28.5613C38.4285 29.0467 38.681 29.5964 38.8218 30.1795C38.9754 30.7995 39.0303 31.44 38.9842 32.0772H32.8777C32.8534 32.6825 33.0592 33.2744 33.4531 33.7319C33.8669 34.0977 34.4079 34.2828 34.9572 34.2467C35.3886 34.2569 35.8125 34.1322 36.1707 33.8898C36.4551 33.7148 36.6733 33.4491 36.7908 33.1347H38.837C38.605 34.0235 38.0716 34.8023 37.3291 35.3358C36.5942 35.7939 35.742 36.0242 34.8783 35.998ZM34.8129 28.7785C34.4938 28.7664 34.1765 28.8321 33.8879 28.9699C33.6624 29.0846 33.4621 29.2441 33.2993 29.4388C33.1561 29.6158 33.05 29.8203 32.9878 30.0399C32.9329 30.2227 32.8977 30.411 32.8825 30.6016H36.6635C36.6363 30.1053 36.4485 29.6317 36.1289 29.2532C35.7752 28.9167 35.2981 28.7446 34.8129 28.7785ZM25.6688 35.776H20V24.0003H25.5073C26.0175 23.9958 26.5268 24.0455 27.0266 24.1486C27.45 24.2319 27.8534 24.397 28.2145 24.6348C28.5406 24.8629 28.8024 25.1726 28.9741 25.5334C29.1637 25.968 29.2545 26.4398 29.24 26.9143C29.2606 27.4393 29.1225 27.9582 28.844 28.4024C28.5393 28.8264 28.1275 29.1605 27.6514 29.3699C28.2983 29.5329 28.867 29.9218 29.2561 30.4675C29.6176 31.0291 29.8004 31.6885 29.7802 32.3577C29.794 32.8928 29.6773 33.4232 29.4403 33.9022C29.2216 34.3271 28.9044 34.6925 28.5155 34.9673C28.1123 35.25 27.6621 35.4575 27.1861 35.5798C26.6893 35.7113 26.1777 35.7776 25.664 35.777L25.6688 35.776ZM22.5733 30.5289V33.7731H25.3174C25.56 33.7757 25.802 33.751 26.0391 33.6994C26.2561 33.6572 26.4627 33.5718 26.6468 33.4486C26.8241 33.3311 26.9681 33.1692 27.0646 32.9787C27.1765 32.7399 27.2293 32.4771 27.2184 32.2132C27.2644 31.7232 27.0761 31.2406 26.7114 30.9136C26.3178 30.6405 25.8459 30.5059 25.3687 30.5308L22.5733 30.5289ZM22.5733 26.0071V28.7584H25.1769C25.5797 28.7744 25.9767 28.6586 26.3087 28.4283C26.6217 28.1663 26.7865 27.7657 26.7493 27.3574C26.7574 27.123 26.7078 26.8903 26.605 26.6798C26.5122 26.5097 26.3753 26.3682 26.209 26.2703C26.0339 26.1656 25.8405 26.0957 25.6393 26.0645C25.4202 26.0231 25.1976 26.0035 24.9746 26.0061L22.5733 26.0071ZM37.1401 25.9535H32.402V24.7907H37.1401V25.9535Z" fill="white"></path>
  </symbol>
  <symbol fill="none"
    xmlns="http://www.w3.org/2000/svg" viewBox="0 0 60 60" id="icon-tg">
    <circle cx="30" cy="30" r="29.5" stroke="#3B3D3F"></circle>
    <path d="M23.1687 29.027C27.7321 27.0513 30.775 25.7487 32.2976 25.1194C36.6447 23.3226 37.5481 23.0105 38.1369 23.0001C38.2663 22.9979 38.5559 23.0298 38.7434 23.1811C38.9019 23.3088 38.9453 23.4813 38.9662 23.6023C38.9871 23.7234 39.0131 23.9992 38.9924 24.2147C38.7569 26.6744 37.7375 32.6434 37.2189 35.3982C36.9994 36.5639 36.5674 36.9548 36.1491 36.9931C35.2401 37.0762 34.5497 36.3961 33.6694 35.8225C32.2917 34.9252 31.5133 34.3664 30.176 33.4907C28.6304 32.4786 29.6323 31.9224 30.5131 31.0133C30.7436 30.7754 34.7489 27.1552 34.8264 26.8268C34.8361 26.7857 34.8451 26.6326 34.7536 26.5517C34.6621 26.4709 34.5269 26.4985 34.4294 26.5205C34.2912 26.5517 32.0903 27.9973 27.8266 30.8573C27.2019 31.2836 26.636 31.4913 26.129 31.4805C25.5701 31.4685 24.495 31.1665 23.6957 30.9082C22.7154 30.5916 21.9363 30.4242 22.0041 29.8864C22.0395 29.6063 22.4276 29.3198 23.1687 29.027Z" fill="white"></path>
  </symbol>
  <symbol fill="none"
    xmlns="http://www.w3.org/2000/svg" viewBox="0 0 60 60" id="icon-vk">
    <circle cx="30" cy="30" r="29.5" stroke="#3B3D3F"></circle>
    <path d="M31.4378 37C24.2629 37 20.1705 32.1201 20 24H23.594C23.7121 29.96 26.3616 32.4844 28.4603 33.0049V24H31.8446V29.1401C33.917 28.9189 36.0942 26.5766 36.8287 24H40.2129C39.6489 27.1752 37.2878 29.5175 35.6088 30.4805C37.2878 31.2613 39.9769 33.3043 41 37H37.2747C36.4746 34.5276 34.481 32.6146 31.8446 32.3544V37H31.4378Z" fill="white"></path>
  </symbol>
  <symbol viewBox="0 0 16 10" fill="none"
    xmlns="http://www.w3.org/2000/svg" id="icon-arr-acc">
    <path d="M1.00012 1.5L7.99994 8.49982L14.9998 1.5" stroke="currentColor" stroke-width="2" stroke-linecap="round" stroke-linejoin="round"/>
  </symbol>
  <symbol viewBox="0 0 50 50" fill="none"
    xmlns="http://www.w3.org/2000/svg" id="icon-star">
    <path d="M25 0L26.9134 20.3806L42.6777 7.32233L29.6194 23.0866L50 25L29.6194 26.9134L42.6777 42.6777L26.9134 29.6194L25 50L23.0866 29.6194L7.32233 42.6777L20.3806 26.9134L0 25L20.3806 23.0866L7.32233 7.32233L23.0866 20.3806L25 0Z" fill="#FF4D01"/>
  </symbol>

  <symbol viewBox="0 0 40 40" fill="none"
    xmlns="http://www.w3.org/2000/svg" id="icon-rating">
    <path fill-rule="evenodd" clip-rule="evenodd" d="M18 1H14V3H13V19H11V17H8V18H6V23H8V25H10V28H11V31H12V34H12.9998V39H14.9998H27.9998V37H14.9998V34H14V31H13V28H12V25H10V23H8V19H11V21H13V23H15V3H16.9998V19H18.9998V11H22V19H24V13H26.9998V15H29.9998V17H31.9998V28H29.9998V33H28V39H30V33H31.9998V28H33.9998V17H31.9998V15H29.9998V13H26.9998V11H24H22.9998V9H18.9998V3H18V1Z" fill="currentColor"/>
  </symbol>
  <symbol viewBox="0 0 40 40" fill="none"
    xmlns="http://www.w3.org/2000/svg" id="icon-w">
    <g clip-path="url(#clip0_244_2085)">
      <path d="M24.1016 10L20.7202 22.8903L17.5282 10H13.1721L9.97888 22.8903L6.5999 10H1.90479L7.95101 28.7768H12.0828L15.3495 16.631L18.6175 28.7768H22.7493L28.7943 10H24.0992H24.1016ZM31.7861 25.8709C31.7861 27.6593 33.1372 29 34.9407 29C36.7429 29 38.0953 27.6581 38.0953 25.8709C38.0953 24.0826 36.7441 22.7407 34.9407 22.7407C33.1372 22.7407 31.7861 24.0826 31.7861 25.8709Z" fill="currentColor"/>
    </g>
    <defs>
      <clipPath id="clip0_244_2085">
        <rect width="36.1905" height="19" fill="white" transform="translate(1.90479 10)"/>
      </clipPath>
    </defs>
  </symbol>

  <symbol viewBox="0 0 40 40" fill="none"
    xmlns="http://www.w3.org/2000/svg" id="icon-cssda">
    <g clip-path="url(#clip0_501_4824)">
      <g clip-path="url(#clip1_501_4824)">
        <mask id="mask0_501_4824" style="mask-type:luminance" maskUnits="userSpaceOnUse" x="-1" y="4" width="41" height="33">
          <path d="M39.3006 4.62451H-0.680176V36.8041H39.3006V4.62451Z" fill="white"/>
        </mask>
        <g mask="url(#mask0_501_4824)">
          <path d="M7.05755 19.3726C7.2405 19.3709 7.42248 19.4007 7.59633 19.461C7.76927 19.5177 7.9384 19.5867 8.10259 19.6674L8.47416 18.6502C8.03965 18.4278 7.56341 18.312 7.08077 18.3111C6.67208 18.3018 6.26833 18.407 5.91033 18.6157C5.58059 18.8172 5.31531 19.1184 5.14862 19.4807C4.96694 19.8893 4.87637 20.3365 4.88388 20.788C4.84041 21.4474 5.03644 22.0995 5.43194 22.6112C5.63502 22.8272 5.87919 22.9949 6.14825 23.1034C6.41732 23.2119 6.70512 23.2585 6.99253 23.2402C7.43886 23.2499 7.88207 23.1594 8.29302 22.9748V21.879C8.10635 21.9603 7.91564 22.0308 7.72173 22.0903C7.53331 22.1496 7.33772 22.1793 7.14115 22.1787C6.47697 22.1787 6.14721 21.7168 6.14721 20.7977C6.12702 20.4305 6.21287 20.0654 6.39338 19.751C6.46607 19.6315 6.56669 19.5338 6.68548 19.4676C6.80428 19.4013 6.93723 19.3686 7.07149 19.3726H7.05755Z" fill="currentColor"/>
          <path d="M12.4734 22.1886C12.2417 22.1763 12.0123 22.1333 11.7906 22.0609C11.5392 21.9876 11.295 21.8888 11.0614 21.766V22.916C11.2652 23.0219 11.4804 23.1012 11.7024 23.1519C11.9559 23.2089 12.2142 23.2386 12.4734 23.2403C12.7927 23.2449 13.1093 23.1779 13.4023 23.0437C13.6538 22.9315 13.8686 22.7435 14.0201 22.5031C14.1648 22.2681 14.2393 21.9924 14.2337 21.7119C14.2446 21.424 14.1645 21.1405 14.0061 20.9059C13.7836 20.6423 13.505 20.4385 13.1934 20.3113C12.9341 20.197 12.6839 20.0606 12.4455 19.9034C12.4049 19.8766 12.3711 19.8398 12.3468 19.7961C12.3226 19.7525 12.3086 19.7033 12.3062 19.6528C12.3061 19.6091 12.3162 19.566 12.3357 19.5274C12.3551 19.4889 12.3833 19.4559 12.4176 19.4316C12.5201 19.3635 12.6407 19.3324 12.7614 19.3432C13.1434 19.3627 13.5171 19.4683 13.8575 19.6528L14.2337 18.6699C13.7831 18.4509 13.2943 18.3338 12.7985 18.3259C12.3542 18.2981 11.9141 18.4298 11.5491 18.6994C11.3978 18.8182 11.2764 18.9743 11.1955 19.1542C11.1144 19.3341 11.0764 19.5324 11.0846 19.7314C11.0791 19.9403 11.1154 20.148 11.1915 20.3408C11.2646 20.5207 11.3777 20.6791 11.5213 20.8028C11.7235 20.9722 11.947 21.1112 12.1854 21.2155C12.3913 21.3048 12.5915 21.4082 12.7846 21.5252C12.8484 21.5629 12.9052 21.6129 12.9518 21.6726C12.9736 21.706 12.9888 21.7437 12.9966 21.7835C13.0045 21.8232 13.0047 21.8641 12.9973 21.904C12.9899 21.9438 12.9751 21.9816 12.9538 22.0154C12.9324 22.049 12.9049 22.0779 12.8728 22.1002C12.7536 22.1791 12.6135 22.2153 12.4734 22.2034V22.1886Z" fill="currentColor"/>
          <path d="M18.2601 22.1888C18.03 22.176 17.8022 22.1331 17.582 22.0611C17.3308 21.9869 17.0867 21.8882 16.8528 21.7662V22.9162C17.0566 23.0222 17.2718 23.1013 17.4937 23.1521C17.7433 23.2015 17.9969 23.2245 18.2508 23.2208C18.5696 23.2251 18.8858 23.1599 19.1798 23.0292C19.4295 22.9161 19.6427 22.7282 19.7928 22.4886C19.9375 22.2536 20.012 21.9779 20.0065 21.6973C20.0173 21.4095 19.9372 21.1259 19.7789 20.8914C19.5578 20.6351 19.2824 20.4381 18.9754 20.3164C18.7166 20.2009 18.4666 20.0646 18.2275 19.9085C18.1876 19.8814 18.1544 19.8445 18.131 19.8008C18.1075 19.7571 18.0944 19.7081 18.0929 19.6579C18.0919 19.6145 18.1012 19.5716 18.1198 19.533C18.1384 19.4944 18.1659 19.4612 18.1997 19.4368C18.3036 19.3678 18.426 19.3368 18.5481 19.3483C18.93 19.3684 19.3036 19.4739 19.6442 19.6579L20.0157 18.675C19.5668 18.4562 19.0795 18.339 18.5852 18.331C18.1394 18.3025 17.6975 18.4341 17.3312 18.7045C17.1805 18.8238 17.0595 18.9801 16.9786 19.1598C16.8977 19.3396 16.8593 19.5376 16.8667 19.7365C16.8627 19.9452 16.8991 20.1526 16.9735 20.3459C17.0466 20.5258 17.1598 20.6843 17.3033 20.8079C17.5064 20.9761 17.7297 21.1149 17.9675 21.2207C18.1743 21.3114 18.3759 21.4148 18.5713 21.5303C18.6339 21.5679 18.6891 21.618 18.7338 21.6777C18.7672 21.7282 18.785 21.7882 18.7849 21.8498C18.7856 21.9 18.7744 21.9496 18.7526 21.9942C18.7307 22.0387 18.6987 22.077 18.6595 22.1052C18.5401 22.1835 18.4002 22.2196 18.2601 22.2085V22.1888Z" fill="currentColor"/>
          <path d="M26.0725 18.9699C25.6055 18.5502 25.0027 18.3388 24.3912 18.3801H22.8213V23.1717H24.2843C24.6031 23.1931 24.9226 23.1467 25.2242 23.0352C25.5257 22.9239 25.8031 22.7497 26.04 22.523C26.2589 22.2771 26.4276 21.9862 26.5355 21.6683C26.6433 21.3503 26.6882 21.0122 26.667 20.6752C26.6865 20.3627 26.6437 20.0493 26.5414 19.7555C26.4389 19.4617 26.2791 19.194 26.0725 18.9699ZM25.1436 21.771C25.0412 21.8904 24.9141 21.983 24.7723 22.0418C24.6306 22.1006 24.4779 22.124 24.3261 22.1102H24.0568V19.4269H24.4097C24.549 19.4173 24.6887 19.441 24.8181 19.4963C24.9476 19.5516 25.0636 19.6371 25.1575 19.7464C25.3471 20.0328 25.4344 20.3811 25.4037 20.7292C25.4269 21.0987 25.332 21.4655 25.1343 21.771H25.1436Z" fill="currentColor"/>
          <path d="M32.2129 18.3606H30.5873L29.101 23.1717H30.4433L30.6755 22.2773H32.1479L32.3708 23.1717H33.7084L32.2129 18.3606ZM30.931 21.2109C31.1168 20.464 31.2375 19.9578 31.2933 19.7022C31.3489 19.4466 31.3861 19.2648 31.4047 19.1517C31.4047 19.2697 31.4651 19.4712 31.5301 19.7465C31.5952 20.0216 31.6508 20.2378 31.6974 20.4246L31.8924 21.2109H30.931Z" fill="currentColor"/>
          <path d="M25.1577 14.9006L20.4806 10.0205L15.8964 14.9006H13.2769L23.0166 4.62451H12.7938L3.01693 14.9006H-0.680176L-0.262161 15.6181H39.3006V14.9006H25.1577Z" fill="currentColor"/>
          <path d="M-0.680176 26.6116H13.3605L17.9261 31.4375L22.5753 26.6116H25.0695L15.3901 36.8041H25.6129L30.7034 31.4719L35.3341 26.6116H39.3006V25.894H-0.680176V26.6116Z" fill="currentColor"/>
        </g>
      </g>
    </g>
    <defs>
      <clipPath id="clip0_501_4824">
        <rect width="40" height="40" fill="white"/>
      </clipPath>
      <clipPath id="clip1_501_4824">
        <rect width="40.9559" height="33.1548" fill="white" transform="translate(-0.955811 3.75)"/>
      </clipPath>
    </defs>
  </symbol>
  <symbol viewBox="0 0 18 18" fill="none"
    xmlns="http://www.w3.org/2000/svg" id="icon-corner-arr">
    <path d="M1.5 16.5L16.5 1.5M16.5 1.5V16.5M16.5 1.5H1.5" stroke="#191B1D" stroke-width="2"/>
  </symbol>

  <symbol viewBox="0 0 32 32" fill="none"
    xmlns="http://www.w3.org/2000/svg" id="icon-task">
    <path fill-rule="evenodd" clip-rule="evenodd" d="M16 32C24.8366 32 32 24.8366 32 16C32 7.16344 24.8366 0 16 0C7.16344 0 0 7.16344 0 16C0 24.8366 7.16344 32 16 32ZM14.7071 21.2071L24.2071 11.7071L22.7929 10.2929L14 19.0858L9.70711 14.7929L8.29289 16.2071L13.2929 21.2071L14 21.9142L14.7071 21.2071Z" fill="#FF4D01"/>
  </symbol>





</svg>