<svg width="0" height="0" class="hidden">
  <symbol id="icon-arr" viewBox="0 0 24 24" fill="none"
    xmlns="http://www.w3.org/2000/svg">
    <g id="ic:round-arrow-outward">
      <path id="Vector" d="M6.50015 7.58333C6.50015 8.17917 6.98765 8.66667 7.58348 8.66667H15.806L6.18598 18.2867C6.08569 18.387 6.00613 18.506 5.95185 18.6371C5.89757 18.7681 5.86963 18.9086 5.86963 19.0504C5.86963 19.1923 5.89757 19.3327 5.95185 19.4638C6.00613 19.5948 6.08569 19.7139 6.18598 19.8142C6.28628 19.9145 6.40535 19.994 6.5364 20.0483C6.66744 20.1026 6.80789 20.1305 6.94973 20.1305C7.09158 20.1305 7.23203 20.1026 7.36307 20.0483C7.49412 19.994 7.61319 19.9145 7.71348 19.8142L17.3335 10.1942V18.4167C17.3335 19.0125 17.821 19.5 18.4168 19.5C19.0127 19.5 19.5002 19.0125 19.5002 18.4167V7.58333C19.5002 6.9875 19.0127 6.5 18.4168 6.5H7.58348C6.98765 6.5 6.50015 6.9875 6.50015 7.58333Z" fill="black"/>
    </g>
  </symbol>
  <symbol id="icon-be" viewBox="0 0 24 24" fill="none"
    xmlns="http://www.w3.org/2000/svg">
    <path d="M16.8783 17.998C16.2622 18.0058 15.6502 17.8964 15.0743 17.6756C14.5583 17.4732 14.0921 17.1605 13.7078 16.7588C13.3293 16.3481 13.0371 15.8648 12.8485 15.3376C12.6414 14.7544 12.5388 14.1387 12.5456 13.5193C12.5412 12.9106 12.6468 12.3061 12.8571 11.7355C13.0531 11.2034 13.3549 10.7172 13.7439 10.3067C14.134 9.90134 14.6001 9.57801 15.1151 9.35547C15.6729 9.11764 16.2736 8.99935 16.8793 9.00809C17.5301 8.99407 18.1748 9.13851 18.7585 9.42917C19.2794 9.69848 19.7313 10.086 20.0783 10.5613C20.4285 11.0467 20.681 11.5964 20.8218 12.1795C20.9754 12.7995 21.0303 13.44 20.9842 14.0772H14.8777C14.8534 14.6825 15.0592 15.2744 15.4531 15.7319C15.8669 16.0977 16.4079 16.2828 16.9572 16.2467C17.3886 16.2569 17.8125 16.1322 18.1707 15.8898C18.4551 15.7148 18.6733 15.4491 18.7908 15.1347H20.837C20.605 16.0235 20.0716 16.8023 19.3291 17.3358C18.5942 17.7939 17.742 18.0242 16.8783 17.998ZM16.8129 10.7785C16.4938 10.7664 16.1765 10.8321 15.8879 10.9699C15.6624 11.0846 15.4621 11.2441 15.2993 11.4388C15.1561 11.6158 15.05 11.8203 14.9878 12.0399C14.9329 12.2227 14.8977 12.411 14.8825 12.6016H18.6635C18.6363 12.1053 18.4485 11.6317 18.1289 11.2532C17.7752 10.9167 17.2981 10.7446 16.8129 10.7785ZM7.66876 17.776H2V6.00028H7.50734C8.01752 5.99578 8.52676 6.0455 9.0266 6.14861C9.44997 6.23192 9.85335 6.397 10.2145 6.63476C10.5406 6.86294 10.8024 7.17259 10.9741 7.53337C11.1637 7.96797 11.2545 8.43978 11.24 8.9143C11.2606 9.43931 11.1225 9.95823 10.844 10.4024C10.5393 10.8264 10.1275 11.1605 9.6514 11.3699C10.2983 11.5329 10.867 11.9218 11.2561 12.4675C11.6176 13.0291 11.8004 13.6885 11.7802 14.3577C11.794 14.8928 11.6773 15.4232 11.4403 15.9022C11.2216 16.3271 10.9044 16.6925 10.5155 16.9673C10.1123 17.25 9.66206 17.4575 9.18613 17.5798C8.68929 17.7113 8.17769 17.7776 7.66402 17.777L7.66876 17.776ZM4.57325 12.5289V15.7731H7.31743C7.55996 15.7757 7.802 15.751 8.03908 15.6994C8.25612 15.6572 8.46267 15.5718 8.64679 15.4486C8.82409 15.3311 8.96806 15.1692 9.06459 14.9787C9.17654 14.7399 9.22932 14.4771 9.21841 14.2132C9.26443 13.7232 9.07612 13.2406 8.71136 12.9136C8.31781 12.6405 7.84586 12.5059 7.36871 12.5308L4.57325 12.5289ZM4.57325 8.00708V10.7584H7.17689C7.57966 10.7744 7.97672 10.6586 8.30875 10.4283C8.62174 10.1663 8.78655 9.76571 8.74933 9.35738C8.75736 9.123 8.70778 8.89026 8.605 8.67984C8.51219 8.50975 8.37534 8.3682 8.20904 8.27025C8.03394 8.16559 7.84054 8.09575 7.63933 8.0645C7.4202 8.0231 7.19757 8.00354 6.97465 8.00612L4.57325 8.00708ZM19.1401 7.95349H14.402V6.79075H19.1401V7.95349Z" fill="currentColor"/>
  </symbol>

  <symbol id="icon-tg" viewBox="0 0 24 24" fill="none"
    xmlns="http://www.w3.org/2000/svg">
    <g clip-path="url(#clip0_563_5626)">
      <path d="M4.16866 10.027C8.73205 8.05126 11.775 6.74874 13.2976 6.11944C17.6447 4.32264 18.5481 4.01051 19.1369 4.0001C19.2663 3.99794 19.5559 4.02983 19.7434 4.18107C19.9019 4.30876 19.9453 4.48126 19.9662 4.60232C19.9871 4.72339 20.0131 4.99919 19.9924 5.21469C19.7569 7.67438 18.7375 13.6434 18.2189 16.3982C17.9994 17.5639 17.5674 17.9548 17.1491 17.9931C16.2401 18.0762 15.5497 17.3961 14.6694 16.8225C13.2917 15.9252 12.5133 15.3664 11.176 14.4907C9.63044 13.4786 10.6323 12.9224 11.5131 12.0133C11.7436 11.7754 15.7489 8.15516 15.8264 7.82675C15.8361 7.78567 15.8451 7.63257 15.7536 7.55173C15.6621 7.47089 15.5269 7.49854 15.4294 7.52053C15.2912 7.55168 13.0903 8.9973 8.82662 11.8573C8.2019 12.2836 7.63603 12.4913 7.12904 12.4805C6.57012 12.4685 5.49498 12.1665 4.69572 11.9082C3.71541 11.5916 2.93628 11.4242 3.00412 10.8864C3.03945 10.6063 3.42764 10.3198 4.16866 10.027Z" fill="currentColor"/>
    </g>
    <defs>
      <clipPath id="clip0_563_5626">
        <rect width="24" height="24" fill="currentColor"/>
      </clipPath>
    </defs>
  </symbol>
  <symbol viewBox="0 0 24 24" fill="none"
    xmlns="http://www.w3.org/2000/svg" id="icon-vk">
    <path d="M12.4378 18C5.2629 18 1.17051 13.1201 1 5H4.59401C4.71206 10.96 7.3616 13.4844 9.46029 14.0049V5H12.8446V10.1401C14.917 9.91892 17.0942 7.57658 17.8287 5H21.2129C20.6489 8.17518 18.2878 10.5175 16.6088 11.4805C18.2878 12.2613 20.9769 14.3043 22 18H18.2747C17.4746 15.5276 15.481 13.6146 12.8446 13.3544V18H12.4378Z" fill="currentColor"/>
  </symbol>

  <symbol viewBox="0 0 16 10" fill="none"
    xmlns="http://www.w3.org/2000/svg" id="icon-arr-acc">
    <path d="M1.00012 1.5L7.99994 8.49982L14.9998 1.5" stroke="currentColor" stroke-width="2" stroke-linecap="round" stroke-linejoin="round"/>
  </symbol>
  <symbol viewBox="0 0 50 50" fill="none"
    xmlns="http://www.w3.org/2000/svg" id="icon-star">
    <path xmlns="http://www.w3.org/2000/svg" d="M25 0L28.2246 8.71444C30.4637 14.7654 35.2346 19.5363 41.2856 21.7754L50 25L41.2856 28.2246C35.2346 30.4637 30.4637 35.2346 28.2246 41.2856L25 50L21.7754 41.2856C19.5363 35.2346 14.7654 30.4637 8.71443 28.2246L0 25L8.71444 21.7754C14.7654 19.5363 19.5363 14.7654 21.7754 8.71443L25 0Z" fill="#050505"/>
  </symbol>

  <symbol viewBox="0 0 40 40" fill="none"
    xmlns="http://www.w3.org/2000/svg" id="icon-rating">
    <path fill-rule="evenodd" clip-rule="evenodd" d="M18 1H14V3H13V19H11V17H8V18H6V23H8V25H10V28H11V31H12V34H12.9998V39H14.9998H27.9998V37H14.9998V34H14V31H13V28H12V25H10V23H8V19H11V21H13V23H15V3H16.9998V19H18.9998V11H22V19H24V13H26.9998V15H29.9998V17H31.9998V28H29.9998V33H28V39H30V33H31.9998V28H33.9998V17H31.9998V15H29.9998V13H26.9998V11H24H22.9998V9H18.9998V3H18V1Z" fill="currentColor"/>
  </symbol>
  <symbol viewBox="0 0 40 40" fill="none"
    xmlns="http://www.w3.org/2000/svg" id="icon-w">
    <g clip-path="url(#clip0_244_2085)">
      <path d="M24.1016 10L20.7202 22.8903L17.5282 10H13.1721L9.97888 22.8903L6.5999 10H1.90479L7.95101 28.7768H12.0828L15.3495 16.631L18.6175 28.7768H22.7493L28.7943 10H24.0992H24.1016ZM31.7861 25.8709C31.7861 27.6593 33.1372 29 34.9407 29C36.7429 29 38.0953 27.6581 38.0953 25.8709C38.0953 24.0826 36.7441 22.7407 34.9407 22.7407C33.1372 22.7407 31.7861 24.0826 31.7861 25.8709Z" fill="currentColor"/>
    </g>
    <defs>
      <clipPath id="clip0_244_2085">
        <rect width="36.1905" height="19" fill="white" transform="translate(1.90479 10)"/>
      </clipPath>
    </defs>
  </symbol>

  <symbol viewBox="0 0 40 40" fill="none"
    xmlns="http://www.w3.org/2000/svg" id="icon-cssda">
    <g clip-path="url(#clip0_501_4824)">
      <g clip-path="url(#clip1_501_4824)">
        <mask id="mask0_501_4824" style="mask-type:luminance" maskUnits="userSpaceOnUse" x="-1" y="4" width="41" height="33">
          <path d="M39.3006 4.62451H-0.680176V36.8041H39.3006V4.62451Z" fill="white"/>
        </mask>
        <g mask="url(#mask0_501_4824)">
          <path d="M7.05755 19.3726C7.2405 19.3709 7.42248 19.4007 7.59633 19.461C7.76927 19.5177 7.9384 19.5867 8.10259 19.6674L8.47416 18.6502C8.03965 18.4278 7.56341 18.312 7.08077 18.3111C6.67208 18.3018 6.26833 18.407 5.91033 18.6157C5.58059 18.8172 5.31531 19.1184 5.14862 19.4807C4.96694 19.8893 4.87637 20.3365 4.88388 20.788C4.84041 21.4474 5.03644 22.0995 5.43194 22.6112C5.63502 22.8272 5.87919 22.9949 6.14825 23.1034C6.41732 23.2119 6.70512 23.2585 6.99253 23.2402C7.43886 23.2499 7.88207 23.1594 8.29302 22.9748V21.879C8.10635 21.9603 7.91564 22.0308 7.72173 22.0903C7.53331 22.1496 7.33772 22.1793 7.14115 22.1787C6.47697 22.1787 6.14721 21.7168 6.14721 20.7977C6.12702 20.4305 6.21287 20.0654 6.39338 19.751C6.46607 19.6315 6.56669 19.5338 6.68548 19.4676C6.80428 19.4013 6.93723 19.3686 7.07149 19.3726H7.05755Z" fill="currentColor"/>
          <path d="M12.4734 22.1886C12.2417 22.1763 12.0123 22.1333 11.7906 22.0609C11.5392 21.9876 11.295 21.8888 11.0614 21.766V22.916C11.2652 23.0219 11.4804 23.1012 11.7024 23.1519C11.9559 23.2089 12.2142 23.2386 12.4734 23.2403C12.7927 23.2449 13.1093 23.1779 13.4023 23.0437C13.6538 22.9315 13.8686 22.7435 14.0201 22.5031C14.1648 22.2681 14.2393 21.9924 14.2337 21.7119C14.2446 21.424 14.1645 21.1405 14.0061 20.9059C13.7836 20.6423 13.505 20.4385 13.1934 20.3113C12.9341 20.197 12.6839 20.0606 12.4455 19.9034C12.4049 19.8766 12.3711 19.8398 12.3468 19.7961C12.3226 19.7525 12.3086 19.7033 12.3062 19.6528C12.3061 19.6091 12.3162 19.566 12.3357 19.5274C12.3551 19.4889 12.3833 19.4559 12.4176 19.4316C12.5201 19.3635 12.6407 19.3324 12.7614 19.3432C13.1434 19.3627 13.5171 19.4683 13.8575 19.6528L14.2337 18.6699C13.7831 18.4509 13.2943 18.3338 12.7985 18.3259C12.3542 18.2981 11.9141 18.4298 11.5491 18.6994C11.3978 18.8182 11.2764 18.9743 11.1955 19.1542C11.1144 19.3341 11.0764 19.5324 11.0846 19.7314C11.0791 19.9403 11.1154 20.148 11.1915 20.3408C11.2646 20.5207 11.3777 20.6791 11.5213 20.8028C11.7235 20.9722 11.947 21.1112 12.1854 21.2155C12.3913 21.3048 12.5915 21.4082 12.7846 21.5252C12.8484 21.5629 12.9052 21.6129 12.9518 21.6726C12.9736 21.706 12.9888 21.7437 12.9966 21.7835C13.0045 21.8232 13.0047 21.8641 12.9973 21.904C12.9899 21.9438 12.9751 21.9816 12.9538 22.0154C12.9324 22.049 12.9049 22.0779 12.8728 22.1002C12.7536 22.1791 12.6135 22.2153 12.4734 22.2034V22.1886Z" fill="currentColor"/>
          <path d="M18.2601 22.1888C18.03 22.176 17.8022 22.1331 17.582 22.0611C17.3308 21.9869 17.0867 21.8882 16.8528 21.7662V22.9162C17.0566 23.0222 17.2718 23.1013 17.4937 23.1521C17.7433 23.2015 17.9969 23.2245 18.2508 23.2208C18.5696 23.2251 18.8858 23.1599 19.1798 23.0292C19.4295 22.9161 19.6427 22.7282 19.7928 22.4886C19.9375 22.2536 20.012 21.9779 20.0065 21.6973C20.0173 21.4095 19.9372 21.1259 19.7789 20.8914C19.5578 20.6351 19.2824 20.4381 18.9754 20.3164C18.7166 20.2009 18.4666 20.0646 18.2275 19.9085C18.1876 19.8814 18.1544 19.8445 18.131 19.8008C18.1075 19.7571 18.0944 19.7081 18.0929 19.6579C18.0919 19.6145 18.1012 19.5716 18.1198 19.533C18.1384 19.4944 18.1659 19.4612 18.1997 19.4368C18.3036 19.3678 18.426 19.3368 18.5481 19.3483C18.93 19.3684 19.3036 19.4739 19.6442 19.6579L20.0157 18.675C19.5668 18.4562 19.0795 18.339 18.5852 18.331C18.1394 18.3025 17.6975 18.4341 17.3312 18.7045C17.1805 18.8238 17.0595 18.9801 16.9786 19.1598C16.8977 19.3396 16.8593 19.5376 16.8667 19.7365C16.8627 19.9452 16.8991 20.1526 16.9735 20.3459C17.0466 20.5258 17.1598 20.6843 17.3033 20.8079C17.5064 20.9761 17.7297 21.1149 17.9675 21.2207C18.1743 21.3114 18.3759 21.4148 18.5713 21.5303C18.6339 21.5679 18.6891 21.618 18.7338 21.6777C18.7672 21.7282 18.785 21.7882 18.7849 21.8498C18.7856 21.9 18.7744 21.9496 18.7526 21.9942C18.7307 22.0387 18.6987 22.077 18.6595 22.1052C18.5401 22.1835 18.4002 22.2196 18.2601 22.2085V22.1888Z" fill="currentColor"/>
          <path d="M26.0725 18.9699C25.6055 18.5502 25.0027 18.3388 24.3912 18.3801H22.8213V23.1717H24.2843C24.6031 23.1931 24.9226 23.1467 25.2242 23.0352C25.5257 22.9239 25.8031 22.7497 26.04 22.523C26.2589 22.2771 26.4276 21.9862 26.5355 21.6683C26.6433 21.3503 26.6882 21.0122 26.667 20.6752C26.6865 20.3627 26.6437 20.0493 26.5414 19.7555C26.4389 19.4617 26.2791 19.194 26.0725 18.9699ZM25.1436 21.771C25.0412 21.8904 24.9141 21.983 24.7723 22.0418C24.6306 22.1006 24.4779 22.124 24.3261 22.1102H24.0568V19.4269H24.4097C24.549 19.4173 24.6887 19.441 24.8181 19.4963C24.9476 19.5516 25.0636 19.6371 25.1575 19.7464C25.3471 20.0328 25.4344 20.3811 25.4037 20.7292C25.4269 21.0987 25.332 21.4655 25.1343 21.771H25.1436Z" fill="currentColor"/>
          <path d="M32.2129 18.3606H30.5873L29.101 23.1717H30.4433L30.6755 22.2773H32.1479L32.3708 23.1717H33.7084L32.2129 18.3606ZM30.931 21.2109C31.1168 20.464 31.2375 19.9578 31.2933 19.7022C31.3489 19.4466 31.3861 19.2648 31.4047 19.1517C31.4047 19.2697 31.4651 19.4712 31.5301 19.7465C31.5952 20.0216 31.6508 20.2378 31.6974 20.4246L31.8924 21.2109H30.931Z" fill="currentColor"/>
          <path d="M25.1577 14.9006L20.4806 10.0205L15.8964 14.9006H13.2769L23.0166 4.62451H12.7938L3.01693 14.9006H-0.680176L-0.262161 15.6181H39.3006V14.9006H25.1577Z" fill="currentColor"/>
          <path d="M-0.680176 26.6116H13.3605L17.9261 31.4375L22.5753 26.6116H25.0695L15.3901 36.8041H25.6129L30.7034 31.4719L35.3341 26.6116H39.3006V25.894H-0.680176V26.6116Z" fill="currentColor"/>
        </g>
      </g>
    </g>
    <defs>
      <clipPath id="clip0_501_4824">
        <rect width="40" height="40" fill="white"/>
      </clipPath>
      <clipPath id="clip1_501_4824">
        <rect width="40.9559" height="33.1548" fill="white" transform="translate(-0.955811 3.75)"/>
      </clipPath>
    </defs>
  </symbol>
  <symbol viewBox="0 0 18 18" fill="none"
    xmlns="http://www.w3.org/2000/svg" id="icon-corner-arr">
    <path d="M1.5 16.5L16.5 1.5M16.5 1.5V16.5M16.5 1.5H1.5" stroke="#191B1D" stroke-width="2"/>
  </symbol>

  <symbol viewBox="0 0 32 32" fill="none"
    xmlns="http://www.w3.org/2000/svg" id="icon-task">
    <path fill-rule="evenodd" clip-rule="evenodd" d="M16 32C24.8366 32 32 24.8366 32 16C32 7.16344 24.8366 0 16 0C7.16344 0 0 7.16344 0 16C0 24.8366 7.16344 32 16 32ZM14.7071 21.2071L24.2071 11.7071L22.7929 10.2929L14 19.0858L9.70711 14.7929L8.29289 16.2071L13.2929 21.2071L14 21.9142L14.7071 21.2071Z" fill="#FF4D01"/>
  </symbol>

  <svg viewBox="0 0 32 32" fill="none"
    xmlns="http://www.w3.org/2000/svg" id="icon-cross">
    <g opacity="0.2">
      <path fill-rule="evenodd" clip-rule="evenodd" d="M16 32C24.8366 32 32 24.8366 32 16C32 7.16344 24.8366 0 16 0C7.16344 0 0 7.16344 0 16C0 24.8366 7.16344 32 16 32ZM8.29289 9.70711L14.5858 16L8.29289 22.2929L9.70711 23.7071L16 17.4142L22.2929 23.7071L23.7071 22.2929L17.4142 16L23.7071 9.70711L22.2929 8.29289L16 14.5858L9.70711 8.29289L8.29289 9.70711Z" fill="white"/>
    </g>
  </svg>

  <svg xmlns="http://www.w3.org/2000/svg" id="icon-close" width="24" height="24" viewBox="0 0 24 24" fill="none">
    <path d="M16 16L12 12M12 12L8 8M12 12L16 8M12 12L8 16" stroke="#050505" stroke-width="2" stroke-linecap="round" stroke-linejoin="round"/>
  </svg>

  <svg xmlns="http://www.w3.org/2000/svg" id="icon-arrowVac" width="24" height="24" viewBox="0 0 24 24" fill="none">
    <path xmlns="http://www.w3.org/2000/svg" d="M18.3646 5.63672H11.2939M18.3646 5.63672L18.3643 12.7078M18.3646 5.63672L5.63672 18.3646" stroke="currentColor" stroke-linecap="round" stroke-linejoin="round"/>
  </svg>

  <svg fill="currentColor" id="icon-arrowGo" xmlns="http://www.w3.org/2000/svg"  width="30" height="30">
      <path d="M25 5V25M25 25H5M25 25L5 5" stroke="#E0FD60" stroke-width="1"/>
  </svg>

  <svg fill="none" id="icon-pdf" xmlns="http://www.w3.org/2000/svg"  width="46" height="46">
    <path d="M9 17H15M9 14H15M13.0004 3.00087C12.9048 3 12.7974 3 12.6747 3H8.2002C7.08009 3 6.51962 3 6.0918 3.21799C5.71547 3.40973 5.40973 3.71547 5.21799 4.0918C5 4.51962 5 5.08009 5 6.2002V17.8002C5 18.9203 5 19.4801 5.21799 19.9079C5.40973 20.2842 5.71547 20.5905 6.0918 20.7822C6.51921 21 7.079 21 8.19694 21L15.8031 21C16.921 21 17.48 21 17.9074 20.7822C18.2837 20.5905 18.5905 20.2842 18.7822 19.9079C19 19.4805 19 18.9215 19 17.8036V9.32568C19 9.20302 18.9999 9.09553 18.999 9M13.0004 3.00087C13.2858 3.00348 13.4657 3.01407 13.6382 3.05547C13.8423 3.10446 14.0379 3.18526 14.2168 3.29492C14.4186 3.41857 14.5918 3.59181 14.9375 3.9375L18.063 7.06298C18.4089 7.40889 18.5809 7.58136 18.7046 7.78319C18.8142 7.96214 18.8953 8.15726 18.9443 8.36133C18.9857 8.53379 18.9964 8.71454 18.999 9M13.0004 3.00087L13 5.80021C13 6.92031 13 7.48015 13.218 7.90797C13.4097 8.2843 13.7155 8.59048 14.0918 8.78223C14.5192 9 15.079 9 16.1969 9H18.999" stroke="white" stroke-linecap="round" stroke-linejoin="round"/>
  </svg>

  <svg xmlns="http://www.w3.org/2000/svg" id="icon-slider" width="40" height="40" viewBox="0 0 40 40" fill="none">
    <circle opacity="0.15" cx="20" cy="20" r="20" fill="#050505"/>
    <path d="M15 20H25M25 20L21 16M25 20L21 24" stroke="#050505" stroke-linecap="round" stroke-linejoin="round"/>
  </svg>

  <svg width="40" height="40" viewBox="0 0 40 40" id="icon-slider-black" fill="none" xmlns="http://www.w3.org/2000/svg">
    <circle cx="20" cy="20" r="20" fill="#050505"/>
    <path d="M15 20H25M25 20L21 16M25 20L21 24" stroke="white" stroke-linecap="round" stroke-linejoin="round"/>
  </svg>

  <svg width="40" height="40" id="icon-slider-white" viewBox="0 0 40 40" fill="none" xmlns="http://www.w3.org/2000/svg">
    <circle cx="20" cy="20" r="20" fill="white"/>
    <path d="M15 20H25M25 20L21 16M25 20L21 24" stroke="#050505" stroke-linecap="round" stroke-linejoin="round"/>
  </svg>


  <svg width="40" height="40" viewBox="0 0 40 40" id="icon-left-arrow" fill="none" xmlns="http://www.w3.org/2000/svg">
    <path d="M0.226036 3.8652C0.0307751 4.06046 0.0307751 4.37704 0.226036 4.5723L3.40802 7.75428C3.60328 7.94955 3.91986 7.94955 4.11512 7.75428C4.31039 7.55902 4.31039 7.24244 4.11512 7.04718L1.2867 4.21875L4.11512 1.39032C4.31039 1.19506 4.31039 0.878478 4.11512 0.683216C3.91986 0.487954 3.60328 0.487954 3.40802 0.683216L0.226036 3.8652ZM21.9844 3.71875L0.57959 3.71875V4.71875L21.9844 4.71875V3.71875Z" fill="#191B1D"/>
  </svg>

  <svg xmlns="http://www.w3.org/2000/svg" id="icon-arrowRight" width="24" height="25" viewBox="0 0 24 25" fill="none">
    <path d="M7 12.75H17M17 12.75L13 8.75M17 12.75L13 16.75" stroke="currentColor" stroke-linecap="round" stroke-linejoin="round"/>
  </svg>

  <svg fill="none" id="icon-delete" xmlns="http://www.w3.org/2000/svg"  width="24" height="24">
    <path xmlns="http://www.w3.org/2000/svg" d="M9 9L11.9999 11.9999M11.9999 11.9999L14.9999 14.9999M11.9999 11.9999L9 14.9999M11.9999 11.9999L14.9999 9M12 21C7.02944 21 3 16.9706 3 12C3 7.02944 7.02944 3 12 3C16.9706 3 21 7.02944 21 12C21 16.9706 16.9706 21 12 21Z" stroke="#E0FD60" stroke-linecap="round" stroke-linejoin="round"/>  </svg>

  <svg xmlns="http://www.w3.org/2000/svg" id="icon-cssAwards" width="40" height="40" viewBox="0 0 40 40" fill="none">
    <g clip-path="url(#clip0_2357_11146)">
      <g clip-path="url(#clip1_2357_11146)">
        <mask id="mask0_2357_11146" style="mask-type:luminance" maskUnits="userSpaceOnUse" x="-1" y="4" width="41" height="33">
          <path d="M39.3006 4.62463H-0.680176V36.8043H39.3006V4.62463Z" fill="white"/>
        </mask>
        <g mask="url(#mask0_2357_11146)">
          <path d="M7.05755 19.3727C7.2405 19.371 7.42248 19.4009 7.59633 19.4611C7.76927 19.5179 7.9384 19.5868 8.10259 19.6676L8.47416 18.6503C8.03965 18.428 7.56341 18.3121 7.08077 18.3112C6.67208 18.302 6.26833 18.4071 5.91033 18.6159C5.58059 18.8173 5.31531 19.1186 5.14862 19.4808C4.96694 19.8894 4.87637 20.3366 4.88388 20.7881C4.84041 21.4475 5.03644 22.0997 5.43194 22.6113C5.63502 22.8273 5.87919 22.995 6.14825 23.1036C6.41732 23.212 6.70512 23.2586 6.99253 23.2404C7.43886 23.25 7.88207 23.1595 8.29302 22.9749V21.8791C8.10635 21.9604 7.91564 22.0309 7.72173 22.0904C7.53331 22.1497 7.33772 22.1794 7.14115 22.1788C6.47697 22.1788 6.14721 21.7169 6.14721 20.7978C6.12702 20.4306 6.21287 20.0655 6.39338 19.7511C6.46607 19.6317 6.56669 19.534 6.68548 19.4677C6.80428 19.4014 6.93723 19.3687 7.07149 19.3727H7.05755Z" fill="white"/>
          <path d="M12.4735 22.1886C12.2418 22.1763 12.0124 22.1333 11.7907 22.0609C11.5393 21.9876 11.2952 21.8888 11.0615 21.766V22.916C11.2653 23.0219 11.4805 23.1012 11.7025 23.1519C11.956 23.2089 12.2143 23.2386 12.4735 23.2403C12.7928 23.2449 13.1094 23.1779 13.4024 23.0437C13.6539 22.9315 13.8688 22.7435 14.0202 22.5031C14.1649 22.2681 14.2394 21.9924 14.2338 21.7119C14.2447 21.424 14.1646 21.1405 14.0063 20.9059C13.7837 20.6423 13.5051 20.4385 13.1935 20.3113C12.9342 20.197 12.6841 20.0606 12.4456 19.9034C12.4051 19.8766 12.3712 19.8398 12.347 19.7961C12.3227 19.7525 12.3087 19.7033 12.3063 19.6528C12.3062 19.6091 12.3163 19.566 12.3358 19.5274C12.3552 19.4889 12.3834 19.4559 12.4177 19.4316C12.5202 19.3635 12.6409 19.3324 12.7615 19.3432C13.1435 19.3627 13.5172 19.4683 13.8576 19.6528L14.2338 18.6699C13.7832 18.4509 13.2944 18.3338 12.7986 18.3259C12.3544 18.2981 11.9142 18.4298 11.5492 18.6994C11.3979 18.8182 11.2765 18.9743 11.1956 19.1542C11.1146 19.3341 11.0765 19.5324 11.0847 19.7314C11.0792 19.9403 11.1155 20.148 11.1916 20.3408C11.2647 20.5207 11.3779 20.6791 11.5214 20.8028C11.7236 20.9722 11.9471 21.1112 12.1856 21.2155C12.3914 21.3048 12.5916 21.4082 12.7847 21.5252C12.8486 21.5629 12.9053 21.6129 12.9519 21.6726C12.9737 21.706 12.9889 21.7437 12.9967 21.7835C13.0046 21.8232 13.0048 21.8641 12.9975 21.904C12.9901 21.9438 12.9752 21.9816 12.9539 22.0154C12.9325 22.049 12.905 22.0779 12.8729 22.1002C12.7537 22.1791 12.6137 22.2153 12.4735 22.2034V22.1886Z" fill="white"/>
          <path d="M18.2599 22.1888C18.0297 22.176 17.8019 22.1331 17.5817 22.0611C17.3306 21.9869 17.0865 21.8882 16.8525 21.7662V22.9162C17.0563 23.0222 17.2716 23.1013 17.4935 23.1521C17.743 23.2015 17.9967 23.2245 18.2506 23.2208C18.5694 23.2251 18.8855 23.1599 19.1795 23.0292C19.4293 22.9161 19.6424 22.7282 19.7926 22.4886C19.9373 22.2536 20.0118 21.9779 20.0062 21.6973C20.0171 21.4095 19.937 21.1259 19.7786 20.8914C19.5576 20.6351 19.2822 20.4381 18.9751 20.3164C18.7163 20.2009 18.4664 20.0646 18.2273 19.9085C18.1873 19.8814 18.1542 19.8445 18.1308 19.8008C18.1073 19.7571 18.0942 19.7081 18.0926 19.6579C18.0917 19.6145 18.1009 19.5716 18.1195 19.533C18.1382 19.4944 18.1657 19.4612 18.1995 19.4368C18.3034 19.3678 18.4257 19.3368 18.5478 19.3483C18.9298 19.3684 19.3034 19.4739 19.644 19.6579L20.0155 18.675C19.5666 18.4562 19.0793 18.339 18.585 18.331C18.1391 18.3025 17.6973 18.4341 17.3309 18.7045C17.1803 18.8238 17.0593 18.9801 16.9783 19.1598C16.8975 19.3396 16.8591 19.5376 16.8665 19.7365C16.8625 19.9452 16.8989 20.1526 16.9733 20.3459C17.0464 20.5258 17.1595 20.6843 17.3031 20.8079C17.5062 20.9761 17.7295 21.1149 17.9672 21.2207C18.174 21.3114 18.3756 21.4148 18.571 21.5303C18.6336 21.5679 18.6888 21.618 18.7336 21.6777C18.7669 21.7282 18.7848 21.7882 18.7847 21.8498C18.7854 21.9 18.7742 21.9496 18.7523 21.9942C18.7305 22.0387 18.6985 22.077 18.6593 22.1052C18.5398 22.1835 18.4 22.2196 18.2599 22.2085V22.1888Z" fill="white"/>
          <path d="M26.0725 18.9699C25.6055 18.5502 25.0027 18.3388 24.3912 18.3801H22.8213V23.1717H24.2843C24.6031 23.1931 24.9226 23.1467 25.2242 23.0352C25.5257 22.9239 25.8031 22.7497 26.04 22.523C26.2589 22.2771 26.4276 21.9862 26.5355 21.6683C26.6433 21.3503 26.6882 21.0122 26.667 20.6752C26.6865 20.3627 26.6437 20.0493 26.5414 19.7555C26.4389 19.4617 26.2791 19.194 26.0725 18.9699ZM25.1436 21.771C25.0412 21.8904 24.9141 21.983 24.7723 22.0418C24.6306 22.1006 24.4779 22.124 24.3261 22.1102H24.0568V19.4269H24.4097C24.549 19.4173 24.6887 19.441 24.8181 19.4963C24.9476 19.5516 25.0636 19.6371 25.1575 19.7464C25.3471 20.0328 25.4344 20.3811 25.4037 20.7292C25.4269 21.0987 25.332 21.4655 25.1343 21.771H25.1436Z" fill="white"/>
          <path d="M32.213 18.3607H30.5874L29.1011 23.1719H30.4435L30.6756 22.2775H32.148L32.3709 23.1719H33.7085L32.213 18.3607ZM30.9311 21.2111C31.1169 20.4641 31.2376 19.9579 31.2934 19.7023C31.3491 19.4467 31.3862 19.265 31.4048 19.1518C31.4048 19.2698 31.4652 19.4713 31.5302 19.7466C31.5953 20.0218 31.651 20.238 31.6975 20.4247L31.8925 21.2111H30.9311Z" fill="white"/>
          <path d="M25.1577 14.9007L20.4806 10.0207L15.8964 14.9007H13.2769L23.0166 4.62463H12.7938L3.01693 14.9007H-0.680176L-0.262161 15.6182H39.3006V14.9007H25.1577Z" fill="white"/>
          <path d="M-0.680176 26.6118H13.3605L17.9261 31.4378L22.5753 26.6118H25.0695L15.3901 36.8043H25.6129L30.7034 31.4722L35.3341 26.6118H39.3006V25.8943H-0.680176V26.6118Z" fill="white"/>
        </g>
      </g>
    </g>
    <defs>
      <clipPath id="clip0_2357_11146">
        <rect width="40" height="40" fill="white"/>
      </clipPath>
      <clipPath id="clip1_2357_11146">
        <rect width="40.9559" height="33.1548" fill="white" transform="translate(-0.956055 3.75)"/>
      </clipPath>
    </defs>
  </svg>

  <svg xmlns="http://www.w3.org/2000/svg" id="icon-hh" width="48" height="49" viewBox="0 0 48 49" fill="none">
    <g clip-path="url(#clip0_2489_12212)">
      <path d="M25.0249 48.5C38.2799 48.5 49.0249 37.755 49.0249 24.5C49.0249 11.245 38.2799 0.5 25.0249 0.5C11.7699 0.5 1.0249 11.245 1.0249 24.5C1.0249 37.755 11.7699 48.5 25.0249 48.5Z" fill="white"/>
      <path d="M14.675 13.6689V21.8329C15.918 20.3509 17.408 19.6049 19.136 19.6049C20.026 19.6049 20.823 19.7749 21.538 20.1119C22.255 20.4469 22.791 20.8769 23.153 21.3989C23.517 21.9259 23.763 22.5029 23.896 23.1389C24.028 23.7719 24.094 24.7569 24.094 26.0929V34.8219H20.232V26.9599C20.232 25.3999 20.162 24.4119 20.015 23.9919C19.8772 23.5805 19.604 23.228 19.24 22.9919C18.868 22.7409 18.405 22.6169 17.846 22.6169C17.206 22.6169 16.632 22.7769 16.133 23.0949C15.623 23.4149 15.257 23.8929 15.025 24.5319C14.789 25.1719 14.671 26.1169 14.675 27.3679L14.671 34.8219H10.814V13.6689H14.676M29.882 13.6689V21.8329C31.126 20.3509 32.615 19.6049 34.342 19.6049C35.229 19.6049 36.032 19.7749 36.748 20.1119C37.462 20.4469 37.998 20.8769 38.358 21.3989C38.7213 21.9224 38.9741 22.5145 39.101 23.1389C39.234 23.7719 39.3 24.7569 39.3 26.0929V34.8219H35.442V26.9599C35.442 25.3999 35.369 24.4119 35.222 23.9919C35.0842 23.58 34.8101 23.2272 34.445 22.9919C34.077 22.7409 33.61 22.6169 33.051 22.6169C32.412 22.6169 31.838 22.7769 31.338 23.0949C30.835 23.4149 30.467 23.8929 30.232 24.5319C30 25.1719 29.882 26.1169 29.882 27.3679V34.8219H26.025V13.6689H29.882Z" fill="#D6001C"/>
    </g>
    <defs>
      <clipPath id="clip0_2489_12212">
        <rect width="48" height="49" fill="white" transform="translate(0 0.5)"/>
      </clipPath>
    </defs>
  </svg>

  <svg xmlns="http://www.w3.org/2000/svg" id="icon-greenBall" width="16" height="17" viewBox="0 0 16 17" fill="none">
    <circle opacity="0.1" cx="8" cy="8.5" r="8" fill="#10C12C"/>
    <circle opacity="0.2" cx="8" cy="8.5" r="6" fill="#10C12C"/>
    <circle cx="8" cy="8.5" r="4" fill="#10C12C"/>
  </svg>

  <svg xmlns="http://www.w3.org/2000/svg" id="icon-map" width="18" height="18" viewBox="0 0 18 18" fill="none">
    <path d="M3.75 7.44214C3.75 11.081 6.93336 14.0902 8.34239 15.2439C8.54405 15.409 8.64608 15.4926 8.79653 15.5349C8.91368 15.5679 9.0861 15.5679 9.20325 15.5349C9.35398 15.4925 9.4553 15.4098 9.65771 15.244C11.0668 14.0903 14.2499 11.0813 14.2499 7.44247C14.2499 6.06539 13.6968 4.74454 12.7123 3.77079C11.7277 2.79705 10.3924 2.25 9.00006 2.25C7.60767 2.25 6.27226 2.79713 5.28769 3.77087C4.30312 4.74462 3.75 6.06505 3.75 7.44214Z" stroke="currentColor" stroke-width="1.5" stroke-linecap="round" stroke-linejoin="round"/>
    <path d="M7.5 6.75C7.5 7.57843 8.17157 8.25 9 8.25C9.82843 8.25 10.5 7.57843 10.5 6.75C10.5 5.92157 9.82843 5.25 9 5.25C8.17157 5.25 7.5 5.92157 7.5 6.75Z" stroke="white" stroke-width="1.5" stroke-linecap="round" stroke-linejoin="round"/>
  </svg>

  <svg xmlns="http://www.w3.org/2000/svg" id="icon-telephone" width="18" height="18" viewBox="0 0 18 18" fill="none">
    <path d="M7.12685 3.19291C6.89905 2.62343 6.34749 2.25 5.73413 2.25H3.67105C2.88623 2.25 2.25 2.88607 2.25 3.6709C2.25 10.3419 7.65808 15.75 14.3291 15.75C15.1139 15.75 15.75 15.1137 15.75 14.3289L15.7503 12.2655C15.7503 11.6521 15.377 11.1006 14.8075 10.8728L12.8302 10.0822C12.3186 9.87758 11.7362 9.96967 11.313 10.3224L10.8026 10.748C10.2066 11.2447 9.32972 11.2052 8.78115 10.6566L7.34417 9.21829C6.79559 8.66972 6.75505 7.7935 7.25171 7.19751L7.67725 6.68722C8.02996 6.26397 8.12287 5.68137 7.91825 5.16982L7.12685 3.19291Z" stroke="currentColor" stroke-width="1.5" stroke-linecap="round" stroke-linejoin="round"/>
  </svg>

  <svg xmlns="http://www.w3.org/2000/svg" id="icon-mail" width="18" height="18" viewBox="0 0 18 18" fill="none">
    <path d="M3 4.5L7.58073 7.9592L7.58225 7.96047C8.09089 8.33346 8.34535 8.52007 8.62407 8.59216C8.87042 8.65588 9.12938 8.65588 9.37573 8.59216C9.6547 8.52001 9.9099 8.33285 10.4194 7.9592C10.4194 7.9592 13.3576 5.70445 15 4.5M2.25 11.8501V6.15015C2.25 5.31007 2.25 4.88972 2.41349 4.56885C2.5573 4.2866 2.7866 4.0573 3.06885 3.91349C3.38972 3.75 3.81007 3.75 4.65015 3.75H13.3501C14.1902 3.75 14.6097 3.75 14.9305 3.91349C15.2128 4.0573 15.4429 4.2866 15.5867 4.56885C15.75 4.8894 15.75 5.30925 15.75 6.14768V11.8527C15.75 12.6911 15.75 13.1104 15.5867 13.4309C15.4429 13.7132 15.2128 13.9429 14.9305 14.0867C14.61 14.25 14.1908 14.25 13.3523 14.25H4.64768C3.80925 14.25 3.3894 14.25 3.06885 14.0867C2.7866 13.9429 2.5573 13.7132 2.41349 13.4309C2.25 13.11 2.25 12.6902 2.25 11.8501Z" stroke="currentColor" stroke-width="1.5" stroke-linecap="round" stroke-linejoin="round"/>
  </svg>



  <svg xmlns="http://www.w3.org/2000/svg" id='icon-vacancies' width="17" height="16" viewBox="0 0 17 16" fill="none">
    <circle opacity="0.1" cx="8.9751" cy="8" r="8" fill="#C11010"/>
    <circle opacity="0.2" cx="8.9751" cy="8" r="6" fill="#C11010"/>
    <circle cx="8.9751" cy="8" r="4" fill="#C11010"/>
  </svg>

  <svg xmlns="http://www.w3.org/2000/svg" id="icon-rating" width="40" height="40" viewBox="0 0 40 40" fill="none">
    <path fill-rule="evenodd" clip-rule="evenodd" d="M18 1H14V3H13V19H11V17H8.00005V18H6.00005V23H8.00005V25H10V28H11V31H12V34H12.9999V39H14.9999H27.9999V37H14.9999V34H14V31H13V28H12V25H10V23H8.00005V19H11V21H13V23H15V3H16.9999V19H18.9999V11H22V19H24V13H26.9999V15H29.9999V17H31.9999V28H29.9999V33H28V39H30V33H31.9999V28H33.9999V17H31.9999V15H29.9999V13H26.9999V11H24H22.9999V9H18.9999V3H18V1Z" fill="white"/>
  </svg>

  <svg xmlns="http://www.w3.org/2000/svg" id="icon-awwwards" width="40" height="40" viewBox="0 0 40 40" fill="none">
    <g clip-path="url(#clip0_2357_11066)">
      <path d="M24.1016 10L20.7202 22.8903L17.5282 10H13.1721L9.97888 22.8903L6.5999 10H1.90479L7.95101 28.7768H12.0828L15.3495 16.631L18.6175 28.7768H22.7493L28.7943 10H24.0992H24.1016ZM31.7861 25.8709C31.7861 27.6593 33.1372 29 34.9407 29C36.7429 29 38.0953 27.6581 38.0953 25.8709C38.0953 24.0826 36.7441 22.7407 34.9407 22.7407C33.1372 22.7407 31.7861 24.0826 31.7861 25.8709Z" fill="white"/>
    </g>
    <defs>
      <clipPath id="clip0_2357_11066">
        <rect width="36.1905" height="19" fill="white" transform="translate(1.90479 10)"/>
      </clipPath>
    </defs>
  </svg>

  <svg xmlns="http://www.w3.org/2000/svg" id="icon-telegram"  width="24" height="24" viewBox="0 0 24 24" fill="none">
    <g clip-path="url(#clip0_2515_4021)">
      <path d="M12 24C18.6274 24 24 18.6274 24 12C24 5.37258 18.6274 0 12 0C5.37258 0 0 5.37258 0 12C0 18.6274 5.37258 24 12 24Z" fill="#039BE5"/>
      <path d="M5.49029 11.74L17.0603 7.27896C17.5973 7.08496 18.0663 7.40996 17.8923 8.22196L17.8933 8.22096L15.9233 17.502C15.7773 18.16 15.3863 18.32 14.8393 18.01L11.8393 15.799L10.3923 17.193C10.2323 17.353 10.0973 17.488 9.78729 17.488L10.0003 14.435L15.5603 9.41196C15.8023 9.19896 15.5063 9.07896 15.1873 9.29096L8.31629 13.617L5.35429 12.693C4.71129 12.489 4.69729 12.05 5.49029 11.74Z" fill="white"/>
    </g>
    <defs>
      <clipPath id="clip0_2515_4021">
        <rect width="24" height="24" fill="white"/>
      </clipPath>
    </defs>
  </svg>



<!--  <svg xmlns="http://www.w3.org/2000/svg" id="icon-pdf" width="24" height="24" viewBox="0 0 24 24" fill="none">-->
<!--    <path d="M4.998 9V1H19.5L23 4.5V23H4M18 1V6H23M16.5 19V12H20.5M16.5 15.5H19.5M3 12H4.5C6.5 12 6.75 13.25 6.75 14C6.75 14.75 6.5 16 4.5 16H3.25V18H3V12ZM9.5 18V12H11.205C12.342 12 13.5 12.5 13.5 15C13.5 17.5 12.342 18 11.205 18H9.5Z" stroke="currentColor"/>-->
<!--  </svg>-->

  <svg xmlns="http://www.w3.org/2000/svg" id="icon-arrowUp" viewBox="0 0 22 22" fill="none">
    <path d="M0.999999 1L21 0.999999M21 0.999999L21 21M21 0.999999L1 21" stroke="#121212" stroke-width="2"/>
  </svg>

  <svg xmlns="http://www.w3.org/2000/svg" id="icon-file"  fill="none">
    <path fill-rule="evenodd" clip-rule="evenodd" d="M20.4289 3.57108C19.5851 2.72757 18.4409 2.25371 17.2478 2.25371C16.0547 2.25371 14.9105 2.72757 14.0667 3.57108L3.56808 14.0697C2.74828 14.9181 2.29449 16.0546 2.30446 17.2343C2.31443 18.4141 2.78737 19.5427 3.6214 20.3771C4.45543 21.2116 5.58383 21.685 6.76357 21.6955C7.9433 21.7061 9.07997 21.2528 9.92877 20.4334H9.93027L10.6757 19.6835C10.8871 19.4778 11.1709 19.3634 11.4659 19.3649C11.7609 19.3665 12.0435 19.4839 12.2528 19.6918C12.4621 19.8997 12.5813 20.1815 12.5848 20.4765C12.5883 20.7715 12.4758 21.056 12.2715 21.2688L11.5246 22.0202L11.5216 22.0232C10.2558 23.2889 8.53917 24 6.74917 24C4.95918 24 3.2425 23.2889 1.97679 22.0232C0.711072 20.7575 0 19.0408 0 17.2508C0 15.4608 0.711072 13.7442 1.97679 12.4784L12.4754 1.97979C13.7404 0.713277 15.4566 0.00112641 17.2466 1.33508e-06C19.0366 -0.00112374 20.7537 0.708869 22.0202 1.97379C23.2867 3.23871 23.9989 4.95494 24 6.74493C24.0011 8.53493 23.2911 10.2521 22.0262 11.5186L16.8444 16.8474C16.4826 17.2289 16.048 17.5342 15.5663 17.745C15.0846 17.9559 14.5656 18.0681 14.0398 18.0751C13.5141 18.0821 12.9922 17.9837 12.5051 17.7857C12.018 17.5877 11.5755 17.2941 11.2036 16.9223C10.8318 16.5505 10.5383 16.108 10.3403 15.6209C10.1423 15.1338 10.0439 14.6119 10.0509 14.0861C10.0579 13.5604 10.1701 13.0413 10.381 12.5596C10.5918 12.078 10.897 11.6434 11.2786 11.2816L16.4529 6.10576C16.5566 5.99828 16.6807 5.91252 16.8179 5.85351C16.9551 5.79449 17.1027 5.76339 17.2521 5.76202C17.4014 5.76066 17.5496 5.78905 17.6878 5.84554C17.8261 5.90203 17.9517 5.9855 18.0574 6.09106C18.1631 6.19663 18.2467 6.32218 18.3033 6.4604C18.3599 6.59861 18.3884 6.74672 18.3872 6.89607C18.386 7.04543 18.355 7.19305 18.2961 7.33031C18.2372 7.46758 18.1516 7.59174 18.0442 7.69556L12.8699 12.8714C12.7128 13.0277 12.5881 13.2134 12.5028 13.4179C12.4174 13.6224 12.3732 13.8417 12.3727 14.0632C12.3721 14.2848 12.4152 14.5043 12.4995 14.7093C12.5838 14.9142 12.7076 15.1005 12.8639 15.2576C13.0202 15.4147 13.2059 15.5394 13.4104 15.6247C13.6149 15.71 13.8342 15.7542 14.0557 15.7548C14.2773 15.7553 14.4968 15.7122 14.7018 15.628C14.9067 15.5437 15.093 15.4199 15.2501 15.2636L20.4304 9.93477C21.2739 9.091 21.7478 7.94676 21.7478 6.75368C21.7478 5.56059 21.2739 4.41635 20.4304 3.57258L20.4289 3.57108Z" fill="currentColor"/>
  </svg>

  <svg xmlns="http://www.w3.org/2000/svg" id="icon-line" viewBox="0 0 32 2" fill="currentColor">
    <path d="M31.5 0.999512L0 0.999512" stroke="currentColor" stroke-width="2"/>
  </svg>


  <svg viewBox="0 0 70 70" fill="none" id="icon-roundArrow" xmlns="http://www.w3.org/2000/svg">
    <g filter="url(#filter0_b_525_1473)">
      <rect x="0.5" y="0.5" width="69" height="69" rx="34.5" stroke="white"/>
      <path d="M45 25V45M45 45H25M45 45L25 25" stroke="white" stroke-width="2"/>
    </g>
    <defs>
      <filter id="filter0_b_525_1473" x="-24" y="-24" width="118" height="118" filterUnits="userSpaceOnUse" color-interpolation-filters="sRGB">
        <feFlood flood-opacity="0" result="BackgroundImageFix"/>
        <feGaussianBlur in="BackgroundImageFix" stdDeviation="12"/>
        <feComposite in2="SourceAlpha" operator="in" result="effect1_backgroundBlur_525_1473"/>
        <feBlend mode="normal" in="SourceGraphic" in2="effect1_backgroundBlur_525_1473" result="shape"/>
      </filter>
    </defs>
  </svg>

  <svg viewBox="0 0 32 33" fill="none" id="icon-plus" xmlns="http://www.w3.org/2000/svg">
    <path id="Vector" d="M16 0.5V16.5M16 16.5H0M16 16.5V32.5M16 16.5H32" stroke="currentColor" stroke-width="2"/>
  </svg>

  <svg xmlns="http://www.w3.org/2000/svg" id="icon-logo" width="67" height="30" viewBox="0 0 67 30" fill="none">
    <path d="M15.37 0.330947V25.4164C15.3711 25.4736 15.3576 25.5301 15.3308 25.5804C15.3041 25.6306 15.265 25.6728 15.2176 25.7029C15.1701 25.7329 15.1158 25.7496 15.06 25.7515C15.0043 25.7534 14.9491 25.7403 14.8998 25.7136L10.2961 23.3461C10.2425 23.3191 10.1972 23.2772 10.1656 23.2252C10.1339 23.1732 10.117 23.1131 10.1168 23.0518V2.69698C10.117 2.63564 10.1339 2.57558 10.1656 2.52357C10.1972 2.47157 10.2425 2.4297 10.2961 2.40267L14.8983 0.0380927C14.9474 0.0114744 15.0024 -0.00159791 15.0579 0.000155854C15.1134 0.00190962 15.1675 0.0184293 15.2149 0.0480972C15.2623 0.0777651 15.3014 0.119564 15.3283 0.169401C15.3553 0.219237 15.3692 0.275403 15.3686 0.332397L15.37 0.330947ZM51.6372 9.32244V25.4193C51.637 25.4755 51.6228 25.5308 51.596 25.5798C51.5692 25.6288 51.5306 25.67 51.484 25.6995C51.4373 25.729 51.3841 25.7457 51.3294 25.7482C51.2747 25.7507 51.2202 25.7387 51.1712 25.7136L46.5619 23.3461C46.5085 23.3189 46.4636 23.2769 46.4322 23.2249C46.4008 23.1729 46.3841 23.113 46.384 23.0518V9.32244C46.384 9.23516 46.4178 9.15145 46.4779 9.08974C46.538 9.02802 46.6195 8.99334 46.7045 8.99334H51.3167C51.4017 8.99334 51.4832 9.02802 51.5434 9.08974C51.6035 9.15145 51.6372 9.23516 51.6372 9.32244ZM45.3291 24.8539L45.2387 24.9235C44.7078 25.3228 44.1064 25.6123 43.4679 25.7759C42.692 25.9818 41.8806 26.0025 41.0957 25.8365C40.3109 25.6706 39.5734 25.3224 38.94 24.8185C38.3065 24.3147 37.7938 23.6687 37.4411 22.93C37.0885 22.1912 36.9053 21.3794 36.9055 20.5567V9.36594C36.9055 9.2789 36.9391 9.19542 36.9989 9.13374C37.0587 9.07206 37.1399 9.03722 37.2247 9.03684L40.1818 9.08613H41.8283C41.8467 9.08429 41.8651 9.08429 41.8834 9.08613C41.9558 9.10116 42.0209 9.1414 42.0678 9.20005C42.1146 9.25869 42.1403 9.33215 42.1404 9.40798V13.2977C42.1388 13.3185 42.1388 13.3393 42.1404 13.3601V22.1268C42.1412 22.7899 42.3981 23.4255 42.8547 23.8944C43.3114 24.3632 43.9306 24.6269 44.5764 24.6277H45.2133C45.2339 24.6234 45.2552 24.6244 45.2754 24.6304C45.2956 24.6364 45.314 24.6474 45.3291 24.6624C45.3443 24.6774 45.3556 24.6959 45.3623 24.7163C45.3689 24.7368 45.3706 24.7586 45.3672 24.7799C45.3624 24.8076 45.349 24.8345 45.3291 24.8539ZM8.96019 11.0259C8.67282 10.9077 8.36601 10.8471 8.05641 10.8476H7.68924C7.36813 10.8476 7.05016 10.9126 6.75356 11.039C6.45696 11.1653 6.18755 11.3505 5.96075 11.5838C5.73395 11.8172 5.55421 12.0942 5.43184 12.399C5.30947 12.7038 5.24686 13.0304 5.24761 13.3601V22.1268C5.24948 22.7904 5.50754 23.4261 5.96524 23.8946C6.42293 24.3632 7.0429 24.6263 7.68924 24.6263H8.32613C8.3467 24.6237 8.36757 24.6263 8.38692 24.6339C8.40627 24.6415 8.42352 24.6538 8.43717 24.6699C8.45081 24.6859 8.46044 24.7051 8.46521 24.7258C8.46997 24.7465 8.46974 24.768 8.46452 24.7886C8.45796 24.8159 8.44312 24.8402 8.42216 24.8582L8.33319 24.9278C7.54962 25.5113 6.62419 25.861 5.65914 25.9384C4.6941 26.0157 3.727 25.8177 2.86472 25.3662C2.00243 24.9146 1.27852 24.2271 0.772969 23.3797C0.26742 22.5322 -8.92921e-05 21.5578 2.23576e-08 20.564V14.5706C2.23576e-08 11.587 2.3795 9.06873 5.28432 9.08468C6.0026 9.08945 6.71224 9.24584 7.36914 9.54413C8.02604 9.84242 8.61616 10.2762 9.10282 10.8186C9.12008 10.8409 9.12987 10.8683 9.13073 10.8967C9.13159 10.9251 9.12348 10.9531 9.1076 10.9764C9.09172 10.9997 9.06892 11.0171 9.04261 11.026C9.0163 11.035 8.98647 11.0349 8.96019 11.0259ZM66.4424 20.3262C66.4424 21.805 66.0512 23.0286 65.2675 23.997C65.1503 24.1362 65.0415 24.2653 64.9045 24.3957C63.9767 25.3236 62.7863 25.8223 61.3402 25.918C61.3361 25.9203 61.3315 25.9215 61.3268 25.9215C61.3221 25.9215 61.3175 25.9203 61.3134 25.918L61.1778 25.9281H60.6186C59.6878 25.8955 58.7616 25.7786 57.8508 25.5788L57.7209 25.5498C57.0485 25.3713 56.3897 25.1431 55.7495 24.8669C55.5177 24.7625 55.3196 24.5926 55.1783 24.3769C55.037 24.1613 54.9584 23.9089 54.9516 23.6491L54.8245 20.519C54.8236 20.4954 54.8273 20.4718 54.8354 20.4497C54.8436 20.4276 54.856 20.4074 54.872 20.3903C54.8879 20.3732 54.9071 20.3596 54.9283 20.3504C54.9495 20.3411 54.9723 20.3364 54.9954 20.3364C55.1253 20.3364 55.2439 20.4118 55.3032 20.5292C55.9431 21.7885 56.7804 22.9312 57.7816 23.9115C58.6289 24.7379 59.5129 25.2279 60.4364 25.383C60.6511 25.4193 60.8686 25.4381 61.086 25.4367C61.1948 25.4367 61.312 25.4367 61.4108 25.4222H61.4645C61.5034 25.4218 61.5421 25.4179 61.5803 25.4106C61.7822 25.3932 61.9828 25.3482 62.1734 25.2801C62.2553 25.2555 62.3344 25.2279 62.4121 25.1931C62.4728 25.1685 62.5335 25.1424 62.59 25.1119C62.9484 24.9268 63.2646 24.6659 63.5178 24.3464C63.5686 24.2885 63.6166 24.2276 63.659 24.1638C63.7028 24.0971 63.748 24.0333 63.7861 23.9695C63.9273 23.6303 63.9951 23.2649 63.988 22.8967C64.0063 22.5133 63.9287 22.1315 63.7626 21.7876C63.5965 21.4438 63.3474 21.1493 63.0391 20.9322C62.2051 20.387 61.2896 19.9859 60.3291 19.7449C59.4693 19.5151 58.6268 19.2215 57.8084 18.8663C57.3894 18.6673 56.9926 18.4223 56.625 18.1356C56.5191 18.0573 56.4132 17.966 56.3073 17.879C55.3512 17.0657 54.8725 15.8058 54.8725 14.0965C54.8697 13.5456 54.9544 12.9976 55.1239 12.4742C55.1465 12.4119 55.1691 12.3496 55.1959 12.2858C55.275 12.0741 55.3668 11.8682 55.4713 11.6667C55.4713 11.6551 55.4826 11.6421 55.4896 11.6276C55.7198 11.2187 56.0022 10.8418 56.327 10.5084C57.0201 9.8 57.9066 9.32472 58.8689 9.14557C59.3378 9.04989 59.8151 9.00349 60.2924 9.00639C60.5607 9.00639 60.8417 9.02089 61.1199 9.04699C61.7558 9.11093 62.3846 9.23517 62.9981 9.41813C63.7918 9.66459 64.5656 9.97774 65.3084 10.3532C65.312 10.3552 65.3149 10.3581 65.317 10.3617C65.319 10.3653 65.3199 10.3694 65.3197 10.3735L65.3861 12.2887L65.4369 13.8414C65.4377 13.8641 65.434 13.8867 65.426 13.9079C65.418 13.929 65.4059 13.9483 65.3905 13.9646C65.3751 13.9809 65.3566 13.9937 65.3362 14.0025C65.3157 14.0112 65.2938 14.0156 65.2717 14.0154C65.2126 14.0152 65.1546 13.9989 65.1037 13.9681C65.0528 13.9372 65.0109 13.893 64.9822 13.8399C64.5727 13.0832 64.1067 12.3612 63.5884 11.6798C63.3542 11.3722 63.1038 11.078 62.8385 10.7983L62.7764 10.736C61.9757 9.9125 61.1058 9.50221 60.1667 9.50221C59.2276 9.50221 58.4975 9.72403 57.9779 10.1691C57.7276 10.3877 57.5289 10.6618 57.3968 10.9707C57.2647 11.2796 57.2026 11.6152 57.2153 11.9523C57.2038 12.2978 57.2838 12.64 57.4467 12.9425C57.6096 13.245 57.8492 13.4965 58.1403 13.6703C58.8506 14.1079 59.6194 14.4366 60.4223 14.646L60.8742 14.7721C61.528 14.9548 61.9687 15.0853 62.2031 15.1636C62.4855 15.2564 62.8385 15.3839 63.258 15.5492C63.6181 15.6826 63.964 15.8566 64.2888 16.0653C64.5868 16.2698 64.8707 16.4974 65.1361 16.7467C65.4186 17.0033 65.6558 17.3107 65.8323 17.6543C66.2574 18.4763 66.4678 19.3969 66.4424 20.3277V20.3262ZM34.2831 17.6789V17.4905V17.2411V17.0613C34.2831 16.9338 34.269 16.8033 34.2563 16.6757L34.2422 16.5336L34.2295 16.4249C34.229 16.3543 34.2195 16.2841 34.2012 16.2161C34.2012 16.1465 34.1815 16.0769 34.1688 16.0102C34.1546 15.9436 34.1532 15.9204 34.1433 15.874L34.108 15.6884C34.0736 15.5218 34.0336 15.3564 33.988 15.1926L33.9343 15.0012L33.8708 14.804C33.8496 14.7402 33.8284 14.6765 33.8044 14.6127C33.7593 14.4839 33.7113 14.3563 33.6604 14.2299L33.5997 14.082C33.5675 14.0028 33.5312 13.9253 33.4909 13.8501C33.4528 13.7805 33.4034 13.6587 33.3525 13.5688C33.2233 13.3084 33.079 13.0562 32.9204 12.8135C32.8575 12.7159 32.7925 12.6197 32.7255 12.525L32.6281 12.3887L32.5674 12.3075C32.3722 12.0468 32.1618 11.7985 31.9375 11.5638L31.8147 11.4377C31.6708 11.2911 31.521 11.1508 31.3656 11.0172L31.3317 10.9868C31.242 10.9087 31.1516 10.8314 31.0606 10.7548L30.9052 10.633C30.7475 10.5127 30.5849 10.399 30.418 10.2923C30.363 10.2575 30.3065 10.2199 30.25 10.188L30.0805 10.0865C30.0236 10.0523 29.9657 10.0199 29.9068 9.98934C29.8489 9.96034 29.7925 9.927 29.7331 9.89655L29.5552 9.80667C29.496 9.77628 29.4357 9.74823 29.3745 9.72258L29.1937 9.64139C29.0707 9.5887 28.9464 9.53939 28.8209 9.49352L28.6331 9.42538L28.441 9.36304L28.249 9.30505C28.1199 9.26769 27.99 9.23385 27.8592 9.20356L27.701 9.16877L27.461 9.12237C27.3261 9.09689 27.1905 9.07609 27.0543 9.06003L26.8509 9.03394L26.5544 9.00784H25.6478C24.357 9.06497 23.0973 9.4314 21.9692 10.0778C20.8411 10.7242 19.876 11.6327 19.1511 12.7305C18.4262 13.8284 17.9616 15.0852 17.7945 16.4003C17.6273 17.7155 17.7623 19.0526 18.1886 20.3046C18.6148 21.5567 19.3206 22.6889 20.2494 23.6108C21.1782 24.5327 22.3042 25.2187 23.5374 25.6139C24.7707 26.0091 26.0769 26.1025 27.3516 25.8867C28.6263 25.6709 29.8341 25.1519 30.8784 24.3711L31.0097 24.2696C31.1157 24.1855 31.2216 24.1043 31.3204 24.0188C31.3543 23.9927 31.3868 23.9652 31.4193 23.9347L31.5012 23.8564L31.5266 23.8347C32.1272 23.2821 32.6471 22.6434 33.0701 21.9384C33.0743 21.9297 33.0772 21.9181 33.0701 21.9094C33.067 21.9057 33.0631 21.9027 33.0588 21.9007C33.0539 21.8984 33.0486 21.8974 33.0433 21.8978C33.0382 21.8985 33.0333 21.9005 33.0291 21.9036L33.0009 21.9253L32.7411 22.1689C32.2092 22.7169 31.5751 23.1492 30.8768 23.4399C30.1785 23.7306 29.4303 23.8737 28.6768 23.8608C27.7919 23.8615 26.9193 23.6474 26.1303 23.236C25.3412 22.8245 24.6581 22.2274 24.1367 21.4933C23.4288 20.5062 23.0477 19.3121 23.0494 18.0863V17.6804H34.2831V17.6789ZM25.8709 9.78347C26.616 9.78501 27.33 10.09 27.8563 10.6314C28.3827 11.1728 28.6783 11.9065 28.6783 12.6714V17.3484H23.0578V12.6714C23.0582 11.9056 23.3547 11.1713 23.8822 10.6298C24.4096 10.0882 25.1249 9.78386 25.8709 9.78347Z" fill="currentColor"/>
  </svg>

  <svg xmlns="http://www.w3.org/2000/svg" width="24" height="24" id="icon-dots" viewBox="0 0 24 24" fill="none">
    <path d="M14 15C14 15.5523 14.4477 16 15 16C15.5523 16 16 15.5523 16 15C16 14.4477 15.5523 14 15 14C14.4477 14 14 14.4477 14 15Z" stroke="#050505" stroke-width="2" stroke-linecap="round" stroke-linejoin="round"/>
    <path d="M8 15C8 15.5523 8.44772 16 9 16C9.55228 16 10 15.5523 10 15C10 14.4477 9.55228 14 9 14C8.44772 14 8 14.4477 8 15Z" stroke="#050505" stroke-width="2" stroke-linecap="round" stroke-linejoin="round"/>
    <path d="M14 9C14 9.55228 14.4477 10 15 10C15.5523 10 16 9.55228 16 9C16 8.44772 15.5523 8 15 8C14.4477 8 14 8.44772 14 9Z" stroke="#050505" stroke-width="2" stroke-linecap="round" stroke-linejoin="round"/>
    <path d="M8 9C8 9.55228 8.44772 10 9 10C9.55228 10 10 9.55228 10 9C10 8.44772 9.55228 8 9 8C8.44772 8 8 8.44772 8 9Z" stroke="#050505" stroke-width="2" stroke-linecap="round" stroke-linejoin="round"/>
  </svg>





</svg>