<svg width="0" height="0" class="hidden">
  <symbol id="icon-arr" viewBox="0 0 24 24" fill="none"
    xmlns="http://www.w3.org/2000/svg">
    <g id="ic:round-arrow-outward">
      <path id="Vector" d="M6.50015 7.58333C6.50015 8.17917 6.98765 8.66667 7.58348 8.66667H15.806L6.18598 18.2867C6.08569 18.387 6.00613 18.506 5.95185 18.6371C5.89757 18.7681 5.86963 18.9086 5.86963 19.0504C5.86963 19.1923 5.89757 19.3327 5.95185 19.4638C6.00613 19.5948 6.08569 19.7139 6.18598 19.8142C6.28628 19.9145 6.40535 19.994 6.5364 20.0483C6.66744 20.1026 6.80789 20.1305 6.94973 20.1305C7.09158 20.1305 7.23203 20.1026 7.36307 20.0483C7.49412 19.994 7.61319 19.9145 7.71348 19.8142L17.3335 10.1942V18.4167C17.3335 19.0125 17.821 19.5 18.4168 19.5C19.0127 19.5 19.5002 19.0125 19.5002 18.4167V7.58333C19.5002 6.9875 19.0127 6.5 18.4168 6.5H7.58348C6.98765 6.5 6.50015 6.9875 6.50015 7.58333Z" fill="black"/>
    </g>
  </symbol>
  <symbol id="icon-be" viewBox="0 0 24 24" fill="none"
    xmlns="http://www.w3.org/2000/svg">
    <path d="M16.8783 17.998C16.2622 18.0058 15.6502 17.8964 15.0743 17.6756C14.5583 17.4732 14.0921 17.1605 13.7078 16.7588C13.3293 16.3481 13.0371 15.8648 12.8485 15.3376C12.6414 14.7544 12.5388 14.1387 12.5456 13.5193C12.5412 12.9106 12.6468 12.3061 12.8571 11.7355C13.0531 11.2034 13.3549 10.7172 13.7439 10.3067C14.134 9.90134 14.6001 9.57801 15.1151 9.35547C15.6729 9.11764 16.2736 8.99935 16.8793 9.00809C17.5301 8.99407 18.1748 9.13851 18.7585 9.42917C19.2794 9.69848 19.7313 10.086 20.0783 10.5613C20.4285 11.0467 20.681 11.5964 20.8218 12.1795C20.9754 12.7995 21.0303 13.44 20.9842 14.0772H14.8777C14.8534 14.6825 15.0592 15.2744 15.4531 15.7319C15.8669 16.0977 16.4079 16.2828 16.9572 16.2467C17.3886 16.2569 17.8125 16.1322 18.1707 15.8898C18.4551 15.7148 18.6733 15.4491 18.7908 15.1347H20.837C20.605 16.0235 20.0716 16.8023 19.3291 17.3358C18.5942 17.7939 17.742 18.0242 16.8783 17.998ZM16.8129 10.7785C16.4938 10.7664 16.1765 10.8321 15.8879 10.9699C15.6624 11.0846 15.4621 11.2441 15.2993 11.4388C15.1561 11.6158 15.05 11.8203 14.9878 12.0399C14.9329 12.2227 14.8977 12.411 14.8825 12.6016H18.6635C18.6363 12.1053 18.4485 11.6317 18.1289 11.2532C17.7752 10.9167 17.2981 10.7446 16.8129 10.7785ZM7.66876 17.776H2V6.00028H7.50734C8.01752 5.99578 8.52676 6.0455 9.0266 6.14861C9.44997 6.23192 9.85335 6.397 10.2145 6.63476C10.5406 6.86294 10.8024 7.17259 10.9741 7.53337C11.1637 7.96797 11.2545 8.43978 11.24 8.9143C11.2606 9.43931 11.1225 9.95823 10.844 10.4024C10.5393 10.8264 10.1275 11.1605 9.6514 11.3699C10.2983 11.5329 10.867 11.9218 11.2561 12.4675C11.6176 13.0291 11.8004 13.6885 11.7802 14.3577C11.794 14.8928 11.6773 15.4232 11.4403 15.9022C11.2216 16.3271 10.9044 16.6925 10.5155 16.9673C10.1123 17.25 9.66206 17.4575 9.18613 17.5798C8.68929 17.7113 8.17769 17.7776 7.66402 17.777L7.66876 17.776ZM4.57325 12.5289V15.7731H7.31743C7.55996 15.7757 7.802 15.751 8.03908 15.6994C8.25612 15.6572 8.46267 15.5718 8.64679 15.4486C8.82409 15.3311 8.96806 15.1692 9.06459 14.9787C9.17654 14.7399 9.22932 14.4771 9.21841 14.2132C9.26443 13.7232 9.07612 13.2406 8.71136 12.9136C8.31781 12.6405 7.84586 12.5059 7.36871 12.5308L4.57325 12.5289ZM4.57325 8.00708V10.7584H7.17689C7.57966 10.7744 7.97672 10.6586 8.30875 10.4283C8.62174 10.1663 8.78655 9.76571 8.74933 9.35738C8.75736 9.123 8.70778 8.89026 8.605 8.67984C8.51219 8.50975 8.37534 8.3682 8.20904 8.27025C8.03394 8.16559 7.84054 8.09575 7.63933 8.0645C7.4202 8.0231 7.19757 8.00354 6.97465 8.00612L4.57325 8.00708ZM19.1401 7.95349H14.402V6.79075H19.1401V7.95349Z" fill="currentColor"/>
  </symbol>

  <symbol id="icon-tg" viewBox="0 0 24 24" fill="none"
    xmlns="http://www.w3.org/2000/svg">
    <g clip-path="url(#clip0_563_5626)">
      <path d="M4.16866 10.027C8.73205 8.05126 11.775 6.74874 13.2976 6.11944C17.6447 4.32264 18.5481 4.01051 19.1369 4.0001C19.2663 3.99794 19.5559 4.02983 19.7434 4.18107C19.9019 4.30876 19.9453 4.48126 19.9662 4.60232C19.9871 4.72339 20.0131 4.99919 19.9924 5.21469C19.7569 7.67438 18.7375 13.6434 18.2189 16.3982C17.9994 17.5639 17.5674 17.9548 17.1491 17.9931C16.2401 18.0762 15.5497 17.3961 14.6694 16.8225C13.2917 15.9252 12.5133 15.3664 11.176 14.4907C9.63044 13.4786 10.6323 12.9224 11.5131 12.0133C11.7436 11.7754 15.7489 8.15516 15.8264 7.82675C15.8361 7.78567 15.8451 7.63257 15.7536 7.55173C15.6621 7.47089 15.5269 7.49854 15.4294 7.52053C15.2912 7.55168 13.0903 8.9973 8.82662 11.8573C8.2019 12.2836 7.63603 12.4913 7.12904 12.4805C6.57012 12.4685 5.49498 12.1665 4.69572 11.9082C3.71541 11.5916 2.93628 11.4242 3.00412 10.8864C3.03945 10.6063 3.42764 10.3198 4.16866 10.027Z" fill="currentColor"/>
    </g>
    <defs>
      <clipPath id="clip0_563_5626">
        <rect width="24" height="24" fill="currentColor"/>
      </clipPath>
    </defs>
  </symbol>
  <symbol viewBox="0 0 24 24" fill="none"
    xmlns="http://www.w3.org/2000/svg" id="icon-vk">
    <path d="M12.4378 18C5.2629 18 1.17051 13.1201 1 5H4.59401C4.71206 10.96 7.3616 13.4844 9.46029 14.0049V5H12.8446V10.1401C14.917 9.91892 17.0942 7.57658 17.8287 5H21.2129C20.6489 8.17518 18.2878 10.5175 16.6088 11.4805C18.2878 12.2613 20.9769 14.3043 22 18H18.2747C17.4746 15.5276 15.481 13.6146 12.8446 13.3544V18H12.4378Z" fill="currentColor"/>
  </symbol>

  <symbol viewBox="0 0 16 10" fill="none"
    xmlns="http://www.w3.org/2000/svg" id="icon-arr-acc">
    <path d="M1.00012 1.5L7.99994 8.49982L14.9998 1.5" stroke="currentColor" stroke-width="2" stroke-linecap="round" stroke-linejoin="round"/>
  </symbol>
  <symbol viewBox="0 0 50 50" fill="none"
    xmlns="http://www.w3.org/2000/svg" id="icon-star">
    <path xmlns="http://www.w3.org/2000/svg" d="M25 0L28.2246 8.71444C30.4637 14.7654 35.2346 19.5363 41.2856 21.7754L50 25L41.2856 28.2246C35.2346 30.4637 30.4637 35.2346 28.2246 41.2856L25 50L21.7754 41.2856C19.5363 35.2346 14.7654 30.4637 8.71443 28.2246L0 25L8.71444 21.7754C14.7654 19.5363 19.5363 14.7654 21.7754 8.71443L25 0Z" fill="#050505"/>
  </symbol>

  <symbol viewBox="0 0 40 40" fill="none"
    xmlns="http://www.w3.org/2000/svg" id="icon-rating">
    <path fill-rule="evenodd" clip-rule="evenodd" d="M18 1H14V3H13V19H11V17H8V18H6V23H8V25H10V28H11V31H12V34H12.9998V39H14.9998H27.9998V37H14.9998V34H14V31H13V28H12V25H10V23H8V19H11V21H13V23H15V3H16.9998V19H18.9998V11H22V19H24V13H26.9998V15H29.9998V17H31.9998V28H29.9998V33H28V39H30V33H31.9998V28H33.9998V17H31.9998V15H29.9998V13H26.9998V11H24H22.9998V9H18.9998V3H18V1Z" fill="currentColor"/>
  </symbol>
  <symbol viewBox="0 0 40 40" fill="none"
    xmlns="http://www.w3.org/2000/svg" id="icon-w">
    <g clip-path="url(#clip0_244_2085)">
      <path d="M24.1016 10L20.7202 22.8903L17.5282 10H13.1721L9.97888 22.8903L6.5999 10H1.90479L7.95101 28.7768H12.0828L15.3495 16.631L18.6175 28.7768H22.7493L28.7943 10H24.0992H24.1016ZM31.7861 25.8709C31.7861 27.6593 33.1372 29 34.9407 29C36.7429 29 38.0953 27.6581 38.0953 25.8709C38.0953 24.0826 36.7441 22.7407 34.9407 22.7407C33.1372 22.7407 31.7861 24.0826 31.7861 25.8709Z" fill="currentColor"/>
    </g>
    <defs>
      <clipPath id="clip0_244_2085">
        <rect width="36.1905" height="19" fill="white" transform="translate(1.90479 10)"/>
      </clipPath>
    </defs>
  </symbol>

  <symbol viewBox="0 0 40 40" fill="none"
    xmlns="http://www.w3.org/2000/svg" id="icon-cssda">
    <g clip-path="url(#clip0_501_4824)">
      <g clip-path="url(#clip1_501_4824)">
        <mask id="mask0_501_4824" style="mask-type:luminance" maskUnits="userSpaceOnUse" x="-1" y="4" width="41" height="33">
          <path d="M39.3006 4.62451H-0.680176V36.8041H39.3006V4.62451Z" fill="white"/>
        </mask>
        <g mask="url(#mask0_501_4824)">
          <path d="M7.05755 19.3726C7.2405 19.3709 7.42248 19.4007 7.59633 19.461C7.76927 19.5177 7.9384 19.5867 8.10259 19.6674L8.47416 18.6502C8.03965 18.4278 7.56341 18.312 7.08077 18.3111C6.67208 18.3018 6.26833 18.407 5.91033 18.6157C5.58059 18.8172 5.31531 19.1184 5.14862 19.4807C4.96694 19.8893 4.87637 20.3365 4.88388 20.788C4.84041 21.4474 5.03644 22.0995 5.43194 22.6112C5.63502 22.8272 5.87919 22.9949 6.14825 23.1034C6.41732 23.2119 6.70512 23.2585 6.99253 23.2402C7.43886 23.2499 7.88207 23.1594 8.29302 22.9748V21.879C8.10635 21.9603 7.91564 22.0308 7.72173 22.0903C7.53331 22.1496 7.33772 22.1793 7.14115 22.1787C6.47697 22.1787 6.14721 21.7168 6.14721 20.7977C6.12702 20.4305 6.21287 20.0654 6.39338 19.751C6.46607 19.6315 6.56669 19.5338 6.68548 19.4676C6.80428 19.4013 6.93723 19.3686 7.07149 19.3726H7.05755Z" fill="currentColor"/>
          <path d="M12.4734 22.1886C12.2417 22.1763 12.0123 22.1333 11.7906 22.0609C11.5392 21.9876 11.295 21.8888 11.0614 21.766V22.916C11.2652 23.0219 11.4804 23.1012 11.7024 23.1519C11.9559 23.2089 12.2142 23.2386 12.4734 23.2403C12.7927 23.2449 13.1093 23.1779 13.4023 23.0437C13.6538 22.9315 13.8686 22.7435 14.0201 22.5031C14.1648 22.2681 14.2393 21.9924 14.2337 21.7119C14.2446 21.424 14.1645 21.1405 14.0061 20.9059C13.7836 20.6423 13.505 20.4385 13.1934 20.3113C12.9341 20.197 12.6839 20.0606 12.4455 19.9034C12.4049 19.8766 12.3711 19.8398 12.3468 19.7961C12.3226 19.7525 12.3086 19.7033 12.3062 19.6528C12.3061 19.6091 12.3162 19.566 12.3357 19.5274C12.3551 19.4889 12.3833 19.4559 12.4176 19.4316C12.5201 19.3635 12.6407 19.3324 12.7614 19.3432C13.1434 19.3627 13.5171 19.4683 13.8575 19.6528L14.2337 18.6699C13.7831 18.4509 13.2943 18.3338 12.7985 18.3259C12.3542 18.2981 11.9141 18.4298 11.5491 18.6994C11.3978 18.8182 11.2764 18.9743 11.1955 19.1542C11.1144 19.3341 11.0764 19.5324 11.0846 19.7314C11.0791 19.9403 11.1154 20.148 11.1915 20.3408C11.2646 20.5207 11.3777 20.6791 11.5213 20.8028C11.7235 20.9722 11.947 21.1112 12.1854 21.2155C12.3913 21.3048 12.5915 21.4082 12.7846 21.5252C12.8484 21.5629 12.9052 21.6129 12.9518 21.6726C12.9736 21.706 12.9888 21.7437 12.9966 21.7835C13.0045 21.8232 13.0047 21.8641 12.9973 21.904C12.9899 21.9438 12.9751 21.9816 12.9538 22.0154C12.9324 22.049 12.9049 22.0779 12.8728 22.1002C12.7536 22.1791 12.6135 22.2153 12.4734 22.2034V22.1886Z" fill="currentColor"/>
          <path d="M18.2601 22.1888C18.03 22.176 17.8022 22.1331 17.582 22.0611C17.3308 21.9869 17.0867 21.8882 16.8528 21.7662V22.9162C17.0566 23.0222 17.2718 23.1013 17.4937 23.1521C17.7433 23.2015 17.9969 23.2245 18.2508 23.2208C18.5696 23.2251 18.8858 23.1599 19.1798 23.0292C19.4295 22.9161 19.6427 22.7282 19.7928 22.4886C19.9375 22.2536 20.012 21.9779 20.0065 21.6973C20.0173 21.4095 19.9372 21.1259 19.7789 20.8914C19.5578 20.6351 19.2824 20.4381 18.9754 20.3164C18.7166 20.2009 18.4666 20.0646 18.2275 19.9085C18.1876 19.8814 18.1544 19.8445 18.131 19.8008C18.1075 19.7571 18.0944 19.7081 18.0929 19.6579C18.0919 19.6145 18.1012 19.5716 18.1198 19.533C18.1384 19.4944 18.1659 19.4612 18.1997 19.4368C18.3036 19.3678 18.426 19.3368 18.5481 19.3483C18.93 19.3684 19.3036 19.4739 19.6442 19.6579L20.0157 18.675C19.5668 18.4562 19.0795 18.339 18.5852 18.331C18.1394 18.3025 17.6975 18.4341 17.3312 18.7045C17.1805 18.8238 17.0595 18.9801 16.9786 19.1598C16.8977 19.3396 16.8593 19.5376 16.8667 19.7365C16.8627 19.9452 16.8991 20.1526 16.9735 20.3459C17.0466 20.5258 17.1598 20.6843 17.3033 20.8079C17.5064 20.9761 17.7297 21.1149 17.9675 21.2207C18.1743 21.3114 18.3759 21.4148 18.5713 21.5303C18.6339 21.5679 18.6891 21.618 18.7338 21.6777C18.7672 21.7282 18.785 21.7882 18.7849 21.8498C18.7856 21.9 18.7744 21.9496 18.7526 21.9942C18.7307 22.0387 18.6987 22.077 18.6595 22.1052C18.5401 22.1835 18.4002 22.2196 18.2601 22.2085V22.1888Z" fill="currentColor"/>
          <path d="M26.0725 18.9699C25.6055 18.5502 25.0027 18.3388 24.3912 18.3801H22.8213V23.1717H24.2843C24.6031 23.1931 24.9226 23.1467 25.2242 23.0352C25.5257 22.9239 25.8031 22.7497 26.04 22.523C26.2589 22.2771 26.4276 21.9862 26.5355 21.6683C26.6433 21.3503 26.6882 21.0122 26.667 20.6752C26.6865 20.3627 26.6437 20.0493 26.5414 19.7555C26.4389 19.4617 26.2791 19.194 26.0725 18.9699ZM25.1436 21.771C25.0412 21.8904 24.9141 21.983 24.7723 22.0418C24.6306 22.1006 24.4779 22.124 24.3261 22.1102H24.0568V19.4269H24.4097C24.549 19.4173 24.6887 19.441 24.8181 19.4963C24.9476 19.5516 25.0636 19.6371 25.1575 19.7464C25.3471 20.0328 25.4344 20.3811 25.4037 20.7292C25.4269 21.0987 25.332 21.4655 25.1343 21.771H25.1436Z" fill="currentColor"/>
          <path d="M32.2129 18.3606H30.5873L29.101 23.1717H30.4433L30.6755 22.2773H32.1479L32.3708 23.1717H33.7084L32.2129 18.3606ZM30.931 21.2109C31.1168 20.464 31.2375 19.9578 31.2933 19.7022C31.3489 19.4466 31.3861 19.2648 31.4047 19.1517C31.4047 19.2697 31.4651 19.4712 31.5301 19.7465C31.5952 20.0216 31.6508 20.2378 31.6974 20.4246L31.8924 21.2109H30.931Z" fill="currentColor"/>
          <path d="M25.1577 14.9006L20.4806 10.0205L15.8964 14.9006H13.2769L23.0166 4.62451H12.7938L3.01693 14.9006H-0.680176L-0.262161 15.6181H39.3006V14.9006H25.1577Z" fill="currentColor"/>
          <path d="M-0.680176 26.6116H13.3605L17.9261 31.4375L22.5753 26.6116H25.0695L15.3901 36.8041H25.6129L30.7034 31.4719L35.3341 26.6116H39.3006V25.894H-0.680176V26.6116Z" fill="currentColor"/>
        </g>
      </g>
    </g>
    <defs>
      <clipPath id="clip0_501_4824">
        <rect width="40" height="40" fill="white"/>
      </clipPath>
      <clipPath id="clip1_501_4824">
        <rect width="40.9559" height="33.1548" fill="white" transform="translate(-0.955811 3.75)"/>
      </clipPath>
    </defs>
  </symbol>
  <symbol viewBox="0 0 18 18" fill="none"
    xmlns="http://www.w3.org/2000/svg" id="icon-corner-arr">
    <path d="M1.5 16.5L16.5 1.5M16.5 1.5V16.5M16.5 1.5H1.5" stroke="#191B1D" stroke-width="2"/>
  </symbol>

  <symbol viewBox="0 0 32 32" fill="none"
    xmlns="http://www.w3.org/2000/svg" id="icon-task">
    <path fill-rule="evenodd" clip-rule="evenodd" d="M16 32C24.8366 32 32 24.8366 32 16C32 7.16344 24.8366 0 16 0C7.16344 0 0 7.16344 0 16C0 24.8366 7.16344 32 16 32ZM14.7071 21.2071L24.2071 11.7071L22.7929 10.2929L14 19.0858L9.70711 14.7929L8.29289 16.2071L13.2929 21.2071L14 21.9142L14.7071 21.2071Z" fill="#FF4D01"/>
  </symbol>

  <svg viewBox="0 0 32 32" fill="none"
    xmlns="http://www.w3.org/2000/svg" id="icon-cross">
    <g opacity="0.2">
      <path fill-rule="evenodd" clip-rule="evenodd" d="M16 32C24.8366 32 32 24.8366 32 16C32 7.16344 24.8366 0 16 0C7.16344 0 0 7.16344 0 16C0 24.8366 7.16344 32 16 32ZM8.29289 9.70711L14.5858 16L8.29289 22.2929L9.70711 23.7071L16 17.4142L22.2929 23.7071L23.7071 22.2929L17.4142 16L23.7071 9.70711L22.2929 8.29289L16 14.5858L9.70711 8.29289L8.29289 9.70711Z" fill="white"/>
    </g>
  </svg>

  <svg fill="currentColor" id="icon-arrowGo" xmlns="http://www.w3.org/2000/svg"  width="46" height="46">
      <path d="M25 5V25M25 25H5M25 25L5 5" stroke="#E0FD60" stroke-width="2"/>
  </svg>

  <svg fill="none" id="icon-pdf" xmlns="http://www.w3.org/2000/svg"  width="46" height="46">
    <path d="M9 17H15M9 14H15M13.0004 3.00087C12.9048 3 12.7974 3 12.6747 3H8.2002C7.08009 3 6.51962 3 6.0918 3.21799C5.71547 3.40973 5.40973 3.71547 5.21799 4.0918C5 4.51962 5 5.08009 5 6.2002V17.8002C5 18.9203 5 19.4801 5.21799 19.9079C5.40973 20.2842 5.71547 20.5905 6.0918 20.7822C6.51921 21 7.079 21 8.19694 21L15.8031 21C16.921 21 17.48 21 17.9074 20.7822C18.2837 20.5905 18.5905 20.2842 18.7822 19.9079C19 19.4805 19 18.9215 19 17.8036V9.32568C19 9.20302 18.9999 9.09553 18.999 9M13.0004 3.00087C13.2858 3.00348 13.4657 3.01407 13.6382 3.05547C13.8423 3.10446 14.0379 3.18526 14.2168 3.29492C14.4186 3.41857 14.5918 3.59181 14.9375 3.9375L18.063 7.06298C18.4089 7.40889 18.5809 7.58136 18.7046 7.78319C18.8142 7.96214 18.8953 8.15726 18.9443 8.36133C18.9857 8.53379 18.9964 8.71454 18.999 9M13.0004 3.00087L13 5.80021C13 6.92031 13 7.48015 13.218 7.90797C13.4097 8.2843 13.7155 8.59048 14.0918 8.78223C14.5192 9 15.079 9 16.1969 9H18.999" stroke="white" stroke-linecap="round" stroke-linejoin="round"/>
  </svg>

  <svg xmlns="http://www.w3.org/2000/svg" id="icon-slider" width="40" height="40" viewBox="0 0 40 40" fill="none">
    <circle opacity="0.15" cx="20" cy="20" r="20" fill="#050505"/>
    <path d="M15 20H25M25 20L21 16M25 20L21 24" stroke="#050505" stroke-linecap="round" stroke-linejoin="round"/>
  </svg>

  <svg fill="none" id="icon-delete" xmlns="http://www.w3.org/2000/svg"  width="24" height="24">
    <path xmlns="http://www.w3.org/2000/svg" d="M9 9L11.9999 11.9999M11.9999 11.9999L14.9999 14.9999M11.9999 11.9999L9 14.9999M11.9999 11.9999L14.9999 9M12 21C7.02944 21 3 16.9706 3 12C3 7.02944 7.02944 3 12 3C16.9706 3 21 7.02944 21 12C21 16.9706 16.9706 21 12 21Z" stroke="#E0FD60" stroke-linecap="round" stroke-linejoin="round"/>  </svg>

  <svg xmlns="http://www.w3.org/2000/svg" id="icon-cssAwards" width="40" height="40" viewBox="0 0 40 40" fill="none">
    <g clip-path="url(#clip0_3311_5951)">
      <g clip-path="url(#clip1_3311_5951)">
        <mask id="mask0_3311_5951" style="mask-type:luminance" maskUnits="userSpaceOnUse" x="-1" y="4" width="41" height="33">
          <path d="M39.3011 4.62463H-0.679688V36.8043H39.3011V4.62463Z" fill="white"/>
        </mask>
        <g mask="url(#mask0_3311_5951)">
          <path d="M7.05853 19.3727C7.24148 19.371 7.42346 19.4009 7.5973 19.4611C7.77025 19.5179 7.93937 19.5868 8.10357 19.6676L8.47514 18.6503C8.04062 18.428 7.56438 18.3121 7.08175 18.3112C6.67306 18.302 6.26931 18.4071 5.91131 18.6159C5.58156 18.8173 5.31629 19.1186 5.1496 19.4808C4.96792 19.8894 4.87735 20.3366 4.88485 20.7881C4.84138 21.4475 5.03742 22.0997 5.43291 22.6113C5.636 22.8273 5.88017 22.995 6.14923 23.1036C6.4183 23.212 6.70609 23.2586 6.99351 23.2404C7.43984 23.25 7.88305 23.1595 8.29399 22.9749V21.8791C8.10732 21.9604 7.91661 22.0309 7.72271 22.0904C7.53429 22.1497 7.3387 22.1794 7.14213 22.1788C6.47795 22.1788 6.14819 21.7169 6.14819 20.7978C6.12799 20.4306 6.21384 20.0655 6.39435 19.7511C6.46705 19.6317 6.56766 19.534 6.68646 19.4677C6.80526 19.4014 6.93821 19.3687 7.07246 19.3727H7.05853Z" fill="white"/>
          <path d="M12.4745 22.1886C12.2428 22.1763 12.0134 22.1333 11.7917 22.0609C11.5403 21.9876 11.2961 21.8888 11.0625 21.766V22.916C11.2663 23.0219 11.4815 23.1012 11.7035 23.1519C11.957 23.2089 12.2153 23.2386 12.4745 23.2403C12.7938 23.2449 13.1104 23.1779 13.4034 23.0437C13.6549 22.9315 13.8697 22.7435 14.0212 22.5031C14.1659 22.2681 14.2404 21.9924 14.2348 21.7119C14.2456 21.424 14.1656 21.1405 14.0072 20.9059C13.7847 20.6423 13.5061 20.4385 13.1944 20.3113C12.9352 20.197 12.685 20.0606 12.4466 19.9034C12.406 19.8766 12.3722 19.8398 12.3479 19.7961C12.3236 19.7525 12.3097 19.7033 12.3073 19.6528C12.3072 19.6091 12.3173 19.566 12.3368 19.5274C12.3562 19.4889 12.3844 19.4559 12.4187 19.4316C12.5212 19.3635 12.6418 19.3324 12.7625 19.3432C13.1445 19.3627 13.5182 19.4683 13.8586 19.6528L14.2348 18.6699C13.7842 18.4509 13.2954 18.3338 12.7996 18.3259C12.3553 18.2981 11.9152 18.4298 11.5502 18.6994C11.3989 18.8182 11.2775 18.9743 11.1966 19.1542C11.1155 19.3341 11.0775 19.5324 11.0857 19.7314C11.0801 19.9403 11.1165 20.148 11.1926 20.3408C11.2657 20.5207 11.3788 20.6791 11.5224 20.8028C11.7246 20.9722 11.9481 21.1112 12.1865 21.2155C12.3924 21.3048 12.5926 21.4082 12.7857 21.5252C12.8495 21.5629 12.9063 21.6129 12.9529 21.6726C12.9747 21.706 12.9899 21.7437 12.9977 21.7835C13.0056 21.8232 13.0058 21.8641 12.9984 21.904C12.991 21.9438 12.9762 21.9816 12.9549 22.0154C12.9335 22.049 12.906 22.0779 12.8739 22.1002C12.7547 22.1791 12.6146 22.2153 12.4745 22.2034V22.1886Z" fill="white"/>
          <path d="M18.2608 22.1888C18.0307 22.176 17.8029 22.1331 17.5827 22.0611C17.3315 21.9869 17.0875 21.8882 16.8535 21.7662V22.9162C17.0573 23.0222 17.2725 23.1013 17.4945 23.1521C17.744 23.2015 17.9976 23.2245 18.2516 23.2208C18.5703 23.2251 18.8865 23.1599 19.1805 23.0292C19.4302 22.9161 19.6434 22.7282 19.7936 22.4886C19.9383 22.2536 20.0128 21.9779 20.0072 21.6973C20.018 21.4095 19.938 21.1259 19.7796 20.8914C19.5586 20.6351 19.2832 20.4381 18.9761 20.3164C18.7173 20.2009 18.4674 20.0646 18.2283 19.9085C18.1883 19.8814 18.1551 19.8445 18.1317 19.8008C18.1082 19.7571 18.0952 19.7081 18.0936 19.6579C18.0926 19.6145 18.1019 19.5716 18.1205 19.533C18.1391 19.4944 18.1666 19.4612 18.2005 19.4368C18.3043 19.3678 18.4267 19.3368 18.5488 19.3483C18.9308 19.3684 19.3043 19.4739 19.645 19.6579L20.0165 18.675C19.5675 18.4562 19.0803 18.339 18.586 18.331C18.1401 18.3025 17.6983 18.4341 17.3319 18.7045C17.1813 18.8238 17.0602 18.9801 16.9793 19.1598C16.8985 19.3396 16.8601 19.5376 16.8675 19.7365C16.8635 19.9452 16.8998 20.1526 16.9742 20.3459C17.0474 20.5258 17.1605 20.6843 17.304 20.8079C17.5072 20.9761 17.7305 21.1149 17.9682 21.2207C18.175 21.3114 18.3766 21.4148 18.572 21.5303C18.6346 21.5679 18.6898 21.618 18.7346 21.6777C18.7679 21.7282 18.7858 21.7882 18.7857 21.8498C18.7863 21.9 18.7751 21.9496 18.7533 21.9942C18.7314 22.0387 18.6995 22.077 18.6603 22.1052C18.5408 22.1835 18.401 22.2196 18.2608 22.2085V22.1888Z" fill="white"/>
          <path d="M26.0735 18.9699C25.6065 18.5502 25.0037 18.3388 24.3921 18.3801H22.8223V23.1717H24.2853C24.604 23.1931 24.9236 23.1467 25.2252 23.0352C25.5267 22.9239 25.804 22.7497 26.041 22.523C26.2599 22.2771 26.4286 21.9862 26.5365 21.6683C26.6443 21.3503 26.6892 21.0122 26.668 20.6752C26.6875 20.3627 26.6447 20.0493 26.5423 19.7555C26.4398 19.4617 26.2801 19.194 26.0735 18.9699ZM25.1446 21.771C25.0422 21.8904 24.9151 21.983 24.7733 22.0418C24.6315 22.1006 24.4788 22.124 24.3271 22.1102H24.0578V19.4269H24.4107C24.55 19.4173 24.6897 19.441 24.8191 19.4963C24.9486 19.5516 25.0646 19.6371 25.1585 19.7464C25.3481 20.0328 25.4353 20.3811 25.4046 20.7292C25.4278 21.0987 25.333 21.4655 25.1353 21.771H25.1446Z" fill="white"/>
          <path d="M32.2135 18.3607H30.5879L29.1016 23.1719H30.4439L30.6761 22.2775H32.1485L32.3714 23.1719H33.709L32.2135 18.3607ZM30.9316 21.2111C31.1174 20.4641 31.2381 19.9579 31.2939 19.7023C31.3496 19.4467 31.3867 19.265 31.4053 19.1518C31.4053 19.2698 31.4657 19.4713 31.5307 19.7466C31.5958 20.0218 31.6515 20.238 31.698 20.4247L31.893 21.2111H30.9316Z" fill="white"/>
          <path d="M25.1582 14.9007L20.4811 10.0207L15.8969 14.9007H13.2774L23.0171 4.62463H12.7943L3.01741 14.9007H-0.679688L-0.261673 15.6182H39.301V14.9007H25.1582Z" fill="white"/>
          <path d="M-0.679688 26.6118H13.361L17.9266 31.4378L22.5758 26.6118H25.0699L15.3906 36.8043H25.6134L30.7039 31.4722L35.3346 26.6118H39.301V25.8943H-0.679688V26.6118Z" fill="white"/>
        </g>
      </g>
    </g>
    <defs>
      <clipPath id="clip0_3311_5951">
        <rect width="40" height="40" fill="white"/>
      </clipPath>
      <clipPath id="clip1_3311_5951">
        <rect width="40.9559" height="33.1548" fill="white" transform="translate(-0.955078 3.75)"/>
      </clipPath>
    </defs>
  </svg>

  <svg xmlns="http://www.w3.org/2000/svg" id="icon-telegram"  width="24" height="24" viewBox="0 0 24 24" fill="none">
    <g clip-path="url(#clip0_2515_4021)">
      <path d="M12 24C18.6274 24 24 18.6274 24 12C24 5.37258 18.6274 0 12 0C5.37258 0 0 5.37258 0 12C0 18.6274 5.37258 24 12 24Z" fill="#039BE5"/>
      <path d="M5.49029 11.74L17.0603 7.27896C17.5973 7.08496 18.0663 7.40996 17.8923 8.22196L17.8933 8.22096L15.9233 17.502C15.7773 18.16 15.3863 18.32 14.8393 18.01L11.8393 15.799L10.3923 17.193C10.2323 17.353 10.0973 17.488 9.78729 17.488L10.0003 14.435L15.5603 9.41196C15.8023 9.19896 15.5063 9.07896 15.1873 9.29096L8.31629 13.617L5.35429 12.693C4.71129 12.489 4.69729 12.05 5.49029 11.74Z" fill="white"/>
    </g>
    <defs>
      <clipPath id="clip0_2515_4021">
        <rect width="24" height="24" fill="white"/>
      </clipPath>
    </defs>
  </svg>



<!--  <svg xmlns="http://www.w3.org/2000/svg" id="icon-pdf" width="24" height="24" viewBox="0 0 24 24" fill="none">-->
<!--    <path d="M4.998 9V1H19.5L23 4.5V23H4M18 1V6H23M16.5 19V12H20.5M16.5 15.5H19.5M3 12H4.5C6.5 12 6.75 13.25 6.75 14C6.75 14.75 6.5 16 4.5 16H3.25V18H3V12ZM9.5 18V12H11.205C12.342 12 13.5 12.5 13.5 15C13.5 17.5 12.342 18 11.205 18H9.5Z" stroke="currentColor"/>-->
<!--  </svg>-->

  <svg xmlns="http://www.w3.org/2000/svg" id="icon-arrowUp" viewBox="0 0 22 22" fill="none">
    <path d="M0.999999 1L21 0.999999M21 0.999999L21 21M21 0.999999L1 21" stroke="#121212" stroke-width="2"/>
  </svg>

  <svg xmlns="http://www.w3.org/2000/svg" id="icon-file"  fill="none">
    <path fill-rule="evenodd" clip-rule="evenodd" d="M20.4289 3.57108C19.5851 2.72757 18.4409 2.25371 17.2478 2.25371C16.0547 2.25371 14.9105 2.72757 14.0667 3.57108L3.56808 14.0697C2.74828 14.9181 2.29449 16.0546 2.30446 17.2343C2.31443 18.4141 2.78737 19.5427 3.6214 20.3771C4.45543 21.2116 5.58383 21.685 6.76357 21.6955C7.9433 21.7061 9.07997 21.2528 9.92877 20.4334H9.93027L10.6757 19.6835C10.8871 19.4778 11.1709 19.3634 11.4659 19.3649C11.7609 19.3665 12.0435 19.4839 12.2528 19.6918C12.4621 19.8997 12.5813 20.1815 12.5848 20.4765C12.5883 20.7715 12.4758 21.056 12.2715 21.2688L11.5246 22.0202L11.5216 22.0232C10.2558 23.2889 8.53917 24 6.74917 24C4.95918 24 3.2425 23.2889 1.97679 22.0232C0.711072 20.7575 0 19.0408 0 17.2508C0 15.4608 0.711072 13.7442 1.97679 12.4784L12.4754 1.97979C13.7404 0.713277 15.4566 0.00112641 17.2466 1.33508e-06C19.0366 -0.00112374 20.7537 0.708869 22.0202 1.97379C23.2867 3.23871 23.9989 4.95494 24 6.74493C24.0011 8.53493 23.2911 10.2521 22.0262 11.5186L16.8444 16.8474C16.4826 17.2289 16.048 17.5342 15.5663 17.745C15.0846 17.9559 14.5656 18.0681 14.0398 18.0751C13.5141 18.0821 12.9922 17.9837 12.5051 17.7857C12.018 17.5877 11.5755 17.2941 11.2036 16.9223C10.8318 16.5505 10.5383 16.108 10.3403 15.6209C10.1423 15.1338 10.0439 14.6119 10.0509 14.0861C10.0579 13.5604 10.1701 13.0413 10.381 12.5596C10.5918 12.078 10.897 11.6434 11.2786 11.2816L16.4529 6.10576C16.5566 5.99828 16.6807 5.91252 16.8179 5.85351C16.9551 5.79449 17.1027 5.76339 17.2521 5.76202C17.4014 5.76066 17.5496 5.78905 17.6878 5.84554C17.8261 5.90203 17.9517 5.9855 18.0574 6.09106C18.1631 6.19663 18.2467 6.32218 18.3033 6.4604C18.3599 6.59861 18.3884 6.74672 18.3872 6.89607C18.386 7.04543 18.355 7.19305 18.2961 7.33031C18.2372 7.46758 18.1516 7.59174 18.0442 7.69556L12.8699 12.8714C12.7128 13.0277 12.5881 13.2134 12.5028 13.4179C12.4174 13.6224 12.3732 13.8417 12.3727 14.0632C12.3721 14.2848 12.4152 14.5043 12.4995 14.7093C12.5838 14.9142 12.7076 15.1005 12.8639 15.2576C13.0202 15.4147 13.2059 15.5394 13.4104 15.6247C13.6149 15.71 13.8342 15.7542 14.0557 15.7548C14.2773 15.7553 14.4968 15.7122 14.7018 15.628C14.9067 15.5437 15.093 15.4199 15.2501 15.2636L20.4304 9.93477C21.2739 9.091 21.7478 7.94676 21.7478 6.75368C21.7478 5.56059 21.2739 4.41635 20.4304 3.57258L20.4289 3.57108Z" fill="currentColor"/>
  </svg>

  <svg xmlns="http://www.w3.org/2000/svg" id="icon-line" viewBox="0 0 32 2" fill="currentColor">
    <path d="M31.5 0.999512L0 0.999512" stroke="currentColor" stroke-width="2"/>
  </svg>


  <svg viewBox="0 0 70 70" fill="none" id="icon-roundArrow" xmlns="http://www.w3.org/2000/svg">
    <g filter="url(#filter0_b_525_1473)">
      <rect x="0.5" y="0.5" width="69" height="69" rx="34.5" stroke="white"/>
      <path d="M45 25V45M45 45H25M45 45L25 25" stroke="white" stroke-width="2"/>
    </g>
    <defs>
      <filter id="filter0_b_525_1473" x="-24" y="-24" width="118" height="118" filterUnits="userSpaceOnUse" color-interpolation-filters="sRGB">
        <feFlood flood-opacity="0" result="BackgroundImageFix"/>
        <feGaussianBlur in="BackgroundImageFix" stdDeviation="12"/>
        <feComposite in2="SourceAlpha" operator="in" result="effect1_backgroundBlur_525_1473"/>
        <feBlend mode="normal" in="SourceGraphic" in2="effect1_backgroundBlur_525_1473" result="shape"/>
      </filter>
    </defs>
  </svg>

  <svg viewBox="0 0 32 33" fill="none" id="icon-plus" xmlns="http://www.w3.org/2000/svg">
    <path id="Vector" d="M16 0.5V16.5M16 16.5H0M16 16.5V32.5M16 16.5H32" stroke="currentColor" stroke-width="2"/>
  </svg>

  <svg viewBox="0 0 113 46" id="icon-headerLogo" xmlns="http://www.w3.org/2000/svg">
    <path d="M26.7292 2.76482V44.6563C26.7309 44.7519 26.7084 44.8463 26.6639 44.9302C26.6193 45.0141 26.5542 45.0846 26.475 45.1347C26.3959 45.1848 26.3054 45.2128 26.2125 45.216C26.1196 45.2191 26.0275 45.1973 25.9453 45.1526L18.2707 41.199C18.1813 41.1539 18.1059 41.084 18.053 40.9971C18.0002 40.9103 17.972 40.81 17.9717 40.7076V6.71598C17.972 6.61354 18.0002 6.51325 18.053 6.4264C18.1059 6.33956 18.1813 6.26963 18.2707 6.22451L25.9429 2.27577C26.0247 2.23132 26.1164 2.20949 26.2089 2.21242C26.3014 2.21535 26.3916 2.24293 26.4706 2.29248C26.5497 2.34202 26.6148 2.41182 26.6597 2.49505C26.7046 2.57827 26.7278 2.67207 26.7268 2.76724L26.7292 2.76482ZM87.1889 17.7802V44.6611C87.1885 44.7551 87.1649 44.8473 87.1202 44.9292C87.0754 45.0111 87.0112 45.0799 86.9334 45.1291C86.8556 45.1783 86.7669 45.2063 86.6757 45.2104C86.5844 45.2145 86.4937 45.1946 86.412 45.1526L78.728 41.199C78.639 41.1536 78.5641 41.0835 78.5117 40.9967C78.4594 40.9099 78.4315 40.8097 78.4314 40.7076V17.7802C78.4314 17.6344 78.4877 17.4946 78.5879 17.3916C78.6881 17.2885 78.8241 17.2306 78.9658 17.2306H86.6545C86.7962 17.2306 86.9322 17.2885 87.0324 17.3916C87.1326 17.4946 87.1889 17.6344 87.1889 17.7802ZM76.6728 43.7169L76.5222 43.8331C75.6372 44.5 74.6345 44.9835 73.57 45.2567C72.2767 45.6005 70.9239 45.6351 69.6155 45.3579C68.3071 45.0808 67.0778 44.4993 66.0217 43.6579C64.9657 42.8166 64.111 41.7377 63.5231 40.5041C62.9352 39.2704 62.6298 37.9148 62.6302 36.5409V17.8528C62.6302 17.7075 62.6862 17.5681 62.7859 17.4651C62.8856 17.3621 63.021 17.3039 63.1623 17.3032L68.0919 17.3856H70.8369C70.8674 17.3825 70.8981 17.3825 70.9287 17.3856C71.0494 17.4107 71.1579 17.4779 71.236 17.5758C71.3141 17.6737 71.3569 17.7964 71.3571 17.923V24.4187C71.3543 24.4534 71.3543 24.4882 71.3571 24.5228V39.1629C71.3584 40.2702 71.7866 41.3317 72.5479 42.1146C73.3092 42.8975 74.3414 43.338 75.4181 43.3392H76.4798C76.5141 43.3321 76.5496 43.3337 76.5833 43.3437C76.6169 43.3538 76.6477 43.3722 76.6729 43.3972C76.6981 43.4222 76.7171 43.4531 76.7281 43.4873C76.7392 43.5215 76.742 43.5579 76.7364 43.5935C76.7283 43.6397 76.706 43.6846 76.6728 43.7169ZM16.0436 20.6249C15.5646 20.4274 15.0531 20.3263 14.537 20.3271H13.9249C13.3896 20.3271 12.8595 20.4357 12.365 20.6467C11.8706 20.8577 11.4215 21.1669 11.0434 21.5566C10.6653 21.9463 10.3657 22.4089 10.1617 22.9179C9.95766 23.4269 9.85329 23.9723 9.85453 24.5228V39.1629C9.85764 40.271 10.2879 41.3326 11.0509 42.1151C11.8139 42.8975 12.8474 43.3368 13.9249 43.3368H14.9866C15.0209 43.3325 15.0557 43.3369 15.088 43.3496C15.1202 43.3623 15.149 43.3829 15.1717 43.4096C15.1945 43.4364 15.2105 43.4684 15.2185 43.503C15.2264 43.5376 15.226 43.5736 15.2173 43.608C15.2064 43.6535 15.1817 43.6942 15.1467 43.7242L14.9984 43.8404C13.6921 44.8148 12.1494 45.3988 10.5406 45.528C8.93179 45.6572 7.31958 45.3265 5.8821 44.5724C4.44462 43.8184 3.23781 42.6703 2.39503 41.2551C1.55225 39.8398 1.1063 38.2126 1.10645 36.553V26.5444C1.10645 21.5619 5.07322 17.3565 9.91574 17.3831C11.1131 17.3911 12.2962 17.6523 13.3913 18.1504C14.4864 18.6485 15.4701 19.373 16.2814 20.2787C16.3102 20.3159 16.3265 20.3616 16.3279 20.4091C16.3294 20.4566 16.3158 20.5033 16.2894 20.5422C16.2629 20.5811 16.2249 20.6102 16.181 20.6251C16.1372 20.64 16.0875 20.64 16.0436 20.6249ZM111.87 36.156C111.87 38.6255 111.218 40.6688 109.911 42.2861C109.716 42.5185 109.535 42.734 109.306 42.9519C107.76 44.5013 105.775 45.3342 103.364 45.494C103.358 45.4978 103.35 45.4998 103.342 45.4998C103.334 45.4998 103.327 45.4978 103.32 45.494L103.094 45.5109H102.161C100.61 45.4564 99.0656 45.2612 97.5472 44.9275L97.3307 44.879C96.2098 44.581 95.1115 44.1999 94.0442 43.7387C93.6578 43.5644 93.3276 43.2806 93.092 42.9205C92.8565 42.5604 92.7255 42.1388 92.7141 41.705L92.5023 36.478C92.5007 36.4385 92.5069 36.3991 92.5205 36.3622C92.5341 36.3252 92.5548 36.2915 92.5814 36.263C92.608 36.2345 92.64 36.2118 92.6753 36.1963C92.7107 36.1809 92.7487 36.1729 92.7871 36.1729C93.0037 36.1729 93.2014 36.2988 93.3003 36.4949C94.367 38.598 95.7628 40.5062 97.4319 42.1432C98.8444 43.5232 100.318 44.3416 101.858 44.6006C102.216 44.6611 102.578 44.6926 102.941 44.6902C103.122 44.6902 103.317 44.6902 103.482 44.666H103.572C103.636 44.6653 103.701 44.6588 103.765 44.6466C104.101 44.6176 104.436 44.5425 104.753 44.4287C104.89 44.3876 105.022 44.3416 105.151 44.2835C105.252 44.2423 105.354 44.1987 105.448 44.1479C106.045 43.8387 106.572 43.4031 106.994 42.8696C107.079 42.7727 107.159 42.671 107.23 42.5645C107.303 42.4531 107.378 42.3466 107.442 42.2401C107.677 41.6736 107.79 41.0635 107.778 40.4485C107.809 39.8083 107.68 39.1707 107.403 38.5965C107.126 38.0223 106.71 37.5305 106.196 37.168C104.806 36.2575 103.28 35.5877 101.679 35.1851C100.245 34.8015 98.8409 34.3111 97.4766 33.718C96.7781 33.3857 96.1166 32.9766 95.5038 32.4978C95.3272 32.367 95.1507 32.2145 94.9741 32.0692C93.3803 30.711 92.5823 28.6071 92.5823 25.7527C92.5776 24.8327 92.7188 23.9176 93.0013 23.0436C93.039 22.9395 93.0767 22.8353 93.1214 22.7288C93.2532 22.3753 93.4062 22.0316 93.5805 21.695C93.5805 21.6757 93.5993 21.6539 93.6111 21.6297C93.9948 20.9469 94.4656 20.3175 95.0071 19.7606C96.1625 18.5777 97.6404 17.784 99.2446 17.4848C100.026 17.325 100.822 17.2476 101.618 17.2524C102.065 17.2524 102.533 17.2766 102.997 17.3202C104.057 17.427 105.105 17.6345 106.128 17.94C107.451 18.3516 108.741 18.8745 109.98 19.5016C109.986 19.5048 109.99 19.5097 109.994 19.5157C109.997 19.5217 109.999 19.5285 109.998 19.5355L110.109 22.7337L110.194 25.3266C110.195 25.3645 110.189 25.4023 110.176 25.4376C110.162 25.473 110.142 25.5052 110.116 25.5324C110.091 25.5595 110.06 25.581 110.026 25.5956C109.992 25.6102 109.955 25.6175 109.918 25.6171C109.82 25.6169 109.723 25.5897 109.638 25.5382C109.553 25.4867 109.484 25.4128 109.436 25.3242C108.753 24.0604 107.976 22.8547 107.112 21.7168C106.722 21.2033 106.304 20.7119 105.862 20.2448L105.759 20.1407C104.424 18.7656 102.974 18.0804 101.408 18.0804C99.8425 18.0804 98.6254 18.4508 97.7591 19.1941C97.3418 19.5591 97.0106 20.0168 96.7904 20.5326C96.5702 21.0485 96.4667 21.609 96.4879 22.172C96.4688 22.7489 96.6021 23.3203 96.8736 23.8255C97.1451 24.3306 97.5447 24.7507 98.0298 25.0409C99.2141 25.7716 100.496 26.3205 101.834 26.6703L102.587 26.8809C103.677 27.186 104.412 27.4039 104.803 27.5346C105.274 27.6896 105.862 27.9026 106.561 28.1786C107.162 28.4013 107.738 28.6919 108.28 29.0405C108.777 29.3819 109.25 29.762 109.692 30.1784C110.163 30.6069 110.559 31.1202 110.853 31.694C111.562 33.0667 111.912 34.6041 111.87 36.1584V36.156ZM58.2585 31.7351V31.4204V31.004V30.7038C58.2585 30.4907 58.235 30.2728 58.2138 30.0598L58.1903 29.8225L58.1691 29.6409C58.1683 29.5231 58.1525 29.4059 58.122 29.2923C58.122 29.1761 58.089 29.0599 58.0679 28.9485C58.0443 28.8371 58.042 28.7984 58.0255 28.7209L57.9666 28.411C57.9092 28.1327 57.8425 27.8566 57.7665 27.583L57.6771 27.2635L57.5711 26.9342C57.5358 26.8277 57.5005 26.7211 57.4605 26.6146C57.3853 26.3997 57.3053 26.1865 57.2204 25.9755L57.1191 25.7285C57.0656 25.5961 57.005 25.4668 56.9379 25.3411C56.8743 25.2249 56.7919 25.0216 56.7071 24.8715C56.4918 24.4365 56.2512 24.0153 55.9868 23.6101C55.8819 23.4471 55.7736 23.2864 55.6619 23.1283L55.4995 22.9007L55.3982 22.7651C55.0728 22.3298 54.7222 21.9151 54.3483 21.5231L54.1435 21.3125C53.9036 21.0677 53.6539 20.8335 53.3948 20.6104L53.3383 20.5596C53.1887 20.4291 53.0381 20.3 52.8863 20.1722L52.6274 19.9688C52.3644 19.7678 52.0934 19.578 51.8152 19.3999C51.7234 19.3418 51.6292 19.2788 51.535 19.2256L51.2525 19.0561C51.1576 18.9991 51.0611 18.945 50.963 18.8939C50.8665 18.8455 50.7723 18.7898 50.6734 18.7389L50.3768 18.5888C50.2781 18.5381 50.1776 18.4912 50.0755 18.4484L49.7741 18.3128C49.5691 18.2248 49.3619 18.1425 49.1526 18.0659L48.8395 17.9521L48.5194 17.848L48.1992 17.7511C47.9841 17.6888 47.7674 17.6323 47.5494 17.5817L47.2858 17.5236L46.8856 17.4461C46.6608 17.4035 46.4346 17.3688 46.2076 17.342L45.8686 17.2984L45.3742 17.2548H43.8628C41.7111 17.3502 39.611 17.9621 37.7304 19.0416C35.8498 20.1211 34.2409 21.6382 33.0325 23.4716C31.824 25.3049 31.0495 27.4037 30.7709 29.5999C30.4923 31.7962 30.7173 34.0291 31.4279 36.1199C32.1385 38.2107 33.3151 40.1016 34.8634 41.6411C36.4117 43.1807 38.2889 44.3262 40.3448 44.9862C42.4007 45.6461 44.5782 45.8021 46.7032 45.4418C48.8282 45.0814 50.8417 44.2146 52.5827 42.9107L52.8016 42.7412C52.9782 42.6008 53.1547 42.4652 53.3195 42.3224C53.376 42.2788 53.4302 42.2328 53.4843 42.182L53.6208 42.0512L53.6632 42.0149C54.6645 41.0921 55.5311 40.0255 56.2363 38.8482C56.2434 38.8337 56.2481 38.8143 56.2363 38.7998C56.2311 38.7936 56.2247 38.7887 56.2175 38.7852C56.2094 38.7815 56.2005 38.7798 56.1916 38.7804C56.1831 38.7817 56.175 38.785 56.168 38.7901L56.121 38.8264L55.6878 39.2331C54.8011 40.1483 53.7441 40.8702 52.58 41.3556C51.4159 41.8411 50.1685 42.0801 48.9125 42.0585C47.4372 42.0597 45.9825 41.7022 44.6672 41.0151C43.3518 40.328 42.2131 39.3308 41.3439 38.1049C40.1637 36.4565 39.5283 34.4625 39.5312 32.4155V31.7376H58.2585V31.7351ZM44.2348 18.5501C45.4769 18.5527 46.6673 19.0619 47.5447 19.9661C48.4221 20.8702 48.9149 22.0954 48.9149 23.3728V31.1831H39.5453V23.3728C39.5459 22.094 40.0402 20.8676 40.9195 19.9633C41.7988 19.059 42.9912 18.5507 44.2348 18.5501Z" fill="currentColor"/>
  </svg>





</svg>