<svg width="151" height="18" viewBox="0 0 151 18" fill="none" xmlns="http://www.w3.org/2000/svg">
<g clip-path="url(#clip0_4646_9153)">
<path d="M9.07334 18C8.84684 18 8.64209 17.8642 8.55509 17.655C8.46659 17.4442 8.51459 17.202 8.67584 17.04L10.8103 14.9062C11.0301 14.6865 11.3863 14.6865 11.6061 14.9062C11.8258 15.126 11.8258 15.4822 11.6061 15.702L10.5951 16.713C14.1433 15.975 16.8456 12.8182 16.8756 9.06972C16.8778 8.76072 17.1298 8.51172 17.4381 8.51172H17.4426C17.7531 8.51397 18.0028 8.76822 18.0006 9.07872C17.9608 13.9582 13.9581 17.961 9.07784 18C9.07634 18 9.07484 18 9.07334 18Z" fill="#E0FD60"/>
<path d="M0.562515 9.489C0.561015 9.489 0.559515 9.489 0.558015 9.489C0.247515 9.48675 -0.00223492 9.23325 1.5084e-05 8.922C0.0390151 4.04175 4.04177 0.039 8.92202 0C9.15602 0.00825 9.35702 0.13425 9.44477 0.345C9.53327 0.55575 9.48526 0.798 9.32401 0.96L7.19026 3.09375C6.97051 3.3135 6.61426 3.3135 6.39452 3.09375C6.17477 2.874 6.17477 2.51775 6.39452 2.298L7.40551 1.287C3.85726 2.02575 1.15502 5.1825 1.12502 8.931C1.12277 9.24 0.870765 9.489 0.562515 9.489Z" fill="#E0FD60"/>
<path d="M6.5925 17.2493C6.0735 17.2493 5.5545 17.052 5.16 16.6568L1.344 12.8415C0.96075 12.4583 0.75 11.949 0.75 11.4075C0.75 10.866 0.96075 10.3568 1.344 9.97426L9.97575 1.34326C10.7655 0.553509 12.051 0.553509 12.84 1.34326L16.656 5.15851C17.0392 5.54176 17.25 6.05101 17.25 6.59251C17.25 7.13401 17.0392 7.64326 16.656 8.02576L8.02425 16.6568C7.62975 17.0513 7.11075 17.2493 6.5925 17.2493ZM11.4083 1.87501C11.1675 1.87501 10.941 1.96876 10.7708 2.13901L2.13975 10.77C1.96875 10.9403 1.875 11.1668 1.875 11.4075C1.875 11.6483 1.96875 11.8755 2.13975 12.0458L5.95575 15.861C6.2955 16.2015 6.8895 16.2 7.22925 15.861L15.8602 7.23001C16.0312 7.05976 16.125 6.83326 16.125 6.59251C16.125 6.35176 16.0312 6.12451 15.8602 5.95426L12.045 2.13901C11.8747 1.96876 11.6483 1.87501 11.4083 1.87501Z" fill="#E0FD60"/>
<path d="M8.53798 15.6937C8.39398 15.6937 8.24998 15.639 8.14048 15.5287L2.47048 9.85949C2.25073 9.63974 2.25073 9.28349 2.47048 9.06374C2.69023 8.84399 3.04648 8.84399 3.26623 9.06374L8.93623 14.733C9.15598 14.9527 9.15598 15.309 8.93623 15.5287C8.82598 15.639 8.68198 15.6937 8.53798 15.6937Z" fill="#E0FD60"/>
</g>
<path d="M34.516 4.796H30.124V12.5H29.08V3.92H35.56V12.5H34.516V4.796ZM39.9247 12.608C39.4767 12.608 39.0687 12.532 38.7007 12.38C38.3327 12.228 38.0127 12.016 37.7407 11.744C37.4687 11.464 37.2567 11.128 37.1047 10.736C36.9607 10.344 36.8887 9.908 36.8887 9.428V9.332C36.8887 8.86 36.9607 8.428 37.1047 8.036C37.2487 7.636 37.4487 7.296 37.7047 7.016C37.9687 6.728 38.2807 6.508 38.6407 6.356C39.0007 6.196 39.3967 6.116 39.8287 6.116C40.1887 6.116 40.5367 6.176 40.8727 6.296C41.2167 6.408 41.5207 6.588 41.7847 6.836C42.0487 7.084 42.2567 7.408 42.4087 7.808C42.5687 8.2 42.6487 8.676 42.6487 9.236V9.56H37.9207C37.9447 10.28 38.1247 10.832 38.4607 11.216C38.7967 11.592 39.2887 11.78 39.9367 11.78C40.9207 11.78 41.4767 11.416 41.6047 10.688H42.6007C42.4887 11.32 42.1927 11.8 41.7127 12.128C41.2327 12.448 40.6367 12.608 39.9247 12.608ZM41.6287 8.756C41.5807 8.108 41.3967 7.644 41.0767 7.364C40.7647 7.084 40.3487 6.944 39.8287 6.944C39.3167 6.944 38.8967 7.108 38.5687 7.436C38.2487 7.756 38.0447 8.196 37.9567 8.756H41.6287ZM43.817 6.224H44.813V7.28C44.901 7.128 45.017 6.984 45.161 6.848C45.313 6.704 45.481 6.58 45.665 6.476C45.849 6.364 46.049 6.276 46.265 6.212C46.481 6.148 46.705 6.116 46.937 6.116C47.345 6.116 47.725 6.188 48.077 6.332C48.429 6.476 48.729 6.684 48.977 6.956C49.233 7.228 49.433 7.56 49.577 7.952C49.721 8.344 49.793 8.784 49.793 9.272V9.368C49.793 9.848 49.725 10.288 49.589 10.688C49.453 11.08 49.261 11.42 49.013 11.708C48.765 11.996 48.465 12.22 48.113 12.38C47.761 12.532 47.369 12.608 46.937 12.608C46.417 12.608 45.977 12.496 45.617 12.272C45.265 12.048 44.997 11.78 44.813 11.468V14.684H43.817V6.224ZM46.841 11.78C47.465 11.78 47.941 11.58 48.269 11.18C48.597 10.772 48.761 10.184 48.761 9.416V9.32C48.761 8.928 48.709 8.584 48.605 8.288C48.501 7.984 48.361 7.736 48.185 7.544C48.017 7.344 47.813 7.196 47.573 7.1C47.341 6.996 47.093 6.944 46.829 6.944C46.541 6.944 46.269 6.992 46.013 7.088C45.765 7.184 45.549 7.332 45.365 7.532C45.181 7.724 45.037 7.972 44.933 8.276C44.829 8.572 44.777 8.92 44.777 9.32V9.416C44.777 9.816 44.825 10.164 44.921 10.46C45.025 10.756 45.165 11.004 45.341 11.204C45.525 11.396 45.745 11.54 46.001 11.636C46.257 11.732 46.537 11.78 46.841 11.78ZM53.5485 12.608C53.1005 12.608 52.6925 12.532 52.3245 12.38C51.9565 12.228 51.6365 12.016 51.3645 11.744C51.0925 11.464 50.8805 11.128 50.7285 10.736C50.5845 10.344 50.5125 9.908 50.5125 9.428V9.332C50.5125 8.86 50.5845 8.428 50.7285 8.036C50.8725 7.636 51.0725 7.296 51.3285 7.016C51.5925 6.728 51.9045 6.508 52.2645 6.356C52.6245 6.196 53.0205 6.116 53.4525 6.116C53.8125 6.116 54.1605 6.176 54.4965 6.296C54.8405 6.408 55.1445 6.588 55.4085 6.836C55.6725 7.084 55.8805 7.408 56.0325 7.808C56.1925 8.2 56.2725 8.676 56.2725 9.236V9.56H51.5445C51.5685 10.28 51.7485 10.832 52.0845 11.216C52.4205 11.592 52.9125 11.78 53.5605 11.78C54.5445 11.78 55.1005 11.416 55.2285 10.688H56.2245C56.1125 11.32 55.8165 11.8 55.3365 12.128C54.8565 12.448 54.2605 12.608 53.5485 12.608ZM55.2525 8.756C55.2045 8.108 55.0205 7.644 54.7005 7.364C54.3885 7.084 53.9725 6.944 53.4525 6.944C52.9405 6.944 52.5205 7.108 52.1925 7.436C51.8725 7.756 51.6685 8.196 51.5805 8.756H55.2525ZM57.3688 6.224H59.5648C59.8608 6.224 60.1408 6.252 60.4048 6.308C60.6688 6.356 60.9008 6.44 61.1008 6.56C61.3088 6.68 61.4728 6.844 61.5928 7.052C61.7128 7.252 61.7728 7.508 61.7728 7.82V7.856C61.7728 8.136 61.6928 8.408 61.5328 8.672C61.3728 8.936 61.1168 9.112 60.7648 9.2C61.1648 9.288 61.4808 9.444 61.7128 9.668C61.9528 9.892 62.0728 10.208 62.0728 10.616V10.652C62.0728 11.276 61.8688 11.74 61.4608 12.044C61.0608 12.348 60.5168 12.5 59.8288 12.5H57.3688V6.224ZM58.3648 7.016V8.876H59.5648C59.9808 8.876 60.2768 8.8 60.4528 8.648C60.6368 8.496 60.7288 8.248 60.7288 7.904V7.868C60.7288 7.532 60.6288 7.308 60.4288 7.196C60.2288 7.076 59.9368 7.016 59.5528 7.016H58.3648ZM58.3648 9.668V11.708H59.7328C60.1728 11.708 60.4968 11.632 60.7048 11.48C60.9208 11.32 61.0288 11.064 61.0288 10.712V10.676C61.0288 10.316 60.9208 10.06 60.7048 9.908C60.4888 9.748 60.1648 9.668 59.7328 9.668H58.3648ZM65.9418 12.608C65.4938 12.608 65.0858 12.532 64.7178 12.38C64.3498 12.228 64.0298 12.016 63.7578 11.744C63.4858 11.464 63.2738 11.128 63.1218 10.736C62.9778 10.344 62.9058 9.908 62.9058 9.428V9.332C62.9058 8.86 62.9778 8.428 63.1218 8.036C63.2658 7.636 63.4658 7.296 63.7218 7.016C63.9858 6.728 64.2978 6.508 64.6578 6.356C65.0178 6.196 65.4138 6.116 65.8458 6.116C66.2058 6.116 66.5538 6.176 66.8898 6.296C67.2338 6.408 67.5378 6.588 67.8018 6.836C68.0658 7.084 68.2738 7.408 68.4258 7.808C68.5858 8.2 68.6658 8.676 68.6658 9.236V9.56H63.9378C63.9618 10.28 64.1418 10.832 64.4778 11.216C64.8138 11.592 65.3058 11.78 65.9538 11.78C66.9378 11.78 67.4938 11.416 67.6218 10.688H68.6178C68.5058 11.32 68.2098 11.8 67.7298 12.128C67.2498 12.448 66.6538 12.608 65.9418 12.608ZM67.6458 8.756C67.5978 8.108 67.4138 7.644 67.0938 7.364C66.7818 7.084 66.3658 6.944 65.8458 6.944C65.3338 6.944 64.9138 7.108 64.5858 7.436C64.2658 7.756 64.0618 8.196 63.9738 8.756H67.6458ZM69.8341 6.224H70.8301V7.28C70.9181 7.128 71.0341 6.984 71.1781 6.848C71.3301 6.704 71.4981 6.58 71.6821 6.476C71.8661 6.364 72.0661 6.276 72.2821 6.212C72.4981 6.148 72.7221 6.116 72.9541 6.116C73.3621 6.116 73.7421 6.188 74.0941 6.332C74.4461 6.476 74.7461 6.684 74.9941 6.956C75.2501 7.228 75.4501 7.56 75.5941 7.952C75.7381 8.344 75.8101 8.784 75.8101 9.272V9.368C75.8101 9.848 75.7421 10.288 75.6061 10.688C75.4701 11.08 75.2781 11.42 75.0301 11.708C74.7821 11.996 74.4821 12.22 74.1301 12.38C73.7781 12.532 73.3861 12.608 72.9541 12.608C72.4341 12.608 71.9941 12.496 71.6341 12.272C71.2821 12.048 71.0141 11.78 70.8301 11.468V14.684H69.8341V6.224ZM72.8581 11.78C73.4821 11.78 73.9581 11.58 74.2861 11.18C74.6141 10.772 74.7781 10.184 74.7781 9.416V9.32C74.7781 8.928 74.7261 8.584 74.6221 8.288C74.5181 7.984 74.3781 7.736 74.2021 7.544C74.0341 7.344 73.8301 7.196 73.5901 7.1C73.3581 6.996 73.1101 6.944 72.8461 6.944C72.5581 6.944 72.2861 6.992 72.0301 7.088C71.7821 7.184 71.5661 7.332 71.3821 7.532C71.1981 7.724 71.0541 7.972 70.9501 8.276C70.8461 8.572 70.7941 8.92 70.7941 9.32V9.416C70.7941 9.816 70.8421 10.164 70.9381 10.46C71.0421 10.756 71.1821 11.004 71.3581 11.204C71.5421 11.396 71.7621 11.54 72.0181 11.636C72.2741 11.732 72.5541 11.78 72.8581 11.78ZM81.0055 9.704H77.9215V12.5H76.9255V6.224H77.9215V8.864H81.0055V6.224H82.0015V12.5H81.0055V9.704ZM83.6553 12.5V6.224H84.6513V11.06L87.8553 6.224H88.8513V12.5H87.8553V7.664L84.6513 12.5H83.6553ZM94.7892 7.064H92.7612V12.5H91.7652V7.064H89.7372V6.224H94.7892V7.064ZM98.2082 12.608C97.7602 12.608 97.3522 12.532 96.9842 12.38C96.6162 12.228 96.2962 12.016 96.0242 11.744C95.7522 11.464 95.5402 11.128 95.3882 10.736C95.2442 10.344 95.1722 9.908 95.1722 9.428V9.332C95.1722 8.86 95.2442 8.428 95.3882 8.036C95.5322 7.636 95.7322 7.296 95.9882 7.016C96.2522 6.728 96.5642 6.508 96.9242 6.356C97.2842 6.196 97.6802 6.116 98.1122 6.116C98.4722 6.116 98.8202 6.176 99.1562 6.296C99.5002 6.408 99.8042 6.588 100.068 6.836C100.332 7.084 100.54 7.408 100.692 7.808C100.852 8.2 100.932 8.676 100.932 9.236V9.56H96.2042C96.2282 10.28 96.4082 10.832 96.7442 11.216C97.0802 11.592 97.5722 11.78 98.2202 11.78C99.2042 11.78 99.7602 11.416 99.8882 10.688H100.884C100.772 11.32 100.476 11.8 99.9962 12.128C99.5162 12.448 98.9202 12.608 98.2082 12.608ZM99.9122 8.756C99.8642 8.108 99.6802 7.644 99.3602 7.364C99.0482 7.084 98.6322 6.944 98.1122 6.944C97.6002 6.944 97.1802 7.108 96.8522 7.436C96.5322 7.756 96.3282 8.196 96.2402 8.756H99.9122ZM109.248 7.064H107.22V12.5H106.224V7.064H104.196V6.224H109.248V7.064ZM112.667 12.608C112.219 12.608 111.811 12.532 111.443 12.38C111.075 12.228 110.755 12.016 110.483 11.744C110.211 11.464 109.999 11.128 109.847 10.736C109.703 10.344 109.631 9.908 109.631 9.428V9.332C109.631 8.86 109.703 8.428 109.847 8.036C109.991 7.636 110.191 7.296 110.447 7.016C110.711 6.728 111.023 6.508 111.383 6.356C111.743 6.196 112.139 6.116 112.571 6.116C112.931 6.116 113.279 6.176 113.615 6.296C113.959 6.408 114.263 6.588 114.527 6.836C114.791 7.084 114.999 7.408 115.151 7.808C115.311 8.2 115.391 8.676 115.391 9.236V9.56H110.663C110.687 10.28 110.867 10.832 111.203 11.216C111.539 11.592 112.031 11.78 112.679 11.78C113.663 11.78 114.219 11.416 114.347 10.688H115.343C115.231 11.32 114.935 11.8 114.455 12.128C113.975 12.448 113.379 12.608 112.667 12.608ZM114.371 8.756C114.323 8.108 114.139 7.644 113.819 7.364C113.507 7.084 113.091 6.944 112.571 6.944C112.059 6.944 111.639 7.108 111.311 7.436C110.991 7.756 110.787 8.196 110.699 8.756H114.371ZM117.746 10.076C117.674 10.908 117.526 11.532 117.302 11.948C117.078 12.356 116.71 12.56 116.198 12.56C116.062 12.56 115.954 12.552 115.874 12.536C115.834 12.528 115.802 12.516 115.778 12.5V11.552C115.802 11.56 115.83 11.568 115.862 11.576C115.894 11.584 115.926 11.592 115.958 11.6C115.998 11.6 116.05 11.6 116.114 11.6C116.242 11.6 116.346 11.56 116.426 11.48C116.514 11.392 116.582 11.276 116.63 11.132C116.686 10.988 116.726 10.82 116.75 10.628C116.782 10.436 116.81 10.232 116.834 10.016C116.874 9.648 116.902 9.244 116.918 8.804C116.942 8.364 116.962 7.952 116.978 7.568C116.994 7.12 117.006 6.672 117.014 6.224H121.154V12.5H120.158V7.064H117.902C117.894 7.272 117.886 7.504 117.878 7.76C117.87 8.008 117.858 8.268 117.842 8.54C117.834 8.804 117.822 9.068 117.806 9.332C117.79 9.596 117.77 9.844 117.746 10.076ZM125.447 12.608C124.999 12.608 124.591 12.532 124.223 12.38C123.855 12.228 123.535 12.016 123.263 11.744C122.991 11.464 122.779 11.128 122.627 10.736C122.483 10.344 122.411 9.908 122.411 9.428V9.332C122.411 8.86 122.483 8.428 122.627 8.036C122.771 7.636 122.971 7.296 123.227 7.016C123.491 6.728 123.803 6.508 124.163 6.356C124.523 6.196 124.919 6.116 125.351 6.116C125.711 6.116 126.059 6.176 126.395 6.296C126.739 6.408 127.043 6.588 127.307 6.836C127.571 7.084 127.779 7.408 127.931 7.808C128.091 8.2 128.171 8.676 128.171 9.236V9.56H123.443C123.467 10.28 123.647 10.832 123.983 11.216C124.319 11.592 124.811 11.78 125.459 11.78C126.443 11.78 126.999 11.416 127.127 10.688H128.123C128.011 11.32 127.715 11.8 127.235 12.128C126.755 12.448 126.159 12.608 125.447 12.608ZM127.151 8.756C127.103 8.108 126.919 7.644 126.599 7.364C126.287 7.084 125.871 6.944 125.351 6.944C124.839 6.944 124.419 7.108 124.091 7.436C123.771 7.756 123.567 8.196 123.479 8.756H127.151ZM133 6.128C133.44 6.152 133.856 6.236 134.248 6.38C134.64 6.524 134.98 6.732 135.268 7.004C135.564 7.268 135.796 7.592 135.964 7.976C136.132 8.36 136.216 8.804 136.216 9.308V9.404C136.216 9.908 136.132 10.356 135.964 10.748C135.796 11.132 135.568 11.46 135.28 11.732C134.992 11.996 134.652 12.2 134.26 12.344C133.868 12.488 133.448 12.572 133 12.596V14.684H132.016V12.596C131.568 12.572 131.148 12.488 130.756 12.344C130.372 12.2 130.032 11.996 129.736 11.732C129.448 11.46 129.22 11.132 129.052 10.748C128.884 10.364 128.8 9.92 128.8 9.416V9.32C128.8 8.816 128.884 8.372 129.052 7.988C129.22 7.596 129.448 7.268 129.736 7.004C130.024 6.732 130.364 6.524 130.756 6.38C131.148 6.236 131.568 6.152 132.016 6.128V3.224H133V6.128ZM132.016 6.884C131.704 6.9 131.412 6.964 131.14 7.076C130.876 7.18 130.644 7.336 130.444 7.544C130.252 7.744 130.1 7.992 129.988 8.288C129.876 8.584 129.82 8.924 129.82 9.308V9.392C129.82 9.784 129.876 10.132 129.988 10.436C130.1 10.732 130.252 10.984 130.444 11.192C130.644 11.392 130.876 11.548 131.14 11.66C131.412 11.764 131.704 11.82 132.016 11.828V6.884ZM133 11.84C133.312 11.832 133.6 11.772 133.864 11.66C134.136 11.548 134.368 11.392 134.56 11.192C134.76 10.984 134.916 10.732 135.028 10.436C135.14 10.14 135.196 9.8 135.196 9.416V9.332C135.196 8.94 135.14 8.596 135.028 8.3C134.916 7.996 134.76 7.744 134.56 7.544C134.368 7.336 134.136 7.18 133.864 7.076C133.6 6.972 133.312 6.912 133 6.896V11.84ZM140.092 11.78C140.404 11.78 140.688 11.724 140.944 11.612C141.2 11.5 141.416 11.34 141.592 11.132C141.768 10.924 141.904 10.676 142 10.388C142.096 10.092 142.144 9.768 142.144 9.416V9.332C142.144 8.972 142.096 8.644 142 8.348C141.904 8.052 141.764 7.8 141.58 7.592C141.404 7.384 141.188 7.224 140.932 7.112C140.684 7 140.404 6.944 140.092 6.944C139.78 6.944 139.496 7 139.24 7.112C138.984 7.224 138.768 7.384 138.592 7.592C138.416 7.8 138.28 8.052 138.184 8.348C138.088 8.636 138.04 8.96 138.04 9.32V9.416C138.04 10.136 138.22 10.712 138.58 11.144C138.948 11.568 139.452 11.78 140.092 11.78ZM140.08 12.608C139.632 12.608 139.22 12.528 138.844 12.368C138.468 12.208 138.144 11.988 137.872 11.708C137.6 11.42 137.388 11.08 137.236 10.688C137.084 10.296 137.008 9.872 137.008 9.416V9.32C137.008 8.848 137.084 8.416 137.236 8.024C137.396 7.632 137.612 7.296 137.884 7.016C138.156 6.728 138.48 6.508 138.856 6.356C139.232 6.196 139.644 6.116 140.092 6.116C140.532 6.116 140.94 6.196 141.316 6.356C141.7 6.508 142.028 6.724 142.3 7.004C142.572 7.284 142.784 7.62 142.936 8.012C143.096 8.404 143.176 8.836 143.176 9.308V9.404C143.176 9.876 143.096 10.312 142.936 10.712C142.784 11.104 142.568 11.44 142.288 11.72C142.016 12 141.692 12.22 141.316 12.38C140.94 12.532 140.528 12.608 140.08 12.608ZM148.366 9.704H145.282V12.5H144.286V6.224H145.282V8.864H148.366V6.224H149.362V12.5H148.366V9.704Z" fill="#E0FD60"/>
<defs>
<clipPath id="clip0_4646_9153">
<rect width="18" height="18" fill="white"/>
</clipPath>
</defs>
</svg>
