<svg width="40" height="40" viewBox="0 0 40 40" fill="none" xmlns="http://www.w3.org/2000/svg">
<g clip-path="url(#clip0_501_4824)">
<g clip-path="url(#clip1_501_4824)">
<mask id="mask0_501_4824" style="mask-type:luminance" maskUnits="userSpaceOnUse" x="-1" y="4" width="41" height="33">
<path d="M39.3006 4.62451H-0.680176V36.8041H39.3006V4.62451Z" fill="white"/>
</mask>
<g mask="url(#mask0_501_4824)">
<path d="M7.05755 19.3726C7.2405 19.3709 7.42248 19.4007 7.59633 19.461C7.76927 19.5177 7.9384 19.5867 8.10259 19.6674L8.47416 18.6502C8.03965 18.4278 7.56341 18.312 7.08077 18.3111C6.67208 18.3018 6.26833 18.407 5.91033 18.6157C5.58059 18.8172 5.31531 19.1184 5.14862 19.4807C4.96694 19.8893 4.87637 20.3365 4.88388 20.788C4.84041 21.4474 5.03644 22.0995 5.43194 22.6112C5.63502 22.8272 5.87919 22.9949 6.14825 23.1034C6.41732 23.2119 6.70512 23.2585 6.99253 23.2402C7.43886 23.2499 7.88207 23.1594 8.29302 22.9748V21.879C8.10635 21.9603 7.91564 22.0308 7.72173 22.0903C7.53331 22.1496 7.33772 22.1793 7.14115 22.1787C6.47697 22.1787 6.14721 21.7168 6.14721 20.7977C6.12702 20.4305 6.21287 20.0654 6.39338 19.751C6.46607 19.6315 6.56669 19.5338 6.68548 19.4676C6.80428 19.4013 6.93723 19.3686 7.07149 19.3726H7.05755Z" fill="#191B1D"/>
<path d="M12.4734 22.1886C12.2417 22.1763 12.0123 22.1333 11.7906 22.0609C11.5392 21.9876 11.295 21.8888 11.0614 21.766V22.916C11.2652 23.0219 11.4804 23.1012 11.7024 23.1519C11.9559 23.2089 12.2142 23.2386 12.4734 23.2403C12.7927 23.2449 13.1093 23.1779 13.4023 23.0437C13.6538 22.9315 13.8686 22.7435 14.0201 22.5031C14.1648 22.2681 14.2393 21.9924 14.2337 21.7119C14.2446 21.424 14.1645 21.1405 14.0061 20.9059C13.7836 20.6423 13.505 20.4385 13.1934 20.3113C12.9341 20.197 12.6839 20.0606 12.4455 19.9034C12.4049 19.8766 12.3711 19.8398 12.3468 19.7961C12.3226 19.7525 12.3086 19.7033 12.3062 19.6528C12.3061 19.6091 12.3162 19.566 12.3357 19.5274C12.3551 19.4889 12.3833 19.4559 12.4176 19.4316C12.5201 19.3635 12.6407 19.3324 12.7614 19.3432C13.1434 19.3627 13.5171 19.4683 13.8575 19.6528L14.2337 18.6699C13.7831 18.4509 13.2943 18.3338 12.7985 18.3259C12.3542 18.2981 11.9141 18.4298 11.5491 18.6994C11.3978 18.8182 11.2764 18.9743 11.1955 19.1542C11.1144 19.3341 11.0764 19.5324 11.0846 19.7314C11.0791 19.9403 11.1154 20.148 11.1915 20.3408C11.2646 20.5207 11.3777 20.6791 11.5213 20.8028C11.7235 20.9722 11.947 21.1112 12.1854 21.2155C12.3913 21.3048 12.5915 21.4082 12.7846 21.5252C12.8484 21.5629 12.9052 21.6129 12.9518 21.6726C12.9736 21.706 12.9888 21.7437 12.9966 21.7835C13.0045 21.8232 13.0047 21.8641 12.9973 21.904C12.9899 21.9438 12.9751 21.9816 12.9538 22.0154C12.9324 22.049 12.9049 22.0779 12.8728 22.1002C12.7536 22.1791 12.6135 22.2153 12.4734 22.2034V22.1886Z" fill="#191B1D"/>
<path d="M18.2601 22.1888C18.03 22.176 17.8022 22.1331 17.582 22.0611C17.3308 21.9869 17.0867 21.8882 16.8528 21.7662V22.9162C17.0566 23.0222 17.2718 23.1013 17.4937 23.1521C17.7433 23.2015 17.9969 23.2245 18.2508 23.2208C18.5696 23.2251 18.8858 23.1599 19.1798 23.0292C19.4295 22.9161 19.6427 22.7282 19.7928 22.4886C19.9375 22.2536 20.012 21.9779 20.0065 21.6973C20.0173 21.4095 19.9372 21.1259 19.7789 20.8914C19.5578 20.6351 19.2824 20.4381 18.9754 20.3164C18.7166 20.2009 18.4666 20.0646 18.2275 19.9085C18.1876 19.8814 18.1544 19.8445 18.131 19.8008C18.1075 19.7571 18.0944 19.7081 18.0929 19.6579C18.0919 19.6145 18.1012 19.5716 18.1198 19.533C18.1384 19.4944 18.1659 19.4612 18.1997 19.4368C18.3036 19.3678 18.426 19.3368 18.5481 19.3483C18.93 19.3684 19.3036 19.4739 19.6442 19.6579L20.0157 18.675C19.5668 18.4562 19.0795 18.339 18.5852 18.331C18.1394 18.3025 17.6975 18.4341 17.3312 18.7045C17.1805 18.8238 17.0595 18.9801 16.9786 19.1598C16.8977 19.3396 16.8593 19.5376 16.8667 19.7365C16.8627 19.9452 16.8991 20.1526 16.9735 20.3459C17.0466 20.5258 17.1598 20.6843 17.3033 20.8079C17.5064 20.9761 17.7297 21.1149 17.9675 21.2207C18.1743 21.3114 18.3759 21.4148 18.5713 21.5303C18.6339 21.5679 18.6891 21.618 18.7338 21.6777C18.7672 21.7282 18.785 21.7882 18.7849 21.8498C18.7856 21.9 18.7744 21.9496 18.7526 21.9942C18.7307 22.0387 18.6987 22.077 18.6595 22.1052C18.5401 22.1835 18.4002 22.2196 18.2601 22.2085V22.1888Z" fill="#191B1D"/>
<path d="M26.0725 18.9699C25.6055 18.5502 25.0027 18.3388 24.3912 18.3801H22.8213V23.1717H24.2843C24.6031 23.1931 24.9226 23.1467 25.2242 23.0352C25.5257 22.9239 25.8031 22.7497 26.04 22.523C26.2589 22.2771 26.4276 21.9862 26.5355 21.6683C26.6433 21.3503 26.6882 21.0122 26.667 20.6752C26.6865 20.3627 26.6437 20.0493 26.5414 19.7555C26.4389 19.4617 26.2791 19.194 26.0725 18.9699ZM25.1436 21.771C25.0412 21.8904 24.9141 21.983 24.7723 22.0418C24.6306 22.1006 24.4779 22.124 24.3261 22.1102H24.0568V19.4269H24.4097C24.549 19.4173 24.6887 19.441 24.8181 19.4963C24.9476 19.5516 25.0636 19.6371 25.1575 19.7464C25.3471 20.0328 25.4344 20.3811 25.4037 20.7292C25.4269 21.0987 25.332 21.4655 25.1343 21.771H25.1436Z" fill="#191B1D"/>
<path d="M32.2129 18.3606H30.5873L29.101 23.1717H30.4433L30.6755 22.2773H32.1479L32.3708 23.1717H33.7084L32.2129 18.3606ZM30.931 21.2109C31.1168 20.464 31.2375 19.9578 31.2933 19.7022C31.3489 19.4466 31.3861 19.2648 31.4047 19.1517C31.4047 19.2697 31.4651 19.4712 31.5301 19.7465C31.5952 20.0216 31.6508 20.2378 31.6974 20.4246L31.8924 21.2109H30.931Z" fill="#191B1D"/>
<path d="M25.1577 14.9006L20.4806 10.0205L15.8964 14.9006H13.2769L23.0166 4.62451H12.7938L3.01693 14.9006H-0.680176L-0.262161 15.6181H39.3006V14.9006H25.1577Z" fill="#191B1D"/>
<path d="M-0.680176 26.6116H13.3605L17.9261 31.4375L22.5753 26.6116H25.0695L15.3901 36.8041H25.6129L30.7034 31.4719L35.3341 26.6116H39.3006V25.894H-0.680176V26.6116Z" fill="#191B1D"/>
</g>
</g>
</g>
<defs>
<clipPath id="clip0_501_4824">
<rect width="40" height="40" fill="white"/>
</clipPath>
<clipPath id="clip1_501_4824">
<rect width="40.9559" height="33.1548" fill="white" transform="translate(-0.955811 3.75)"/>
</clipPath>
</defs>
</svg>
