<svg width="26" height="26" viewBox="0 0 26 26" fill="none" xmlns="http://www.w3.org/2000/svg">
<g id="ic:round-arrow-outward">
<path id="Vector" d="M6.50015 7.58333C6.50015 8.17917 6.98765 8.66667 7.58348 8.66667H15.806L6.18598 18.2867C6.08569 18.387 6.00613 18.506 5.95185 18.6371C5.89757 18.7681 5.86963 18.9086 5.86963 19.0504C5.86963 19.1923 5.89757 19.3327 5.95185 19.4638C6.00613 19.5948 6.08569 19.7139 6.18598 19.8142C6.28628 19.9145 6.40535 19.994 6.5364 20.0483C6.66744 20.1026 6.80789 20.1305 6.94973 20.1305C7.09158 20.1305 7.23203 20.1026 7.36307 20.0483C7.49412 19.994 7.61319 19.9145 7.71348 19.8142L17.3335 10.1942V18.4167C17.3335 19.0125 17.821 19.5 18.4168 19.5C19.0127 19.5 19.5002 19.0125 19.5002 18.4167V7.58333C19.5002 6.9875 19.0127 6.5 18.4168 6.5H7.58348C6.98765 6.5 6.50015 6.9875 6.50015 7.58333Z" fill="black"/>
</g>
</svg>
