<svg width="131" height="40" viewBox="0 0 131 40" fill="none" xmlns="http://www.w3.org/2000/svg">
<g clip-path="url(#clip0_850_5069)">
<path d="M11.2418 7.85693C12.3574 7.85693 13.3872 7.94275 14.3312 8.2002C15.2752 8.37183 16.0475 8.71509 16.734 9.14417C17.4206 9.57325 17.9355 10.174 18.2787 10.9463C18.622 11.7186 18.7936 12.6626 18.7936 13.6924C18.7936 14.8938 18.5362 15.9236 17.9355 16.6959C17.4206 17.4683 16.5624 18.1548 15.5326 18.6697C16.9915 19.0988 18.1071 19.8711 18.7936 20.9009C19.4801 21.9307 19.9092 23.2179 19.9092 24.6768C19.9092 25.8782 19.6518 26.908 19.2227 27.7662C18.7936 28.6243 18.1071 29.3967 17.3347 29.9115C16.5624 30.4264 15.6184 30.8555 14.5886 31.113C13.5589 31.3704 12.5291 31.542 11.4993 31.542H0V7.85693H11.2418ZM10.5553 17.4683C11.4993 17.4683 12.2716 17.2108 12.8723 16.7818C13.473 16.3527 13.7305 15.5803 13.7305 14.6364C13.7305 14.1215 13.6447 13.6066 13.473 13.2633C13.3014 12.9201 13.044 12.6626 12.7007 12.4052C12.3574 12.2335 12.0142 12.0619 11.5851 11.9761C11.156 11.8903 10.7269 11.8903 10.2121 11.8903H5.23475V17.4683H10.5553ZM10.8128 27.5945C11.3277 27.5945 11.8426 27.5087 12.2716 27.4229C12.7007 27.3371 13.1298 27.1654 13.473 26.908C13.8163 26.6506 14.0738 26.3931 14.3312 25.964C14.5028 25.535 14.6745 25.0201 14.6745 24.4193C14.6745 23.2179 14.3312 22.3598 13.6447 21.7591C12.9582 21.2442 12.0142 20.9867 10.8986 20.9867H5.23475V27.5945H10.8128ZM27.3752 27.5087C28.0617 28.1952 29.0915 28.5385 30.4645 28.5385C31.4085 28.5385 32.2667 28.281 32.9532 27.852C33.6397 27.3371 34.0688 26.8222 34.2404 26.3073H38.4454C37.7589 28.3669 36.7291 29.8257 35.356 30.7697C33.983 31.6279 32.3525 32.1428 30.3787 32.1428C29.0057 32.1428 27.8042 31.8853 26.6886 31.4562C25.573 31.0271 24.7149 30.4264 23.9425 29.5683C23.1702 28.7959 22.5695 27.852 22.2262 26.7364C21.7972 25.6208 21.6255 24.4193 21.6255 23.0463C21.6255 21.7591 21.7972 20.5576 22.2262 19.442C22.6553 18.3264 23.256 17.3825 24.0284 16.5243C24.8007 15.752 25.7447 15.0654 26.7745 14.6364C27.8901 14.2073 29.0057 13.9498 30.3787 13.9498C31.8376 13.9498 33.1248 14.2073 34.2404 14.808C35.356 15.4087 36.2142 16.0952 36.9007 17.125C37.5872 18.069 38.1021 19.1846 38.4454 20.386C38.617 21.5874 38.7028 22.7889 38.617 24.1619H26.1738C26.1738 25.535 26.6886 26.8222 27.3752 27.5087ZM32.7816 18.4981C32.1808 17.8974 31.2369 17.5541 30.1213 17.5541C29.3489 17.5541 28.7482 17.7257 28.2333 17.9832C27.7184 18.2406 27.3752 18.5839 27.0319 18.9271C26.6886 19.2704 26.517 19.6995 26.4312 20.1286C26.3454 20.5576 26.2596 20.9009 26.2596 21.2442H33.983C33.8113 19.9569 33.3823 19.0988 32.7816 18.4981ZM45.3106 7.85693V16.7818H45.3964C45.9972 15.752 46.7695 15.0654 47.7135 14.6364C48.6574 14.2073 49.5156 13.9498 50.4596 13.9498C51.7468 13.9498 52.7766 14.1215 53.5489 14.4647C54.3213 14.808 55.0078 15.3229 55.4369 15.9236C55.8659 16.5243 56.2092 17.2967 56.3808 18.1548C56.5525 19.013 56.6383 19.9569 56.6383 21.0725V31.6279H51.9184V21.9307C51.9184 20.4718 51.661 19.442 51.2319 18.7555C50.8028 18.069 50.0305 17.7257 48.9149 17.7257C47.6277 17.7257 46.6837 18.1548 46.1688 18.8413C45.5681 19.6137 45.3106 20.9009 45.3106 22.6172V31.6279H40.5908V7.85693H45.3106ZM60.0709 16.9534C60.5858 16.181 61.1865 15.6662 61.9589 15.1513C62.7312 14.7222 63.5893 14.3789 64.5333 14.2073C65.4773 14.0357 66.4213 13.9498 67.3652 13.9498C68.2234 13.9498 69.0815 14.0357 70.0255 14.1215C70.8837 14.2073 71.7418 14.4647 72.4284 14.808C73.2007 15.1513 73.7156 15.6662 74.2305 16.2669C74.6596 16.8676 74.917 17.7257 74.917 18.7555V27.7662C74.917 28.5385 75.0028 29.3108 75.0886 29.9974C75.1745 30.6839 75.4319 31.2846 75.6893 31.6279H70.8837C70.712 31.4562 70.6262 31.113 70.5404 30.8555C70.4546 30.5981 70.4546 30.2548 70.4546 29.9974C69.6823 30.7697 68.8241 31.2846 67.7943 31.6279C66.7645 31.9711 65.7347 32.0569 64.7049 32.0569C63.8468 32.0569 63.1603 31.9711 62.3879 31.7137C61.7014 31.542 61.1007 31.1988 60.5 30.7697C59.9851 30.3406 59.556 29.8257 59.2128 29.1392C58.9553 28.4527 58.7837 27.7662 58.7837 26.8222C58.7837 25.8782 58.9553 25.0201 59.2986 24.4193C59.6418 23.8186 60.0709 23.3037 60.5858 22.8747C61.1007 22.5314 61.7872 22.1881 62.4737 22.0165C63.1603 21.8449 63.8468 21.6732 64.6191 21.5874L66.6787 21.33C67.3652 21.2442 67.9659 21.1584 68.4808 21.0725C68.9957 20.9009 69.4248 20.7293 69.7681 20.4718C70.1113 20.2144 70.1972 19.8711 70.1972 19.3562C70.1972 18.8413 70.1113 18.4123 69.9397 18.1548C69.7681 17.8974 69.5106 17.6399 69.2532 17.4683C68.9957 17.2967 68.6525 17.2108 68.3092 17.125C67.9659 17.0392 67.5369 17.0392 67.1078 17.0392C66.1638 17.0392 65.4773 17.2108 64.9624 17.6399C64.4475 18.069 64.1042 18.7555 64.0184 19.6137H59.2986C59.2986 18.5839 59.6418 17.6399 60.0709 16.9534ZM69.4248 23.647C69.1674 23.7328 68.8241 23.8186 68.4808 23.9045C68.1376 23.9903 67.7943 23.9903 67.3652 24.0761C67.022 24.1619 66.5929 24.1619 66.2496 24.2477L65.2198 24.5052C64.8766 24.591 64.5333 24.7626 64.3617 24.9342C64.1042 25.1059 63.9326 25.3633 63.761 25.6208C63.5035 25.964 63.5035 26.3073 63.5035 26.7364C63.5035 27.1654 63.5894 27.5087 63.761 27.7662C63.9326 28.0236 64.1042 28.281 64.3617 28.4527C64.6191 28.6243 64.9624 28.7101 65.3057 28.7959C65.6489 28.8818 65.9922 28.8818 66.4213 28.8818C67.3652 28.8818 68.0518 28.7101 68.5667 28.4527C69.0816 28.1094 69.4248 27.7662 69.6823 27.3371C69.9397 26.908 70.1113 26.4789 70.1113 26.0498C70.1971 25.6208 70.1972 25.2775 70.1972 25.0201V23.2179C69.9397 23.3896 69.6823 23.5612 69.4248 23.647ZM82.0397 14.3789V16.7818H82.1255C82.7262 15.752 83.4986 15.0654 84.4425 14.6364C85.3865 14.2073 86.4163 13.9498 87.3603 13.9498C88.6475 13.9498 89.6773 14.1215 90.4496 14.4647C91.3078 14.808 91.9085 15.3229 92.3376 15.9236C92.7666 16.5243 93.1099 17.2967 93.3674 18.1548C93.539 19.013 93.6248 19.9569 93.6248 21.0725V31.6279H88.9049V21.9307C88.9049 20.4718 88.6475 19.442 88.2184 18.7555C87.7893 18.069 87.017 17.6399 85.8156 17.6399C84.5284 17.6399 83.5844 18.1548 82.9837 18.9271C82.383 19.6995 82.1255 20.9867 82.1255 22.703V31.7137H77.4057V14.3789H82.0397ZM104.18 17.4683C103.408 17.4683 102.807 17.6399 102.292 17.9832C101.777 18.3264 101.348 18.7555 101.005 19.3562C100.662 19.8711 100.49 20.4718 100.318 21.1584C100.147 21.8449 100.147 22.4456 100.147 23.1321C100.147 23.7328 100.233 24.4193 100.318 25.0201C100.49 25.7066 100.662 26.2215 101.005 26.7364C101.348 27.2513 101.691 27.6803 102.206 28.0236C102.721 28.3669 103.322 28.5385 104.094 28.5385C105.21 28.5385 106.068 28.1952 106.755 27.5945C107.355 26.9938 107.784 26.1357 107.87 25.0201H112.418C112.075 27.3371 111.217 29.0534 109.758 30.2548C108.299 31.4562 106.411 32.0569 104.094 32.0569C102.807 32.0569 101.606 31.7995 100.576 31.3704C99.4603 30.9413 98.6021 30.3406 97.8298 29.5683C97.0574 28.7959 96.4567 27.852 96.0276 26.8222C95.5986 25.7066 95.4269 24.591 95.4269 23.3037C95.4269 21.9307 95.5986 20.7293 96.0276 19.6137C96.4567 18.4981 96.9716 17.4683 97.7439 16.6101C98.5163 15.752 99.4603 15.1513 100.49 14.6364C101.606 14.2073 102.807 13.9498 104.18 13.9498C105.21 13.9498 106.154 14.1215 107.098 14.3789C108.042 14.6364 108.9 15.0654 109.587 15.5803C110.359 16.0952 110.96 16.7818 111.389 17.6399C111.818 18.4123 112.075 19.442 112.161 20.5576H107.527C107.355 18.4981 106.24 17.4683 104.18 17.4683ZM25.2298 9.48743H34.8411V11.8045H25.2298V9.48743ZM119.541 27.5087C120.228 28.1952 121.343 28.5385 122.63 28.5385C123.574 28.5385 124.433 28.281 125.119 27.852C125.806 27.3371 126.235 26.8222 126.406 26.3073H130.526C129.839 28.3669 128.809 29.8257 127.436 30.7697C126.063 31.6279 124.433 32.1428 122.459 32.1428C121.086 32.1428 119.884 31.8853 118.769 31.4562C117.653 31.0271 116.795 30.4264 116.023 29.5683C115.25 28.7959 114.65 27.852 114.306 26.7364C113.877 25.6208 113.706 24.4193 113.706 23.0463C113.706 21.7591 113.877 20.5576 114.306 19.442C114.735 18.3264 115.336 17.3825 116.108 16.5243C116.881 15.752 117.825 15.0654 118.855 14.6364C119.97 14.2073 121.172 13.9498 122.459 13.9498C123.918 13.9498 125.205 14.2073 126.235 14.808C127.35 15.4087 128.208 16.0952 128.895 17.125C129.582 18.069 130.096 19.1846 130.44 20.386C130.783 21.5874 130.869 22.8747 130.783 24.2477H118.34C118.34 25.535 118.855 26.8222 119.541 27.5087ZM125.033 18.4981C124.433 17.8974 123.489 17.5541 122.373 17.5541C121.601 17.5541 121 17.7257 120.485 17.9832C119.97 18.2406 119.541 18.5839 119.284 18.9271C119.026 19.2704 118.769 19.6995 118.683 20.1286C118.597 20.5576 118.511 20.9009 118.511 21.2442H126.235C125.977 19.9569 125.548 19.0988 125.033 18.4981Z" fill="white"/>
</g>
<defs>
<clipPath id="clip0_850_5069">
<rect width="130.814" height="40" fill="white"/>
</clipPath>
</defs>
</svg>
