<svg width="40" height="40" viewBox="0 0 40 40" fill="none" xmlns="http://www.w3.org/2000/svg">
<g clip-path="url(#clip0_866_9152)">
<g clip-path="url(#clip1_866_9152)">
<mask id="mask0_866_9152" style="mask-type:luminance" maskUnits="userSpaceOnUse" x="-1" y="4" width="41" height="33">
<path d="M39.3005 4.62451H-0.680237V36.8041H39.3005V4.62451Z" fill="white"/>
</mask>
<g mask="url(#mask0_866_9152)">
<path d="M7.05749 19.3726C7.24044 19.3709 7.42242 19.4007 7.59627 19.461C7.76921 19.5177 7.93834 19.5867 8.10253 19.6674L8.4741 18.6502C8.03958 18.4278 7.56335 18.312 7.08071 18.3111C6.67202 18.3018 6.26827 18.407 5.91027 18.6157C5.58052 18.8172 5.31525 19.1184 5.14856 19.4807C4.96688 19.8893 4.87631 20.3365 4.88382 20.788C4.84035 21.4474 5.03638 22.0995 5.43188 22.6112C5.63496 22.8272 5.87913 22.9949 6.14819 23.1034C6.41726 23.2119 6.70506 23.2585 6.99247 23.2402C7.4388 23.2499 7.88201 23.1594 8.29296 22.9748V21.879C8.10628 21.9603 7.91558 22.0308 7.72167 22.0903C7.53325 22.1496 7.33766 22.1793 7.14109 22.1787C6.47691 22.1787 6.14715 21.7168 6.14715 20.7977C6.12695 20.4305 6.21281 20.0654 6.39331 19.751C6.46601 19.6315 6.56663 19.5338 6.68542 19.4676C6.80422 19.4013 6.93717 19.3686 7.07143 19.3726H7.05749Z" fill="#191B1D"/>
<path d="M12.4733 22.1886C12.2416 22.1763 12.0122 22.1333 11.7906 22.0609C11.5392 21.9876 11.295 21.8888 11.0613 21.766V22.916C11.2651 23.0219 11.4804 23.1012 11.7023 23.1519C11.9558 23.2089 12.2142 23.2386 12.4733 23.2403C12.7926 23.2449 13.1092 23.1779 13.4023 23.0437C13.6538 22.9315 13.8686 22.7435 14.02 22.5031C14.1647 22.2681 14.2392 21.9924 14.2337 21.7119C14.2445 21.424 14.1644 21.1405 14.0061 20.9059C13.7835 20.6423 13.5049 20.4385 13.1933 20.3113C12.934 20.197 12.6839 20.0606 12.4455 19.9034C12.4049 19.8766 12.3711 19.8398 12.3468 19.7961C12.3225 19.7525 12.3085 19.7033 12.3061 19.6528C12.306 19.6091 12.3162 19.566 12.3357 19.5274C12.3551 19.4889 12.3832 19.4559 12.4176 19.4316C12.5201 19.3635 12.6407 19.3324 12.7613 19.3432C13.1434 19.3627 13.517 19.4683 13.8575 19.6528L14.2337 18.6699C13.7831 18.4509 13.2942 18.3338 12.7985 18.3259C12.3542 18.2981 11.914 18.4298 11.549 18.6994C11.3978 18.8182 11.2764 18.9743 11.1954 19.1542C11.1144 19.3341 11.0764 19.5324 11.0845 19.7314C11.079 19.9403 11.1154 20.148 11.1914 20.3408C11.2646 20.5207 11.3777 20.6791 11.5212 20.8028C11.7235 20.9722 11.947 21.1112 12.1854 21.2155C12.3912 21.3048 12.5914 21.4082 12.7845 21.5252C12.8484 21.5629 12.9051 21.6129 12.9517 21.6726C12.9735 21.706 12.9887 21.7437 12.9965 21.7835C13.0044 21.8232 13.0046 21.8641 12.9973 21.904C12.9899 21.9438 12.9751 21.9816 12.9537 22.0154C12.9323 22.049 12.9048 22.0779 12.8728 22.1002C12.7535 22.1791 12.6135 22.2153 12.4733 22.2034V22.1886Z" fill="#191B1D"/>
<path d="M18.26 22.1888C18.0299 22.176 17.8021 22.1331 17.5819 22.0611C17.3307 21.9869 17.0866 21.8882 16.8527 21.7662V22.9162C17.0565 23.0222 17.2717 23.1013 17.4936 23.1521C17.7432 23.2015 17.9968 23.2245 18.2507 23.2208C18.5695 23.2251 18.8856 23.1599 19.1796 23.0292C19.4294 22.9161 19.6425 22.7282 19.7927 22.4886C19.9374 22.2536 20.0119 21.9779 20.0064 21.6973C20.0172 21.4095 19.9371 21.1259 19.7788 20.8914C19.5577 20.6351 19.2823 20.4381 18.9752 20.3164C18.7164 20.2009 18.4665 20.0646 18.2274 19.9085C18.1874 19.8814 18.1543 19.8445 18.1309 19.8008C18.1074 19.7571 18.0943 19.7081 18.0927 19.6579C18.0918 19.6145 18.101 19.5716 18.1197 19.533C18.1383 19.4944 18.1658 19.4612 18.1996 19.4368C18.3035 19.3678 18.4259 19.3368 18.5479 19.3483C18.9299 19.3684 19.3035 19.4739 19.6441 19.6579L20.0156 18.675C19.5667 18.4562 19.0794 18.339 18.5851 18.331C18.1393 18.3025 17.6974 18.4341 17.3311 18.7045C17.1804 18.8238 17.0594 18.9801 16.9785 19.1598C16.8976 19.3396 16.8592 19.5376 16.8666 19.7365C16.8626 19.9452 16.899 20.1526 16.9734 20.3459C17.0465 20.5258 17.1596 20.6843 17.3032 20.8079C17.5063 20.9761 17.7296 21.1149 17.9673 21.2207C18.1742 21.3114 18.3757 21.4148 18.5712 21.5303C18.6338 21.5679 18.6889 21.618 18.7337 21.6777C18.7671 21.7282 18.7849 21.7882 18.7848 21.8498C18.7855 21.9 18.7743 21.9496 18.7524 21.9942C18.7306 22.0387 18.6986 22.077 18.6594 22.1052C18.5399 22.1835 18.4001 22.2196 18.26 22.2085V22.1888Z" fill="#191B1D"/>
<path d="M26.0725 18.9699C25.6055 18.5502 25.0027 18.3388 24.3912 18.3801H22.8213V23.1717H24.2843C24.6031 23.1931 24.9226 23.1467 25.2242 23.0352C25.5257 22.9239 25.8031 22.7497 26.04 22.523C26.2589 22.2771 26.4276 21.9862 26.5355 21.6683C26.6433 21.3503 26.6882 21.0122 26.667 20.6752C26.6865 20.3627 26.6437 20.0493 26.5414 19.7555C26.4389 19.4617 26.2791 19.194 26.0725 18.9699ZM25.1436 21.771C25.0412 21.8904 24.9141 21.983 24.7723 22.0418C24.6306 22.1006 24.4779 22.124 24.3261 22.1102H24.0568V19.4269H24.4097C24.549 19.4173 24.6887 19.441 24.8181 19.4963C24.9476 19.5516 25.0636 19.6371 25.1575 19.7464C25.3471 20.0328 25.4344 20.3811 25.4037 20.7292C25.4269 21.0987 25.332 21.4655 25.1343 21.771H25.1436Z" fill="#191B1D"/>
<path d="M32.2129 18.3606H30.5872L29.1009 23.1717H30.4433L30.6755 22.2773H32.1478L32.3707 23.1717H33.7083L32.2129 18.3606ZM30.9309 21.2109C31.1167 20.464 31.2374 19.9578 31.2932 19.7022C31.3489 19.4466 31.386 19.2648 31.4047 19.1517C31.4047 19.2697 31.465 19.4712 31.5301 19.7465C31.5951 20.0216 31.6508 20.2378 31.6973 20.4246L31.8923 21.2109H30.9309Z" fill="#191B1D"/>
<path d="M25.1576 14.9006L20.4806 10.0205L15.8964 14.9006H13.2768L23.0165 4.62451H12.7937L3.01687 14.9006H-0.680237L-0.262223 15.6181H39.3005V14.9006H25.1576Z" fill="#191B1D"/>
<path d="M-0.680298 26.6116H13.3603L17.9259 31.4375L22.5752 26.6116H25.0693L15.39 36.8041H25.6128L30.7033 31.4719L35.334 26.6116H39.3004V25.894H-0.680298V26.6116Z" fill="#191B1D"/>
</g>
</g>
</g>
<defs>
<clipPath id="clip0_866_9152">
<rect width="40" height="40" fill="white"/>
</clipPath>
<clipPath id="clip1_866_9152">
<rect width="40.9559" height="33.1548" fill="white" transform="translate(-0.955811 3.75)"/>
</clipPath>
</defs>
</svg>
