<svg width="200" height="80" viewBox="0 0 200 80" fill="none" xmlns="http://www.w3.org/2000/svg">
<path d="M119.351 45.051C118.118 44.5998 116.814 44.3736 115.501 44.3829C113.081 44.3829 111.65 45.3673 111.65 46.992V47.0552C111.65 48.6365 113.081 49.5338 114.896 49.5338C117.442 49.5338 119.351 48.1028 119.351 46.0037V45.051ZM119.256 52.0796V50.0121C118.592 50.8021 117.757 51.4304 116.814 51.8496C115.87 52.2688 114.844 52.4677 113.813 52.4314C110.631 52.4314 107.832 50.6169 107.832 47.245V47.1817C107.832 43.4579 110.729 41.6751 114.643 41.6751C116.219 41.649 117.789 41.8854 119.288 42.3748V42.0585C119.288 39.7341 117.825 38.4652 115.153 38.4652C113.494 38.4693 111.856 38.8264 110.346 39.5128L109.294 36.4294C111.29 35.4757 113.479 34.9955 115.69 35.026C120.656 35.026 123.075 37.6351 123.075 42.1416V52.0796H119.256Z" fill="white"/>
<path d="M125.012 49.8851L126.731 47.276C128.546 48.6438 130.518 49.3435 132.234 49.3435C133.89 49.3435 134.843 48.6438 134.843 47.529V47.4658C134.843 46.1613 133.06 45.7185 131.087 45.0939C128.613 44.414 125.846 43.3941 125.846 40.1803V40.117C125.846 36.9546 128.486 34.978 131.827 34.978C134.024 35.0189 136.165 35.6809 138.001 36.8874L136.468 39.6387C134.843 38.6544 133.123 38.0575 131.724 38.0575C130.23 38.0575 129.352 38.7572 129.352 39.7415V39.8087C129.352 41.0183 131.167 41.5243 133.139 42.1805C135.586 42.9435 138.357 44.0582 138.357 47.0823V47.1456C138.357 50.6757 135.618 52.4269 132.119 52.4269C129.536 52.3912 127.036 51.5079 125.004 49.9127" fill="white"/>
<path d="M140.634 56.242L141.938 53.3761C142.625 53.7749 143.402 53.9938 144.196 54.0125C145.279 54.0125 145.947 53.5381 146.567 52.0716L139.582 35.2908H143.686L148.461 47.7667L152.809 35.2908H156.818L150.137 52.5696C148.801 56.0049 147.307 57.2778 144.603 57.2778C143.211 57.2909 141.841 56.9334 140.634 56.242Z" fill="white"/>
<path d="M107.543 39.2003C107.595 38.6864 107.622 38.1646 107.622 37.6191C107.624 33.8397 106.229 30.1931 103.705 27.3797C101.182 24.5663 97.7076 22.7846 93.9503 22.3767C90.1931 21.9688 86.4176 22.9635 83.3491 25.1699C80.2806 27.3762 78.1356 30.6385 77.326 34.3301H81.0972C81.8479 31.7783 83.4475 29.5593 85.6314 28.0406C87.8152 26.522 90.4521 25.7946 93.1057 25.9791C95.7593 26.1636 98.2702 27.2488 100.223 29.055C102.176 30.8612 103.453 33.2802 103.843 35.9113H77.0651C77.0015 36.477 76.9699 37.0459 76.9702 37.6151C76.9703 40.7847 77.9532 43.8763 79.7834 46.4641C81.6136 49.0519 84.2011 51.0086 87.1895 52.0647C90.178 53.1208 93.4204 53.2244 96.4702 52.3612C99.5199 51.498 102.227 49.7105 104.219 47.2448L101.388 44.9322C99.9588 46.7112 98.0389 48.0318 95.8663 48.7305C93.6938 49.4292 91.364 49.4753 89.1655 48.8631C86.967 48.2509 84.9963 47.0072 83.4976 45.2862C81.9988 43.5652 81.0378 41.4423 80.7335 39.1805H107.543V39.2003Z" fill="white"/>
<path d="M112.868 26.6655C112.882 26.4819 112.857 26.2975 112.797 26.1236C112.737 25.9496 112.642 25.7897 112.518 25.6536C112.395 25.5175 112.244 25.408 112.077 25.3319C111.909 25.2557 111.728 25.2145 111.544 25.2107C111.359 25.2158 111.178 25.2574 111.009 25.333C110.841 25.4086 110.689 25.5167 110.563 25.6512C110.436 25.7857 110.338 25.9438 110.273 26.1165C110.208 26.2892 110.178 26.4731 110.184 26.6575C110.177 26.8426 110.206 27.0274 110.271 27.201C110.335 27.3746 110.433 27.5337 110.56 27.669C110.686 27.8044 110.839 27.9132 111.007 27.9893C111.176 28.0654 111.359 28.1072 111.544 28.1123C111.728 28.1125 111.911 28.0742 112.08 27.9999C112.249 27.9256 112.4 27.817 112.525 27.6808C112.65 27.5447 112.744 27.3841 112.803 27.2093C112.863 27.0345 112.885 26.8493 112.868 26.6655ZM109.638 24.7719H110.2V25.5309C110.346 25.2782 110.556 25.068 110.808 24.9211C111.06 24.7741 111.347 24.6955 111.639 24.6929C111.886 24.6977 112.13 24.7526 112.356 24.8542C112.582 24.9559 112.784 25.1021 112.952 25.2842C113.12 25.4663 113.249 25.6804 113.332 25.9138C113.414 26.1471 113.449 26.3947 113.433 26.6417C113.449 26.8893 113.415 27.1375 113.333 27.3715C113.25 27.6055 113.121 27.8204 112.954 28.0032C112.786 28.1861 112.583 28.3331 112.357 28.4354C112.131 28.5377 111.887 28.5932 111.639 28.5985C111.351 28.6001 111.068 28.5283 110.817 28.3899C110.565 28.2516 110.352 28.0512 110.2 27.8079V29.6935H109.638V24.7719Z" fill="white"/>
<path d="M116.516 27.1514V26.8035C116.161 26.6956 115.792 26.641 115.421 26.6414C114.722 26.6414 114.322 26.9458 114.322 27.3964C114.322 27.8708 114.757 28.1475 115.267 28.1475C115.959 28.1475 116.516 27.7522 116.516 27.1355V27.1514ZM113.749 27.4241C113.749 26.6335 114.405 26.1947 115.358 26.1947C115.746 26.1903 116.132 26.2435 116.505 26.3528V26.2382C116.505 25.5701 116.109 25.2183 115.394 25.2183C114.998 25.2212 114.607 25.3131 114.251 25.4871L114.085 25.0325C114.51 24.8217 114.979 24.7121 115.453 24.7123C115.894 24.678 116.331 24.8202 116.667 25.1076C116.804 25.2561 116.909 25.4306 116.977 25.6208C117.045 25.811 117.074 26.0129 117.062 26.2145V28.531H116.509V27.9736C116.351 28.1772 116.148 28.3412 115.916 28.4524C115.684 28.5636 115.43 28.6189 115.172 28.614C114.469 28.614 113.769 28.2187 113.769 27.4281" fill="white"/>
<path d="M117.813 24.7715H118.371V25.7558C118.487 25.4418 118.698 25.172 118.975 24.9841C119.253 24.7963 119.582 24.6998 119.916 24.7083V25.3091H119.873C119.054 25.3091 118.382 25.8981 118.382 27.0327V28.5309H117.825L117.813 24.7715Z" fill="white"/>
<path d="M120.806 27.5349V25.2659H120.285V24.7717H120.806V23.6372H121.368V24.7717H122.554V25.2659H121.368V27.4638C121.356 27.5493 121.364 27.6365 121.391 27.7184C121.419 27.8002 121.465 27.8745 121.527 27.9352C121.588 27.9959 121.663 28.0414 121.745 28.068C121.828 28.0946 121.915 28.1016 122 28.0884C122.19 28.0891 122.377 28.0444 122.546 27.9579V28.4402C122.337 28.547 122.105 28.6012 121.87 28.5983C121.726 28.6155 121.58 28.5998 121.443 28.5524C121.307 28.5051 121.182 28.4273 121.08 28.3249C120.978 28.2225 120.9 28.0982 120.852 27.9613C120.805 27.8245 120.789 27.6787 120.806 27.5349Z" fill="white"/>
<path d="M122.968 24.7719H123.525V25.4281C123.652 25.1992 123.839 25.0095 124.067 24.8799C124.294 24.7502 124.552 24.6855 124.814 24.6929C125.01 24.6846 125.206 24.7186 125.389 24.7925C125.571 24.8663 125.735 24.9784 125.87 25.1211C126.006 25.2639 126.109 25.4339 126.173 25.6199C126.237 25.8058 126.26 26.0033 126.241 26.199V28.5313H125.684V26.3373C125.684 25.6376 125.288 25.2028 124.644 25.2028C124.49 25.1991 124.336 25.2277 124.194 25.2867C124.051 25.3457 123.923 25.4339 123.816 25.5456C123.71 25.6573 123.628 25.79 123.576 25.9352C123.524 26.0803 123.502 26.2348 123.513 26.3887V28.5313H122.956L122.968 24.7719Z" fill="white"/>
<path d="M129.767 26.4318C129.7 25.7479 129.309 25.1668 128.581 25.1668C128.256 25.1856 127.95 25.3262 127.723 25.5606C127.497 25.795 127.367 26.1061 127.36 26.4318H129.767ZM128.668 28.1316C128.893 28.1344 129.115 28.0885 129.319 27.997C129.524 27.9056 129.707 27.7708 129.854 27.6019L130.202 27.9142C130.015 28.142 129.778 28.3238 129.509 28.4458C129.24 28.5677 128.947 28.6266 128.653 28.6179C128.397 28.6194 128.144 28.5685 127.909 28.4684C127.674 28.3683 127.462 28.2211 127.286 28.0359C127.11 27.8507 126.974 27.6314 126.886 27.3916C126.798 27.1517 126.76 26.8964 126.775 26.6413C126.759 26.3919 126.794 26.142 126.877 25.9064C126.961 25.6707 127.09 25.4543 127.259 25.2698C127.427 25.0854 127.631 24.9368 127.859 24.8328C128.086 24.7289 128.332 24.6717 128.581 24.6648C129.692 24.6648 130.333 25.5503 130.333 26.6413C130.336 26.7072 130.336 26.7731 130.333 26.839H127.352C127.368 27.178 127.515 27.4976 127.762 27.7305C128.009 27.9634 128.337 28.0916 128.676 28.0882" fill="white"/>
<path d="M130.878 24.7711H131.44V25.7554C131.554 25.4453 131.762 25.1782 132.035 24.9907C132.307 24.8032 132.631 24.7044 132.962 24.7079V25.3087H132.918C132.096 25.3087 131.428 25.8977 131.428 27.0323V28.5305H130.866L130.878 24.7711Z" fill="white"/>
<path d="M133.219 28.0529L133.503 27.6576C133.874 27.9529 134.33 28.1206 134.804 28.1359C135.254 28.1359 135.594 27.9027 135.594 27.539C135.594 27.1437 135.152 27.0133 134.657 26.8749C134.068 26.7089 133.412 26.5033 133.412 25.8155C133.412 25.1672 133.954 24.7402 134.693 24.7402C135.174 24.7479 135.643 24.8918 136.045 25.1553L135.792 25.5743C135.462 25.3512 135.075 25.2252 134.677 25.2107C134.234 25.2107 133.954 25.4439 133.954 25.7562C133.954 26.1119 134.416 26.2503 134.918 26.4045C135.499 26.5784 136.128 26.7998 136.128 27.4797C136.128 28.1913 135.539 28.6063 134.788 28.6063C134.222 28.5976 133.675 28.4031 133.23 28.0529" fill="white"/>
<path d="M141.208 26.4754C141.202 26.3006 141.161 26.1288 141.088 25.9698C141.015 25.8109 140.911 25.6681 140.782 25.5496C140.654 25.4312 140.503 25.3395 140.338 25.28C140.174 25.2204 139.999 25.1941 139.824 25.2025C139.654 25.1944 139.485 25.2212 139.325 25.2815C139.166 25.3417 139.021 25.434 138.899 25.5526C138.777 25.6712 138.681 25.8136 138.617 25.971C138.552 26.1284 138.52 26.2974 138.524 26.4675C138.523 26.6377 138.556 26.8064 138.621 26.9636C138.686 27.1207 138.782 27.2633 138.904 27.3827C139.025 27.5021 139.169 27.596 139.327 27.6588C139.485 27.7216 139.654 27.752 139.824 27.7483C139.999 27.7557 140.173 27.7287 140.337 27.6687C140.501 27.6087 140.652 27.517 140.78 27.3988C140.909 27.2806 141.013 27.1381 141.086 26.9797C141.159 26.8213 141.201 26.6499 141.208 26.4754ZM138.121 29.1872L138.378 28.7524C138.795 29.0648 139.303 29.2327 139.824 29.2307C140.006 29.2508 140.191 29.2301 140.364 29.1703C140.537 29.1104 140.695 29.0129 140.826 28.8846C140.957 28.7564 141.057 28.6007 141.121 28.4288C141.184 28.2569 141.208 28.0731 141.192 27.8906V27.4479C141.029 27.6908 140.809 27.89 140.552 28.0278C140.294 28.1657 140.006 28.238 139.714 28.2385C139.481 28.2422 139.25 28.1993 139.035 28.1123C138.819 28.0253 138.623 27.896 138.459 27.732C138.294 27.568 138.164 27.3727 138.076 27.1576C137.988 26.9424 137.944 26.7118 137.947 26.4794C137.949 26.102 138.071 25.7351 138.295 25.4314C138.519 25.1277 138.834 24.903 139.194 24.7897C139.554 24.6763 139.94 24.68 140.298 24.8004C140.656 24.9208 140.966 25.1515 141.184 25.4595V24.7717H141.746V27.8788C141.759 28.1218 141.723 28.3651 141.64 28.594C141.557 28.8229 141.429 29.0327 141.263 29.211C141.069 29.384 140.843 29.5171 140.597 29.6026C140.352 29.688 140.092 29.7242 139.832 29.709C139.222 29.7156 138.624 29.5333 138.121 29.1872Z" fill="white"/>
<path d="M142.413 24.7713H142.97V25.7557C143.086 25.4429 143.296 25.174 143.572 24.9863C143.848 24.7986 144.175 24.7013 144.508 24.7081V25.309H144.465C143.642 25.309 142.97 25.898 142.97 27.0325V28.5307H142.413V24.7713Z" fill="white"/>
<path d="M147.873 26.6692C147.879 26.4805 147.849 26.2924 147.782 26.1158C147.715 25.9392 147.614 25.7777 147.484 25.6408C147.354 25.5038 147.198 25.3942 147.025 25.3183C146.852 25.2424 146.666 25.2017 146.477 25.1987C146.29 25.2 146.105 25.2392 145.934 25.3138C145.762 25.3884 145.608 25.4969 145.479 25.6328C145.351 25.7687 145.251 25.9291 145.186 26.1045C145.121 26.2799 145.092 26.4666 145.101 26.6534C145.095 26.8412 145.125 27.0284 145.192 27.2041C145.259 27.3797 145.36 27.5403 145.49 27.6762C145.619 27.8122 145.775 27.9208 145.947 27.9957C146.119 28.0705 146.305 28.1101 146.493 28.1121C146.68 28.1117 146.865 28.0736 147.036 27.9999C147.208 27.9262 147.363 27.8185 147.492 27.6833C147.621 27.5481 147.721 27.3882 147.786 27.2132C147.852 27.0383 147.881 26.8519 147.873 26.6653V26.6692ZM144.528 26.6653C144.589 26.1881 144.822 25.7495 145.183 25.4316C145.544 25.1136 146.008 24.9382 146.489 24.9382C146.97 24.9382 147.434 25.1136 147.795 25.4316C148.156 25.7495 148.389 26.1881 148.45 26.6653C148.453 26.9257 148.404 27.1841 148.306 27.4254C148.208 27.6666 148.062 27.8858 147.878 28.07C147.694 28.2541 147.475 28.3996 147.233 28.4978C146.992 28.596 146.734 28.645 146.473 28.6418C146.216 28.645 145.962 28.5967 145.724 28.4999C145.486 28.4031 145.27 28.2597 145.088 28.0781C144.906 27.8965 144.763 27.6804 144.666 27.4425C144.569 27.2046 144.521 26.9497 144.524 26.6929" fill="white"/>
<path d="M148.963 27.108V24.7717H149.524V26.9894C149.524 27.6851 149.92 28.1239 150.564 28.1239C150.718 28.1265 150.87 28.0971 151.012 28.0376C151.154 27.9781 151.282 27.8898 151.388 27.7783C151.494 27.6669 151.575 27.5346 151.627 27.39C151.68 27.2453 151.701 27.0914 151.691 26.938V24.7717H152.244V28.5311H151.691V27.8788C151.564 28.1075 151.376 28.2969 151.149 28.4265C150.922 28.5562 150.664 28.621 150.402 28.6141C150.205 28.6241 150.007 28.5915 149.824 28.5184C149.64 28.4453 149.474 28.3334 149.338 28.1905C149.201 28.0476 149.097 27.8769 149.032 27.6901C148.968 27.5033 148.944 27.3048 148.963 27.108Z" fill="white"/>
<path d="M155.996 26.6655C156.009 26.4819 155.985 26.2975 155.925 26.1236C155.865 25.9496 155.77 25.7897 155.646 25.6536C155.522 25.5175 155.372 25.408 155.205 25.3319C155.037 25.2557 154.856 25.2145 154.672 25.2107C154.487 25.2158 154.306 25.2574 154.137 25.333C153.969 25.4086 153.817 25.5167 153.691 25.6512C153.564 25.7857 153.466 25.9438 153.401 26.1165C153.336 26.2892 153.305 26.4731 153.312 26.6575C153.304 26.8426 153.334 27.0274 153.398 27.201C153.463 27.3746 153.561 27.5337 153.688 27.669C153.814 27.8044 153.966 27.9132 154.135 27.9893C154.304 28.0654 154.486 28.1072 154.672 28.1123C154.856 28.1125 155.039 28.0742 155.208 27.9999C155.377 27.9256 155.528 27.817 155.653 27.6808C155.777 27.5447 155.872 27.3841 155.931 27.2093C155.99 27.0345 156.012 26.8493 155.996 26.6655ZM152.774 24.7719H153.336V25.5309C153.482 25.2782 153.692 25.068 153.944 24.9211C154.196 24.7741 154.482 24.6955 154.774 24.6929C155.022 24.6977 155.266 24.7526 155.492 24.8542C155.717 24.9559 155.92 25.1021 156.088 25.2842C156.255 25.4663 156.385 25.6804 156.467 25.9138C156.55 26.1471 156.585 26.3947 156.569 26.6417C156.585 26.8893 156.551 27.1375 156.469 27.3715C156.386 27.6055 156.257 27.8204 156.089 28.0032C155.922 28.1861 155.719 28.3331 155.493 28.4354C155.267 28.5377 155.022 28.5932 154.774 28.5985C154.487 28.6001 154.204 28.5283 153.952 28.3899C153.701 28.2516 153.488 28.0512 153.336 27.8079V29.6935H152.774V24.7719Z" fill="white"/>
<path d="M47.8404 22.3091C46.5504 22.3091 45.3133 22.8212 44.4008 23.733C43.4883 24.6447 42.9752 25.8814 42.9741 27.1714V37.4019H58.063V22.3091H47.8404ZM52.4773 25.9301C52.7119 25.9301 52.9411 25.9996 53.1362 26.13C53.3312 26.2603 53.4832 26.4455 53.573 26.6622C53.6627 26.8789 53.6862 27.1173 53.6404 27.3474C53.5947 27.5774 53.4817 27.7887 53.3159 27.9546C53.15 28.1204 52.9387 28.2334 52.7087 28.2791C52.4786 28.3249 52.2402 28.3014 52.0235 28.2117C51.8068 28.1219 51.6216 27.9699 51.4912 27.7749C51.3609 27.5799 51.2914 27.3506 51.2914 27.116C51.2914 26.8015 51.4163 26.4998 51.6387 26.2774C51.8611 26.055 52.1628 25.9301 52.4773 25.9301ZM49.3583 25.9301C49.5929 25.9301 49.8222 25.9996 50.0172 26.13C50.2122 26.2603 50.3642 26.4455 50.454 26.6622C50.5437 26.8789 50.5672 27.1173 50.5215 27.3474C50.4757 27.5774 50.3628 27.7887 50.1969 27.9546C50.031 28.1204 49.8197 28.2334 49.5897 28.2791C49.3596 28.3249 49.1212 28.3014 48.9045 28.2117C48.6878 28.1219 48.5026 27.9699 48.3723 27.7749C48.242 27.5799 48.1724 27.3506 48.1724 27.116C48.1724 26.8015 48.2974 26.4998 48.5198 26.2774C48.7422 26.055 49.0438 25.9301 49.3583 25.9301ZM47.0102 30.9426H46.9825C46.7204 30.9426 46.4691 30.8385 46.2837 30.6531C46.0984 30.4678 45.9943 30.2164 45.9943 29.9543C45.9943 29.6922 46.0984 29.4408 46.2837 29.2555C46.4691 29.0702 46.7204 28.9661 46.9825 28.9661H47.9708V29.0095C47.6744 29.163 47.4258 29.395 47.2523 29.6801C47.0787 29.9652 46.9868 30.2925 46.9865 30.6263C46.9877 30.7323 46.9969 30.838 47.0142 30.9426H47.0102ZM51.1333 33.2314V33.7611H47.6032V30.6263C47.6073 30.1846 47.7858 29.7623 48.0996 29.4514C48.4135 29.1404 48.8375 28.966 49.2793 28.9661H49.6113C50.0259 29.0043 50.4114 29.1956 50.6927 29.5025C50.9741 29.8094 51.1311 30.21 51.1333 30.6263V33.2314ZM54.691 31.16V32.765V33.7611H51.7499V30.7252C51.7522 30.3385 51.6599 29.9572 51.4811 29.6144C51.3899 29.4407 51.2726 29.2821 51.1333 29.1439C51.364 29.0113 51.6261 28.943 51.8922 28.9463H53.1612C53.5802 28.9839 53.9699 29.1774 54.2532 29.4885C54.5365 29.7996 54.6927 30.2056 54.691 30.6263V31.16Z" fill="white"/>
<path d="M58.4666 22.3091V37.39H65.5188V34.1288H66.3925V37.39H73.5791V26.7168C73.5791 26.693 73.5791 26.6693 73.5791 26.6456C73.4557 25.5002 72.9298 24.4358 72.0952 23.6417C71.2606 22.8477 70.1713 22.3754 69.0213 22.3091H58.4666ZM65.25 33.603H66.6613V33.943H65.25V33.603ZM64.0641 31.6265H67.8867C67.8867 31.7253 67.8551 31.8202 67.8432 31.9071C67.8314 31.9941 67.8432 32.0336 67.8432 32.0969C67.8164 32.3529 67.7369 32.6007 67.6097 32.8245C67.4825 33.0483 67.3103 33.2434 67.104 33.3974H64.835C64.6329 33.2467 64.4635 33.0565 64.3371 32.8384C64.2107 32.6203 64.1299 32.3788 64.0997 32.1285C64.0958 32.0653 64.0958 32.002 64.0997 31.9388C64.0997 31.8518 64.072 31.7569 64.0562 31.6581L64.0641 31.6265ZM63.9416 30.8438H68.0093C68.0093 31.0058 67.9816 31.1679 67.9658 31.3221H63.9771C63.9771 31.1679 63.9455 31.0058 63.9297 30.8438H63.9416ZM63.064 25.8589H63.6411C63.906 27.282 64.242 29.0214 64.242 29.0214C64.1832 27.9681 64.1832 26.9123 64.242 25.8589H65.4595L65.76 27.5034C65.7297 26.9538 65.7429 26.4026 65.7995 25.855H68.7722C68.7722 25.855 68.6773 26.4993 68.5271 27.3848C68.3769 28.2703 68.1872 29.5392 68.0251 30.5473H63.8981L63.064 25.8589Z" fill="white"/>
<path d="M42.958 37.7769V48.5292C43.0867 49.723 43.6517 50.8272 44.5448 51.6297C45.4378 52.4323 46.5959 52.8767 47.7966 52.8776H49.2355C49.2355 52.1937 49.2671 51.3596 49.2829 50.5532C49.2829 49.9365 49.3066 49.3673 49.3185 48.8573C49.3185 48.2881 49.3185 47.8572 49.3185 47.707C49.3185 47.284 48.9232 46.9164 48.5042 46.521C47.9073 45.9637 47.1799 45.4023 47.1799 44.7501C47.2688 43.5482 47.7382 42.4059 48.52 41.4888C48.5798 41.4218 48.6607 41.3772 48.7493 41.3623V44.501C48.9741 44.7612 49.2524 44.97 49.5652 45.1131C49.8779 45.2561 50.2178 45.3302 50.5617 45.3302C50.9057 45.3302 51.2456 45.2561 51.5583 45.1131C51.8711 44.97 52.1493 44.7612 52.3742 44.501V41.3623C52.7972 41.3623 53.9554 43.3705 53.9554 44.7501C53.9554 45.8688 51.8089 46.6831 51.801 47.6991C51.801 47.8493 51.801 48.2802 51.801 48.8494C51.801 49.3396 51.8247 49.9286 51.8366 50.5453C51.8564 51.3359 51.8722 52.1858 51.884 52.8697H58.0627V37.7769H42.958Z" fill="white"/>
<path d="M68.5264 43.1335C68.5501 43.2403 68.5264 43.3786 68.6015 43.4458C69.0758 43.9637 69.5581 44.4776 70.0523 44.9757C70.1353 45.0547 70.2973 45.0547 70.4199 45.0943C70.4515 45.031 70.4792 44.9717 70.5108 44.9124C69.9534 44.3313 69.4039 43.7265 68.8387 43.1731C68.7833 43.1138 68.6331 43.1454 68.5264 43.1335Z" fill="white"/>
<path d="M73.5554 37.7893H58.4666V52.8703H68.958C70.1977 52.8026 71.3646 52.2634 72.2194 51.363C73.0742 50.4626 73.5522 49.2693 73.5554 48.0278V37.7893ZM60.791 42.4935C60.791 42.0033 61.0479 41.7938 61.5183 41.7938C62.7042 41.7938 63.8902 41.7938 65.0761 41.7938C65.6098 41.7938 65.8311 41.9993 65.839 42.5132C65.839 43.2722 65.839 44.0312 65.839 44.7902C65.839 45.316 65.6177 45.5017 65.0761 45.5057C64.5345 45.5097 63.9139 45.5057 63.3288 45.5057C62.7438 45.5057 62.1429 45.5057 61.5302 45.5057C61.0558 45.5057 60.7989 45.308 60.7989 44.8179C60.7989 44.0273 60.7989 43.2643 60.7989 42.4895L60.791 42.4935ZM63.3526 49.5378C63.0764 49.5431 62.8095 49.4388 62.6101 49.2476C62.4108 49.0564 62.2954 48.794 62.2892 48.5179C62.2778 48.3777 62.2954 48.2365 62.341 48.1034C62.3865 47.9702 62.4591 47.8479 62.554 47.744C62.649 47.6402 62.7643 47.557 62.8929 47.4997C63.0214 47.4424 63.1604 47.4122 63.3012 47.4111C63.5852 47.4025 63.8612 47.5058 64.0697 47.6988C64.2782 47.8918 64.4026 48.159 64.4159 48.4428C64.4112 48.7264 64.2986 48.9974 64.101 49.2009C63.9035 49.4043 63.6358 49.5248 63.3526 49.5378ZM68.5943 49.5378C68.4536 49.5405 68.3138 49.5153 68.1828 49.4639C68.0518 49.4125 67.9323 49.3357 67.831 49.2381C67.7296 49.1404 67.6486 49.0238 67.5923 48.8948C67.5361 48.7658 67.5058 48.627 67.5033 48.4863C67.4944 48.3415 67.5153 48.1964 67.5647 48.0599C67.614 47.9235 67.6908 47.7985 67.7902 47.6929C67.8896 47.5872 68.0096 47.503 68.1428 47.4454C68.276 47.3878 68.4196 47.3581 68.5647 47.3581C68.7098 47.3581 68.8533 47.3878 68.9865 47.4454C69.1197 47.503 69.2397 47.5872 69.3392 47.6929C69.4386 47.7985 69.5153 47.9235 69.5647 48.0599C69.614 48.1964 69.6349 48.3415 69.6261 48.4863C69.6171 48.7588 69.5046 49.0177 69.3114 49.2101C69.1183 49.4026 68.859 49.5141 68.5864 49.522L68.5943 49.5378ZM71.1915 47.4388C71.1623 47.5649 71.1048 47.6828 71.0233 47.7835C70.9418 47.8842 70.8384 47.965 70.7211 48.0199C70.6527 48.0597 70.5765 48.0843 70.4978 48.0922C70.419 48.1001 70.3395 48.091 70.2645 48.0655C70.1896 48.04 70.121 47.9988 70.0634 47.9445C70.0057 47.8903 69.9604 47.8243 69.9305 47.751C69.8412 47.5651 69.7147 47.3994 69.559 47.2641C69.4032 47.1289 69.2213 47.027 69.0246 46.9648C68.8279 46.9026 68.6206 46.8813 68.4153 46.9023C68.2101 46.9233 68.0114 46.9861 67.8314 47.0869C67.1554 47.3992 67.2424 48.0317 66.8471 48.0554C66.4518 48.0791 65.9062 48.0831 65.3291 48.0554C65.1926 48.0663 65.0562 48.034 64.9392 47.963C64.8221 47.8921 64.7303 47.7861 64.6768 47.6601C64.546 47.4182 64.3522 47.2162 64.1159 47.0754C63.8797 46.9346 63.6098 46.8603 63.3348 46.8603C63.0597 46.8603 62.7898 46.9346 62.5536 47.0754C62.3174 47.2162 62.1236 47.4182 61.9927 47.6601C61.799 48.0278 61.6725 48.0752 61.2535 48.0278C60.8344 47.9803 60.7712 47.6601 60.7831 47.3083C60.7831 47.1858 60.7831 47.0632 60.7831 46.9367C60.7831 46.1105 60.9096 46.0038 61.7476 46.0077C63.2458 46.0077 64.748 46.0077 66.3292 46.0077C66.3292 45.059 66.3292 44.1775 66.3292 43.2999C66.3292 42.699 66.5269 42.5093 67.1198 42.5093C67.5437 42.4836 67.9688 42.4836 68.3927 42.5093C68.6456 42.532 68.8855 42.6313 69.0805 42.7939C69.7249 43.4224 70.3376 44.0826 70.9464 44.7467C71.078 44.8854 71.1612 45.0629 71.1836 45.2527C71.2271 45.9755 71.2271 46.7002 71.1836 47.4229" fill="white"/>
</svg>
