<svg width="200" height="80" viewBox="0 0 200 80" fill="none" xmlns="http://www.w3.org/2000/svg">
<g clip-path="url(#clip0_474_5385)">
<path d="M43.0397 37.8006C43.0397 39.0569 43.0397 40.0749 43.0758 40.8294C43.0767 40.8464 43.0838 40.8624 43.0958 40.8744C43.1078 40.8864 43.1238 40.8936 43.1408 40.8944C43.7155 40.875 44.2806 40.7414 44.8031 40.5014C45.3257 40.2613 45.7952 39.9196 46.1843 39.4962C46.5735 39.0728 46.8744 38.5762 47.0696 38.0353C47.2648 37.4944 47.3504 36.92 47.3213 36.3457C47.3551 35.2343 46.9989 34.146 46.3145 33.2697C45.63 32.3934 44.6605 31.7842 43.574 31.5479C43.4687 31.5052 43.3534 31.4939 43.2418 31.5154C43.1227 31.5659 43.0758 31.5984 43.0577 32.0172V32.2988V37.8006H43.0397ZM41.4368 40.8619C41.5198 40.8944 41.6029 40.8619 41.6029 40.7103C41.6353 39.9594 41.6353 39.0063 41.6353 37.8006V32.0822L41.6029 31.5298C41.6209 31.4143 41.5343 31.4143 41.4693 31.4323C39.0794 31.732 37.2707 33.3204 37.2707 36.0136C37.2707 38.7067 39.0938 40.3782 41.4368 40.8619ZM35.7978 36.2121C35.7978 34.158 37.5523 31.2951 41.5487 30.9775L41.5848 30.9305C41.5343 30.4432 41.3826 29.9269 41.0469 29.8475C40.8731 29.8056 40.695 29.7838 40.5162 29.7825C40.4476 29.7825 40.3826 29.75 40.3826 29.6814C40.3826 29.6128 40.4657 29.5479 40.6498 29.5479C41.2021 29.5479 42.2563 29.5984 42.3393 29.5984C42.4224 29.5984 43.4765 29.5479 43.9783 29.5479C44.1624 29.5479 44.2455 29.5803 44.2455 29.6814C44.2455 29.7825 44.1769 29.7825 44.1011 29.7825C43.9603 29.7878 43.8202 29.8047 43.6823 29.8331C43.2635 29.9161 43.148 30.4359 43.0974 30.9377L43.1299 30.9847C46.4332 31.2266 48.7942 33.0858 48.7942 35.9197C48.7942 38.7536 46.5704 40.9739 43.1444 41.3565L43.1083 41.4071C43.1769 42.0063 43.0758 42.7284 43.7617 42.8258C44.0105 42.8628 44.2612 42.8857 44.5126 42.8944C44.6137 42.8944 44.6462 42.945 44.6462 42.9955C44.6462 43.0461 44.5631 43.1291 44.379 43.1291C43.4621 43.1291 42.4079 43.0785 42.3249 43.0785C42.2418 43.0785 41.213 43.1399 40.7003 43.1399C40.5162 43.1399 40.4332 43.1038 40.4332 43.0063C40.4332 42.9089 40.4657 42.9053 40.5668 42.9053C40.736 42.8999 40.9041 42.877 41.0686 42.8367C41.5704 42.7211 41.4837 42.0027 41.6029 41.4179L41.5704 41.3674C37.5992 41.0822 35.7942 38.5081 35.7942 36.2157" fill="white"/>
<path d="M53.8704 35.44C53.8704 35.5664 53.8704 35.6169 53.9751 35.6169C54.2061 35.6169 56.3902 35.6169 56.7982 35.5808C57.2061 35.5447 57.4733 35.5122 57.6321 35.3353C57.7909 35.1584 57.827 35.1043 57.8993 35.1043C57.9715 35.1043 57.9859 35.1368 57.9859 35.2451C57.8722 35.9501 57.801 36.6614 57.7729 37.375C57.7729 37.57 57.7548 37.7108 57.6502 37.7108C57.5455 37.7108 57.5274 37.6422 57.5274 37.5519C57.536 37.3543 57.5116 37.1567 57.4552 36.9671C57.383 36.718 57.2242 36.4147 56.531 36.3461C56.0509 36.292 54.2964 36.2559 54.0039 36.2559C53.9871 36.2541 53.97 36.2562 53.954 36.2619C53.9381 36.2677 53.9236 36.277 53.9118 36.2892C53.9 36.3014 53.8911 36.3161 53.8858 36.3322C53.8805 36.3483 53.8789 36.3654 53.8812 36.3822V40.9743C53.8812 42.1476 54.1989 42.4184 55.939 42.4184C56.5139 42.4501 57.09 42.3842 57.6429 42.2234C58.105 42.0285 58.318 41.6747 58.4408 40.9454C58.4769 40.7505 58.513 40.6783 58.5996 40.6783C58.6863 40.6783 58.7079 40.8227 58.7079 40.9454C58.6604 41.523 58.5832 42.0978 58.4769 42.6675C58.3541 43.1295 58.2097 43.1295 57.5202 43.1295C54.8379 43.1295 53.6501 43.0212 53.1339 43.0212C52.6718 43.0212 51.7837 43.0754 51.3938 43.0754C51.1989 43.0754 51.1122 43.0393 51.1122 42.9346C51.1122 42.8299 51.1447 42.8263 51.253 42.8263C51.4323 42.8284 51.6109 42.8053 51.7837 42.7577C52.0689 42.6675 52.1447 42.5086 52.2639 41.9924C52.3853 40.641 52.4275 39.2837 52.3902 37.9274V34.8371C52.3902 31.8552 52.3722 31.1079 52.3361 30.8082C52.343 30.6015 52.2686 30.4003 52.1289 30.2478C51.9892 30.0953 51.7953 30.0036 51.5888 29.9924C51.3822 29.9479 51.1719 29.9237 50.9606 29.9201C50.892 29.9201 50.8198 29.884 50.8198 29.8118C50.8198 29.7396 50.9065 29.6711 51.105 29.6711C51.9029 29.6711 53.022 29.7252 53.1086 29.7252C55.0256 29.7252 56.8379 29.7252 57.1195 29.6891C57.4011 29.653 57.8415 29.635 57.9029 29.6169C57.9642 29.5989 58.0798 29.5122 58.1483 29.5122C58.2169 29.5122 58.2567 29.6169 58.2567 29.7072C58.2567 29.7974 58.1664 30.0429 58.1159 30.5411C58.1159 30.718 58.0617 31.5014 58.0256 31.7144C58.0256 31.801 57.9715 31.8913 57.8848 31.8913C57.7982 31.8913 57.7585 31.8191 57.7585 31.6963C57.7482 31.4633 57.6944 31.2343 57.5996 31.0212C57.4949 30.7902 57.0689 30.4364 56.0184 30.4364C55.9137 30.4364 54.3144 30.3822 53.9606 30.3822C53.8884 30.3822 53.8559 30.4183 53.8559 30.5411L53.8704 35.44Z" fill="white"/>
<path d="M77.3426 40.8013C77.4112 41.4403 77.5376 42.4331 78.2993 42.6822C78.6742 42.793 79.0636 42.8465 79.4545 42.841C79.5412 42.841 79.5953 42.841 79.5953 42.9313C79.5953 43.0215 79.4365 43.0901 79.2343 43.0901H77.4293C76.9708 43.0901 76.5267 43.0901 76.2776 43.0901C75.8697 43.054 75.7253 43.0215 75.7253 42.8771C75.7253 42.8085 75.8516 42.7724 75.9383 42.7544C76.0249 42.7363 76.0105 42.3645 75.9744 42.0324L75.1224 32.8735H75.0682L70.7361 42.1046C70.3751 42.8844 70.3101 43.0432 70.1513 43.0432C69.9924 43.0432 69.9383 42.8663 69.5989 42.2273C69.1368 41.3573 67.6134 38.2887 67.5231 38.1082C67.3643 37.7905 65.357 33.5306 65.1801 33.054H65.1079L64.3859 41.2923C64.3859 41.5739 64.3859 41.8952 64.3859 42.1948C64.3875 42.3255 64.4339 42.4516 64.5174 42.5522C64.6008 42.6527 64.7163 42.7216 64.8444 42.7472C65.066 42.7983 65.2922 42.8274 65.5195 42.8338C65.5917 42.8338 65.6639 42.8699 65.6639 42.9241C65.6639 43.0468 65.5556 43.0829 65.3426 43.0829C64.6856 43.0829 63.8336 43.0288 63.6928 43.0288C63.552 43.0288 62.682 43.0829 62.2018 43.0829C62.0249 43.0829 61.8986 43.0468 61.8986 42.9241C61.8986 42.8699 61.9888 42.8338 62.0755 42.8338C62.2549 42.8369 62.4341 42.82 62.6097 42.7833C63.1946 42.675 63.2487 41.9818 63.3318 41.3104L64.6098 29.7363C64.6422 29.5414 64.6964 29.415 64.8047 29.415C64.913 29.415 64.9816 29.4872 65.0682 29.6822L70.4834 40.8483L75.7036 29.7002C75.7722 29.5414 75.8444 29.415 75.9672 29.415C76.0899 29.415 76.1441 29.5594 76.1802 29.8952L77.3426 40.8013Z" fill="white"/>
<path d="M82.6641 34.8379C82.6316 32.0689 82.6641 31.5888 82.6316 31.0039C82.5991 30.4191 82.4511 30.1159 81.8662 29.9931C81.6674 29.9563 81.4656 29.9382 81.2634 29.939C81.1912 29.939 81.1226 29.9029 81.1226 29.8307C81.1226 29.7585 81.2092 29.6899 81.4041 29.6899C82.2056 29.6899 83.3211 29.744 83.4114 29.744C83.5016 29.744 84.6171 29.6899 85.1514 29.6899C85.3464 29.6899 85.433 29.726 85.433 29.8307C85.433 29.9354 85.3644 29.939 85.2922 29.939C85.1429 29.9443 84.9944 29.9624 84.8482 29.9931C84.368 30.0798 84.2273 30.383 84.1912 31.0039C84.1551 31.6249 84.155 34.3216 84.155 40.1809C84.155 40.3216 84.2453 40.3397 84.3175 40.2531C86.8446 37.3216 89.3211 34.3577 92.9601 29.6538C93.1912 29.2928 93.4764 29.3541 93.3861 29.939V37.9426C93.3861 39.6466 93.3861 41.0509 93.4764 41.7946C93.5305 42.3108 93.6352 42.7007 94.1695 42.7729C94.415 42.8054 94.8085 42.8415 94.9673 42.8415C95.072 42.8415 95.1081 42.8957 95.1081 42.9498C95.1081 43.004 95.0215 43.0906 94.8229 43.0906C93.8482 43.0906 92.7291 43.0364 92.6569 43.0364C92.5847 43.0364 91.4475 43.0906 90.9168 43.0906C90.7218 43.0906 90.6316 43.0545 90.6316 42.9498C90.6316 42.8451 90.6677 42.8415 90.7724 42.8415C90.9522 42.8349 91.131 42.8119 91.3067 42.7729C91.6677 42.7007 91.7507 42.3108 91.8229 41.7946C91.9096 41.0509 91.9096 39.6285 91.9096 37.9426V32.8126C91.9096 32.5996 91.8229 32.4949 91.6605 32.6899C89.3175 35.4227 86.9926 38.2097 84.8013 41.087L83.3247 42.9859L83.1117 43.2675C82.8843 43.6285 82.5991 43.5707 82.6857 42.9859L82.6641 34.8379Z" fill="white"/>
<path d="M103.307 42.4181C104.585 42.4181 106.144 42.382 107.495 42.3314L103.524 32.2231C103.469 32.0823 103.415 32.0282 103.361 32.0282C103.307 32.0282 103.202 32.0968 103.148 32.2412L100.058 41.0751C99.9032 41.4727 99.8189 41.8941 99.8088 42.3206C100.802 42.3892 102.26 42.4072 103.289 42.4072L103.307 42.4181ZM104.123 29.9451L108.455 40.7033C108.845 41.6961 109.412 42.3026 110.173 42.3026C110.527 42.2829 110.878 42.2346 111.224 42.1581C111.274 42.1581 111.293 42.1942 111.293 42.2664C111.293 42.3387 110.903 44.2376 110.867 44.4325C110.83 44.6275 110.798 44.6636 110.69 44.6636C110.581 44.6636 110.567 44.6094 110.567 44.3603V44.1654C110.567 43.613 110.495 43.0462 109.022 43.0462H98.5308C97.6968 43.0462 97.2167 43.1726 97.112 43.5986C97.0448 43.8883 97.0205 44.1863 97.0398 44.4831C97.0398 44.6275 97.0037 44.6636 96.9351 44.6636C96.8665 44.6636 96.8268 44.6094 96.7907 44.5011C96.686 44.1401 96.4297 42.4975 96.4297 42.3711C96.4297 42.1762 96.4477 42.104 96.4838 42.104C96.7727 42.2193 97.0767 42.2923 97.3864 42.3206C98.2925 42.3206 98.6499 41.8585 98.9495 41.0751L103.307 29.9993C103.538 29.4325 103.607 29.3062 103.715 29.3062C103.823 29.3062 103.91 29.3964 104.141 29.9451" fill="white"/>
<path d="M119.801 37.2161C119.888 37.2161 119.888 37.162 119.869 37.0897L118.184 32.31C118.129 32.1656 118.097 32.115 118.043 32.115C117.989 32.115 117.953 32.1836 117.916 32.31L116.357 37.1006C116.321 37.1908 116.357 37.2269 116.411 37.2269L119.801 37.2161ZM118.736 30.0609C118.999 30.736 121.786 38.0681 122.869 40.7648C123.508 42.3461 124.025 42.6277 124.397 42.736C124.63 42.8081 124.874 42.8434 125.119 42.8407C125.223 42.8407 125.295 42.8407 125.295 42.949C125.295 43.0573 125.137 43.0898 124.934 43.0898C124.667 43.0898 123.371 43.0898 122.147 43.0537C121.808 43.0356 121.613 43.0356 121.613 42.9309C121.616 42.8982 121.63 42.8675 121.653 42.8443C121.676 42.8212 121.707 42.807 121.74 42.8046C121.785 42.7828 121.823 42.7476 121.848 42.7037C121.873 42.6599 121.885 42.6094 121.88 42.5591C121.885 42.4804 121.873 42.4015 121.844 42.328L120.194 37.9598C120.183 37.9275 120.161 37.8999 120.132 37.881C120.104 37.8622 120.07 37.8531 120.036 37.8551H116.212C116.172 37.8567 116.133 37.8713 116.101 37.8966C116.069 37.9219 116.046 37.9567 116.036 37.9959L114.971 41.1367C114.824 41.5177 114.74 41.9201 114.721 42.328C114.721 42.689 115.082 42.8407 115.397 42.8407H115.581C115.707 42.8407 115.761 42.8768 115.761 42.949C115.761 43.0212 115.653 43.0898 115.494 43.0898C115.068 43.0898 114.303 43.0356 114.108 43.0356C113.913 43.0356 112.938 43.0898 112.104 43.0898C111.873 43.0898 111.765 43.0537 111.765 42.949C111.765 42.8443 111.837 42.8407 111.927 42.8407C112.017 42.8407 112.288 42.8407 112.44 42.8046C113.256 42.6999 113.613 42.0248 113.931 41.1367L117.96 30.115C118.173 29.5302 118.245 29.4219 118.35 29.4219C118.454 29.4219 118.53 29.5121 118.743 30.0609" fill="white"/>
<path d="M166.884 14.0897C167.196 14.0135 167.496 13.8919 167.772 13.7287C168.024 13.4767 168.202 13.161 168.289 12.8153C165.646 14.2991 163.234 10.3857 160.613 11.6529C160.2 11.844 159.763 11.9811 159.314 12.0608V11.133C159.845 10.9453 160.137 10.4832 160.011 10.1944C159.957 10.0837 159.876 9.9885 159.776 9.91775C159.676 9.847 159.559 9.80304 159.437 9.79006C159.693 9.65648 159.823 9.47959 159.798 9.38572C159.772 9.29186 159.476 9.29908 159.141 9.30991C159.186 9.24161 159.217 9.1648 159.232 9.08413C159.247 9.00347 159.245 8.92062 159.227 8.8406C159.159 8.53374 158.989 8.31713 158.845 8.31352C158.7 8.30991 158.53 8.53374 158.462 8.8406C158.443 8.92054 158.441 9.0036 158.455 9.08443C158.47 9.16526 158.502 9.24207 158.548 9.30991C158.213 9.30991 157.938 9.26298 157.891 9.38572C157.845 9.50847 157.982 9.65648 158.252 9.79006C158.13 9.80304 158.013 9.847 157.913 9.91775C157.813 9.9885 157.732 10.0837 157.678 10.1944C157.552 10.4832 157.845 10.9453 158.375 11.133V12.0608C157.92 12.0029 157.48 11.8622 157.076 11.6457C154.444 10.3785 152.043 14.2919 149.4 12.8081C149.479 13.1616 149.654 13.4864 149.906 13.7467C150.133 13.8762 150.376 13.9769 150.628 14.0464C150.628 14.0789 148.122 20.9453 148.122 20.9525C148.166 22.6962 149.502 24.1836 151.144 24.1836C152.787 24.1836 154.119 22.6926 154.166 20.9525C154.166 20.9525 151.873 15.0825 151.516 14.1619C153.397 14.1366 155.097 12.5518 157.072 13.3605C157.094 13.3605 157.202 13.4182 157.289 13.4507C157.629 13.6141 157.996 13.7155 158.372 13.7503V15.4146C158.094 15.3857 157.668 15.9092 157.408 16.068C157.069 16.3474 156.751 16.6502 156.455 16.9742C156.202 17.1763 155.989 18.1475 155.83 18.4182C155.751 18.541 155.354 22.9706 155.245 23.8911C154.978 26.1258 154.83 26.8478 154.577 27.2233C154.325 27.5987 150.87 29.5554 150.206 29.9742C149.541 30.393 148.122 29.7648 146.328 30.4724C144.534 31.18 143.44 31.5987 142.996 31.346C142.552 31.0933 141.913 30.4146 142.66 29.8695C143.034 29.4235 143.346 28.9293 143.588 28.4002C144.213 27.0644 144.202 25.2738 144.375 24.8587C144.675 24.1366 144.65 22.2738 144.595 22.0825C144.541 21.8911 144.458 21.3207 144.458 21.3207C144.92 20.4507 143.595 18.8587 141.765 18.5446C135.92 17.5446 133.978 20.8298 133.978 20.8298C132.635 20.6132 132.509 21.4471 132.509 21.4471C132.036 23.1908 133 23.9309 133 23.9309C133.242 26.0969 135.375 26.7648 136.122 27.0139C136.122 27.0139 137.437 32.393 133.039 32.4724C132.735 32.5045 132.444 32.6122 132.191 32.7855C131.939 32.9589 131.734 33.1925 131.595 33.4652C131.039 33.6673 128.137 34.7431 127.65 37.2486C127.65 37.2486 128.841 37.8334 129.39 37.6818C129.39 37.6818 128.61 38.133 128.465 41.7251C128.799 41.9234 129.166 42.0592 129.548 42.1258C130.567 42.2341 131.397 40.7431 131.397 40.7431C131.397 42.0175 131.483 43.115 131.483 43.115H148.4C148.4 43.115 148.18 42.6457 148.039 40.6493C147.751 36.837 147.866 36.0356 148.877 35.8478C153.159 35.0428 157.902 29.9778 157.902 29.9778C158.548 28.1475 158.433 24.1691 158.303 21.9453C158.303 21.7143 158.025 19.5518 158.382 19.5518C159.168 19.4685 159.925 19.212 160.599 18.8009C160.663 18.7551 160.707 18.6864 160.722 18.6092C160.736 18.5319 160.721 18.4519 160.678 18.3857C160.791 18.2043 160.861 17.9992 160.881 17.7865C160.913 17.494 160.668 17.4507 160.711 17.2738C160.736 17.1655 160.632 17.0572 160.548 16.9886C160.743 16.8045 160.65 16.3966 160.65 16.3966L160.35 16.3352C160.437 16.1763 160.35 15.9958 160.31 15.7684C160.285 15.6493 159.826 15.5698 159.361 15.5157V13.7503C159.737 13.7164 160.104 13.6149 160.444 13.4507L160.664 13.3605C162.574 12.5807 164.231 14.0355 166.039 14.1547C165.725 15.0175 163.57 20.9453 163.57 20.9525C163.613 22.6962 164.949 24.1836 166.592 24.1836C168.234 24.1836 169.57 22.6926 169.613 20.9525C169.567 20.9309 167.122 14.7034 166.884 14.0897ZM149.021 20.9489L151.011 14.1872L153.177 20.9381L149.021 20.9489ZM144.122 35.1114C144.122 35.1114 144.335 36.8334 143.368 37.1944C142.09 37.6709 138.942 37.3966 136.556 35.198C136.556 35.198 142.325 37.8153 144.122 35.1114ZM143.711 21.772C144.242 21.8767 144.032 22.7612 143.491 22.689C143.13 22.6384 140.754 22.1258 136.588 23.05C136.588 23.0644 138.642 20.7792 143.711 21.772ZM134.754 24.8767C134.754 24.8767 136.776 23.1475 140.296 23.1258C143.606 23.1041 143.754 23.7937 143.754 23.9597C143.767 24.0536 143.755 24.1491 143.719 24.2369C143.684 24.3246 143.626 24.4016 143.552 24.4603C143.477 24.5189 143.389 24.5572 143.295 24.5714C143.202 24.5855 143.106 24.575 143.018 24.541C142.296 24.3677 137.671 23.7504 134.754 24.8767ZM137.213 31.0139C137.357 29.411 136.711 25.8695 138.13 25.4507C139.548 25.0319 142.823 24.8081 143.278 25.2702C143.426 25.4146 143.325 25.8875 143.252 26.7143C143.227 27.0103 143.072 26.8623 142.671 26.8153C142.601 27.0345 142.571 27.2642 142.581 27.494C142.581 27.6782 141.364 27.3316 141.364 27.3316C141.364 27.3316 141.964 27.9778 142.361 27.9778C142.567 27.9778 142.216 28.2341 142.252 28.4688C142.297 28.5849 142.317 28.7092 142.311 28.8336C142.305 28.958 142.273 29.0797 142.216 29.1908C141.66 30.2738 138.278 28.3027 138.278 28.3027C138.387 29.3379 138.75 30.33 139.335 31.1908C140.086 32.2738 141.754 32.8984 142.711 32.689C142.711 32.689 142.711 35.7937 139.274 35.3785C135.837 34.9634 135.068 33.5735 134.859 33.2305C134.859 33.2269 137.065 32.6023 137.213 30.9995V31.0139ZM128.548 36.6276C129.021 34.8514 131.534 34.1005 131.534 34.1005C131.534 34.1005 129.906 36.689 129.729 36.8478C129.462 37.0825 128.577 36.6132 128.577 36.6132L128.548 36.6276ZM130.527 40.6673C130.158 40.7978 129.755 40.7876 129.393 40.6385C129.195 37.6132 131.826 34.5879 131.826 34.5879C131.826 34.5879 131.307 40.2305 130.541 40.6529L130.527 40.6673ZM132.848 42.0536C132.574 41.4146 132.27 36.6384 133.386 33.8153C133.386 33.8153 135.79 41.346 138.693 42.0536H132.848ZM140.552 41.4543C137.52 40.7143 134.523 36.1908 133.909 33.5121C133.909 33.5121 138.559 40.1619 144.873 38.1403C144.888 38.115 143.13 42.0572 140.567 41.4399L140.552 41.4543ZM160.408 17.7323C160.43 17.7399 160.45 17.7522 160.466 17.7684C160.483 17.7845 160.496 17.8041 160.504 17.8258C160.512 17.8475 160.516 17.8707 160.514 17.8939C160.512 17.917 160.506 17.9395 160.494 17.9597C160.325 18.3207 160.169 18.2161 160.191 18.3207C160.213 18.4254 160.408 18.5121 160.213 18.7106C160.122 18.8045 159.224 18.9417 159.097 18.7901C158.971 18.6384 159.368 18.5121 159.429 18.4074C159.491 18.3027 159.274 18.3605 159.151 18.2269C159.029 18.0933 158.942 17.8659 159.13 17.8659C159.317 17.8659 159.534 17.7431 159.419 17.7142C159.303 17.6854 159.025 17.6384 159.076 17.494C159.076 17.494 159.274 17.2955 159.437 17.3244C159.599 17.3532 160.09 17.2919 160.187 17.3244C160.393 17.3893 160.379 17.5085 160.271 17.5698C160.162 17.6312 160.346 17.6962 160.404 17.7179L160.408 17.7323ZM159.419 16.3785C159.657 16.4638 159.909 16.5066 160.162 16.5049C160.372 16.5049 160.379 16.7215 160.137 16.9272C160.047 17.0067 159.935 17.0789 159.447 17.1402C159.206 17.1621 158.963 17.15 158.725 17.1041C158.66 17.2883 158.632 18.0536 158.072 18.4796C157.899 18.5814 157.698 18.6256 157.498 18.6059C157.498 18.6059 158.039 28.2738 157.249 29.3496C155.52 31.6926 150.494 34.18 148.606 33.7901C148.606 33.7901 150.05 31.4435 152.133 30.1041L155.155 28.1619C155.155 28.1619 156.487 18.3677 156.509 18.3027C156.61 18.0175 156.747 17.2197 157.26 16.8226C157.26 16.8226 157.758 16.429 157.982 16.429C158.274 16.4764 158.57 16.497 158.866 16.4904C159.043 16.4254 159.292 16.2991 159.415 16.3641L159.419 16.3785ZM164.473 20.967L166.462 14.2052L168.628 20.9561L164.473 20.967Z" fill="white"/>
<path d="M41.9348 49.9566H43.6207C43.7985 49.9448 43.9768 49.9684 44.1454 50.026C44.3139 50.0837 44.4694 50.1742 44.6027 50.2923C44.6853 50.3728 44.7504 50.4695 44.7939 50.5764C44.8374 50.6832 44.8583 50.7979 44.8554 50.9132C44.8592 51.0905 44.81 51.2649 44.7142 51.414C44.6184 51.5632 44.4803 51.6805 44.3175 51.7508C44.529 51.792 44.7194 51.9059 44.8559 52.0727C44.9924 52.2394 45.0662 52.4487 45.0648 52.6641C45.0648 53.3356 44.5124 53.693 43.6749 53.693H41.9348V49.9566ZM43.4872 51.5414C43.9095 51.5414 44.2092 51.3753 44.2092 51.0324C44.2092 50.7363 43.9745 50.5522 43.5485 50.5522H42.5919V51.5522L43.4872 51.5414ZM43.6821 53.1298C44.1298 53.1298 44.4041 52.9529 44.4041 52.6136C44.4041 52.2995 44.1514 52.1118 43.6316 52.1118H42.5846V53.1407L43.6821 53.1298Z" fill="white"/>
<path d="M48.7939 52.5667C48.7939 53.2706 48.2416 53.7147 47.404 53.7147H45.978V49.9565H46.6278V51.4439H47.3932C48.2307 51.4439 48.7831 51.8591 48.7831 52.5594L48.7939 52.5667ZM48.1333 52.5486C48.1333 52.2345 47.913 51.9926 47.4112 51.9926H46.6278V53.1298H47.4329C47.8806 53.1298 48.1224 52.8988 48.1224 52.563L48.1333 52.5486ZM49.2452 53.7147V49.9565H49.9058V53.7147H49.2452Z" fill="white"/>
<path d="M50.8521 51.8482C50.8467 51.592 50.8931 51.3373 50.9886 51.0994C51.084 50.8616 51.2266 50.6455 51.4076 50.4641C51.5887 50.2827 51.8045 50.1398 52.0422 50.0438C52.2799 49.9479 52.5345 49.901 52.7907 49.906C53.063 49.8947 53.3345 49.941 53.5877 50.0417C53.8409 50.1425 54.07 50.2955 54.26 50.4908L53.8485 50.9673C53.7121 50.8241 53.5487 50.7092 53.3678 50.6293C53.1869 50.5494 52.992 50.506 52.7943 50.5016C52.6251 50.5043 52.4581 50.5411 52.3034 50.6097C52.1487 50.6783 52.0094 50.7774 51.8938 50.9011C51.7782 51.0247 51.6887 51.1704 51.6307 51.3294C51.5727 51.4884 51.5473 51.6575 51.556 51.8265C51.5473 51.9961 51.5726 52.1657 51.6305 52.3253C51.6885 52.4849 51.7778 52.6313 51.8932 52.7558C52.0086 52.8803 52.1478 52.9804 52.3026 53.0502C52.4574 53.1201 52.6246 53.1582 52.7943 53.1623C52.9988 53.1607 53.2007 53.1165 53.3871 53.0326C53.5736 52.9487 53.7405 52.8269 53.8773 52.6749L54.3033 53.1045C54.1138 53.3249 53.8773 53.5 53.6111 53.6169C53.345 53.7337 53.0559 53.7893 52.7654 53.7796C52.5117 53.7831 52.2598 53.7353 52.0249 53.6393C51.79 53.5432 51.5769 53.4008 51.3983 53.2205C51.2197 53.0402 51.0793 52.8258 50.9854 52.59C50.8916 52.3542 50.8462 52.1019 50.8521 51.8482Z" fill="white"/>
<path d="M55.1407 53.7147V49.9565H55.7978V53.1046H57.1371V49.9565H57.7942V53.1046H59.1335V49.9565H59.7942V53.7147H55.1407Z" fill="white"/>
<path d="M62.2466 49.9312H62.8747L64.5282 53.7145H63.8314L63.4488 52.8084H61.6726L61.2863 53.7145H60.6112L62.2466 49.9312ZM63.1924 52.2236L62.5426 50.7218L61.9 52.2236H63.1924Z" fill="white"/>
<path d="M67.5672 53.7141V52.4036H66.7405L65.8163 53.7141H65.0402L66.0546 52.2917C65.7949 52.2383 65.5623 52.0949 65.3979 51.8869C65.2335 51.6789 65.1477 51.4196 65.1557 51.1545C65.1557 50.3603 65.7586 49.9668 66.5528 49.9668H68.2279V53.7249L67.5672 53.7141ZM67.5672 50.5589H66.6069C66.1196 50.5589 65.8272 50.7791 65.8272 51.1798C65.8272 51.5625 66.1304 51.808 66.5997 51.808H67.5672V50.5589Z" fill="white"/>
<path d="M72.8119 52.1339H72.2271V53.7151H71.5664V49.957H72.2271V51.5202H72.8191C72.8915 51.0422 73.1426 50.6094 73.5215 50.3092C73.9005 50.009 74.3792 49.8638 74.8611 49.9027C75.343 49.9416 75.7922 50.1619 76.1181 50.519C76.4439 50.8762 76.6222 51.3436 76.617 51.827C76.6253 52.0822 76.5817 52.3364 76.4886 52.5742C76.3956 52.812 76.2551 53.0283 76.0758 53.21C75.8964 53.3917 75.6819 53.535 75.4454 53.6312C75.2089 53.7273 74.9553 53.7743 74.7 53.7693C74.2373 53.7839 73.7861 53.6238 73.4362 53.3207C73.0863 53.0177 72.8634 52.5939 72.8119 52.1339ZM75.9238 51.8487C75.9361 51.6795 75.9137 51.5096 75.8581 51.3494C75.8024 51.1891 75.7145 51.042 75.5999 50.9169C75.4853 50.7918 75.3464 50.6915 75.1917 50.622C75.0369 50.5526 74.8696 50.5154 74.7 50.5129C74.5315 50.5144 74.3651 50.5505 74.2111 50.6191C74.0572 50.6877 73.919 50.7872 73.8052 50.9115C73.6914 51.0358 73.6044 51.1822 73.5497 51.3416C73.4949 51.5009 73.4736 51.6699 73.487 51.8379C73.4747 52.007 73.4971 52.177 73.5527 52.3372C73.6084 52.4974 73.6963 52.6446 73.8109 52.7696C73.9255 52.8947 74.0644 52.995 74.2191 53.0645C74.3739 53.134 74.5412 53.1711 74.7108 53.1736C74.8793 53.1721 75.0457 53.136 75.1997 53.0674C75.3536 52.9989 75.4918 52.8993 75.6056 52.7751C75.7194 52.6508 75.8064 52.5044 75.8611 52.345C75.9159 52.1856 75.9372 52.0167 75.9238 51.8487Z" fill="white"/>
<path d="M77.7396 49.9565H79.2233C80.097 49.9565 80.6674 50.4583 80.6674 51.2129C80.6674 52.0576 79.9923 52.4981 79.1656 52.4981H78.3966V53.7038H77.736L77.7396 49.9565ZM79.1836 51.9132C79.6818 51.9132 79.9923 51.6316 79.9923 51.2417C79.9923 50.8013 79.6782 50.5703 79.1836 50.5703H78.3966V51.9241L79.1836 51.9132Z" fill="white"/>
<path d="M84.1523 53.7147V50.9204L82.1451 53.7147H81.488V49.9565H82.1451V52.7544L84.1523 49.9565H84.813V53.7147H84.1523Z" fill="white"/>
<path d="M85.8411 53.1046C86.5054 53.1046 86.5631 51.7183 86.6245 49.9565H89.1841V53.1046H89.5668V54.5197H88.9061V53.7147H86.379V54.5197H85.7184V53.1046H85.8411ZM88.5234 50.5775H87.231C87.1877 51.5053 87.1408 52.7435 86.7039 53.1046H88.509L88.5234 50.5775Z" fill="white"/>
<path d="M93.145 53.7147V50.9204L91.1378 53.7147H90.4772V49.9565H91.1378V52.7544L93.145 49.9565H93.8021V53.7147H93.145Z" fill="white"/>
<path d="M96.949 53.7147V52.2381C96.5774 52.3605 96.1886 52.4227 95.7974 52.4222C95.6464 52.4363 95.4941 52.4173 95.3513 52.3665C95.2084 52.3157 95.0783 52.2344 94.9701 52.1282C94.8618 52.022 94.778 51.8935 94.7245 51.7517C94.671 51.6098 94.649 51.4579 94.6602 51.3067V49.9565H95.3172V51.3067C95.3156 51.3805 95.3299 51.4537 95.3591 51.5214C95.3884 51.5892 95.4319 51.6498 95.4868 51.6991C95.5416 51.7485 95.6065 51.7854 95.6769 51.8074C95.7473 51.8294 95.8216 51.8359 95.8948 51.8266C96.2551 51.8221 96.6118 51.7549 96.949 51.628V49.9565H97.6096V53.7147H96.949Z" fill="white"/>
<path d="M98.7363 49.9565H101.52V50.5486H99.397V51.5269H101.281V52.1154H99.397V53.1262H101.563V53.7147H98.7508L98.7363 49.9565Z" fill="white"/>
<path d="M102.325 51.849C102.319 51.5926 102.365 51.3377 102.46 51.0996C102.556 50.8616 102.698 50.6452 102.879 50.4637C103.061 50.2822 103.277 50.1393 103.514 50.0436C103.752 49.9479 104.007 49.9013 104.264 49.9067C104.536 49.8962 104.807 49.9427 105.06 50.0435C105.313 50.1442 105.542 50.2969 105.733 50.4916L105.307 50.9789C105.171 50.8357 105.009 50.7208 104.828 50.6408C104.648 50.5609 104.454 50.5175 104.256 50.5132C104.087 50.5159 103.92 50.5527 103.765 50.6213C103.611 50.6899 103.471 50.7891 103.356 50.9127C103.24 51.0364 103.151 51.1821 103.093 51.3411C103.035 51.5001 103.009 51.6691 103.018 51.8381C103.009 52.0077 103.035 52.1773 103.093 52.3369C103.151 52.4965 103.24 52.6429 103.355 52.7674C103.471 52.8919 103.61 52.9921 103.765 53.0619C103.919 53.1317 104.087 53.1698 104.256 53.1739C104.461 53.1723 104.663 53.1281 104.849 53.0442C105.036 52.9603 105.203 52.8385 105.339 52.6865L105.762 53.1161C105.573 53.3333 105.339 53.5056 105.075 53.6205C104.812 53.7354 104.526 53.7901 104.238 53.7804C103.985 53.7839 103.733 53.7361 103.498 53.6401C103.263 53.544 103.05 53.4016 102.871 53.2213C102.693 53.041 102.552 52.8265 102.458 52.5908C102.364 52.355 102.319 52.1027 102.325 51.849Z" fill="white"/>
<path d="M107.278 51.5269H107.639L109.047 49.9565H109.859L108.206 51.7616L109.885 53.7038H109.083L107.69 52.1046H107.278V53.7038H106.617V49.9565H107.278V51.5269Z" fill="white"/>
<path d="M111.993 49.9312H112.603L114.257 53.7145H113.56L113.177 52.8084H111.401L111.015 53.7145H110.34L111.993 49.9312ZM112.935 52.2236L112.285 50.7218L111.643 52.2236H112.935Z" fill="white"/>
<path d="M117.318 53.7141V52.4036H116.491L115.581 53.7141H114.801L115.816 52.2917C115.556 52.2382 115.324 52.0947 115.16 51.8866C114.997 51.6785 114.912 51.4192 114.921 51.1545C114.921 50.3603 115.52 49.9668 116.314 49.9668H117.989V53.7249L117.318 53.7141ZM117.318 50.5589H116.357C115.87 50.5589 115.581 50.7791 115.581 51.1798C115.581 51.5625 115.881 51.808 116.354 51.808H117.318V50.5589Z" fill="white"/>
<path d="M121.181 49.8945H124.214V53.649H123.553V50.5046H121.842V53.649H121.181V49.8945Z" fill="white"/>
<path d="M125.328 49.8945H126.809C127.686 49.8945 128.253 50.3927 128.253 51.1472C128.253 51.992 127.574 52.4324 126.747 52.4324H126.004V53.6382H125.328V49.8945ZM126.773 51.8476C127.274 51.8476 127.585 51.566 127.585 51.1761C127.585 50.7357 127.267 50.5046 126.773 50.5046H126.007V51.8584L126.773 51.8476Z" fill="white"/>
<path d="M129.083 49.8945H131.87V50.483H129.744V51.4613H131.629V52.0498H129.744V53.0606H131.91V53.649H129.083V49.8945Z" fill="white"/>
<path d="M132.838 49.8945H133.542L134.687 51.6707L135.828 49.8945H136.521V53.649H135.871V50.9559L134.687 52.7249H134.665L133.488 50.9667V53.649H132.838V49.8945Z" fill="white"/>
<path d="M140.321 53.649V50.8548L138.324 53.649H137.664V49.8945H138.324V52.6888L140.332 49.8945H140.992V53.649H140.321Z" fill="white"/>
<path d="M144.369 53.649V52.3385H143.542L142.618 53.649H141.838L142.853 52.2266C142.594 52.1724 142.362 52.0288 142.198 51.8208C142.034 51.6129 141.949 51.3539 141.957 51.0894C141.957 50.2952 142.557 49.9053 143.354 49.9053H145.026V53.6598L144.369 53.649ZM144.369 50.4937H143.405C142.918 50.4937 142.629 50.7139 142.629 51.1147C142.629 51.4937 142.928 51.7392 143.401 51.7392H144.369V50.4937Z" fill="white"/>
<path d="M83.1123 63.2843L81.6899 61.1904H82.7729L83.6646 62.5659L84.5635 61.1904H85.6249L84.2061 63.2662L85.6863 65.4323H84.6033L83.6502 63.9883L82.6935 65.4323H81.6105L83.1123 63.2843Z" fill="white"/>
<path d="M87.733 63.2843L86.3142 61.1904H87.3973L88.2926 62.5659L89.1915 61.1904H90.2529L88.8305 63.2662L90.3142 65.4323H89.2312L88.2781 63.9883L87.3178 65.4323H86.2565L87.733 63.2843Z" fill="white"/>
<path d="M95.8378 65.4468V62.0569H94.5995C94.5345 63.8115 94.4046 65.4938 93.0075 65.4938C92.9073 65.4898 92.8079 65.474 92.7114 65.4468V64.649C92.7848 64.6539 92.8583 64.6539 92.9316 64.649C93.4768 64.649 93.6825 63.7537 93.7186 61.1797H96.7728V65.4288L95.8378 65.4468Z" fill="white"/>
<path d="M97.9716 61.1904H101.177V62.0208H98.8994V62.8836H100.903V63.7175H98.8994V64.6092H101.206V65.4431H97.9572L97.9716 61.1904Z" fill="white"/>
<path d="M103.21 62.0569H101.914V61.1904H105.437V62.0496H104.145V65.4395H103.21V62.0569Z" fill="white"/>
<path d="M105.43 59.0503H81.5343V59.6784H105.43V59.0503Z" fill="white"/>
<path d="M105.43 66.9673H81.5343V67.5954H105.43V66.9673Z" fill="white"/>
</g>
<defs>
<clipPath id="clip0_474_5385">
<rect width="200" height="80" fill="white"/>
</clipPath>
</defs>
</svg>
