<svg width="100" height="100" viewBox="0 0 100 100" fill="none" xmlns="http://www.w3.org/2000/svg">
<rect width="100" height="100" rx="50" fill="#333638"/>
<path d="M20.2383 36.6076C20.2383 27.1678 26.9914 20.8635 36.4234 20.4833C40.0783 20.336 44.5542 20.2385 50.0002 20.2385C55.4462 20.2385 59.922 20.336 63.5769 20.4833C73.009 20.8635 79.7621 27.1678 79.7621 36.6076C79.7621 46.0473 73.009 52.3516 63.5769 52.7318C59.922 52.8792 55.4462 52.9766 50.0002 52.9766C44.5542 52.9766 40.0783 52.8792 36.4234 52.7318C26.9914 52.3516 20.2383 46.0473 20.2383 36.6076Z" fill="#B93700"/>
<path d="M46.1501 41.546C46.2558 39.97 47.2086 38.5103 48.7796 38.2128C49.1554 38.1416 49.5442 38.0957 49.9222 38.0957C50.316 38.0957 50.7215 38.1455 51.1118 38.2218C52.6556 38.5237 53.6034 39.949 53.7417 41.4969C54.0075 44.4718 54.4075 49.3539 54.4075 51.7929C54.4075 51.7929 59.9244 51.7929 65.333 53.3199C68.7817 54.2936 70.9154 57.4797 70.8289 61.0205C70.7456 64.4339 70.2163 69.0712 68.4282 73.9395C67.6075 76.1739 65.6626 77.7506 63.2685 77.9964C61.7551 78.1517 59.7279 78.2743 57.0986 78.2743C54.7826 78.2743 52.9337 78.1792 51.4917 78.0503C48.6592 77.7973 46.1766 76.3282 44.2949 74.2225C40.5695 70.0534 37.5791 66.0064 35.9703 63.7273C35.1053 62.502 34.768 59.7605 35.5789 58.4996C37.1942 55.9883 39.7677 57.2086 42.1699 59.0042C44.2617 60.5677 45.437 61.7071 45.437 61.7071C45.437 53.3861 45.8876 45.4582 46.1501 41.546Z" fill="#FF4D01"/>
</svg>
