<svg width="200" height="80" viewBox="0 0 200 80" fill="none" xmlns="http://www.w3.org/2000/svg">
<path d="M115.284 11.5732C115.284 13.1746 114.717 15.4009 112.452 15.4009C109.719 15.4009 109.719 12.3349 109.719 11.6904C109.719 11.0459 109.719 7.76507 112.53 7.76507C115.088 7.76507 115.284 10.5968 115.284 11.5732ZM109.738 3H107.903V14.815L107.864 16.5727H109.641L109.68 15.0884C109.921 15.4873 110.248 15.8275 110.636 16.0844C111.286 16.507 112.048 16.7247 112.823 16.7094C113.491 16.7244 114.154 16.5799 114.755 16.2879C115.356 15.9958 115.878 15.5645 116.279 15.0299C116.768 14.3854 117.217 13.3504 117.217 11.4365C117.217 9.28834 116.553 8.31189 116.065 7.74554C115.167 6.73004 113.936 6.49569 112.941 6.49569C110.715 6.49569 109.992 7.72602 109.738 8.17518V3Z" fill="white"/>
<path d="M120.399 11.9637C120.399 11.0849 120.399 7.96029 123.328 7.96029C125.496 7.96029 126.023 9.79602 126.023 11.5732C126.023 12.2762 125.925 13.6823 125.222 14.6392C124.598 15.4985 123.621 15.5961 123.153 15.5961C120.575 15.6157 120.399 13.1745 120.399 11.9637ZM118.623 20.3807H120.438V15.4985C120.966 16.3578 122.02 16.9632 123.445 16.9632C125.789 16.9632 127.917 15.3618 127.917 11.6903C127.917 8.01888 125.906 6.59326 123.797 6.59326C122.996 6.59326 121.376 6.82761 120.438 8.3704L120.399 6.74949H118.544C118.583 7.68689 118.603 7.92123 118.603 8.35087V20.3807H118.623Z" fill="white"/>
<path fill-rule="evenodd" clip-rule="evenodd" d="M104.036 27.1574C103.012 24.7773 101.749 22.5068 100.268 20.3809C98.7952 22.5124 97.5331 24.7819 96.4993 27.1574C97.9624 28.7075 99.2282 30.4326 100.268 32.2935C101.298 30.4264 102.564 28.7 104.036 27.1574Z" fill="white"/>
<path fill-rule="evenodd" clip-rule="evenodd" d="M96.519 69.7892C97.5436 72.1694 98.8062 74.4398 100.288 76.5658C100.951 75.5503 102.67 73.0505 104.056 69.7892C102.599 68.2341 101.334 66.5097 100.288 64.6531C99.2413 66.5097 97.9761 68.2341 96.519 69.7892Z" fill="white"/>
<path fill-rule="evenodd" clip-rule="evenodd" d="M96.5191 27.1574C94.7318 25.2771 92.7705 23.5705 90.6613 22.0603C90.0049 24.5656 89.5993 27.13 89.4507 29.7157C91.3537 30.6708 93.1311 31.8581 94.7422 33.2504C95.0752 31.1526 95.6722 29.1053 96.5191 27.1574Z" fill="white"/>
<path fill-rule="evenodd" clip-rule="evenodd" d="M104.037 69.7893C105.819 71.6743 107.781 73.3814 109.894 74.8864C110.549 72.3807 110.955 69.8165 111.105 67.231C109.206 66.2688 107.43 65.0821 105.813 63.6963C105.469 65.7915 104.872 67.8373 104.037 69.7893Z" fill="white"/>
<path fill-rule="evenodd" clip-rule="evenodd" d="M89.4507 29.7157C87.1346 28.5519 84.7077 27.6229 82.2065 26.9426C82.4507 29.5239 82.9477 32.0749 83.6905 34.5589C85.8017 34.8019 87.8745 35.307 89.8608 36.0627C89.4676 33.9714 89.3299 31.8402 89.4507 29.7157Z" fill="white"/>
<path fill-rule="evenodd" clip-rule="evenodd" d="M111.086 67.2312C113.402 68.395 115.829 69.324 118.33 70.0043C118.086 67.4231 117.589 64.8721 116.846 62.388C114.734 62.138 112.661 61.6263 110.676 60.8647C111.088 62.9602 111.225 65.1002 111.086 67.2312Z" fill="white"/>
<path fill-rule="evenodd" clip-rule="evenodd" d="M86.2485 40.3784C85.1616 38.5502 84.3026 36.5958 83.6906 34.5588C81.1175 34.2572 78.5208 34.2114 75.9387 34.422C77.0551 36.7555 78.3887 38.9786 79.922 41.0619C81.9938 40.5693 84.1193 40.3396 86.2485 40.3784Z" fill="white"/>
<path fill-rule="evenodd" clip-rule="evenodd" d="M114.288 56.568C115.383 58.3921 116.242 60.3476 116.846 62.3877C119.419 62.6892 122.015 62.735 124.597 62.5244C123.477 60.1829 122.137 57.9531 120.595 55.865C118.531 56.3666 116.411 56.6028 114.288 56.568Z" fill="white"/>
<path fill-rule="evenodd" clip-rule="evenodd" d="M79.9219 41.062C77.4067 41.6674 74.9549 42.511 72.5996 43.5813C74.4483 45.3999 76.4689 47.0349 78.6332 48.4635C80.4086 47.2913 82.3241 46.3465 84.3348 45.6513C82.6834 44.306 81.2016 42.7649 79.9219 41.062Z" fill="white"/>
<path fill-rule="evenodd" clip-rule="evenodd" d="M121.923 48.4634C120.147 49.6356 118.232 50.5804 116.221 51.2756C117.871 52.6159 119.347 54.1577 120.614 55.8649C123.131 55.2663 125.584 54.4225 127.937 53.3456C126.1 51.5208 124.086 49.8852 121.923 48.4634Z" fill="white"/>
<path fill-rule="evenodd" clip-rule="evenodd" d="M84.3348 51.2756C82.3241 50.5804 80.4086 49.6356 78.6332 48.4634C76.4689 49.892 74.4483 51.527 72.5996 53.3456C74.9513 54.4249 77.404 55.2687 79.9219 55.8649C81.2067 54.1664 82.688 52.6259 84.3348 51.2756Z" fill="white"/>
<path fill-rule="evenodd" clip-rule="evenodd" d="M116.221 45.6513C118.23 46.3505 120.145 47.2951 121.923 48.4635C124.087 47.0349 126.107 45.3999 127.956 43.5813C125.604 42.502 123.152 41.6582 120.634 41.062C119.354 42.7649 117.872 44.306 116.221 45.6513Z" fill="white"/>
<path fill-rule="evenodd" clip-rule="evenodd" d="M79.922 55.8845C78.3724 57.9638 77.0378 60.195 75.9387 62.5439C78.5212 62.7442 81.1168 62.6985 83.6906 62.4072C84.3026 60.3702 85.1616 58.4158 86.2485 56.5876C84.1195 56.6007 81.9962 56.3647 79.922 55.8845Z" fill="white"/>
<path fill-rule="evenodd" clip-rule="evenodd" d="M120.614 41.062C122.16 38.9767 123.501 36.7465 124.617 34.4026C122.034 34.2023 119.439 34.2481 116.865 34.5393C116.253 36.5763 115.394 38.5307 114.307 40.3589C116.43 40.3361 118.548 40.5722 120.614 41.062Z" fill="white"/>
<path fill-rule="evenodd" clip-rule="evenodd" d="M89.8608 60.8647C87.8722 61.6172 85.8007 62.1286 83.6905 62.388C82.9477 64.8721 82.4507 67.4231 82.2065 70.0043C84.7077 69.324 87.1346 68.395 89.4507 67.2312C89.3305 65.1003 89.4682 62.9626 89.8608 60.8647Z" fill="white"/>
<path fill-rule="evenodd" clip-rule="evenodd" d="M110.676 36.0627C112.662 35.307 114.735 34.8019 116.846 34.5589C117.589 32.0749 118.086 29.5239 118.33 26.9426C115.829 27.6229 113.402 28.5519 111.086 29.7157C111.225 31.8402 111.088 33.9739 110.676 36.0627Z" fill="white"/>
<path fill-rule="evenodd" clip-rule="evenodd" d="M89.4507 67.2308C89.5993 69.8164 90.0049 72.3808 90.6613 74.8862C92.7754 73.3822 94.7373 71.675 96.5191 69.7891C95.6722 67.8344 95.0752 65.7807 94.7422 63.6765C93.1314 65.0747 91.3541 66.2685 89.4507 67.2308Z" fill="white"/>
<path fill-rule="evenodd" clip-rule="evenodd" d="M111.086 29.7157C110.937 27.13 110.531 24.5656 109.875 22.0603C107.761 23.5643 105.799 25.2714 104.017 27.1574C104.853 29.1094 105.449 31.1552 105.794 33.2504C107.413 31.869 109.189 30.6826 111.086 29.7157Z" fill="white"/>
<path fill-rule="evenodd" clip-rule="evenodd" d="M98.3352 37.5469C98.6958 35.6978 99.3483 33.918 100.268 32.2741C99.2287 30.4132 97.9629 28.688 96.4998 27.1379C95.6555 29.0868 95.0585 31.1337 94.7229 33.231C96.1458 34.4713 97.3648 35.9277 98.3352 37.5469Z" fill="#A5A5A5"/>
<path fill-rule="evenodd" clip-rule="evenodd" d="M102.201 59.3997C101.838 61.2478 101.185 63.0272 100.268 64.6725C101.301 66.5376 102.568 68.2636 104.037 69.8086C104.875 67.8507 105.472 65.7981 105.814 63.696C104.387 62.4673 103.167 61.0165 102.201 59.3997Z" fill="#A5A5A5"/>
<path fill-rule="evenodd" clip-rule="evenodd" d="M89.8606 36.0627C91.6177 36.7327 93.2585 37.6751 94.7226 38.8554C94.4297 36.9986 94.4297 35.1074 94.7226 33.2506C93.1098 31.8605 91.3327 30.6734 89.431 29.7158C89.3268 31.841 89.471 33.971 89.8606 36.0627Z" fill="#A5A5A5"/>
<path fill-rule="evenodd" clip-rule="evenodd" d="M110.675 60.8644C108.918 60.1945 107.278 59.252 105.813 58.0718C106.11 59.9288 106.103 61.8217 105.794 63.6766C107.407 65.0667 109.184 66.2538 111.086 67.2114C111.225 65.0869 111.087 62.9533 110.675 60.8644Z" fill="#A5A5A5"/>
<path fill-rule="evenodd" clip-rule="evenodd" d="M91.7745 41.3356C90.863 39.6898 90.2172 37.9102 89.8609 36.0628C87.8746 35.3072 85.8019 34.802 83.6907 34.5591C84.3027 36.5961 85.1617 38.5505 86.2486 40.3787C88.1299 40.4001 89.9955 40.7231 91.7745 41.3356Z" fill="#A5A5A5"/>
<path fill-rule="evenodd" clip-rule="evenodd" d="M108.762 55.6111C109.673 57.257 110.319 59.0365 110.676 60.8839C112.664 61.6364 114.736 62.1478 116.846 62.4072C116.234 60.3702 115.375 58.4158 114.288 56.5875C112.408 56.5368 110.546 56.2078 108.762 55.6111Z" fill="#A5A5A5"/>
<path fill-rule="evenodd" clip-rule="evenodd" d="M84.3348 45.6513C86.1137 45.0365 87.9787 44.7069 89.8606 44.6748C88.4389 43.4462 87.2256 41.9952 86.2679 40.3784C84.1392 40.3494 82.0148 40.5789 79.9414 41.0619C81.2086 42.7691 82.6845 44.3109 84.3348 45.6513Z" fill="#A5A5A5"/>
<path fill-rule="evenodd" clip-rule="evenodd" d="M116.221 51.2756C114.442 51.8905 112.577 52.22 110.695 52.2521C112.117 53.4807 113.33 54.9317 114.288 56.5485C116.418 56.5821 118.544 56.3459 120.614 55.8454C119.336 54.1533 117.861 52.6192 116.221 51.2756Z" fill="#A5A5A5"/>
<path fill-rule="evenodd" clip-rule="evenodd" d="M89.1774 48.4635C87.4227 47.7924 85.7876 46.8428 84.3349 45.6514C82.3243 46.3466 80.4088 47.2913 78.6333 48.4635C80.4088 49.6358 82.3243 50.5805 84.3349 51.2757C85.7924 50.0913 87.4263 49.1424 89.1774 48.4635Z" fill="#A5A5A5"/>
<path fill-rule="evenodd" clip-rule="evenodd" d="M111.359 48.4635C113.117 49.139 114.758 50.0881 116.221 51.2757C118.23 50.5765 120.145 49.632 121.922 48.4635C120.147 47.2913 118.232 46.3466 116.221 45.6514C114.766 46.85 113.123 47.8001 111.359 48.4635Z" fill="#A5A5A5"/>
<path fill-rule="evenodd" clip-rule="evenodd" d="M86.2483 56.568C87.2122 54.9555 88.4247 53.5055 89.8411 52.2716C87.9592 52.2395 86.0942 51.91 84.3152 51.2952C82.665 52.6355 81.189 54.1773 79.9219 55.8845C81.9953 56.3675 84.1196 56.5971 86.2483 56.568Z" fill="#A5A5A5"/>
<path fill-rule="evenodd" clip-rule="evenodd" d="M114.288 40.3784C113.324 41.9909 112.111 43.4409 110.695 44.6748C112.577 44.7069 114.442 45.0365 116.221 45.6513C117.871 44.3109 119.347 42.7692 120.614 41.062C118.543 40.5682 116.417 40.3386 114.288 40.3784Z" fill="#A5A5A5"/>
<path fill-rule="evenodd" clip-rule="evenodd" d="M91.7745 55.6111C89.9955 56.2236 88.1299 56.5467 86.2486 56.568C85.1617 58.3962 84.3027 60.3506 83.6907 62.3877C85.8026 62.1376 87.8752 61.6259 89.8609 60.8644C90.2205 59.0241 90.8662 57.2515 91.7745 55.6111Z" fill="#A5A5A5"/>
<path fill-rule="evenodd" clip-rule="evenodd" d="M108.762 41.3356C110.541 40.7231 112.407 40.4001 114.288 40.3787C115.383 38.5546 116.242 36.5992 116.846 34.5591C114.735 34.802 112.662 35.3072 110.676 36.0628C110.328 37.9127 109.682 39.6936 108.762 41.3356Z" fill="#A5A5A5"/>
<path fill-rule="evenodd" clip-rule="evenodd" d="M98.3352 59.3997C97.3697 61.0165 96.1499 62.4673 94.7229 63.696C95.0586 65.7996 95.6555 67.853 96.4998 69.8086C97.9629 68.2585 99.2287 66.5334 100.268 64.6725C99.3597 63.0234 98.7079 61.2453 98.3352 59.3997Z" fill="#A5A5A5"/>
<path fill-rule="evenodd" clip-rule="evenodd" d="M94.7225 58.0913C93.2611 59.2756 91.6197 60.2184 89.8605 60.884C89.4582 62.974 89.3205 65.1064 89.4505 67.2309C91.3494 66.2686 93.1259 65.0819 94.742 63.6961C94.4327 61.8412 94.4261 59.9484 94.7225 58.0913Z" fill="#A5A5A5"/>
<path fill-rule="evenodd" clip-rule="evenodd" d="M102.201 37.5469C103.173 35.9343 104.392 34.4845 105.814 33.2505C105.481 31.1527 104.884 29.1054 104.037 27.1575C102.58 28.7126 101.315 30.437 100.268 32.2936C101.191 33.9292 101.844 35.7031 102.201 37.5469Z" fill="#A5A5A5"/>
<path fill-rule="evenodd" clip-rule="evenodd" d="M105.813 38.8554C107.272 37.6671 108.914 36.7239 110.675 36.0627C111.078 33.9727 111.216 31.8403 111.086 29.7158C109.187 30.6781 107.41 31.8648 105.794 33.2506C106.103 35.1055 106.11 36.9983 105.813 38.8554Z" fill="#A5A5A5"/>
<path fill-rule="evenodd" clip-rule="evenodd" d="M98.3545 43.2103C97.4345 41.5446 96.2013 40.0724 94.7226 38.8748C95.0361 40.749 95.6913 42.5496 96.6557 44.1867C95.2194 42.9466 93.5637 41.9861 91.7742 41.355C92.7061 43.0125 93.9376 44.4826 95.4061 45.6905C93.6306 45.0101 91.7423 44.6721 89.8411 44.6945C91.2828 45.9328 92.9457 46.887 94.7422 47.5067C92.8421 47.4769 90.9537 47.8082 89.1772 48.4831C90.9572 49.1453 92.8432 49.4762 94.7422 49.4596C92.9457 50.0793 91.2828 51.0335 89.8411 52.2717C91.7423 52.2941 93.6306 51.9562 95.4061 51.2758C93.9332 52.4792 92.7009 53.9501 91.7742 55.6112C93.5622 54.9768 95.2173 54.0167 96.6557 52.7795C95.6829 54.4127 95.0271 56.2149 94.7226 58.0914C96.1871 56.8795 97.4179 55.4102 98.3545 53.7559C98.0027 55.6274 98.0027 57.5479 98.3545 59.4194C99.3212 57.7833 99.9766 55.9823 100.288 54.1075C100.595 55.9831 101.251 57.7847 102.221 59.4194C102.572 57.5479 102.572 55.6274 102.221 53.7559C103.152 55.4138 104.384 56.8839 105.853 58.0914C105.541 56.2139 104.878 54.4118 103.9 52.7795C105.343 54.0202 107.005 54.9805 108.801 55.6112C107.874 53.9501 106.642 52.4792 105.169 51.2758C106.945 51.9562 108.833 52.2941 110.734 52.2717C109.289 51.0341 107.627 50.0741 105.833 49.44C107.733 49.4698 109.621 49.1385 111.398 48.4636C109.618 47.7997 107.732 47.4687 105.833 47.4871C107.629 46.8674 109.292 45.9132 110.734 44.675C108.833 44.6526 106.945 44.9905 105.169 45.6709C106.648 44.468 107.886 42.9972 108.82 41.3355C107.025 41.9662 105.363 42.9265 103.919 44.1672C104.898 42.5349 105.56 40.7328 105.872 38.8553C104.408 40.0672 103.177 41.5365 102.24 43.1908C102.592 41.3193 102.592 39.3988 102.24 37.5273C101.27 39.162 100.615 40.9636 100.307 42.8392C99.9994 40.9636 99.3438 39.162 98.374 37.5273C98.0057 39.4031 97.9991 41.332 98.3545 43.2103Z" fill="white"/>
<path fill-rule="evenodd" clip-rule="evenodd" d="M98.3545 43.21C98.0027 41.3386 98.0027 39.418 98.3545 37.5466C97.3889 35.9297 96.1692 34.479 94.7422 33.2502C94.4395 35.1063 94.4395 36.9991 94.7422 38.8551C96.2 40.076 97.424 41.5516 98.3545 43.21Z" fill="#C4C4C4"/>
<path fill-rule="evenodd" clip-rule="evenodd" d="M102.182 53.7363C102.533 55.6077 102.533 57.5283 102.182 59.3997C103.153 61.0123 104.372 62.4621 105.794 63.6961C106.094 61.8404 106.1 59.9491 105.813 58.0913C104.344 56.8766 103.113 55.4 102.182 53.7363Z" fill="#C4C4C4"/>
<path fill-rule="evenodd" clip-rule="evenodd" d="M94.7223 38.8551C93.261 37.6709 91.6196 36.7281 89.8604 36.0625C90.2077 37.9124 90.854 39.6933 91.7739 41.3353C93.5655 41.962 95.2219 42.9229 96.6554 44.167C95.688 42.5313 95.0326 40.7301 94.7223 38.8551Z" fill="#C4C4C4"/>
<path fill-rule="evenodd" clip-rule="evenodd" d="M105.814 58.0912C107.272 59.2795 108.914 60.2227 110.676 60.8838C110.328 59.034 109.682 57.253 108.762 55.611C106.97 54.9726 105.309 54.013 103.861 52.7793C104.851 54.4061 105.514 56.2104 105.814 58.0912Z" fill="#C4C4C4"/>
<path fill-rule="evenodd" clip-rule="evenodd" d="M95.4258 45.6708C93.9529 44.4674 92.7207 42.9964 91.7939 41.3353C90.015 40.7228 88.1493 40.3998 86.2681 40.3784C87.2319 41.9909 88.4445 43.4409 89.8609 44.6748C91.7619 44.6541 93.6499 44.992 95.4258 45.6708Z" fill="#C4C4C4"/>
<path fill-rule="evenodd" clip-rule="evenodd" d="M105.13 51.2756C106.603 52.4791 107.835 53.95 108.762 55.6111C110.541 56.2236 112.406 56.5467 114.288 56.568C113.324 54.9555 112.111 53.5055 110.695 52.2716C108.794 52.294 106.905 51.956 105.13 51.2756Z" fill="#C4C4C4"/>
<path fill-rule="evenodd" clip-rule="evenodd" d="M94.7421 47.5068C92.9456 46.887 91.2827 45.9329 89.8411 44.6946C87.9592 44.7267 86.0942 45.0562 84.3152 45.671C85.7706 46.8585 87.405 47.8077 89.1577 48.4832C90.9397 47.8041 92.8354 47.4726 94.7421 47.5068Z" fill="#C4C4C4"/>
<path fill-rule="evenodd" clip-rule="evenodd" d="M105.794 49.4401C107.588 50.0742 109.25 51.0342 110.695 52.2718C112.577 52.2397 114.442 51.9101 116.221 51.2953C114.761 50.1037 113.12 49.1542 111.359 48.4832C109.581 49.1514 107.693 49.4761 105.794 49.4401Z" fill="#C4C4C4"/>
<path fill-rule="evenodd" clip-rule="evenodd" d="M89.1772 48.4634C87.4225 49.1346 85.7874 50.0841 84.3347 51.2756C86.1137 51.8904 87.9787 52.2199 89.8606 52.252C91.3022 51.0137 92.9652 50.0595 94.7616 49.4398C92.8546 49.4774 90.9583 49.1459 89.1772 48.4634Z" fill="#C4C4C4"/>
<path fill-rule="evenodd" clip-rule="evenodd" d="M111.359 48.4634C113.117 47.7879 114.758 46.8389 116.221 45.6513C114.442 45.0364 112.577 44.7069 110.695 44.6748C109.253 45.9131 107.59 46.8673 105.794 47.487C107.693 47.467 109.58 47.7981 111.359 48.4634Z" fill="#C4C4C4"/>
<path fill-rule="evenodd" clip-rule="evenodd" d="M95.4258 51.2756C93.6503 51.956 91.7621 52.294 89.8609 52.2716C88.4391 53.5003 87.2258 54.9512 86.2681 56.568C88.1485 56.5371 90.0126 56.2143 91.7939 55.6111C92.7082 53.9414 93.9423 52.4683 95.4258 51.2756Z" fill="#C4C4C4"/>
<path fill-rule="evenodd" clip-rule="evenodd" d="M105.13 45.6708C106.905 44.9904 108.794 44.6524 110.695 44.6748C112.117 43.4462 113.33 41.9952 114.288 40.3784C112.407 40.4093 110.543 40.7321 108.762 41.3353C107.835 42.9964 106.603 44.4674 105.13 45.6708Z" fill="#C4C4C4"/>
<path fill-rule="evenodd" clip-rule="evenodd" d="M98.335 59.3998C98.6988 61.2479 99.3511 63.0273 100.268 64.6726C101.18 63.0249 101.832 61.2463 102.201 59.3998C101.234 57.7637 100.579 55.9627 100.268 54.0879C99.966 55.965 99.31 57.7676 98.335 59.3998Z" fill="#C4C4C4"/>
<path fill-rule="evenodd" clip-rule="evenodd" d="M98.3547 53.7363C97.4295 55.3984 96.197 56.8697 94.7229 58.0718C94.4299 59.9286 94.4299 61.8198 94.7229 63.6766C96.1446 62.4426 97.3636 60.9928 98.3352 59.3802C98 57.5132 98.0066 55.6009 98.3547 53.7363Z" fill="#C4C4C4"/>
<path fill-rule="evenodd" clip-rule="evenodd" d="M91.7739 55.611C90.8624 57.2569 90.2166 59.0364 89.8604 60.8838C91.6175 60.2139 93.2582 59.2715 94.7223 58.0912C95.0358 56.217 95.691 54.4165 96.6554 52.7793C95.217 54.0165 93.5619 54.9766 91.7739 55.611Z" fill="#C4C4C4"/>
<path fill-rule="evenodd" clip-rule="evenodd" d="M102.201 37.5468C101.841 35.6977 101.188 33.9178 100.268 32.2739C99.3533 33.9202 98.7011 35.6993 98.335 37.5468C99.3048 39.1814 99.9604 40.983 100.268 42.8586C100.576 40.983 101.231 39.1814 102.201 37.5468Z" fill="#C4C4C4"/>
<path fill-rule="evenodd" clip-rule="evenodd" d="M102.182 43.2103C103.108 41.5488 104.34 40.0778 105.813 38.8748C106.11 37.0178 106.103 35.125 105.794 33.27C104.372 34.504 103.153 35.9538 102.182 37.5664C102.553 39.4294 102.553 41.3473 102.182 43.2103Z" fill="#C4C4C4"/>
<path fill-rule="evenodd" clip-rule="evenodd" d="M108.762 41.3353C109.674 39.6895 110.319 37.9099 110.676 36.0625C108.919 36.7325 107.278 37.6749 105.814 38.8551C105.502 40.7327 104.84 42.5347 103.861 44.167C105.309 42.9333 106.97 41.9737 108.762 41.3353Z" fill="#C4C4C4"/>
</svg>
