<svg width="725" height="150" viewBox="0 0 725 150" fill="none" xmlns="http://www.w3.org/2000/svg">
<g clip-path="url(#clip0_5417_16351)">
<path d="M502.188 138.041L593.417 105.809C635.464 90.9528 681.594 112.996 696.45 155.044L816.804 495.69L649.441 554.822L502.188 138.041Z" fill="#A3D4E4"/>
<path d="M413.051 86.1516L501.023 45.871C541.57 27.3057 589.49 45.125 608.055 85.6717L792.292 488.045L630.904 561.941L413.051 86.1516Z" fill="#92CADC"/>
<path d="M322.094 76.355L405.696 27.6478C444.228 5.19865 493.663 18.2366 516.113 56.7689L770.522 493.443L617.151 582.798L322.094 76.355Z" fill="#84C3D8"/>
<path d="M226.836 96.5839L304.441 38.798C340.209 12.1644 390.795 19.5693 417.429 55.3374L745.332 495.7L602.963 601.711L226.836 96.5839Z" fill="#50A9C7"/>
<path d="M179.325 193.873C148.516 161.628 149.681 110.513 181.926 79.7044L193.498 68.6473C225.742 37.8403 276.854 39.0047 307.661 71.2481L719.37 502.153L591.031 624.775L179.325 193.873Z" fill="#2D98BB"/>
<path d="M0 318.492L142.603 150.695C171.482 116.714 222.44 112.577 256.421 141.456L669.041 492.122L474.148 721.448L0 318.492Z" fill="#1C90B6"/>
</g>
<defs>
<clipPath id="clip0_5417_16351">
<rect width="725" height="150" fill="white"/>
</clipPath>
</defs>
</svg>
