<svg width="109" height="53" viewBox="0 0 109 53" fill="none" xmlns="http://www.w3.org/2000/svg">
<g clip-path="url(#clip0_5417_16350)">
<path d="M17.5804 17.2903V45.9833C17.5816 46.0488 17.5662 46.1135 17.5356 46.1709C17.505 46.2284 17.4604 46.2767 17.406 46.311C17.3517 46.3453 17.2896 46.3645 17.2259 46.3667C17.1621 46.3688 17.0989 46.3539 17.0425 46.3233L11.7768 43.6153C11.7155 43.5844 11.6637 43.5365 11.6275 43.477C11.5912 43.4175 11.5719 43.3488 11.5717 43.2787V19.9966C11.5719 19.9264 11.5912 19.8577 11.6275 19.7982C11.6637 19.7388 11.7155 19.6909 11.7768 19.66L17.0409 16.9553C17.0971 16.9249 17.16 16.9099 17.2234 16.9119C17.2869 16.9139 17.3488 16.9328 17.403 16.9668C17.4572 17.0007 17.5019 17.0485 17.5328 17.1055C17.5636 17.1625 17.5794 17.2268 17.5788 17.2919L17.5804 17.2903ZM59.0633 27.5749V45.9866C59.0631 46.051 59.0468 46.1142 59.0162 46.1702C58.9855 46.2263 58.9414 46.2735 58.888 46.3072C58.8347 46.3409 58.7738 46.36 58.7112 46.3629C58.6486 46.3657 58.5863 46.352 58.5303 46.3233L53.2581 43.6153C53.1971 43.5842 53.1457 43.5362 53.1097 43.4767C53.0738 43.4172 53.0547 43.3487 53.0546 43.2787V27.5749C53.0546 27.475 53.0932 27.3793 53.162 27.3087C53.2308 27.2381 53.324 27.1984 53.4213 27.1984H58.6967C58.7939 27.1984 58.8872 27.2381 58.9559 27.3087C59.0247 27.3793 59.0633 27.475 59.0633 27.5749ZM51.848 45.3399L51.7446 45.4195C51.1374 45.8762 50.4495 46.2074 49.7191 46.3946C48.8317 46.63 47.9035 46.6537 47.0058 46.4639C46.1081 46.2741 45.2646 45.8758 44.54 45.2995C43.8154 44.7232 43.229 43.9843 42.8256 43.1393C42.4223 42.2943 42.2127 41.3658 42.213 40.4248V27.6246C42.213 27.5251 42.2514 27.4296 42.3198 27.359C42.3883 27.2885 42.4811 27.2486 42.5781 27.2482L45.9604 27.3046H47.8438C47.8647 27.3025 47.8858 27.3025 47.9068 27.3046C47.9896 27.3218 48.0641 27.3678 48.1177 27.4349C48.1712 27.502 48.2006 27.586 48.2008 27.6727V32.1218C48.1988 32.1456 48.1988 32.1694 48.2008 32.1932V42.2207C48.2016 42.9791 48.4954 43.7062 49.0178 44.2424C49.5401 44.7787 50.2484 45.0803 50.9871 45.0812H51.7155C51.7391 45.0763 51.7635 45.0774 51.7866 45.0843C51.8096 45.0912 51.8307 45.1038 51.848 45.1209C51.8654 45.138 51.8784 45.1592 51.886 45.1826C51.8935 45.206 51.8955 45.231 51.8916 45.2553C51.8861 45.2871 51.8708 45.3178 51.848 45.3399ZM10.2488 29.5233C9.92008 29.3881 9.56914 29.3188 9.21502 29.3194H8.79505C8.42776 29.3194 8.06407 29.3938 7.72481 29.5383C7.38555 29.6828 7.07739 29.8945 6.81798 30.1615C6.55856 30.4284 6.35298 30.7453 6.21301 31.0939C6.07304 31.4425 6.00143 31.8161 6.00228 32.1932V42.2207C6.00442 42.9797 6.2996 43.7068 6.82311 44.2427C7.34663 44.7786 8.05576 45.0796 8.79505 45.0796H9.52353C9.54706 45.0766 9.57093 45.0796 9.59307 45.0883C9.6152 45.097 9.63493 45.1111 9.65054 45.1294C9.66615 45.1477 9.67716 45.1697 9.68261 45.1934C9.68806 45.2171 9.68779 45.2417 9.68183 45.2653C9.67433 45.2964 9.65735 45.3243 9.63337 45.3449L9.53161 45.4245C8.63535 46.0919 7.57683 46.4919 6.473 46.5804C5.36917 46.6689 4.26299 46.4424 3.2767 45.9259C2.2904 45.4094 1.46239 44.623 0.884132 43.6537C0.305878 42.6844 -0.000102133 41.5698 2.55729e-08 40.4331V33.5778C2.55729e-08 30.1651 2.7217 27.2847 6.04428 27.3029C6.86585 27.3084 7.67755 27.4873 8.42892 27.8284C9.18029 28.1696 9.85528 28.6658 10.4119 29.2862C10.4317 29.3117 10.4429 29.343 10.4438 29.3755C10.4448 29.408 10.4355 29.44 10.4174 29.4667C10.3992 29.4933 10.3731 29.5133 10.3431 29.5235C10.313 29.5337 10.2788 29.5336 10.2488 29.5233ZM75.9977 40.1611C75.9977 41.8526 75.5502 43.2522 74.6538 44.3599C74.5197 44.5191 74.3953 44.6667 74.2386 44.8159C73.1774 45.8772 71.8158 46.4476 70.1617 46.5571C70.157 46.5597 70.1517 46.5611 70.1464 46.5611C70.141 46.5611 70.1358 46.5597 70.1311 46.5571L69.976 46.5687H69.3363C68.2716 46.5313 67.2122 46.3976 66.1704 46.169L66.0219 46.1359C65.2528 45.9318 64.4992 45.6707 63.767 45.3548C63.5018 45.2354 63.2752 45.041 63.1136 44.7944C62.952 44.5478 62.8621 44.259 62.8543 43.9619L62.709 40.3817C62.7079 40.3547 62.7121 40.3277 62.7215 40.3024C62.7308 40.277 62.745 40.2539 62.7633 40.2344C62.7815 40.2149 62.8034 40.1994 62.8277 40.1888C62.852 40.1782 62.8781 40.1727 62.9044 40.1727C63.053 40.1727 63.1887 40.259 63.2565 40.3933C63.9884 41.8337 64.9461 43.1408 66.0913 44.262C67.0605 45.2073 68.0716 45.7677 69.128 45.9452C69.3735 45.9866 69.6222 46.0082 69.871 46.0065C69.9954 46.0065 70.1294 46.0065 70.2425 45.99H70.3039C70.3483 45.9895 70.3926 45.985 70.4363 45.9767C70.6673 45.9568 70.8967 45.9054 71.1147 45.8274C71.2084 45.7993 71.2989 45.7677 71.3877 45.728C71.4572 45.6998 71.5266 45.6699 71.5912 45.6351C72.0012 45.4233 72.3628 45.125 72.6525 44.7595C72.7106 44.6932 72.7655 44.6235 72.814 44.5506C72.8641 44.4743 72.9157 44.4013 72.9594 44.3284C73.1209 43.9403 73.1984 43.5225 73.1903 43.1013C73.2113 42.6628 73.1225 42.226 72.9325 41.8327C72.7425 41.4394 72.4576 41.1026 72.1049 40.8543C71.1509 40.2307 70.1038 39.7719 69.0052 39.4962C68.0217 39.2334 67.0581 38.8975 66.122 38.4913C65.6427 38.2637 65.1889 37.9834 64.7684 37.6555C64.6473 37.5659 64.5261 37.4615 64.405 37.362C63.3114 36.4317 62.7639 34.9907 62.7639 33.0356C62.7606 32.4054 62.8576 31.7786 63.0514 31.1799C63.0772 31.1086 63.1031 31.0373 63.1338 30.9644C63.2242 30.7223 63.3292 30.4868 63.4487 30.2563C63.4487 30.243 63.4617 30.2281 63.4697 30.2115C63.733 29.7439 64.0561 29.3127 64.4276 28.9313C65.2204 28.1211 66.2344 27.5775 67.335 27.3726C67.8713 27.2631 68.4173 27.2101 68.9632 27.2134C69.2701 27.2134 69.5916 27.23 69.9098 27.2598C70.6371 27.3329 71.3562 27.475 72.058 27.6843C72.9658 27.9662 73.851 28.3244 74.7006 28.7539C74.7047 28.7561 74.7081 28.7595 74.7104 28.7636C74.7126 28.7677 74.7137 28.7724 74.7135 28.7771L74.7894 30.9677L74.8476 32.7437C74.8485 32.7697 74.8442 32.7955 74.8351 32.8197C74.826 32.844 74.8121 32.866 74.7945 32.8846C74.7768 32.9032 74.7557 32.918 74.7323 32.9279C74.709 32.9379 74.6839 32.9429 74.6586 32.9427C74.591 32.9425 74.5247 32.9239 74.4665 32.8886C74.4082 32.8533 74.3603 32.8027 74.3275 32.742C73.859 31.8764 73.326 31.0506 72.7332 30.2712C72.4653 29.9195 72.179 29.5829 71.8755 29.263L71.8045 29.1917C70.8886 28.2498 69.8936 27.7805 68.8195 27.7805C67.7453 27.7805 66.9102 28.0342 66.3158 28.5433C66.0295 28.7933 65.8023 29.1068 65.6512 29.4601C65.5001 29.8135 65.4291 30.1974 65.4436 30.583C65.4305 30.9781 65.5219 31.3695 65.7082 31.7155C65.8945 32.0615 66.1687 32.3492 66.5016 32.548C67.3141 33.0485 68.1935 33.4245 69.1118 33.664L69.6287 33.8083C70.3766 34.0172 70.8805 34.1665 71.1487 34.256C71.4717 34.3622 71.8755 34.5081 72.3553 34.6971C72.7671 34.8497 73.1629 35.0487 73.5344 35.2875C73.8752 35.5213 74.1999 35.7816 74.5035 36.0669C74.8266 36.3604 75.098 36.7119 75.2999 37.1049C75.786 38.0452 76.0267 39.0982 75.9977 40.1628V40.1611ZM39.2135 37.1331V36.9176V36.6323V36.4267C39.2135 36.2808 39.1973 36.1315 39.1828 35.9856L39.1667 35.8231L39.1521 35.6987C39.1516 35.618 39.1407 35.5377 39.1198 35.4599C39.1198 35.3803 39.0972 35.3007 39.0827 35.2245C39.0665 35.1482 39.0649 35.1217 39.0536 35.0686L39.0132 34.8563C38.9738 34.6657 38.928 34.4766 38.8759 34.2892L38.8145 34.0703L38.7418 33.8448C38.7176 33.7718 38.6934 33.6989 38.6659 33.6259C38.6144 33.4787 38.5594 33.3327 38.5012 33.1881L38.4317 33.019C38.395 32.9283 38.3534 32.8397 38.3073 32.7536C38.2637 32.6741 38.2072 32.5348 38.149 32.4319C38.0013 32.1341 37.8362 31.8456 37.6548 31.568C37.5828 31.4563 37.5085 31.3463 37.4319 31.238L37.3204 31.0821L37.251 30.9893C37.0277 30.6911 36.7871 30.407 36.5306 30.1386L36.39 29.9943C36.2255 29.8266 36.0541 29.6662 35.8764 29.5134L35.8376 29.4786C35.735 29.3892 35.6316 29.3008 35.5275 29.2132L35.3498 29.0739C35.1693 28.9363 34.9834 28.8062 34.7925 28.6843C34.7296 28.6445 34.6649 28.6013 34.6003 28.5649L34.4065 28.4488C34.3414 28.4097 34.2751 28.3727 34.2078 28.3377C34.1416 28.3045 34.077 28.2664 34.0091 28.2315L33.8056 28.1287C33.7379 28.094 33.669 28.0619 33.5989 28.0326L33.3921 27.9397C33.2515 27.8794 33.1093 27.823 32.9657 27.7705L32.7509 27.6926L32.5312 27.6213L32.3115 27.555C32.1639 27.5123 32.0153 27.4735 31.8657 27.4389L31.6848 27.3991L31.4102 27.346C31.256 27.3169 31.1008 27.2931 30.945 27.2747L30.7124 27.2449L30.3732 27.215H29.3362C27.8599 27.2804 26.4189 27.6995 25.1286 28.4389C23.8383 29.1783 22.7344 30.2174 21.9053 31.4731C21.0761 32.7288 20.5447 34.1663 20.3535 35.6707C20.1624 37.175 20.3167 38.7043 20.8043 40.1364C21.2919 41.5685 22.0991 42.8636 23.1615 43.9181C24.2239 44.9726 25.5118 45.7572 26.9224 46.2093C28.333 46.6613 29.8271 46.7682 31.2851 46.5213C32.7431 46.2745 34.1246 45.6808 35.3191 44.7877L35.4693 44.6716C35.5905 44.5755 35.7116 44.4826 35.8247 44.3848C35.8635 44.3549 35.9006 44.3234 35.9378 44.2886L36.0314 44.199L36.0605 44.1742C36.7475 43.5421 37.3422 42.8115 37.826 42.0051C37.8308 41.9952 37.8341 41.9819 37.826 41.972C37.8224 41.9678 37.818 41.9644 37.8131 41.962C37.8075 41.9594 37.8014 41.9583 37.7953 41.9587C37.7895 41.9596 37.7839 41.9618 37.7791 41.9653L37.7468 41.9902L37.4496 42.2688C36.8413 42.8956 36.1161 43.3901 35.3173 43.7226C34.5186 44.0551 33.6627 44.2188 32.8009 44.204C31.7887 44.2048 30.7906 43.96 29.8881 43.4893C28.9856 43.0187 28.2043 42.3357 27.6079 41.496C26.7981 40.367 26.3622 39.0012 26.3642 37.5991V37.1348H39.2135V37.1331ZM29.5914 28.1022C30.4437 28.104 31.2604 28.4528 31.8624 29.0721C32.4645 29.6913 32.8026 30.5305 32.8026 31.4055V36.7551H26.3738V31.4055C26.3743 30.5295 26.7134 29.6896 27.3167 29.0702C27.9201 28.4508 28.7382 28.1026 29.5914 28.1022Z" fill="white"/>
<rect x="62.0547" width="48" height="25" rx="12.5" transform="rotate(14.0176 62.0547 0)" fill="#FFE141"/>
<path d="M72.6191 19.2772C71.9128 19.1009 71.3141 18.8401 70.8231 18.4949C70.3321 18.1497 69.9517 17.7414 69.6818 17.27C69.4023 16.8044 69.2304 16.2873 69.1662 15.7189C69.1097 15.1523 69.159 14.5586 69.314 13.9376L69.3373 13.8445C69.4962 13.208 69.7492 12.6569 70.0963 12.1911C70.4513 11.7273 70.8693 11.3575 71.3504 11.0818C71.8315 10.8062 72.3611 10.6333 72.9393 10.5633C73.5272 10.4874 74.1355 10.528 74.7642 10.6849C75.2532 10.807 75.7082 10.9824 76.1293 11.2113C76.5505 11.4401 76.9085 11.7232 77.2036 12.0607C77.4908 12.3963 77.6986 12.7863 77.8268 13.2305C77.9569 13.6671 77.9736 14.1618 77.8767 14.7148L75.5133 14.1248C75.5578 13.7154 75.4762 13.3817 75.2685 13.1237C75.0705 12.8599 74.7503 12.6727 74.3079 12.5623C73.718 12.415 73.2028 12.5132 72.7625 12.8567C72.3222 13.2003 72.008 13.7485 71.8201 14.5014L71.7968 14.5946C71.7116 14.9361 71.6632 15.2621 71.6516 15.5725C71.6498 15.8772 71.7003 16.1536 71.8032 16.402C71.9042 16.658 72.0595 16.8782 72.2691 17.0625C72.4865 17.2487 72.7776 17.3873 73.1424 17.4784C73.4296 17.5501 73.6828 17.5762 73.902 17.5567C74.129 17.5392 74.323 17.4887 74.4841 17.4052C74.6451 17.3217 74.775 17.214 74.874 17.082C74.9748 16.9423 75.0533 16.7928 75.1095 16.6337L73.5494 16.2442L73.9651 14.5793L77.877 15.556L77.6212 16.5805C77.4895 17.1083 77.281 17.5799 76.9959 17.9952C76.7128 18.4027 76.3588 18.7308 75.934 18.9792C75.5091 19.2277 75.0173 19.3812 74.4585 19.4396C73.9075 19.4999 73.2944 19.4458 72.6191 19.2772ZM79.7609 12.0684L82.171 12.6701L80.0927 20.9946L77.6827 20.3929L79.7609 12.0684ZM83.5605 13.017L89.1839 14.4209L88.7218 16.2721L85.4968 15.467L85.0549 17.2366L87.628 17.879L87.1891 19.637L84.616 18.9947L83.8807 21.9403L81.4823 21.3415L83.5605 13.017ZM91.3508 16.9161L89.1969 16.3783L89.6562 14.5388L96.3624 16.213L95.9031 18.0526L93.7492 17.5148L92.1302 23.9998L89.7318 23.401L91.3508 16.9161Z" fill="#5E3AAA"/>
</g>
<defs>
<clipPath id="clip0_5417_16350">
<rect width="108.625" height="52.713" fill="white"/>
</clipPath>
</defs>
</svg>
