<svg width="76" height="37" viewBox="0 0 76 37" fill="none" xmlns="http://www.w3.org/2000/svg">
<path d="M17.5804 1.29028V29.9833C17.5816 30.0488 17.5662 30.1135 17.5356 30.1709C17.505 30.2284 17.4604 30.2767 17.406 30.311C17.3517 30.3453 17.2896 30.3645 17.2259 30.3667C17.1621 30.3688 17.0989 30.3539 17.0425 30.3233L11.7768 27.6153C11.7155 27.5844 11.6637 27.5365 11.6275 27.477C11.5912 27.4175 11.5719 27.3488 11.5717 27.2787V3.99658C11.5719 3.92642 11.5912 3.85772 11.6275 3.79824C11.6637 3.73876 11.7155 3.69086 11.7768 3.65995L17.0409 0.955314C17.0971 0.924868 17.16 0.909915 17.2234 0.911921C17.2869 0.913927 17.3488 0.932823 17.403 0.966757C17.4572 1.00069 17.5019 1.0485 17.5328 1.10551C17.5636 1.16251 17.5794 1.22675 17.5788 1.29194L17.5804 1.29028ZM59.0633 11.5749V29.9866C59.0631 30.051 59.0468 30.1142 59.0162 30.1702C58.9855 30.2263 58.9414 30.2735 58.888 30.3072C58.8347 30.3409 58.7738 30.36 58.7112 30.3629C58.6486 30.3657 58.5863 30.352 58.5303 30.3233L53.2581 27.6153C53.1971 27.5842 53.1457 27.5362 53.1097 27.4767C53.0738 27.4172 53.0547 27.3487 53.0546 27.2787V11.5749C53.0546 11.475 53.0932 11.3793 53.162 11.3087C53.2308 11.2381 53.324 11.1984 53.4213 11.1984H58.6967C58.7939 11.1984 58.8872 11.2381 58.9559 11.3087C59.0247 11.3793 59.0633 11.475 59.0633 11.5749ZM51.848 29.3399L51.7446 29.4195C51.1374 29.8762 50.4495 30.2074 49.7191 30.3946C48.8317 30.63 47.9035 30.6537 47.0058 30.4639C46.1081 30.2741 45.2646 29.8758 44.54 29.2995C43.8154 28.7232 43.229 27.9843 42.8256 27.1393C42.4223 26.2943 42.2127 25.3658 42.213 24.4248V11.6246C42.213 11.5251 42.2514 11.4296 42.3198 11.359C42.3883 11.2885 42.4811 11.2486 42.5781 11.2482L45.9604 11.3046H47.8438C47.8647 11.3025 47.8858 11.3025 47.9068 11.3046C47.9896 11.3218 48.0641 11.3678 48.1177 11.4349C48.1712 11.502 48.2006 11.586 48.2008 11.6727V16.1218C48.1988 16.1456 48.1988 16.1694 48.2008 16.1932V26.2207C48.2016 26.9791 48.4954 27.7062 49.0178 28.2424C49.5401 28.7787 50.2484 29.0803 50.9871 29.0812H51.7155C51.7391 29.0763 51.7635 29.0774 51.7866 29.0843C51.8096 29.0912 51.8307 29.1038 51.848 29.1209C51.8654 29.138 51.8784 29.1592 51.886 29.1826C51.8935 29.206 51.8955 29.231 51.8916 29.2553C51.8861 29.2871 51.8708 29.3178 51.848 29.3399ZM10.2488 13.5233C9.92008 13.3881 9.56914 13.3188 9.21502 13.3194H8.79505C8.42776 13.3194 8.06407 13.3938 7.72481 13.5383C7.38555 13.6828 7.07739 13.8945 6.81798 14.1615C6.55856 14.4284 6.35298 14.7453 6.21301 15.0939C6.07304 15.4425 6.00143 15.8161 6.00228 16.1932V26.2207C6.00442 26.9797 6.2996 27.7068 6.82311 28.2427C7.34663 28.7786 8.05576 29.0796 8.79505 29.0796H9.52353C9.54706 29.0766 9.57093 29.0796 9.59307 29.0883C9.6152 29.097 9.63493 29.1111 9.65054 29.1294C9.66615 29.1477 9.67716 29.1697 9.68261 29.1934C9.68806 29.2171 9.68779 29.2417 9.68183 29.2653C9.67433 29.2964 9.65735 29.3243 9.63337 29.3449L9.53161 29.4245C8.63535 30.0919 7.57683 30.4919 6.473 30.5804C5.36917 30.6689 4.26299 30.4424 3.2767 29.9259C2.2904 29.4094 1.46239 28.623 0.884132 27.6537C0.305878 26.6844 -0.000102133 25.5698 2.55729e-08 24.4331V17.5778C2.55729e-08 14.1651 2.7217 11.2847 6.04428 11.3029C6.86585 11.3084 7.67755 11.4873 8.42892 11.8284C9.18029 12.1696 9.85528 12.6658 10.4119 13.2862C10.4317 13.3117 10.4429 13.343 10.4438 13.3755C10.4448 13.408 10.4355 13.44 10.4174 13.4667C10.3992 13.4933 10.3731 13.5133 10.3431 13.5235C10.313 13.5337 10.2788 13.5336 10.2488 13.5233ZM75.9977 24.1611C75.9977 25.8526 75.5502 27.2522 74.6538 28.3599C74.5197 28.5191 74.3953 28.6667 74.2386 28.8159C73.1774 29.8772 71.8158 30.4476 70.1617 30.5571C70.157 30.5597 70.1517 30.5611 70.1464 30.5611C70.141 30.5611 70.1358 30.5597 70.1311 30.5571L69.976 30.5687H69.3363C68.2716 30.5313 67.2122 30.3976 66.1704 30.169L66.0219 30.1359C65.2528 29.9318 64.4992 29.6707 63.767 29.3548C63.5018 29.2354 63.2752 29.041 63.1136 28.7944C62.952 28.5478 62.8621 28.259 62.8543 27.9619L62.709 24.3817C62.7079 24.3547 62.7121 24.3277 62.7215 24.3024C62.7308 24.277 62.745 24.2539 62.7633 24.2344C62.7815 24.2149 62.8034 24.1994 62.8277 24.1888C62.852 24.1782 62.8781 24.1727 62.9044 24.1727C63.053 24.1727 63.1887 24.259 63.2565 24.3933C63.9884 25.8337 64.9461 27.1408 66.0913 28.262C67.0605 29.2073 68.0716 29.7677 69.128 29.9452C69.3735 29.9866 69.6222 30.0082 69.871 30.0065C69.9954 30.0065 70.1294 30.0065 70.2425 29.99H70.3039C70.3483 29.9895 70.3926 29.985 70.4363 29.9767C70.6673 29.9568 70.8967 29.9054 71.1147 29.8274C71.2084 29.7993 71.2989 29.7677 71.3877 29.728C71.4572 29.6998 71.5266 29.6699 71.5912 29.6351C72.0012 29.4233 72.3628 29.125 72.6525 28.7595C72.7106 28.6932 72.7655 28.6235 72.814 28.5506C72.8641 28.4743 72.9157 28.4013 72.9594 28.3284C73.1209 27.9403 73.1984 27.5225 73.1903 27.1013C73.2113 26.6628 73.1225 26.226 72.9325 25.8327C72.7425 25.4394 72.4576 25.1026 72.1049 24.8543C71.1509 24.2307 70.1038 23.7719 69.0052 23.4962C68.0217 23.2334 67.0581 22.8975 66.122 22.4913C65.6427 22.2637 65.1889 21.9834 64.7684 21.6555C64.6473 21.5659 64.5261 21.4615 64.405 21.362C63.3114 20.4317 62.7639 18.9907 62.7639 17.0356C62.7606 16.4054 62.8576 15.7786 63.0514 15.1799C63.0772 15.1086 63.1031 15.0373 63.1338 14.9644C63.2242 14.7223 63.3292 14.4868 63.4487 14.2563C63.4487 14.243 63.4617 14.2281 63.4697 14.2115C63.733 13.7439 64.0561 13.3127 64.4276 12.9313C65.2204 12.1211 66.2344 11.5775 67.335 11.3726C67.8713 11.2631 68.4173 11.2101 68.9632 11.2134C69.2701 11.2134 69.5916 11.23 69.9098 11.2598C70.6371 11.3329 71.3562 11.475 72.058 11.6843C72.9658 11.9662 73.851 12.3244 74.7006 12.7539C74.7047 12.7561 74.7081 12.7595 74.7104 12.7636C74.7126 12.7677 74.7137 12.7724 74.7135 12.7771L74.7894 14.9677L74.8476 16.7437C74.8485 16.7697 74.8442 16.7955 74.8351 16.8197C74.826 16.844 74.8121 16.866 74.7945 16.8846C74.7768 16.9032 74.7557 16.918 74.7323 16.9279C74.709 16.9379 74.6839 16.9429 74.6586 16.9427C74.591 16.9425 74.5247 16.9239 74.4665 16.8886C74.4082 16.8533 74.3603 16.8027 74.3275 16.742C73.859 15.8764 73.326 15.0506 72.7332 14.2712C72.4653 13.9195 72.179 13.5829 71.8755 13.263L71.8045 13.1917C70.8886 12.2498 69.8936 11.7805 68.8195 11.7805C67.7453 11.7805 66.9102 12.0342 66.3158 12.5433C66.0295 12.7933 65.8023 13.1068 65.6512 13.4601C65.5001 13.8135 65.4291 14.1974 65.4436 14.583C65.4305 14.9781 65.5219 15.3695 65.7082 15.7155C65.8945 16.0615 66.1687 16.3492 66.5016 16.548C67.3141 17.0485 68.1935 17.4245 69.1118 17.664L69.6287 17.8083C70.3766 18.0172 70.8805 18.1665 71.1487 18.256C71.4717 18.3622 71.8755 18.5081 72.3553 18.6971C72.7671 18.8497 73.1629 19.0487 73.5344 19.2875C73.8752 19.5213 74.1999 19.7816 74.5035 20.0669C74.8266 20.3604 75.098 20.7119 75.2999 21.1049C75.786 22.0452 76.0267 23.0982 75.9977 24.1628V24.1611ZM39.2135 21.1331V20.9176V20.6323V20.4267C39.2135 20.2808 39.1973 20.1315 39.1828 19.9856L39.1667 19.8231L39.1521 19.6987C39.1516 19.618 39.1407 19.5377 39.1198 19.4599C39.1198 19.3803 39.0972 19.3007 39.0827 19.2245C39.0665 19.1482 39.0649 19.1217 39.0536 19.0686L39.0132 18.8563C38.9738 18.6657 38.928 18.4766 38.8759 18.2892L38.8145 18.0703L38.7418 17.8448C38.7176 17.7718 38.6934 17.6989 38.6659 17.6259C38.6144 17.4787 38.5594 17.3327 38.5012 17.1881L38.4317 17.019C38.395 16.9283 38.3534 16.8397 38.3073 16.7536C38.2637 16.6741 38.2072 16.5348 38.149 16.4319C38.0013 16.1341 37.8362 15.8456 37.6548 15.568C37.5828 15.4563 37.5085 15.3463 37.4319 15.238L37.3204 15.0821L37.251 14.9893C37.0277 14.6911 36.7871 14.407 36.5306 14.1386L36.39 13.9943C36.2255 13.8266 36.0541 13.6662 35.8764 13.5134L35.8376 13.4786C35.735 13.3892 35.6316 13.3008 35.5275 13.2132L35.3498 13.0739C35.1693 12.9363 34.9834 12.8062 34.7925 12.6843C34.7296 12.6445 34.6649 12.6013 34.6003 12.5649L34.4065 12.4488C34.3414 12.4097 34.2751 12.3727 34.2078 12.3377C34.1416 12.3045 34.077 12.2664 34.0091 12.2315L33.8056 12.1287C33.7379 12.094 33.669 12.0619 33.5989 12.0326L33.3921 11.9397C33.2515 11.8794 33.1093 11.823 32.9657 11.7705L32.7509 11.6926L32.5312 11.6213L32.3115 11.555C32.1639 11.5123 32.0153 11.4735 31.8657 11.4389L31.6848 11.3991L31.4102 11.346C31.256 11.3169 31.1008 11.2931 30.945 11.2747L30.7124 11.2449L30.3732 11.215H29.3362C27.8599 11.2804 26.4189 11.6995 25.1286 12.4389C23.8383 13.1783 22.7344 14.2174 21.9053 15.4731C21.0761 16.7288 20.5447 18.1663 20.3535 19.6707C20.1624 21.175 20.3167 22.7043 20.8043 24.1364C21.2919 25.5685 22.0991 26.8636 23.1615 27.9181C24.2239 28.9726 25.5118 29.7572 26.9224 30.2093C28.333 30.6613 29.8271 30.7682 31.2851 30.5213C32.7431 30.2745 34.1246 29.6808 35.3191 28.7877L35.4693 28.6716C35.5905 28.5755 35.7116 28.4826 35.8247 28.3848C35.8635 28.3549 35.9006 28.3234 35.9378 28.2886L36.0314 28.199L36.0605 28.1742C36.7475 27.5421 37.3422 26.8115 37.826 26.0051C37.8308 25.9952 37.8341 25.9819 37.826 25.972C37.8224 25.9678 37.818 25.9644 37.8131 25.962C37.8075 25.9594 37.8014 25.9583 37.7953 25.9587C37.7895 25.9596 37.7839 25.9618 37.7791 25.9653L37.7468 25.9902L37.4496 26.2688C36.8413 26.8956 36.1161 27.3901 35.3173 27.7226C34.5186 28.0551 33.6627 28.2188 32.8009 28.204C31.7887 28.2048 30.7906 27.96 29.8881 27.4893C28.9856 27.0187 28.2043 26.3357 27.6079 25.496C26.7981 24.367 26.3622 23.0012 26.3642 21.5991V21.1348H39.2135V21.1331ZM29.5914 12.1022C30.4437 12.104 31.2604 12.4528 31.8624 13.0721C32.4645 13.6913 32.8026 14.5305 32.8026 15.4055V20.7551H26.3738V15.4055C26.3743 14.5295 26.7134 13.6896 27.3167 13.0702C27.9201 12.4508 28.7382 12.1026 29.5914 12.1022Z" fill="white"/>
</svg>
