<svg width="110" height="34" viewBox="0 0 110 34" fill="none" xmlns="http://www.w3.org/2000/svg">
<path d="M91.1111 33.9997C90.7558 33.9997 90.4423 33.9537 90.1706 33.8618C89.899 33.7698 89.6565 33.6361 89.4434 33.4605L89.6064 33.1408C89.7568 33.2578 89.9031 33.3539 90.0453 33.4292C90.1915 33.5044 90.3504 33.5608 90.5218 33.5985C90.6931 33.6319 90.8875 33.6486 91.1048 33.6486C91.4936 33.6486 91.7861 33.5734 91.9826 33.4229C92.1791 33.2683 92.2773 33.0655 92.2773 32.8147C92.2773 32.5974 92.2083 32.4323 92.0704 32.3194C91.9366 32.2024 91.7005 32.1104 91.3619 32.0436L90.7224 31.9119C90.3169 31.8283 90.0139 31.6946 89.8133 31.5106C89.6168 31.3267 89.5186 31.0759 89.5186 30.7583C89.5186 30.4991 89.5855 30.2734 89.7192 30.0811C89.853 29.8889 90.039 29.7405 90.2772 29.636C90.5155 29.5315 90.7913 29.4792 91.1048 29.4792C91.4183 29.4792 91.7026 29.5273 91.9575 29.6235C92.2167 29.7154 92.4382 29.8533 92.6221 30.0373L92.4654 30.3507C92.2689 30.1668 92.062 30.0352 91.8447 29.9557C91.6273 29.8722 91.3807 29.8304 91.1048 29.8304C90.7412 29.8304 90.4528 29.9139 90.2396 30.0811C90.0264 30.2442 89.9199 30.4657 89.9199 30.7457C89.9199 30.9714 89.9867 31.147 90.1205 31.2724C90.2584 31.3978 90.48 31.4918 90.7851 31.5545L91.4309 31.6862C91.8614 31.774 92.177 31.9035 92.3776 32.0749C92.5782 32.2421 92.6785 32.4825 92.6785 32.7959C92.6785 33.0342 92.6138 33.2453 92.4842 33.4292C92.3588 33.6089 92.1791 33.7489 91.945 33.8493C91.7109 33.9496 91.433 33.9997 91.1111 33.9997Z" fill="#161616"/>
<path d="M85.0547 33.9499V29.5297H85.3682L88.3275 33.4922H88.1896V29.5297H88.5469V33.9499H88.2397L85.2804 29.9874H85.4121V33.9499H85.0547Z" fill="#161616"/>
<path d="M80.084 31.7364C80.084 31.2682 80.1613 30.8669 80.316 30.5326C80.4748 30.194 80.7026 29.9348 80.9994 29.7551C81.2961 29.5712 81.6535 29.4792 82.0715 29.4792C82.4811 29.4792 82.8343 29.5712 83.1311 29.7551C83.432 29.9348 83.6619 30.194 83.8207 30.5326C83.9838 30.8669 84.0653 31.2661 84.0653 31.7301C84.0653 32.1982 83.9838 32.6016 83.8207 32.9401C83.6577 33.2787 83.4258 33.5399 83.1248 33.7239C82.828 33.9078 82.4769 33.9997 82.0715 33.9997C81.6577 33.9997 81.3024 33.9078 81.0056 33.7239C80.7089 33.5399 80.4811 33.2787 80.3222 32.9401C80.1634 32.6016 80.084 32.2003 80.084 31.7364ZM80.4978 31.7364C80.4978 32.3382 80.6315 32.8085 80.8991 33.147C81.1666 33.4814 81.5574 33.6486 82.0715 33.6486C82.5689 33.6486 82.9576 33.4814 83.2377 33.147C83.5177 32.8085 83.6577 32.3382 83.6577 31.7364C83.6577 31.1303 83.5177 30.6621 83.2377 30.3319C82.9618 29.9975 82.5731 29.8304 82.0715 29.8304C81.5574 29.8304 81.1666 29.9975 80.8991 30.3319C80.6315 30.6621 80.4978 31.1303 80.4978 31.7364Z" fill="#161616"/>
<path d="M78.7109 33.9499V29.5297H79.0997V33.9499H78.7109Z" fill="#161616"/>
<path d="M76.0543 33.9499V29.8683H74.4492V29.5297H78.0418V29.8683H76.443V33.9499H76.0543Z" fill="#161616"/>
<path d="M72.1211 34C71.5317 34 71.0949 33.8496 70.8107 33.5486C70.5306 33.2477 70.3906 32.8088 70.3906 32.232V29.5297H70.7793V32.2006C70.7793 32.6813 70.8859 33.0429 71.0991 33.2853C71.3123 33.5277 71.6529 33.6489 72.1211 33.6489C72.5558 33.6489 72.886 33.5277 73.1117 33.2853C73.3416 33.0429 73.4565 32.6813 73.4565 32.2006V29.5297H73.8452V32.232C73.8452 32.8088 73.6969 33.2477 73.4001 33.5486C73.1075 33.8496 72.6812 34 72.1211 34Z" fill="#161616"/>
<path d="M67.2129 33.9499V29.5297H67.6016V33.605H69.9026V33.9499H67.2129Z" fill="#161616"/>
<path d="M62.2422 31.7364C62.2422 31.2682 62.3195 30.8669 62.4742 30.5326C62.633 30.194 62.8608 29.9348 63.1576 29.7551C63.4543 29.5712 63.8117 29.4792 64.2297 29.4792C64.6393 29.4792 64.9925 29.5712 65.2893 29.7551C65.5902 29.9348 65.8201 30.194 65.9789 30.5326C66.142 30.8669 66.2235 31.2661 66.2235 31.7301C66.2235 32.1982 66.142 32.6016 65.9789 32.9401C65.8159 33.2787 65.584 33.5399 65.283 33.7239C64.9862 33.9078 64.6351 33.9997 64.2297 33.9997C63.8159 33.9997 63.4606 33.9078 63.1638 33.7239C62.8671 33.5399 62.6393 33.2787 62.4804 32.9401C62.3216 32.6016 62.2422 32.2003 62.2422 31.7364ZM62.656 31.7364C62.656 32.3382 62.7897 32.8085 63.0573 33.147C63.3248 33.4814 63.7156 33.6486 64.2297 33.6486C64.7271 33.6486 65.1158 33.4814 65.3959 33.147C65.6759 32.8085 65.8159 32.3382 65.8159 31.7364C65.8159 31.1303 65.6759 30.6621 65.3959 30.3319C65.12 29.9975 64.7313 29.8304 64.2297 29.8304C63.7156 29.8304 63.3248 29.9975 63.0573 30.3319C62.7897 30.6621 62.656 31.1303 62.656 31.7364Z" fill="#161616"/>
<path d="M59.9724 33.9997C59.6172 33.9997 59.3037 33.9537 59.032 33.8618C58.7603 33.7698 58.5179 33.6361 58.3047 33.4605L58.4677 33.1408C58.6182 33.2578 58.7645 33.3539 58.9066 33.4292C59.0529 33.5044 59.2117 33.5608 59.3831 33.5985C59.5545 33.6319 59.7488 33.6486 59.9662 33.6486C60.3549 33.6486 60.6475 33.5734 60.8439 33.4229C61.0404 33.2683 61.1386 33.0655 61.1386 32.8147C61.1386 32.5974 61.0696 32.4323 60.9317 32.3194C60.7979 32.2024 60.5618 32.1104 60.2232 32.0436L59.5837 31.9119C59.1783 31.8283 58.8752 31.6946 58.6746 31.5106C58.4782 31.3267 58.3799 31.0759 58.3799 30.7583C58.3799 30.4991 58.4468 30.2734 58.5806 30.0811C58.7143 29.8889 58.9003 29.7405 59.1386 29.636C59.3768 29.5315 59.6527 29.4792 59.9662 29.4792C60.2797 29.4792 60.5639 29.5273 60.8189 29.6235C61.078 29.7154 61.2995 29.8533 61.4834 30.0373L61.3267 30.3507C61.1302 30.1668 60.9233 30.0352 60.706 29.9557C60.4886 29.8722 60.242 29.8304 59.9662 29.8304C59.6025 29.8304 59.3141 29.9139 59.1009 30.0811C58.8878 30.2442 58.7812 30.4657 58.7812 30.7457C58.7812 30.9714 58.8481 31.147 58.9818 31.2724C59.1198 31.3978 59.3413 31.4918 59.6464 31.5545L60.2922 31.6862C60.7227 31.774 61.0383 31.9035 61.2389 32.0749C61.4396 32.2421 61.5399 32.4825 61.5399 32.7959C61.5399 33.0342 61.4751 33.2453 61.3455 33.4292C61.2201 33.6089 61.0404 33.7489 60.8063 33.8493C60.5722 33.9496 60.2943 33.9997 59.9724 33.9997Z" fill="#161616"/>
<path d="M53.3047 33.9499V29.5297H56.0508V29.862H53.6809V31.5423H55.9129V31.8746H53.6809V33.6176H56.0508V33.9499H53.3047Z" fill="#161616"/>
<path d="M50.65 33.9499V29.8683H49.0449V29.5297H52.6375V29.8683H51.0387V33.9499H50.65Z" fill="#161616"/>
<path d="M45.0605 33.9499L46.9854 29.5297H47.3365L49.2926 33.9499H48.8851L48.3333 32.6771L48.5152 32.7712H45.7941L46.0073 32.6771L45.4681 33.9499H45.0605ZM47.1546 30L46.0825 32.5141L45.9383 32.4389H48.371L48.2644 32.5141L47.1672 30H47.1546Z" fill="#161616"/>
<path d="M43.3023 33.9499V29.8683H41.6973V29.5297H45.2898V29.8683H43.691V33.9499H43.3023Z" fill="#161616"/>
<path d="M39.8631 33.9997C39.5078 33.9997 39.1943 33.9537 38.9226 33.8618C38.6509 33.7698 38.4085 33.6361 38.1953 33.4605L38.3583 33.1408C38.5088 33.2578 38.6551 33.3539 38.7972 33.4292C38.9435 33.5044 39.1023 33.5608 39.2737 33.5985C39.4451 33.6319 39.6394 33.6486 39.8568 33.6486C40.2455 33.6486 40.5381 33.5734 40.7346 33.4229C40.931 33.2683 41.0292 33.0655 41.0292 32.8147C41.0292 32.5974 40.9603 32.4323 40.8223 32.3194C40.6886 32.2024 40.4524 32.1104 40.1139 32.0436L39.4743 31.9119C39.0689 31.8283 38.7659 31.6946 38.5652 31.5106C38.3688 31.3267 38.2705 31.0759 38.2705 30.7583C38.2705 30.4991 38.3374 30.2734 38.4712 30.0811C38.6049 29.8889 38.7909 29.7405 39.0292 29.636C39.2674 29.5315 39.5433 29.4792 39.8568 29.4792C40.1703 29.4792 40.4545 29.5273 40.7095 29.6235C40.9686 29.7154 41.1902 29.8533 41.3741 30.0373L41.2173 30.3507C41.0209 30.1668 40.814 30.0352 40.5966 29.9557C40.3793 29.8722 40.1327 29.8304 39.8568 29.8304C39.4931 29.8304 39.2047 29.9139 38.9916 30.0811C38.7784 30.2442 38.6718 30.4657 38.6718 30.7457C38.6718 30.9714 38.7387 31.147 38.8724 31.2724C39.0104 31.3978 39.2319 31.4918 39.537 31.5545L40.1828 31.6862C40.6133 31.774 40.9289 31.9035 41.1295 32.0749C41.3302 32.2421 41.4305 32.4825 41.4305 32.7959C41.4305 33.0342 41.3657 33.2453 41.2361 33.4292C41.1107 33.6089 40.931 33.7489 40.6969 33.8493C40.4629 33.9496 40.1849 33.9997 39.8631 33.9997Z" fill="#161616"/>
<path d="M34.8594 33.9499V29.5297H37.6055V29.862H35.2356V31.5423H37.4676V31.8746H35.2356V33.6176H37.6055V33.9499H34.8594Z" fill="#161616"/>
<path d="M29.8887 33.9499V29.5297H30.2774V33.605H32.5784V33.9499H29.8887Z" fill="#161616"/>
<path d="M24.9043 33.9499L26.8291 29.5297H27.1802L29.1364 33.9499H28.7288L28.1771 32.6771L28.3589 32.7712H25.6379L25.851 32.6771L25.3118 33.9499H24.9043ZM26.9984 30L25.9263 32.5141L25.7821 32.4389H28.2147L28.1081 32.5141L27.0109 30H26.9984Z" fill="#161616"/>
<path d="M21.75 33.9499V29.5297H24.4961V29.862H22.1262V31.5423H24.3582V31.8746H22.1262V33.6176H24.4961V33.9499H21.75Z" fill="#161616"/>
<path d="M17.4336 33.9499V29.5297H19.1766C19.6322 29.5297 19.9854 29.6363 20.2362 29.8495C20.487 30.0627 20.6123 30.3636 20.6123 30.7523C20.6123 31.0031 20.5559 31.2184 20.4431 31.3981C20.3302 31.5737 20.1735 31.7095 19.9728 31.8056C19.7722 31.8976 19.5402 31.9436 19.2769 31.9436L19.396 31.8746H19.4838C19.6552 31.8746 19.8077 31.9164 19.9415 32C20.0752 32.0794 20.1818 32.2173 20.2612 32.4138L20.8757 33.9499H20.4493L19.8725 32.4828C19.7931 32.2696 19.6782 32.1338 19.5277 32.0752C19.3772 32.0125 19.1849 31.9812 18.9509 31.9812H17.8223V33.9499H17.4336ZM17.8223 31.6552H19.1264C19.4817 31.6552 19.7513 31.5778 19.9352 31.4232C20.1233 31.2685 20.2174 31.047 20.2174 30.7586C20.2174 30.466 20.1233 30.2445 19.9352 30.094C19.7513 29.9393 19.4817 29.862 19.1264 29.862H17.8223V31.6552Z" fill="#161616"/>
<path d="M102.084 20.5724H97.5251L94.4114 15.5961L91.2976 20.5724H86.7383L91.9371 12.677L87.1553 5.17072H91.4644L94.3835 9.78568L97.3027 5.17072H101.612L96.7188 12.677L102.084 20.5724Z" fill="#161616"/>
<path d="M85.9134 12.8994C85.9134 15.1606 85.1349 17.0881 83.5781 18.682C82.0212 20.276 80.0752 21.0729 77.7399 21.0729C75.4231 21.0729 73.4771 20.2852 71.9017 18.7098C70.3448 17.1159 69.5664 15.1791 69.5664 12.8994C69.5664 10.6198 70.3356 8.68295 71.8739 7.08903C73.4307 5.47658 75.3861 4.67035 77.7399 4.67035C80.0752 4.67035 82.0212 5.46731 83.5781 7.06123C85.1349 8.65515 85.9134 10.6012 85.9134 12.8994ZM82.2158 12.8994C82.2158 11.5835 81.8081 10.4715 80.9926 9.56332C80.1771 8.63662 79.0929 8.17327 77.7399 8.17327C76.4054 8.17327 75.3212 8.63662 74.4872 9.56332C73.6717 10.4715 73.2639 11.5835 73.2639 12.8994C73.2639 14.2153 73.6717 15.3274 74.4872 16.2355C75.3027 17.1252 76.3869 17.57 77.7399 17.57C79.0558 17.57 80.1308 17.1159 80.9648 16.2077C81.7988 15.2996 82.2158 14.1968 82.2158 12.8994Z" fill="#161616"/>
<path d="M68.1187 12.8718C68.1187 15.0033 67.5163 16.8381 66.3116 18.3764C64.9031 20.1742 62.9848 21.0731 60.5568 21.0731C59.5004 21.0731 58.5274 20.8693 57.6377 20.4615C56.7666 20.0538 56.0345 19.3958 55.4415 18.4876L55.3859 20.5727H51.9941V0H55.6917V6.78343C56.952 5.37485 58.5366 4.67056 60.4456 4.67056C62.9477 4.67056 64.8938 5.54166 66.2838 7.28385C67.5071 8.82217 68.1187 10.6848 68.1187 12.8718ZM64.4212 12.8996C64.4212 11.5281 64.0227 10.3976 63.2257 9.50793C62.4288 8.6183 61.3723 8.17348 60.0564 8.17348C58.759 8.17348 57.6655 8.59976 56.7759 9.45233C55.9048 10.2864 55.4693 11.3613 55.4693 12.6772C55.4693 14.0673 55.8955 15.2349 56.7481 16.1802C57.6192 17.1069 58.722 17.5702 60.0564 17.5702C61.3538 17.5702 62.401 17.1347 63.1979 16.2636C64.0134 15.3739 64.4212 14.2526 64.4212 12.8996Z" fill="#161616"/>
<path d="M49.012 20.5727H45.3145V0H49.012V20.5727Z" fill="#161616"/>
<path d="M42.3342 20.5727H38.6367V0H42.3342V20.5727Z" fill="#161616"/>
<path d="M36.3101 12.8716V13.2886C36.3101 13.6779 36.2823 14.0856 36.2267 14.5119H24.1611C24.402 15.4386 24.8839 16.1799 25.6067 16.736C26.3481 17.292 27.2099 17.57 28.1922 17.57C28.8409 17.57 29.4433 17.4681 29.9993 17.2642C30.6665 17.0047 31.2133 16.6248 31.6395 16.1243H35.8097C35.1239 17.7368 34.1046 18.9693 32.7516 19.8219C31.4171 20.6559 29.9437 21.0729 28.3312 21.0729C25.7735 21.0729 23.7255 20.1648 22.1872 18.3484C20.8528 16.773 20.1855 14.9845 20.1855 12.9828C20.1855 10.9441 20.8528 9.1185 22.1872 7.50605C23.7441 5.61558 25.8106 4.67035 28.3868 4.67035C30.7221 4.67035 32.6218 5.45804 34.086 7.03343C35.5687 8.59029 36.3101 10.5364 36.3101 12.8716ZM32.4458 11.2314C32.1863 10.2676 31.6859 9.51698 30.9445 8.9795C30.2032 8.44201 29.3506 8.17327 28.3868 8.17327C27.386 8.17327 26.4964 8.45128 25.7179 9.0073C24.958 9.56332 24.4206 10.3047 24.1055 11.2314H32.4458Z" fill="#161616"/>
<path d="M18.7849 15.7629C18.7849 17.3013 18.2752 18.5708 17.2558 19.5717C16.2365 20.5725 14.8928 21.0729 13.2247 21.0729C11.5196 21.0729 10.1388 20.5262 9.08237 19.4327C8.1186 18.4318 7.63672 17.1993 7.63672 15.7351H11.3342C11.3342 16.2912 11.5289 16.736 11.9181 17.0696C12.3073 17.4032 12.7892 17.57 13.3637 17.57C13.8827 17.57 14.2997 17.431 14.6148 17.153C14.9298 16.875 15.0874 16.4858 15.0874 15.9853C15.0874 15.5591 14.9576 15.2162 14.6982 14.9567C14.5128 14.7714 14.1792 14.586 13.6973 14.4007C13.4379 14.308 13.2432 14.2431 13.1135 14.2061C12.7799 14.0949 12.4463 13.9837 12.1127 13.8725C11.0192 13.5203 10.1851 13.1033 9.61059 12.6214C8.66535 11.8059 8.19274 10.7402 8.19274 9.42431C8.19274 8.21961 8.60975 7.16317 9.44378 6.255C10.4075 5.19857 11.7235 4.67035 13.3915 4.67035C14.8001 4.67035 15.977 5.11516 16.9222 6.00479C17.886 6.87589 18.3679 8.00646 18.3679 9.39651H14.6704C14.6333 9.0629 14.5036 8.77562 14.2811 8.53468C14.0587 8.29374 13.7251 8.17327 13.2803 8.17327C12.817 8.17327 12.4648 8.30301 12.2239 8.56248C12.0015 8.80343 11.8903 9.10924 11.8903 9.47992C11.8903 9.99887 12.1683 10.4066 12.7243 10.7032C13.0023 10.8514 13.512 11.0182 14.2533 11.2036C15.5878 11.5187 16.5794 11.9171 17.228 12.399C18.266 13.1774 18.7849 14.2987 18.7849 15.7629Z" fill="#161616"/>
<path fill-rule="evenodd" clip-rule="evenodd" d="M5.54297 4.67328C3.97496 4.71648 2.72966 5.24373 1.80706 6.25504C0.973033 7.16321 0.556019 8.21964 0.556019 9.42435C0.556019 10.7403 1.02864 11.806 1.97387 12.6215C2.54842 13.1033 3.38245 13.5204 4.47595 13.8725L5.47679 14.2061C5.49724 14.212 5.5193 14.2185 5.54297 14.2257V10.8937C5.35268 10.8271 5.20089 10.7636 5.08758 10.7032C4.53156 10.4067 4.25355 9.9989 4.25355 9.47995C4.25355 9.10927 4.36475 8.80346 4.58716 8.56252C4.81034 8.32217 5.12895 8.19314 5.54297 8.17542V4.67328ZM5.54297 21.0728V17.5641C5.04881 17.5318 4.62826 17.367 4.28135 17.0696C3.89213 16.736 3.69753 16.2912 3.69753 15.7352H0C0 17.1994 0.481883 18.4319 1.44565 19.4327C2.49277 20.5166 3.85855 21.0633 5.54297 21.0728Z" fill="#161616"/>
<path fill-rule="evenodd" clip-rule="evenodd" d="M102.059 15.617L105.159 20.5726H109.719L104.353 12.6771L109.246 5.17084H104.937L102.059 9.72124V15.617Z" fill="#161616"/>
</svg>
