<svg width="200" height="80" viewBox="0 0 200 80" fill="none" xmlns="http://www.w3.org/2000/svg">
<path d="M43.4058 50.599C43.3078 50.3512 43.1584 50.228 42.9639 50.228C42.7653 50.2511 42.5766 50.3276 42.4177 50.4493C41.9491 50.7823 41.4623 51.0888 40.9596 51.3675C40.4711 51.6279 39.9534 51.8293 39.4175 51.9676C38.7814 52.1259 38.1278 52.203 37.4724 52.1968C35.7424 52.2351 34.0305 51.8385 32.4929 51.0433C31.0763 50.2879 29.92 49.1221 29.1753 47.6981C28.3602 46.0838 27.9576 44.2922 28.0035 42.4838C27.9736 40.6732 28.3872 38.8829 29.208 37.2696C29.9695 35.7928 31.1369 34.565 32.5722 33.7311C34.0693 32.8767 35.7684 32.4422 37.4911 32.4731C38.4207 32.4492 39.3461 32.6043 40.2174 32.9298C41.0079 33.2621 41.7497 33.7006 42.4224 34.233C42.5678 34.3671 42.7531 34.4498 42.9499 34.4684C43.314 34.4684 43.5412 33.9337 43.6003 32.8722H44.2228C44.1491 34.0891 44.1144 36.2615 44.1185 39.3896H43.507C43.4217 38.6515 43.2982 37.9183 43.1366 37.1932C43.0384 36.641 42.8518 36.1083 42.5842 35.6157C41.9372 34.6647 41.0345 33.9168 39.9809 33.4582C39.3923 33.2371 38.7686 33.1247 38.14 33.1262C37.5733 33.1091 37.0095 33.2136 36.4864 33.4328C35.9633 33.6519 35.493 33.9806 35.1071 34.3967C34.2548 35.3518 33.6551 36.5056 33.3627 37.7528C32.9836 39.2567 32.8 40.8034 32.8166 42.3544C32.8001 43.9071 32.9927 45.455 33.3892 46.956C33.6953 48.2002 34.3122 49.346 35.1818 50.2857C35.5773 50.6945 36.0534 51.0166 36.5798 51.2313C37.1062 51.4459 37.6714 51.5486 38.2396 51.5327C38.8626 51.5335 39.4804 51.4188 40.0618 51.1945C40.6301 50.9835 41.1438 50.6474 41.565 50.2108C41.9993 49.8834 42.3625 49.4708 42.6325 48.9981C42.904 48.5009 43.0972 47.9645 43.2051 47.4081C43.3306 46.8043 43.4458 46.0135 43.5505 45.0356H44.1637C44.1637 48.2769 44.1984 50.532 44.2679 51.8009H43.6455C43.6214 51.3894 43.5402 50.9833 43.4043 50.5943L43.4058 50.599Z" fill="white"/>
<path d="M72.4728 33.5348C72.3372 33.594 72.217 33.6835 72.1212 33.7964C72.0255 33.9093 71.9568 34.0427 71.9204 34.1863C71.7982 34.6652 71.7458 35.1593 71.7648 35.6532V48.9701C71.7461 49.464 71.7985 49.958 71.9204 50.437C71.9568 50.5806 72.0255 50.714 72.1212 50.827C72.217 50.9399 72.3372 51.0293 72.4728 51.0885C72.8927 51.2268 73.3318 51.2973 73.7737 51.2974V51.8321C72.8847 51.7802 71.5267 51.7542 69.6999 51.7542C67.873 51.7542 66.4699 51.7802 65.4906 51.8321V51.2522C65.9325 51.2518 66.3716 51.1813 66.7915 51.0433C66.9286 50.9851 67.0504 50.8961 67.1475 50.7831C67.2447 50.6701 67.3146 50.5362 67.3517 50.3918C67.4737 49.9128 67.5261 49.4188 67.5073 48.9249V42.4777H60.4099V48.9234C60.39 49.4166 60.4382 49.9102 60.5531 50.3902C60.5874 50.5339 60.6546 50.6675 60.7494 50.7806C60.8442 50.8937 60.964 50.9831 61.0993 51.0418C61.5192 51.18 61.9583 51.2504 62.4002 51.2507V51.7853C61.45 51.7334 60.1013 51.7074 58.3543 51.7074C56.4455 51.7074 55.0377 51.7334 54.1311 51.7853V51.2507C54.5731 51.2516 55.0124 51.181 55.432 51.0418C55.5688 50.9832 55.6903 50.894 55.7874 50.781C55.8845 50.6681 55.9546 50.5344 55.9922 50.3902C56.1141 49.9113 56.1665 49.4172 56.1478 48.9234V35.608C56.1665 35.1141 56.1141 34.6201 55.9922 34.1411C55.955 33.9967 55.8851 33.8628 55.788 33.7498C55.6908 33.6368 55.569 33.5478 55.432 33.4896C55.0125 33.3497 54.5731 33.2791 54.1311 33.2807V32.746C55.0294 32.798 56.4372 32.8239 58.3543 32.8239C60.0899 32.8239 61.4385 32.798 62.4002 32.746V33.2807C61.9582 33.2804 61.519 33.3509 61.0993 33.4896C60.964 33.5482 60.8442 33.6376 60.7494 33.7507C60.6546 33.8638 60.5874 33.9975 60.5531 34.1411C60.4382 34.6211 60.39 35.1148 60.4099 35.608V41.9306H67.5151V35.6017C67.5339 35.1078 67.4814 34.6138 67.3595 34.1349C67.3223 33.9905 67.2525 33.8566 67.1553 33.7436C67.0582 33.6306 66.9364 33.5415 66.7993 33.4833C66.3795 33.3448 65.9404 33.2742 65.4984 33.2744V32.7397C66.4912 32.7917 67.8943 32.8177 69.7076 32.8177C71.521 32.8177 72.879 32.7917 73.7816 32.7397V33.2744C73.3341 33.2896 72.8921 33.3776 72.4728 33.5348Z" fill="white"/>
<path d="M98.089 33.5613C99.5054 34.3199 100.662 35.4869 101.408 36.9112C102.188 38.5462 102.59 40.3364 102.585 42.1486C102.579 43.9608 102.166 45.7484 101.376 47.3786C100.61 48.855 99.4414 50.0828 98.0053 50.9186C96.5123 51.7717 94.8173 52.2063 93.099 52.1766C91.3687 52.2152 89.6569 51.8186 88.1191 51.0231C86.7042 50.2656 85.5501 49.0981 84.8079 47.6732C83.9927 46.059 83.5901 44.2674 83.6361 42.4589C83.606 40.6484 84.0196 38.8581 84.8405 37.2447C85.5999 35.7482 86.7746 34.5032 88.2237 33.6595C89.7203 32.8051 91.4195 32.3706 93.1426 32.4015C94.8621 32.3712 96.562 32.772 98.0878 33.5675L98.089 33.5613ZM90.4252 34.0897C89.5953 35.0524 89.0046 36.1982 88.7015 37.4334C88.2746 39.0339 88.0713 40.6857 88.0958 42.3421C88.0587 44.0041 88.2781 45.662 88.7463 47.257C89.0943 48.4757 89.728 49.5934 90.595 50.5165C90.9274 50.8758 91.3298 51.1634 91.777 51.3617C92.2248 51.5601 92.7073 51.6649 93.197 51.67C93.6909 51.6683 94.1793 51.5604 94.6284 51.3536C95.0774 51.1468 95.4768 50.8459 95.8002 50.4713C96.6307 49.5091 97.222 48.3631 97.5246 47.1276C97.9509 45.5271 98.1541 43.8752 98.1296 42.2189C98.1661 40.5594 97.9467 38.9043 97.4791 37.3117C97.1305 36.092 96.4944 34.9742 95.6245 34.0523C95.2926 33.6922 94.8908 33.4034 94.4442 33.2035C93.9976 33.0036 93.5151 32.8967 93.0254 32.8894C92.5328 32.8925 92.0461 33.0011 91.5982 33.2078C91.151 33.4146 90.7522 33.7147 90.43 34.0882L90.4252 34.0897Z" fill="white"/>
<path d="M119.456 33.5348C119.321 33.5935 119.201 33.6829 119.107 33.7961C119.012 33.9091 118.945 34.0428 118.91 34.1864C118.795 34.6664 118.747 35.1601 118.767 35.6533V48.9702C118.747 49.4635 118.795 49.9571 118.91 50.4371C118.945 50.5807 119.012 50.7144 119.107 50.8275C119.201 50.9406 119.321 51.03 119.456 51.0887C119.876 51.2266 120.316 51.2971 120.757 51.2976V51.8322C119.807 51.7802 118.458 51.7543 116.711 51.7543C114.802 51.7543 113.395 51.7802 112.488 51.8322V51.2524C112.93 51.2532 113.369 51.1827 113.789 51.0435C113.926 50.9848 114.047 50.8955 114.144 50.7826C114.242 50.6697 114.311 50.536 114.349 50.3919C114.471 49.9129 114.523 49.4189 114.505 48.925V35.6081C114.523 35.1142 114.471 34.6202 114.349 34.1412C114.312 33.9968 114.242 33.863 114.145 33.75C114.048 33.637 113.926 33.5479 113.789 33.4896C113.369 33.3498 112.93 33.2792 112.488 33.2808V32.7461C113.387 32.7981 114.794 32.8241 116.711 32.8241C118.446 32.8241 119.794 32.7981 120.757 32.7461V33.2808C120.313 33.2951 119.874 33.3808 119.456 33.5348Z" fill="white"/>
<path d="M146.03 50.5985C145.932 50.3506 145.783 50.2275 145.589 50.2275C145.39 50.2509 145.201 50.3274 145.042 50.4488C144.574 50.7823 144.087 51.0893 143.585 51.3686C143.096 51.6288 142.578 51.8303 142.042 51.9687C141.404 52.127 140.748 52.2034 140.091 52.1963C138.361 52.2349 136.649 51.8383 135.111 51.0428C133.697 50.2864 132.543 49.1207 131.8 47.6976C130.985 46.0833 130.582 44.2917 130.628 42.4833C130.598 40.6727 131.012 38.8824 131.833 37.269C132.593 35.7896 133.759 34.559 135.195 33.7228C136.693 32.8684 138.392 32.4339 140.114 32.4648C141.044 32.4409 141.969 32.596 142.841 32.9215C143.631 33.2538 144.373 33.6922 145.046 34.2247C145.191 34.3588 145.376 34.4415 145.573 34.4601C145.937 34.4601 146.164 33.9254 146.224 32.8638H146.846C146.772 34.0808 146.738 36.2532 146.741 39.3813H146.136C146.051 38.6432 145.928 37.91 145.766 37.1849C145.646 36.6622 145.447 36.1612 145.175 35.6993C144.527 34.7483 143.625 34.0004 142.571 33.542C141.982 33.3172 141.357 33.2015 140.727 33.2006C140.16 33.1835 139.597 33.288 139.073 33.507C138.551 33.7262 138.08 34.0548 137.695 34.471C136.842 35.426 136.242 36.5799 135.95 37.8271C135.571 39.331 135.387 40.8777 135.404 42.4287C135.386 43.9844 135.577 45.5354 135.973 47.0397C136.279 48.287 136.897 49.4356 137.769 50.3771C138.165 50.786 138.641 51.108 139.167 51.3227C139.693 51.5374 140.259 51.6401 140.827 51.6242C141.451 51.6243 142.07 51.5086 142.652 51.2828C143.22 51.0719 143.734 50.7357 144.156 50.2992C144.59 49.9719 144.953 49.5592 145.223 49.0865C145.495 48.5892 145.688 48.0529 145.796 47.4964C145.921 46.8927 146.036 46.1018 146.141 45.1239H146.753C146.753 48.3652 146.787 50.6203 146.857 51.8892H146.234C146.23 51.4489 146.159 51.0118 146.026 50.5922L146.03 50.5985Z" fill="white"/>
<path d="M171.453 47.7185C171.439 49.0785 171.5 50.4383 171.635 51.7917C170.426 51.7397 168.38 51.7138 165.5 51.7138C161.595 51.7138 158.687 51.7397 156.775 51.7917V51.2508C157.217 51.2516 157.656 51.1812 158.075 51.0419C158.212 50.9833 158.334 50.894 158.431 50.7812C158.528 50.6682 158.598 50.5345 158.635 50.3903C158.757 49.9114 158.81 49.4174 158.791 48.9235V35.6081C158.81 35.1142 158.757 34.6201 158.635 34.1412C158.598 33.9968 158.528 33.863 158.431 33.75C158.334 33.637 158.213 33.5479 158.075 33.4896C157.656 33.3497 157.217 33.2792 156.775 33.2808V32.7461C158.7 32.7981 161.608 32.8241 165.5 32.8241C168.102 32.8241 169.97 32.7981 171.101 32.7461C170.98 34.2238 170.92 35.5467 170.92 36.7148C170.91 37.3243 170.936 37.9338 170.997 38.5402H170.375C170.258 37.4747 169.976 36.4341 169.536 35.4569C169.235 34.7877 168.738 34.2261 168.111 33.8466C167.452 33.5046 166.717 33.3387 165.976 33.365H164.876C164.467 33.3456 164.058 33.3919 163.665 33.5021C163.546 33.5443 163.438 33.6142 163.351 33.7061C163.264 33.798 163.2 33.9091 163.164 34.0305C163.059 34.4375 163.015 34.8577 163.033 35.2776V41.9306H163.886C164.308 41.9567 164.73 41.8739 165.112 41.6903C165.493 41.5067 165.821 41.2282 166.064 40.8816C166.574 40.1301 166.922 39.2808 167.087 38.3875H167.718C167.657 39.2562 167.627 40.099 167.628 40.9158V42.219C167.628 43.1273 167.68 44.3982 167.784 46.0319H167.172C166.812 43.6635 165.728 42.4793 163.918 42.4793H163.05V49.2976C163.032 49.7175 163.076 50.1377 163.181 50.5446C163.217 50.6661 163.281 50.7774 163.368 50.8692C163.455 50.9611 163.563 51.031 163.682 51.0731C164.076 51.1827 164.484 51.229 164.893 51.2103H166.193C166.767 51.2317 167.339 51.1261 167.867 50.9008C168.396 50.6756 168.869 50.3363 169.251 49.9071C170.032 49.0383 170.583 47.5694 170.904 45.5003H171.515C171.467 46.0365 171.453 46.7988 171.453 47.7185Z" fill="white"/>
<path d="M91.9507 10.3211C91.0168 12.2244 89.9992 14.095 88.9379 15.9329C88.5021 16.6826 88.0399 17.4122 87.6758 18.2009C87.4098 18.7746 86.6878 20.1557 86.9663 20.8089C87.4222 21.8579 90.6108 19.1081 90.8703 18.918C90.7011 19.0489 90.4799 19.1128 90.3041 19.2437C89.5621 19.8174 88.7885 20.3521 88.0196 20.8868L88.572 20.575C86.2754 21.741 88.871 16.7232 89.2554 16.0544C90.4129 14.0997 91.5256 12.0654 92.5091 10C92.4314 10.1559 92.0284 10.1559 91.9429 10.3258L91.9507 10.3211Z" fill="white"/>
<path d="M97.604 13.8715C96.9535 15.1092 96.2378 16.2892 95.5604 17.5082C95.2866 17.9976 93.869 20.0693 94.4484 20.6632C94.8059 21.028 95.7942 20.311 96.1207 20.0833C97.0641 19.4318 100.363 16.4794 99.7965 19.2291C99.6141 20.1223 99.1849 20.7022 100.389 20.788C101.194 20.7732 101.979 20.5376 102.66 20.1067C103.493 19.6651 104.275 19.134 104.994 18.523C106.55 17.2198 104.838 17.4474 103.905 18.0553C103.55 18.2303 103.255 18.5071 103.058 18.8504C102.408 20.3234 104.684 20.0304 105.485 20.0163C108.406 19.9906 111.307 19.5336 114.094 18.6602C114.296 18.5947 114.458 18.3999 114.66 18.3344C112.338 19.0651 109.933 19.5029 107.502 19.6375C106.569 19.689 105.03 19.9306 104.125 19.6375C103.052 19.2728 103.592 18.4061 104.262 17.8574L103.71 18.1691C104.816 17.5893 105.61 17.7654 104.575 18.7163C103.697 19.6177 102.559 20.2216 101.321 20.4434C98.7179 20.6851 101.211 18.8846 100.365 17.8761C99.5179 16.8675 95.6962 20.3 95.2436 20.5869L95.7954 20.2751C94.0059 21.0545 95.5156 18.2486 95.7954 17.6672C96.538 16.2783 97.3828 14.9424 98.1128 13.541C98.0285 13.6969 97.6381 13.6969 97.546 13.8668L97.604 13.8715Z" fill="white"/>
<path d="M81.7077 16.5987C80.9981 16.4038 81.2191 15.8099 81.7466 15.4576L81.1942 15.7694C84.3064 14.4069 87.9149 14.2105 91.2404 13.8146C94.4014 13.4374 97.5703 13.1121 100.747 12.8388C106.602 12.3368 112.511 12.0594 118.393 11.7242C118.587 11.7242 118.763 11.4125 118.959 11.3984C111.698 11.8146 104.448 12.1576 97.2265 12.8965C93.1076 13.3142 88.8596 13.6073 84.8121 14.5067C83.6846 14.7083 82.5898 15.0633 81.5584 15.562C81.051 15.8364 80.1003 16.6251 81.1553 16.9182C81.3109 16.9572 81.5786 16.5535 81.7217 16.5924L81.7077 16.5987Z" fill="white"/>
<path d="M157.648 68.3169C157.753 68.3169 157.856 68.2856 157.944 68.2268C158.031 68.1681 158.1 68.0845 158.14 67.9868C158.181 67.8891 158.192 67.7816 158.171 67.6779C158.15 67.5742 158.1 67.4789 158.025 67.4041C157.95 67.3294 157.855 67.2785 157.752 67.2578C157.648 67.2372 157.541 67.2478 157.443 67.2883C157.346 67.3287 157.262 67.3973 157.203 67.4852C157.145 67.5731 157.114 67.6765 157.114 67.7822C157.114 67.924 157.17 68.06 157.27 68.1603C157.37 68.2606 157.506 68.3169 157.648 68.3169Z" fill="white"/>
<path d="M41.9849 68.3149C42.0905 68.3149 42.1937 68.2835 42.2815 68.2248C42.3692 68.1661 42.4376 68.0826 42.4781 67.9849C42.5184 67.8871 42.529 67.7796 42.5084 67.676C42.4878 67.5722 42.437 67.477 42.3624 67.4022C42.2877 67.3274 42.1926 67.2765 42.0891 67.2559C41.9855 67.2353 41.8782 67.2458 41.7807 67.2863C41.6832 67.3267 41.5998 67.3953 41.5412 67.4832C41.4825 67.5711 41.4512 67.6745 41.4512 67.7802C41.4512 67.9221 41.5074 68.0581 41.6075 68.1583C41.7076 68.2586 41.8434 68.3149 41.9849 68.3149Z" fill="white"/>
<path d="M52.1342 69.5646C51.9171 69.79 51.6551 69.967 51.3655 70.0842C51.0146 70.2253 50.6388 70.2947 50.2606 70.2869C49.7701 70.2941 49.285 70.1835 48.8461 69.964C48.4341 69.756 48.0893 69.4355 47.8518 69.0396C47.6033 68.6146 47.4773 68.129 47.4876 67.6366C47.4784 67.1298 47.6064 66.6299 47.858 66.1901C48.1032 65.7689 48.4632 65.4266 48.8959 65.2033C49.3635 64.963 49.883 64.8419 50.4085 64.851C50.912 64.8358 51.4117 64.9428 51.865 65.1628C52.2571 65.3707 52.4532 65.6304 52.4532 65.9422C52.4567 66.0209 52.4417 66.0994 52.4092 66.1711C52.3768 66.2429 52.3278 66.306 52.2665 66.3553C52.1333 66.4594 51.9685 66.5144 51.7997 66.5111C51.6254 66.5175 51.4534 66.4708 51.3063 66.3771C51.2439 66.3383 51.1926 66.2838 51.1577 66.2189C51.1227 66.1541 51.1053 66.0813 51.1072 66.0076C51.1062 65.94 51.1196 65.873 51.1465 65.8109C51.1732 65.7488 51.2129 65.6932 51.2627 65.6476C51.3676 65.5488 51.4981 65.4819 51.6394 65.4543C51.5247 65.3106 51.3689 65.2055 51.1927 65.1534C50.975 65.0732 50.7447 65.0325 50.5127 65.0334C50.209 65.0328 49.9107 65.1142 49.6491 65.2688C49.3533 65.4553 49.1206 65.7269 48.9815 66.0482C48.7888 66.5025 48.699 66.9938 48.7185 67.487C48.7185 68.3183 48.8861 68.9226 49.2212 69.2998C49.3833 69.4845 49.5843 69.6316 49.8098 69.7291C50.0353 69.8271 50.2796 69.8737 50.5252 69.866C50.88 69.866 51.2296 69.7805 51.5444 69.616C51.8801 69.4391 52.1574 69.1685 52.3427 68.8369L52.5668 68.8977C52.4655 69.1452 52.3187 69.3715 52.1342 69.5646Z" fill="white"/>
<path d="M61.0387 65.134C61.4597 65.3218 61.8125 65.6355 62.0486 66.032C62.2921 66.5081 62.4191 67.0355 62.4191 67.5705C62.4191 68.1055 62.2921 68.6328 62.0486 69.109C61.8123 69.5042 61.4595 69.8163 61.0387 70.0022C60.0986 70.3837 59.0472 70.3837 58.107 70.0022C57.6862 69.8163 57.3334 69.5042 57.0971 69.109C56.8537 68.6328 56.7267 68.1055 56.7267 67.5705C56.7267 67.0355 56.8537 66.5081 57.0971 66.032C57.3332 65.6354 57.686 65.3218 58.107 65.134C59.0464 64.7489 60.0993 64.7489 61.0387 65.134ZM58.3825 65.6625C58.091 66.0782 57.9452 66.7147 57.9452 67.5721C57.9452 68.4294 58.091 69.0633 58.3825 69.4737C58.5178 69.6638 58.6964 69.8186 58.9035 69.9251C59.1105 70.0321 59.34 70.0877 59.5729 70.0877C59.8058 70.0877 60.0352 70.0321 60.2423 69.9251C60.4493 69.8186 60.628 69.6638 60.7633 69.4737C61.0548 69.0643 61.2006 68.4304 61.2006 67.5721C61.2006 66.7137 61.0548 66.0772 60.7633 65.6625C60.6284 65.472 60.4499 65.3168 60.2428 65.2096C60.0357 65.1024 59.806 65.0465 59.5729 65.0465C59.3398 65.0465 59.1101 65.1024 58.903 65.2096C58.6958 65.3168 58.5174 65.472 58.3825 65.6625Z" fill="white"/>
<path d="M69.4546 65.1304C69.8469 64.9351 70.2801 64.8367 70.7182 64.8436C71.3022 64.8436 71.7452 64.9693 72.0471 65.2209C72.2012 65.3569 72.3161 65.5318 72.3801 65.7275C72.4559 65.9907 72.49 66.2642 72.4812 66.538V69.2097C72.4733 69.361 72.506 69.511 72.5761 69.645C72.645 69.7532 72.7522 69.8321 72.8765 69.8644C73.0591 69.9128 73.2478 69.9344 73.4367 69.9284V70.1454C72.669 70.1191 72.1669 70.1059 71.9304 70.1059C71.6938 70.1059 71.227 70.1191 70.5299 70.1454V69.935C70.6947 69.9409 70.8593 69.9194 71.0169 69.871C71.1275 69.8333 71.2195 69.7544 71.2737 69.651C71.3352 69.5146 71.3635 69.3658 71.3562 69.2163V66.3167C71.3607 66.1123 71.3372 65.9083 71.2862 65.7103C71.2388 65.5472 71.1344 65.4066 70.9921 65.3144C70.7946 65.1995 70.5679 65.1453 70.34 65.1585C70.0188 65.1529 69.7023 65.2359 69.425 65.3986C69.1602 65.5552 68.9445 65.7831 68.8026 66.0564C68.6524 66.3448 68.5765 66.6663 68.5817 66.9916V69.2097C68.5743 69.3592 68.6026 69.5087 68.6641 69.645C68.719 69.749 68.8122 69.8279 68.9239 69.8644C69.0827 69.9128 69.2484 69.9344 69.4142 69.9284V70.1454C68.7118 70.1191 68.245 70.1059 68.0137 70.1059C67.7823 70.1059 67.2802 70.1191 66.5073 70.1454V69.935C66.6962 69.9403 66.8848 69.9188 67.0675 69.871C67.1917 69.8381 67.2989 69.7598 67.3679 69.651C67.4379 69.517 67.4708 69.367 67.4628 69.2163V66.0782C67.4736 65.9573 67.4604 65.8354 67.4241 65.7196C67.3878 65.6038 67.329 65.4963 67.2512 65.4032C67.1101 65.263 66.8621 65.1928 66.5073 65.1928V64.9824C66.7688 65.0021 67.0281 65.012 67.2854 65.012C67.7242 65.0222 68.1624 64.9762 68.5894 64.8748V66.0548C68.7683 65.6596 69.0724 65.3346 69.4546 65.1304Z" fill="white"/>
<path d="M78.0541 69.2355C78.161 69.4926 78.3448 69.7102 78.5801 69.8591C78.8711 70.0223 79.2023 70.1007 79.5355 70.0833C79.7162 70.0839 79.8954 70.0516 80.0646 69.9883C80.2309 69.9267 80.3761 69.8185 80.4832 69.6768C80.5987 69.5171 80.6569 69.3234 80.6481 69.1263C80.6496 68.9467 80.5879 68.7724 80.4738 68.6337C80.3454 68.4782 80.1911 68.3458 80.018 68.2425C79.8302 68.1271 79.5672 67.9842 79.229 67.8138C78.814 67.606 78.4987 67.4345 78.2829 67.2994C78.0704 67.1709 77.8827 67.0051 77.7289 66.8099C77.5765 66.6067 77.4962 66.3583 77.5006 66.1042C77.5051 65.85 77.5943 65.6046 77.7538 65.407C77.9341 65.2043 78.1659 65.0546 78.4245 64.9737C78.7259 64.8756 79.0413 64.8277 79.3582 64.8318C79.6264 64.8281 79.8935 64.8659 80.1502 64.944C80.3512 65.0037 80.5437 65.0891 80.7229 65.1981C80.788 65.2446 80.8642 65.2732 80.9438 65.2807C81.0911 65.2807 81.185 65.1337 81.2255 64.8396H81.5102C81.4781 65.1659 81.462 65.7338 81.462 66.5434H81.1741C81.1012 66.1372 80.9169 65.7594 80.6419 65.4522C80.3764 65.1654 79.9847 65.022 79.4671 65.022C79.2051 65.0105 78.9461 65.0814 78.7264 65.2246C78.6343 65.2866 78.5595 65.3711 78.5092 65.4701C78.4588 65.5692 78.4344 65.6794 78.4385 65.7904C78.4381 65.9039 78.4649 66.0157 78.5166 66.1167C78.5684 66.2175 78.6435 66.3045 78.7357 66.3703C78.9591 66.5413 79.1988 66.6896 79.4515 66.813C79.7305 66.9534 79.9298 67.0546 80.049 67.117C80.369 67.2782 80.6807 67.4556 80.9827 67.6486C81.2033 67.7902 81.3963 67.9708 81.5523 68.1817C81.697 68.3813 81.7734 68.6224 81.7701 68.8691C81.7748 69.1508 81.6705 69.4232 81.4791 69.6301C81.2647 69.8537 80.9969 70.0187 80.7011 70.1102C80.3553 70.222 79.9938 70.2776 79.6305 70.2734C79.2947 70.2788 78.9602 70.231 78.6392 70.1317C78.4601 70.0582 78.2882 69.9679 78.1257 69.8621C78.0925 69.8358 78.0512 69.822 78.009 69.8232C77.8866 69.8232 77.801 69.9488 77.7522 70.2005H77.4644C77.4965 69.819 77.5126 69.1518 77.5126 68.1988H77.8005C77.8407 68.5538 77.9259 68.9021 78.0541 69.2355Z" fill="white"/>
<path d="M89.7277 64.9896V65.1907H87.873V69.0721C87.8617 69.189 87.8742 69.3067 87.9089 69.4191C87.9436 69.5309 87.9998 69.6355 88.0751 69.7252C88.2407 69.8681 88.4566 69.9392 88.6742 69.9231C88.9205 69.9291 89.1597 69.8394 89.342 69.6738C89.5639 69.443 89.7247 69.16 89.8084 68.8508L90.0529 68.8991C89.8455 69.8233 89.3032 70.2848 88.4255 70.2848C88.1899 70.2908 87.9543 70.2633 87.7265 70.2041C87.5482 70.1527 87.3817 70.0672 87.2364 69.9512C87.0613 69.8107 86.9296 69.623 86.8568 69.4101C86.7741 69.1303 86.7368 68.8388 86.7463 68.5468V65.1907H85.5403V64.9896H86.7463V63.4573C87.1264 63.4595 87.5051 63.4118 87.873 63.3154V64.9896H89.7277Z" fill="white"/>
<path d="M95.9074 65.521C96.088 65.3228 96.3026 65.1586 96.5406 65.0362C96.7803 64.9098 97.0476 64.844 97.3184 64.8444C97.5205 64.8412 97.7214 64.8772 97.9097 64.9504C98.0676 65.0094 98.2069 65.1076 98.3163 65.2357C98.4102 65.3462 98.4622 65.4865 98.4622 65.6316C98.4634 65.7159 98.4466 65.7994 98.4126 65.8766C98.3791 65.9538 98.3289 66.0228 98.2661 66.079C98.1238 66.2059 97.9372 66.2719 97.7465 66.2629C97.5803 66.2669 97.4171 66.2184 97.2796 66.1242C97.218 66.0829 97.1672 66.0264 97.1331 65.9602C97.0984 65.8939 97.0817 65.82 97.0835 65.7454C97.0835 65.5272 97.2263 65.3458 97.5115 65.2014C97.4775 65.1668 97.4362 65.14 97.3908 65.1231C97.3453 65.1061 97.2969 65.0993 97.2485 65.1032C96.925 65.101 96.6105 65.2081 96.3552 65.4072C96.0939 65.606 95.8811 65.8619 95.7328 66.1554C95.5929 66.411 95.5146 66.6962 95.5056 66.9878V69.1124C95.4925 69.2391 95.5152 69.3671 95.572 69.4813C95.6288 69.5955 95.7173 69.6911 95.8261 69.7563C96.14 69.8938 96.482 69.9554 96.824 69.9357V70.1461C95.7956 70.1198 95.1529 70.1073 94.8958 70.1073C94.6757 70.1073 94.1819 70.1198 93.4142 70.1461V69.9357C93.6031 69.9411 93.7921 69.9195 93.9744 69.8717C94.0988 69.8388 94.2064 69.7605 94.2752 69.6517C94.3451 69.5177 94.378 69.3677 94.3696 69.217V66.079C94.3804 65.9581 94.3672 65.8362 94.3313 65.7204C94.2949 65.6046 94.2363 65.4971 94.158 65.4041C94.0169 65.2637 93.7693 65.1936 93.4142 65.1936V64.9832C93.6761 65.0029 93.935 65.0128 94.1926 65.0128C94.6315 65.0231 95.0692 64.977 95.4966 64.8756V66.1227C95.6007 65.9017 95.7394 65.6986 95.9074 65.521Z" fill="white"/>
<path d="M108.033 69.7371C108.174 69.8752 108.423 69.944 108.777 69.944V70.1545C108.516 70.1347 108.256 70.1252 107.999 70.1252C107.56 70.1132 107.122 70.161 106.695 70.2669V69.0823C106.514 69.4687 106.215 69.7879 105.841 69.9924C105.471 70.1891 105.057 70.2902 104.638 70.2854C104.075 70.2854 103.64 70.158 103.334 69.9039C103.18 69.7688 103.068 69.5912 103.012 69.3939C102.942 69.1324 102.91 68.862 102.917 68.5912V66.0784C102.938 65.8347 102.863 65.5925 102.709 65.4034C102.569 65.2632 102.322 65.193 101.968 65.193V64.9826C102.229 65.0023 102.489 65.0122 102.746 65.0122C103.184 65.022 103.623 64.9759 104.05 64.875V68.8157C104.044 69.0249 104.063 69.2343 104.104 69.4394C104.141 69.596 104.234 69.7335 104.367 69.8244C104.557 69.9392 104.777 69.9936 104.997 69.9799C105.305 69.9847 105.606 69.9009 105.867 69.7401C106.124 69.5799 106.334 69.3533 106.473 69.0838C106.621 68.8003 106.697 68.4842 106.694 68.1641V66.0784C106.704 65.9575 106.691 65.8356 106.655 65.7198C106.619 65.604 106.56 65.4965 106.482 65.4034C106.341 65.2632 106.093 65.193 105.738 65.193V64.9826C105.999 65.0023 106.259 65.0122 106.517 65.0122C106.955 65.0224 107.393 64.9763 107.821 64.875V69.0651C107.81 69.1856 107.823 69.3072 107.859 69.4226C107.896 69.538 107.955 69.6445 108.033 69.7371Z" fill="white"/>
<path d="M117.409 69.5646C117.192 69.79 116.93 69.967 116.64 70.0842C116.289 70.2253 115.914 70.2947 115.535 70.2869C115.045 70.2941 114.559 70.1835 114.121 69.964C113.709 69.756 113.364 69.4355 113.126 69.0396C112.878 68.6146 112.752 68.129 112.762 67.6366C112.753 67.1298 112.881 66.6299 113.133 66.1901C113.378 65.7689 113.738 65.4265 114.171 65.2033C114.638 64.9629 115.158 64.8419 115.683 64.851C116.187 64.8358 116.686 64.9428 117.139 65.1628C117.532 65.3707 117.728 65.6304 117.728 65.9422C117.731 66.0209 117.716 66.0994 117.684 66.1711C117.651 66.2429 117.603 66.306 117.541 66.3553C117.408 66.4592 117.243 66.5142 117.074 66.5111C116.9 66.5175 116.728 66.4708 116.581 66.3771C116.519 66.3383 116.467 66.2838 116.432 66.2189C116.397 66.1541 116.38 66.0813 116.382 66.0076C116.381 65.94 116.394 65.873 116.421 65.8109C116.448 65.7488 116.488 65.6932 116.537 65.6476C116.642 65.5488 116.773 65.4819 116.914 65.4543C116.799 65.3106 116.644 65.2055 116.467 65.1534C116.25 65.0732 116.019 65.0325 115.788 65.0334C115.484 65.0328 115.185 65.1142 114.924 65.2688C114.628 65.4553 114.395 65.7269 114.256 66.0482C114.063 66.5025 113.973 66.9938 113.993 67.487C113.993 68.3183 114.161 68.9226 114.496 69.2998C114.658 69.4845 114.859 69.6316 115.084 69.7291C115.31 69.8271 115.554 69.8737 115.8 69.866C116.155 69.866 116.504 69.7805 116.819 69.616C117.155 69.4391 117.432 69.1685 117.617 68.8369L117.856 68.9055C117.749 69.1514 117.597 69.3751 117.409 69.5646Z" fill="white"/>
<path d="M125.655 64.9896V65.1907H123.801V69.0721C123.79 69.189 123.802 69.3067 123.837 69.4191C123.871 69.5309 123.928 69.6355 124.003 69.7252C124.168 69.8681 124.384 69.9392 124.602 69.9231C124.848 69.9291 125.087 69.8394 125.27 69.6738C125.492 69.443 125.652 69.16 125.737 68.8508L125.981 68.8991C125.773 69.8233 125.231 70.2848 124.353 70.2848C124.118 70.2908 123.883 70.2633 123.654 70.2041C123.476 70.1527 123.31 70.0672 123.165 69.9512C122.989 69.8107 122.857 69.623 122.785 69.4101C122.702 69.1303 122.665 68.8388 122.674 68.5468V65.1907H121.468V64.9896H122.674V63.4573C123.055 63.4595 123.433 63.4118 123.801 63.3154V64.9896H125.655Z" fill="white"/>
<path d="M131.524 69.6513C131.592 69.7601 131.7 69.8384 131.824 69.8713C132.006 69.9192 132.195 69.9407 132.384 69.9353V70.1458C131.616 70.1194 131.11 70.1063 130.865 70.1063C130.62 70.1063 130.114 70.1194 129.347 70.1458V69.9353C129.535 69.9407 129.724 69.9192 129.906 69.8713C130.031 69.8384 130.138 69.7601 130.207 69.6513C130.277 69.5174 130.31 69.3673 130.302 69.2166V66.0785C130.313 65.9576 130.3 65.8357 130.263 65.7199C130.227 65.6041 130.168 65.4966 130.091 65.4036C129.949 65.2632 129.701 65.1931 129.347 65.1931V64.9827C129.608 65.0024 129.868 65.0123 130.125 65.0123C130.564 65.0226 131.002 64.9765 131.429 64.8752V69.2101C131.42 69.3631 131.453 69.5156 131.524 69.6513ZM131.178 62.5634C131.294 62.6166 131.395 62.6974 131.472 62.7988C131.542 62.8879 131.581 62.9973 131.583 63.1105C131.582 63.2268 131.543 63.3396 131.472 63.4317C131.396 63.5339 131.295 63.6149 131.178 63.667C131.053 63.7247 130.917 63.7539 130.78 63.7528C130.641 63.7539 130.504 63.7246 130.378 63.667C130.261 63.6161 130.159 63.5349 130.084 63.4317C130.015 63.339 129.977 63.2264 129.977 63.1105C129.978 62.9978 130.016 62.8885 130.084 62.7988C130.161 62.6965 130.262 62.6155 130.378 62.5634C130.504 62.5048 130.641 62.475 130.78 62.4761C130.917 62.4749 131.053 62.5047 131.176 62.5634H131.178Z" fill="white"/>
<path d="M140.693 65.134C141.114 65.3218 141.467 65.6354 141.703 66.032C141.947 66.5081 142.074 67.0355 142.074 67.5705C142.074 68.1055 141.947 68.6329 141.703 69.109C141.467 69.5042 141.114 69.8163 140.693 70.0022C139.753 70.3837 138.702 70.3837 137.761 70.0022C137.341 69.8163 136.988 69.5042 136.751 69.109C136.508 68.6328 136.381 68.1055 136.381 67.5705C136.381 67.0355 136.508 66.5081 136.751 66.032C136.988 65.6354 137.34 65.3218 137.761 65.134C138.701 64.7489 139.754 64.7489 140.693 65.134ZM138.037 65.6625C137.745 66.0782 137.6 66.7147 137.6 67.5721C137.6 68.4294 137.745 69.0633 138.037 69.4737C138.172 69.6638 138.351 69.8186 138.558 69.9251C138.765 70.0321 138.995 70.0877 139.227 70.0877C139.46 70.0877 139.689 70.0321 139.897 69.9251C140.104 69.8186 140.283 69.6638 140.418 69.4737C140.709 69.0643 140.855 68.4304 140.855 67.5721C140.855 66.7137 140.709 66.0772 140.418 65.6625C140.283 65.472 140.104 65.3168 139.898 65.2096C139.69 65.1024 139.46 65.0465 139.227 65.0465C138.994 65.0465 138.765 65.1024 138.558 65.2096C138.35 65.3168 138.172 65.472 138.037 65.6625Z" fill="white"/>
<path d="M149.11 65.1305C149.502 64.935 149.935 64.8367 150.373 64.8436C150.957 64.8436 151.4 64.9693 151.702 65.2209C151.856 65.357 151.971 65.5318 152.035 65.7275C152.111 65.9907 152.145 66.2642 152.136 66.538V69.2097C152.128 69.361 152.161 69.5111 152.231 69.645C152.3 69.7532 152.407 69.8321 152.531 69.8644C152.714 69.9128 152.903 69.9344 153.092 69.9284V70.1454C152.324 70.1191 151.822 70.106 151.586 70.106C151.349 70.106 150.882 70.1191 150.185 70.1454V69.935C150.35 69.9409 150.514 69.9194 150.672 69.871C150.783 69.8333 150.875 69.7544 150.929 69.651C150.991 69.5146 151.019 69.3658 151.011 69.2163V66.3167C151.016 66.1123 150.992 65.9083 150.941 65.7103C150.894 65.5472 150.789 65.4066 150.647 65.3144C150.45 65.1994 150.223 65.1452 149.995 65.1585C149.674 65.1529 149.357 65.2359 149.08 65.3986C148.816 65.5552 148.6 65.7831 148.457 66.0564C148.307 66.3449 148.231 66.6663 148.237 66.9917V69.2097C148.229 69.3592 148.257 69.5087 148.319 69.645C148.374 69.749 148.467 69.8279 148.579 69.8644C148.738 69.9128 148.903 69.9344 149.069 69.9284V70.1454C148.367 70.1191 147.9 70.106 147.669 70.106C147.437 70.106 146.935 70.1191 146.162 70.1454V69.935C146.351 69.9403 146.54 69.9188 146.722 69.871C146.847 69.8381 146.954 69.7598 147.023 69.651C147.093 69.517 147.126 69.367 147.118 69.2163V66.0782C147.129 65.9573 147.116 65.8355 147.079 65.7196C147.043 65.6038 146.984 65.4963 146.906 65.4032C146.765 65.263 146.517 65.1928 146.162 65.1928V64.9824C146.424 65.0021 146.683 65.012 146.941 65.012C147.379 65.0223 147.818 64.9762 148.245 64.8748V66.0548C148.423 65.6596 148.728 65.3347 149.11 65.1305Z" fill="white"/>
</svg>
