<svg width="100" height="100" viewBox="0 0 100 100" fill="none" xmlns="http://www.w3.org/2000/svg">
<rect width="100" height="100" rx="50" fill="#333638"/>
<path d="M20.2383 36.6072C20.2383 27.1675 26.9914 20.8632 36.4234 20.4829C40.0783 20.3356 44.5542 20.2382 50.0002 20.2382C55.4462 20.2382 59.922 20.3356 63.5769 20.4829C73.009 20.8632 79.7621 27.1675 79.7621 36.6072C79.7621 46.047 73.009 52.3513 63.5769 52.7315C59.922 52.8788 55.4462 52.9763 50.0002 52.9763C44.5542 52.9763 40.0783 52.8788 36.4234 52.7315C26.9914 52.3513 20.2383 46.0469 20.2383 36.6072Z" fill="#B93700"/>
<path d="M46.152 41.5457C46.2578 39.9696 47.2106 38.51 48.7816 38.2124C49.1574 38.1412 49.5462 38.0953 49.9242 38.0953C50.318 38.0953 50.7235 38.1451 51.1138 38.2214C52.6576 38.5233 53.6053 39.9486 53.7436 41.4966C54.0094 44.4714 54.4094 49.3535 54.4094 51.7926C54.4094 51.7926 59.9263 51.7926 65.3349 53.3196C68.7837 54.2932 70.9174 57.4794 70.8309 61.0202C70.7475 64.4335 70.2183 69.0709 68.4302 73.9392C67.6095 76.1735 65.6646 77.7503 63.2705 77.996C61.7571 78.1513 59.7299 78.2739 57.1006 78.2739C54.7845 78.2739 52.9356 78.1788 51.4936 78.05C48.6611 77.7969 46.1785 76.3279 44.2969 74.2221C40.5715 70.053 37.581 66.006 35.9723 63.727C35.1073 62.5016 34.7699 59.7601 35.5809 58.4993C37.1961 55.9879 39.7697 57.2082 42.1719 59.0038C44.2636 60.5673 45.4389 61.7068 45.4389 61.7068C45.4389 53.3857 45.8895 45.4578 46.152 41.5457Z" fill="#FF4D01"/>
</svg>
