<svg width="100" height="100" viewBox="0 0 100 100" fill="none" xmlns="http://www.w3.org/2000/svg">
<rect width="100" height="100" rx="50" fill="#333638"/>
<g clip-path="url(#clip0_380_4017)">
<path d="M47.1836 70.8243H52.0636V45.9815L47.1836 44.2515V70.8243Z" fill="#FF4D01"/>
<path d="M61.6816 34.1965C61.6173 37.7622 60.5202 39.6422 58.1959 39.6422C55.8073 39.6422 53.4188 38.475 50.1916 36.9193C45.8023 34.8443 43.7366 34.0015 41.0252 34.0015C36.5716 34.0015 33.1502 37.3079 33.3438 43.7915H37.2166C37.2816 39.9022 38.7016 38.2815 41.0252 38.2815C43.3495 38.2815 45.738 39.6422 48.7716 41.1343C53.2252 43.2093 55.5495 43.9872 58.1316 43.9872C62.133 43.9872 65.813 41.3936 65.4909 34.1972H61.6816V34.1965Z" fill="#FF4D01"/>
<path d="M49.9994 14.2858C30.3066 14.2858 14.2852 30.3072 14.2852 50.0001C14.2852 69.6929 30.3066 85.7143 49.9994 85.7143C69.6923 85.7143 85.7137 69.6929 85.7137 50.0001C85.7137 30.3072 69.6923 14.2858 49.9994 14.2858ZM49.9994 83.4072C31.5787 83.4072 16.5923 68.4208 16.5923 50.0001C16.5923 31.5793 31.5787 16.5929 49.9994 16.5929C68.4202 16.5929 83.4066 31.5793 83.4066 50.0001C83.4066 68.4208 68.4202 83.4072 49.9994 83.4072Z" fill="#FF4D01"/>
</g>
<defs>
<clipPath id="clip0_380_4017">
<rect width="71.4286" height="71.4286" fill="white" transform="translate(14.2861 14.2858)"/>
</clipPath>
</defs>
</svg>
