<svg width="118" height="48" viewBox="0 0 118 48" fill="none" xmlns="http://www.w3.org/2000/svg">
<path d="M5.87691 42.0494C-1.95897 34.2136 -1.95897 21.4685 5.87691 13.6326L10.7389 8.77051C11.3054 8.2041 12.2495 8.2041 12.8159 8.77051C13.3824 9.33699 13.3824 10.2811 12.8159 10.8475L7.90668 15.7095C1.2037 22.4125 1.2037 33.3167 7.90668 39.9725C14.6097 46.6282 25.5138 46.6754 32.1696 39.9725L44.3483 27.841L36.9844 20.5244C36.418 19.9579 36.418 19.0138 36.9844 18.4474C37.5509 17.8809 38.495 17.8809 39.0614 18.4474L47.4637 26.8497C48.0302 27.4162 48.0302 28.3603 47.4637 28.9267L34.2938 42.0494C26.4579 49.9326 13.7128 49.9326 5.87691 42.0494Z" fill="white"/>
<path d="M10.0311 37.8966C4.50819 32.3738 4.50819 23.405 10.0311 17.8821L14.8931 13.0201C15.4595 12.4536 16.4036 12.4536 16.9701 13.0201C17.5365 13.5865 17.5365 14.5306 16.9701 15.097L12.1081 19.9119C7.71805 24.3019 7.71805 31.4297 12.1081 35.8197C16.498 40.2097 23.6258 40.2097 28.0158 35.8197L36.9846 26.8509C37.5511 26.2844 38.4951 26.2844 39.0616 26.8509C39.628 27.4173 39.628 28.3614 39.0616 28.9279L30.0928 37.8966C24.5699 43.4195 15.5539 43.4195 10.0311 37.8966Z" fill="white"/>
<path d="M14.2323 33.6953C11.0225 30.4855 11.0225 25.2458 14.2323 22.0359L19.0943 17.1739C19.6608 16.6074 20.6049 16.6074 21.1714 17.1739C21.7378 17.7404 21.7378 18.6844 21.1714 19.2508L16.3094 24.1129C14.2323 26.1899 14.2323 29.5414 16.3094 31.6183C18.3863 33.6954 21.7378 33.6954 23.8147 31.6183L28.6768 26.7563C29.2432 26.1899 30.1873 26.1899 30.7538 26.7563C31.3202 27.3228 31.3202 28.2668 30.7538 28.8333L25.8918 33.6953C22.6819 36.9052 17.4423 36.9052 14.2323 33.6953Z" fill="white"/>
<path d="M19.0472 2.54039C18.9529 2.49319 18.9056 2.39878 18.8584 2.30437C18.8112 2.20996 18.764 2.16276 18.7168 2.06835C18.6696 1.97394 18.6696 1.87953 18.6224 1.78513C18.6224 1.69072 18.5752 1.59631 18.5752 1.5019C18.5752 1.40749 18.5752 1.31308 18.6224 1.21868C18.6224 1.12427 18.6696 1.02986 18.7168 0.935452C18.764 0.841044 18.8112 0.746635 18.8584 0.699431C18.9056 0.605024 18.9529 0.55782 19.0472 0.463412C19.0945 0.416207 19.1889 0.321799 19.2833 0.274595C19.3777 0.227391 19.4721 0.180186 19.5193 0.132982C19.6137 0.0857784 19.7081 0.0857784 19.8025 0.0385742C19.8969 0.0385742 19.9913 0.0385742 20.0857 0.0385742C20.1801 0.0385742 20.2746 0.0385742 20.369 0.0857784C20.4634 0.132982 20.5578 0.132982 20.6522 0.180186C20.7466 0.227391 20.841 0.274595 20.8882 0.321799C21.0298 0.416207 21.1714 0.55782 21.3131 0.746635C21.3602 0.841044 21.4074 0.888248 21.4547 0.982656C21.5019 1.07706 21.5019 1.17147 21.5491 1.26588C21.5491 1.36029 21.5962 1.4547 21.5962 1.5491C21.5962 1.92674 21.4547 2.30437 21.1714 2.58759C21.1242 2.6348 21.0298 2.72921 20.9354 2.77642C20.841 2.82362 20.7938 2.87082 20.6994 2.91802C20.605 2.96523 20.5106 2.96523 20.4161 3.01244C20.3218 3.01244 20.2273 3.05964 20.133 3.05964C20.0385 3.05964 19.9441 3.05964 19.8497 3.01244C19.7553 3.01244 19.6609 2.96523 19.5665 2.91802C19.4721 2.87082 19.3777 2.82362 19.3305 2.77642C19.1889 2.682 19.0945 2.58759 19.0472 2.54039Z" fill="white"/>
<path d="M14.8466 6.69357C14.7993 6.64636 14.7049 6.55193 14.6577 6.45755C14.6105 6.36312 14.5633 6.31591 14.5161 6.22153C14.4689 6.1271 14.4689 6.03267 14.4217 5.9383C14.4217 5.84388 14.3745 5.74947 14.3745 5.65506C14.3745 5.56065 14.3745 5.46625 14.4217 5.37184C14.4217 5.27743 14.4689 5.18302 14.5161 5.08861C14.5633 4.9942 14.6105 4.8998 14.6577 4.85259C14.7049 4.75818 14.7521 4.71098 14.8466 4.61657C14.8937 4.56937 14.9881 4.47496 15.0826 4.42776C15.1769 4.38055 15.2242 4.33335 15.3186 4.28614C15.413 4.23894 15.5074 4.23894 15.6018 4.19174C15.6962 4.19174 15.7906 4.14453 15.885 4.14453C15.9794 4.14453 16.0738 4.14453 16.1682 4.19174C16.2627 4.19174 16.357 4.23894 16.4515 4.28614C16.5459 4.33335 16.6403 4.38055 16.6875 4.42776C17.1123 4.71098 17.3483 5.18302 17.3483 5.65506C17.3483 5.74947 17.3483 5.84388 17.3011 5.9383C17.3011 6.03267 17.2539 6.1271 17.2068 6.22153C17.1595 6.31591 17.1123 6.41034 17.0651 6.45755C17.018 6.55193 16.9707 6.59914 16.8763 6.69357C16.8291 6.74079 16.7347 6.83516 16.6403 6.88238C16.5459 6.9296 16.4515 6.97681 16.4043 7.02397C16.3098 7.07118 16.2155 7.07118 16.121 7.1184C16.0267 7.1184 15.9322 7.16562 15.8378 7.16562C15.7434 7.16562 15.649 7.16562 15.5546 7.1184C15.4602 7.1184 15.3658 7.07118 15.2714 7.02397C15.1769 6.97681 15.0826 6.9296 15.0354 6.88238C14.9881 6.83516 14.9409 6.78795 14.8466 6.69357Z" fill="white"/>
<path d="M19.0472 10.8947C19 10.8475 18.9056 10.7531 18.8584 10.6587C18.8112 10.5643 18.764 10.5171 18.7168 10.4227C18.6696 10.3283 18.6696 10.2339 18.6224 10.1394C18.6224 10.0451 18.5752 9.95063 18.5752 9.85626C18.5752 9.76183 18.5752 9.66739 18.6224 9.57302C18.6224 9.47859 18.6696 9.38422 18.7168 9.28978C18.764 9.19535 18.8112 9.10098 18.8584 9.05376C18.9056 8.95933 18.9529 8.91218 19.0472 8.81774C19.0945 8.77053 19.1889 8.67616 19.2833 8.62894C19.3777 8.58172 19.4249 8.53451 19.5193 8.48729C19.6137 8.44013 19.7081 8.44013 19.8025 8.39292C19.8969 8.39292 19.9913 8.3457 20.0857 8.3457C20.1801 8.3457 20.2746 8.3457 20.369 8.39292C20.4634 8.39292 20.5578 8.44013 20.6522 8.48729C20.7466 8.53451 20.841 8.58172 20.8882 8.62894C21.0298 8.72331 21.1714 8.86496 21.3131 9.05376C21.3602 9.1482 21.4074 9.19535 21.4547 9.28978C21.5019 9.38422 21.5019 9.47859 21.5491 9.57302C21.5491 9.66739 21.5962 9.76183 21.5962 9.85626C21.5962 9.95063 21.5962 10.0451 21.5491 10.1394C21.5491 10.2339 21.5019 10.3283 21.4547 10.4227C21.4074 10.5171 21.3602 10.6115 21.3131 10.6587C21.2659 10.7531 21.2186 10.8003 21.1242 10.8947C21.077 10.9419 20.9826 11.0364 20.8882 11.0835C20.7938 11.1307 20.6994 11.1779 20.6522 11.2252C20.5578 11.2724 20.4634 11.2724 20.369 11.3195C20.2746 11.3195 20.1801 11.3668 20.0857 11.3668C19.9913 11.3668 19.8969 11.3668 19.8025 11.3195C19.7081 11.3195 19.6137 11.2724 19.5193 11.2252C19.4249 11.1779 19.3305 11.1307 19.2833 11.0835C19.1889 11.0364 19.1417 10.9891 19.0472 10.8947Z" fill="white"/>
<path d="M65.4957 15.2384C65.4957 15.6633 65.448 16.0409 65.3065 16.3714C65.165 16.7018 64.9764 16.985 64.6929 17.221C64.4099 17.4571 64.1264 17.6459 63.702 17.7875C63.3242 17.9291 62.8992 17.9763 62.427 17.9763C61.9554 17.9763 61.5304 17.9291 61.1526 17.7875C60.7753 17.6459 60.4446 17.4571 60.2089 17.221C59.9253 16.985 59.7367 16.7018 59.5952 16.3714C59.4532 16.0409 59.406 15.6633 59.406 15.2384V10.8957C59.5003 10.8957 59.6424 10.8485 59.7839 10.8485C59.9725 10.8013 60.1617 10.8013 60.3032 10.8013C60.4918 10.8013 60.6333 10.8013 60.7753 10.8485C60.9168 10.8957 61.0111 10.9429 61.1054 10.9901C61.1997 11.0373 61.2469 11.1317 61.2941 11.2733C61.3418 11.4149 61.3418 11.5565 61.3418 11.7454V15.2384C61.3418 15.6161 61.4361 15.8993 61.6247 16.0882C61.8134 16.277 62.0969 16.4185 62.427 16.4185C62.7577 16.4185 62.9935 16.3242 63.2298 16.0882C63.4185 15.8993 63.5128 15.6161 63.5128 15.2384V10.8957C63.6071 10.8957 63.7492 10.8485 63.8906 10.8485C64.0793 10.8013 64.2679 10.8013 64.4099 10.8013C64.5986 10.8013 64.74 10.8013 64.8821 10.8485C65.0236 10.8957 65.1179 10.9429 65.2122 10.9901C65.3065 11.0373 65.3537 11.1317 65.4008 11.2733C65.4486 11.4149 65.448 11.5565 65.448 11.7454V15.2384H65.4957Z" fill="white"/>
<path d="M70.7361 14.2944C70.7361 14.0584 70.6889 13.8696 70.5475 13.7752C70.406 13.6808 70.2168 13.6335 70.0282 13.6335C69.8867 13.6335 69.7446 13.6335 69.556 13.6808C69.3674 13.728 69.2731 13.7752 69.1787 13.8696V17.8348C69.0838 17.8348 68.9895 17.882 68.8009 17.882C68.6123 17.882 68.4702 17.9291 68.2816 17.9291C68.093 17.9291 67.9509 17.9291 67.8094 17.882C67.668 17.8348 67.5736 17.8348 67.4793 17.7403C67.3844 17.6931 67.3373 17.5987 67.2901 17.4571C67.243 17.3155 67.1958 17.1739 67.1958 16.985V13.5864C67.1958 13.3975 67.243 13.2087 67.3373 13.0671C67.4322 12.9255 67.5265 12.8311 67.7151 12.7367C67.9509 12.5479 68.2816 12.4063 68.7066 12.3119C69.0838 12.2174 69.5088 12.123 70.0282 12.123C70.8776 12.123 71.539 12.3119 72.0105 12.6895C72.4827 13.0671 72.7191 13.5864 72.7191 14.2472V17.8348C72.6241 17.8348 72.5298 17.882 72.3412 17.882C72.1997 17.882 72.0105 17.9291 71.8219 17.9291C71.6333 17.9291 71.4912 17.9291 71.3497 17.882C71.2083 17.8348 71.114 17.8348 71.0196 17.7403C70.9247 17.6931 70.8776 17.5987 70.8304 17.4571C70.7833 17.3627 70.7361 17.1739 70.7361 16.985V14.2944Z" fill="white"/>
<path d="M74.2285 10.754C74.2285 10.4708 74.3228 10.2347 74.5115 10.0459C74.7007 9.85707 74.9836 9.7627 75.2671 9.7627C75.5972 9.7627 75.8336 9.85707 76.0222 10.0459C76.2109 10.2347 76.3052 10.4708 76.3052 10.754C76.3052 11.0372 76.2109 11.2732 76.0222 11.4621C75.8336 11.6509 75.5501 11.7452 75.2671 11.7452C74.9365 11.7452 74.7007 11.6509 74.5115 11.4621C74.3228 11.2732 74.2285 11.0372 74.2285 10.754ZM76.258 17.7874C76.1637 17.7874 76.0694 17.8346 75.8808 17.8346C75.6916 17.8346 75.5501 17.8818 75.4086 17.8818C75.2194 17.8818 75.0779 17.8818 74.9365 17.8346C74.795 17.7874 74.7007 17.7874 74.6058 17.693C74.5115 17.6458 74.4643 17.5514 74.4171 17.4098C74.37 17.2681 74.3228 17.1265 74.3228 16.9377V12.3117C74.4171 12.3117 74.5115 12.2645 74.7007 12.2645C74.8421 12.2173 75.0308 12.2173 75.1722 12.2173C75.3143 12.2173 75.5029 12.2173 75.6444 12.2645C75.7859 12.3117 75.8808 12.3117 75.9751 12.4061C76.0694 12.4534 76.1166 12.5477 76.1637 12.6893C76.2109 12.7837 76.258 12.9725 76.258 13.1614V17.7874Z" fill="white"/>
<path d="M79.847 15.8991C79.847 16.088 79.8942 16.2296 80.0357 16.324C80.1777 16.4184 80.3192 16.4656 80.555 16.4656C80.6493 16.4656 80.7913 16.4656 80.8857 16.4184C81.0271 16.4184 81.1215 16.3711 81.2158 16.324C81.2635 16.4184 81.3578 16.5128 81.405 16.6072C81.4521 16.7016 81.4993 16.8432 81.4993 16.9848C81.4993 17.2681 81.405 17.5041 81.1686 17.6929C80.9328 17.8817 80.555 17.9761 80.0357 17.9761C79.3749 17.9761 78.8556 17.8345 78.4783 17.5041C78.1005 17.2209 77.959 16.7016 77.959 16.0408V11.1787C78.0533 11.1787 78.1476 11.1315 78.3368 11.0843C78.4783 11.0371 78.6669 11.0371 78.8084 11.0371C79.1391 11.0371 79.422 11.0843 79.6113 11.2259C79.7999 11.3203 79.8942 11.6036 79.8942 11.9812V12.6893H81.405C81.4521 12.7837 81.4993 12.8781 81.5464 13.0197C81.5936 13.1613 81.5936 13.3029 81.5936 13.4445C81.5936 13.7278 81.5465 13.9166 81.405 14.0109C81.2635 14.1054 81.1214 14.1998 80.9328 14.1998H79.8942V15.8991H79.847Z" fill="white"/>
<path d="M85.7464 17.9762C85.3214 17.9762 84.8964 17.929 84.5191 17.7874C84.1413 17.6458 83.8112 17.4569 83.5277 17.2209C83.2447 16.9849 83.0084 16.6545 82.8669 16.2768C82.7254 15.8992 82.6311 15.4744 82.6311 14.9551C82.6311 14.4359 82.7254 14.0111 82.8669 13.6806C83.0084 13.303 83.2447 13.0198 83.5277 12.7837C83.8112 12.5477 84.0941 12.3589 84.4248 12.2645C84.7549 12.1701 85.1328 12.0757 85.4629 12.0757C85.8879 12.0757 86.2186 12.1229 86.5487 12.2645C86.8794 12.4061 87.1623 12.5477 87.3987 12.7837C87.6345 13.0198 87.8231 13.2558 87.9651 13.539C88.1066 13.8223 88.1538 14.1527 88.1538 14.5303C88.1538 14.7663 88.0595 15.0024 87.918 15.1439C87.7759 15.2856 87.5873 15.38 87.3044 15.4272L84.472 15.852C84.5663 16.088 84.7078 16.2768 84.9913 16.4185C85.2271 16.5601 85.5578 16.6073 85.8879 16.6073C86.2186 16.6073 86.5015 16.5601 86.785 16.4657C87.068 16.3713 87.3044 16.2768 87.4458 16.1825C87.5873 16.2768 87.6816 16.3713 87.7759 16.5129C87.8708 16.6545 87.918 16.7961 87.918 16.9377C87.918 17.2681 87.7759 17.5514 87.4458 17.693C87.2095 17.8346 86.9265 17.929 86.643 17.9762C86.3129 17.9762 86.0293 17.9762 85.7464 17.9762ZM85.4629 13.4918C85.2742 13.4918 85.1328 13.539 84.9913 13.5862C84.8492 13.6335 84.7549 13.7278 84.6606 13.8223C84.5663 13.9166 84.5191 14.0111 84.472 14.1527C84.4248 14.2471 84.4248 14.3887 84.3777 14.5303L86.36 14.1999C86.36 14.0583 86.2657 13.9166 86.1242 13.7278C85.935 13.5862 85.7464 13.4918 85.4629 13.4918Z" fill="white"/>
<path d="M89.2876 15.0499C89.2876 14.5307 89.3819 14.1058 89.5234 13.7282C89.6648 13.3506 89.9012 13.0673 90.137 12.8313C90.4205 12.5953 90.7035 12.4064 91.0813 12.312C91.4586 12.2176 91.8364 12.1232 92.2614 12.1232C92.4029 12.1232 92.5444 12.1232 92.6858 12.1704C92.8279 12.2176 92.9694 12.2176 93.0165 12.2648V10.4239C93.1108 10.4239 93.2052 10.3767 93.3944 10.3294C93.583 10.2822 93.7245 10.2822 93.9137 10.2822C94.1023 10.2822 94.2438 10.2822 94.3853 10.3294C94.5273 10.3294 94.6216 10.3767 94.7159 10.4711C94.8103 10.5182 94.8574 10.6127 94.9046 10.7543C94.9517 10.8487 94.9517 11.0375 94.9517 11.2263V16.6076C94.9517 16.9852 94.7631 17.2685 94.4324 17.4573C94.1966 17.5989 93.9137 17.7405 93.583 17.8349C93.2523 17.9293 92.8279 18.0237 92.3557 18.0237C91.8836 18.0237 91.4114 17.9765 91.0342 17.8349C90.6563 17.6933 90.3256 17.5045 90.0427 17.2213C89.7592 16.9852 89.5705 16.6548 89.4291 16.2772C89.3819 15.8996 89.2876 15.4747 89.2876 15.0499ZM92.5444 13.6337C92.1194 13.6337 91.8364 13.7282 91.6006 13.9642C91.3643 14.2002 91.27 14.5778 91.27 15.0499C91.27 15.5219 91.3643 15.8523 91.6006 16.1356C91.7893 16.3715 92.1194 16.5132 92.4972 16.5132C92.6387 16.5132 92.7807 16.5132 92.8751 16.466C92.9694 16.4188 93.0637 16.3715 93.1108 16.3244V13.7282C92.9222 13.6809 92.7336 13.6337 92.5444 13.6337Z" fill="white"/>
<path d="M62.8999 25.9544C62.3334 25.9544 61.8613 26.1432 61.5783 26.4736C61.2476 26.8513 61.1062 27.3233 61.1062 27.9841C61.1062 28.645 61.2948 29.1642 61.6255 29.4947C61.9562 29.8723 62.4277 30.014 63.0414 30.014C63.3721 30.014 63.6078 29.9667 63.8442 29.8723C64.08 29.7779 64.2692 29.6835 64.4579 29.5891C64.5993 29.6835 64.6936 29.8251 64.7408 29.9667C64.8351 30.1083 64.8351 30.2972 64.8351 30.486C64.8351 30.8164 64.6465 31.0524 64.3164 31.2884C63.9857 31.5245 63.4664 31.6189 62.7584 31.6189C62.2391 31.6189 61.767 31.5245 61.3426 31.3829C60.9175 31.2413 60.4925 31.0052 60.1625 30.722C59.8318 30.4388 59.5488 30.0611 59.3596 29.5891C59.171 29.117 59.0767 28.5978 59.0767 27.9369C59.0767 27.3233 59.171 26.804 59.3596 26.3792C59.5488 25.9072 59.7846 25.5296 60.1147 25.2463C60.4454 24.9159 60.8232 24.6799 61.2476 24.5383C61.6726 24.3966 62.1448 24.3022 62.617 24.3022C63.3249 24.3022 63.8442 24.3966 64.2215 24.6326C64.5993 24.8687 64.788 25.1519 64.788 25.5296C64.788 25.7184 64.7408 25.9072 64.6465 26.0488C64.5522 26.1904 64.4107 26.2848 64.3164 26.3792C64.1272 26.2376 63.8914 26.1432 63.7028 26.0488C63.5135 25.9544 63.1834 25.9544 62.8999 25.9544Z" fill="white"/>
<path d="M71.727 28.691C71.727 29.163 71.6327 29.5879 71.4907 29.9655C71.3492 30.3431 71.1606 30.6263 70.877 30.9095C70.5941 31.1456 70.3106 31.3344 69.9333 31.476C69.5555 31.6176 69.1782 31.6648 68.706 31.6648C68.281 31.6648 67.856 31.6176 67.4788 31.476C67.1009 31.3344 66.818 31.1456 66.5345 30.9095C66.2515 30.6735 66.0623 30.3431 65.9208 29.9655C65.7794 29.5879 65.6851 29.2102 65.6851 28.7381C65.6851 28.3133 65.7794 27.8885 65.9208 27.5109C66.0623 27.1332 66.2515 26.85 66.5345 26.5668C66.818 26.3308 67.1009 26.0948 67.4788 26.0003C67.856 25.8587 68.2339 25.8115 68.706 25.8115C69.1305 25.8115 69.5555 25.8587 69.9333 26.0003C70.3106 26.1419 70.5941 26.3308 70.877 26.614C71.1606 26.85 71.3492 27.1804 71.4907 27.558C71.6327 27.9357 71.727 28.2661 71.727 28.691ZM67.7617 28.691C67.7617 29.163 67.856 29.4934 68.0453 29.7767C68.2339 30.0127 68.4697 30.1543 68.8004 30.1543C69.1305 30.1543 69.3668 30.0127 69.5555 29.7767C69.7447 29.5406 69.7918 29.163 69.7918 28.7381C69.7918 28.2661 69.6969 27.9357 69.5083 27.6997C69.3197 27.4637 69.0833 27.322 68.7532 27.322C68.4225 27.322 68.1867 27.4637 67.9981 27.6997C67.8089 27.8885 67.7617 28.2661 67.7617 28.691Z" fill="white"/>
<path d="M76.636 27.9829C76.636 27.7469 76.5889 27.558 76.4474 27.4637C76.3053 27.3692 76.1167 27.322 75.9281 27.322C75.786 27.322 75.6445 27.322 75.4559 27.3692C75.2673 27.4165 75.1724 27.4637 75.0781 27.558V31.5232C74.9837 31.5232 74.8894 31.5704 74.7008 31.5704C74.5116 31.5704 74.3701 31.6176 74.1815 31.6176C73.9923 31.6176 73.8508 31.6176 73.7093 31.5704C73.5679 31.5232 73.4735 31.5232 73.3786 31.4288C73.2843 31.3816 73.2372 31.2872 73.19 31.1456C73.1429 31.004 73.0957 30.8623 73.0957 30.6735V27.2749C73.0957 27.086 73.1429 26.8972 73.2372 26.7556C73.3315 26.614 73.4258 26.5196 73.615 26.4252C73.8508 26.2363 74.1815 26.0948 74.6059 26.0003C74.9838 25.9059 75.4088 25.8115 75.9281 25.8115C76.7775 25.8115 77.4383 26.0003 77.9104 26.3779C78.3826 26.7556 78.6184 27.2749 78.6184 27.9357V31.5232C78.5241 31.5232 78.4297 31.5704 78.2411 31.5704C78.0991 31.5704 77.9104 31.6176 77.7218 31.6176C77.5326 31.6176 77.3911 31.6176 77.2496 31.5704C77.1082 31.5232 77.0139 31.5232 76.919 31.4288C76.8246 31.3816 76.7775 31.2872 76.7303 31.1456C76.6832 31.0512 76.636 30.8623 76.636 30.6735V27.9829Z" fill="white"/>
<path d="M84.8501 29.8239C84.8501 30.3903 84.6137 30.8623 84.1887 31.1928C83.7643 31.5232 83.1035 31.6648 82.2535 31.6648C81.9234 31.6648 81.6398 31.6648 81.3569 31.6176C81.0734 31.5704 80.8376 31.5232 80.6484 31.4288C80.4597 31.3344 80.3183 31.1928 80.1768 31.0512C80.0819 30.9095 79.9876 30.7207 79.9876 30.5319C79.9876 30.3431 80.0347 30.2015 80.0819 30.0599C80.1768 29.9182 80.2711 29.8239 80.3654 29.7294C80.6012 29.8711 80.8376 29.9655 81.1205 30.0599C81.4041 30.1543 81.7342 30.2015 82.112 30.2015C82.3478 30.2015 82.537 30.1543 82.6313 30.1071C82.7728 30.0599 82.8199 29.9655 82.8199 29.8239C82.8199 29.7294 82.7728 29.6351 82.6785 29.5878C82.5842 29.5406 82.4421 29.4934 82.2063 29.4462L81.8762 29.399C81.2148 29.2574 80.7433 29.0686 80.4126 28.7854C80.0819 28.5021 79.9404 28.1245 79.9404 27.6053C79.9404 27.322 79.9876 27.086 80.1296 26.85C80.2711 26.614 80.4126 26.4252 80.6484 26.2836C80.8847 26.1419 81.1205 26.0003 81.4512 25.9531C81.7813 25.8587 82.112 25.8115 82.4898 25.8115C82.7728 25.8115 83.0563 25.8115 83.2921 25.8587C83.5279 25.9059 83.7643 25.9531 83.9529 26.0475C84.1415 26.1419 84.2836 26.2363 84.3779 26.3779C84.4722 26.5196 84.5194 26.6612 84.5194 26.85C84.5194 27.0388 84.4722 27.1804 84.4251 27.322C84.3779 27.4637 84.2836 27.558 84.1887 27.6525C84.1415 27.6053 84.0472 27.558 83.9057 27.5109C83.7643 27.4637 83.67 27.4165 83.5279 27.4165C83.3864 27.4165 83.2449 27.3692 83.1035 27.322C82.9614 27.322 82.8199 27.2749 82.6785 27.2749C82.4421 27.2749 82.2535 27.322 82.112 27.3692C81.9705 27.4165 81.9234 27.5109 81.9234 27.6525C81.9234 27.7469 81.9705 27.7941 82.0177 27.8413C82.112 27.8885 82.2535 27.9357 82.4421 27.9829L82.7728 28.0773C83.4807 28.2661 84.0001 28.455 84.3307 28.7854C84.708 28.9742 84.8501 29.3518 84.8501 29.8239Z" fill="white"/>
<path d="M86.2185 26.0012C86.3128 26.0012 86.4071 25.954 86.5958 25.954C86.785 25.954 86.9264 25.9067 87.1151 25.9067C87.3037 25.9067 87.4458 25.9067 87.5872 25.954C87.7287 26.0012 87.823 26.0012 87.9173 26.0956C88.0122 26.1428 88.0594 26.2372 88.1065 26.3788C88.1537 26.4732 88.2009 26.662 88.2009 26.8508V29.3055C88.2009 29.6359 88.2952 29.8247 88.4367 29.9663C88.5787 30.1079 88.8145 30.1551 89.0974 30.1551C89.2866 30.1551 89.4281 30.1551 89.5224 30.1079C89.6167 30.0607 89.7117 30.0607 89.7588 30.0135V26.0012C89.8531 26.0012 89.9474 25.954 90.1361 25.954C90.3253 25.954 90.4668 25.9067 90.6554 25.9067C90.844 25.9067 90.9861 25.9067 91.1275 25.954C91.269 26.0012 91.3633 26.0012 91.4576 26.0956C91.5525 26.1428 91.5997 26.2372 91.6469 26.3788C91.694 26.4732 91.7412 26.662 91.7412 26.8508V30.2968C91.7412 30.6744 91.5997 30.9576 91.269 31.1464C90.9861 31.3352 90.7025 31.4296 90.3253 31.5241C89.9474 31.6184 89.5696 31.6657 89.1452 31.6657C88.7202 31.6657 88.3423 31.6184 88.0122 31.5241C87.6815 31.4296 87.3514 31.2881 87.1151 31.0992C86.8793 30.9104 86.6901 30.6744 86.5486 30.344C86.4071 30.0607 86.36 29.6831 86.36 29.2582V26.0012H86.2185Z" fill="white"/>
<path d="M95.2354 31.477C95.1404 31.477 95.0461 31.5242 94.8575 31.5242C94.716 31.5714 94.5268 31.5714 94.3853 31.5714C94.2439 31.5714 94.0553 31.5714 93.9132 31.5242C93.7717 31.477 93.6774 31.477 93.5831 31.3826C93.4888 31.3354 93.4416 31.2409 93.3939 31.0994C93.3467 30.9577 93.2996 30.8161 93.2996 30.6273V24.0187C93.3939 24.0187 93.4888 23.9715 93.6774 23.9715C93.8189 23.9243 94.0075 23.9243 94.1496 23.9243C94.291 23.9243 94.4797 23.9243 94.6217 23.9715C94.7632 24.0187 94.8575 24.0187 94.9518 24.1131C95.0461 24.1603 95.0933 24.2548 95.1404 24.3964C95.1882 24.4908 95.2354 24.6796 95.2354 24.8684V31.477Z" fill="white"/>
<path d="M98.8234 29.5874C98.8234 29.7762 98.8706 29.9178 99.0121 30.0123C99.1535 30.1067 99.295 30.1538 99.5314 30.1538C99.6257 30.1538 99.7672 30.1539 99.8615 30.1067C100.004 30.1067 100.098 30.0595 100.192 30.0123C100.239 30.1067 100.334 30.2011 100.381 30.2955C100.428 30.3899 100.475 30.5315 100.475 30.6732C100.475 30.9564 100.381 31.1924 100.145 31.3812C99.9086 31.57 99.5314 31.6645 99.0121 31.6645C98.3513 31.6645 97.832 31.5228 97.4541 31.1924C97.0769 30.9092 96.9348 30.3899 96.9348 29.729V24.8198C97.0291 24.8198 97.124 24.7726 97.3127 24.7254C97.4541 24.6782 97.6433 24.6782 97.7848 24.6782C98.1149 24.6782 98.3984 24.7254 98.5871 24.867C98.7757 24.9614 98.8706 25.2446 98.8706 25.6223V26.3304H100.381C100.428 26.4247 100.475 26.5192 100.522 26.6608C100.569 26.8024 100.569 26.944 100.569 27.0856C100.569 27.3688 100.522 27.5576 100.381 27.6521C100.239 27.7465 100.098 27.8409 99.9086 27.8409H98.8706V29.5874H98.8234Z" fill="white"/>
<path d="M101.843 24.3951C101.843 24.1119 101.938 23.8758 102.126 23.687C102.315 23.4982 102.598 23.4038 102.881 23.4038C103.212 23.4038 103.448 23.4982 103.637 23.687C103.826 23.8758 103.92 24.1119 103.92 24.3951C103.92 24.6783 103.826 24.9144 103.637 25.1032C103.448 25.292 103.165 25.3864 102.881 25.3864C102.551 25.3864 102.315 25.292 102.126 25.1032C101.938 24.9144 101.843 24.6783 101.843 24.3951ZM103.873 31.4757C103.779 31.4757 103.684 31.5229 103.495 31.5229C103.306 31.5229 103.165 31.5702 103.023 31.5702C102.834 31.5702 102.693 31.5702 102.551 31.5229C102.409 31.4757 102.315 31.4757 102.221 31.3813C102.126 31.3341 102.079 31.2397 102.032 31.0981C101.985 30.9565 101.938 30.8149 101.938 30.6261V26C102.032 26 102.126 25.9529 102.315 25.9529C102.456 25.9057 102.646 25.9057 102.787 25.9057C102.929 25.9057 103.118 25.9057 103.259 25.9529C103.401 26.0001 103.495 26.0001 103.589 26.0945C103.684 26.1417 103.731 26.2361 103.779 26.3777C103.826 26.4721 103.873 26.6609 103.873 26.8497V31.4757Z" fill="white"/>
<path d="M109.018 27.9829C109.018 27.7469 108.971 27.558 108.829 27.4637C108.688 27.3692 108.499 27.322 108.31 27.322C108.169 27.322 108.027 27.322 107.838 27.3692C107.649 27.4165 107.555 27.4637 107.461 27.558V31.5232C107.366 31.5232 107.272 31.5704 107.083 31.5704C106.894 31.5704 106.753 31.6176 106.564 31.6176C106.375 31.6176 106.233 31.6176 106.091 31.5704C105.95 31.5232 105.856 31.5232 105.761 31.4288C105.667 31.3816 105.62 31.2872 105.573 31.1456C105.526 31.004 105.478 30.8623 105.478 30.6735V27.2749C105.478 27.086 105.526 26.8972 105.62 26.7556C105.714 26.614 105.808 26.5196 105.997 26.4252C106.233 26.2363 106.564 26.0948 106.989 26.0003C107.366 25.9059 107.791 25.8115 108.31 25.8115C109.16 25.8115 109.821 26.0003 110.293 26.3779C110.765 26.7556 111.001 27.2749 111.001 27.9357V31.5232C110.907 31.5232 110.812 31.5704 110.623 31.5704C110.482 31.5704 110.293 31.6176 110.104 31.6176C109.915 31.6176 109.774 31.6176 109.632 31.5704C109.49 31.5232 109.396 31.5232 109.302 31.4288C109.207 31.3816 109.16 31.2872 109.113 31.1456C109.066 31.0512 109.018 30.8623 109.018 30.6735V27.9829Z" fill="white"/>
<path d="M115.296 25.7646C115.721 25.7646 116.098 25.8119 116.476 25.9535C116.806 26.0479 117.137 26.1895 117.373 26.3783C117.515 26.4727 117.656 26.6143 117.75 26.7087C117.845 26.8503 117.892 26.992 117.892 27.228V31.1931C117.892 31.6179 117.798 31.9484 117.656 32.2316C117.515 32.5148 117.278 32.7508 117.042 32.9397C116.759 33.1285 116.476 33.2701 116.098 33.3645C115.768 33.459 115.39 33.5061 114.965 33.5061C114.257 33.5061 113.738 33.4117 113.313 33.2229C112.936 33.0341 112.699 32.7509 112.699 32.326C112.699 32.1372 112.747 31.9956 112.794 31.854C112.889 31.7124 112.936 31.6179 113.03 31.5707C113.266 31.7124 113.502 31.8067 113.785 31.9012C114.069 31.9956 114.352 32.0428 114.635 32.0428C115.059 32.0428 115.39 31.9956 115.626 31.854C115.862 31.7124 116.004 31.4764 116.004 31.1931V31.0043C115.673 31.1459 115.296 31.1931 114.871 31.1931C114.541 31.1931 114.21 31.1459 113.879 31.0515C113.549 30.9571 113.313 30.7683 113.077 30.5795C112.841 30.3435 112.652 30.1074 112.511 29.7298C112.369 29.3994 112.322 28.9745 112.322 28.5025C112.322 28.0304 112.416 27.6528 112.558 27.2752C112.699 26.8975 112.888 26.6615 113.171 26.4255C113.455 26.1895 113.738 26.0479 114.116 25.9062C114.493 25.8119 114.871 25.7646 115.296 25.7646ZM116.004 27.4168C115.957 27.3696 115.862 27.3696 115.768 27.3224C115.673 27.2752 115.532 27.2752 115.39 27.2752C115.012 27.2752 114.729 27.3696 114.541 27.6056C114.352 27.7944 114.257 28.1249 114.257 28.5025C114.257 28.9273 114.352 29.2577 114.541 29.4465C114.729 29.6354 114.965 29.7298 115.249 29.7298C115.579 29.7298 115.815 29.6354 116.004 29.4938V27.4168Z" fill="white"/>
<path d="M65.5904 44.033C65.5904 44.2691 65.5432 44.4579 65.4489 44.5523C65.354 44.6467 65.2125 44.7883 65.0711 44.8827C64.9768 44.9299 64.8347 45.0243 64.6932 45.0715C64.5518 45.1187 64.3631 45.1659 64.1739 45.2131C63.9853 45.2603 63.7967 45.3075 63.5603 45.3075C63.3717 45.3075 63.1359 45.3547 62.9467 45.3547C62.3802 45.3547 61.9086 45.2603 61.3893 45.1187C60.9171 44.9771 60.4921 44.7411 60.162 44.4579C59.8314 44.1746 59.5484 43.797 59.312 43.325C59.1234 42.9001 58.9819 42.3337 58.9819 41.7672C58.9819 41.1536 59.0763 40.5871 59.312 40.1151C59.5484 39.643 59.8313 39.2654 60.2092 38.9822C60.5864 38.6517 61.0115 38.4629 61.4836 38.2741C61.9558 38.1325 62.4273 38.0381 62.9467 38.0381C63.6546 38.0381 64.2211 38.1325 64.6461 38.3685C65.0711 38.6046 65.2597 38.8877 65.2597 39.2654C65.2597 39.4542 65.2125 39.643 65.1182 39.7847C65.0239 39.9262 64.8824 40.0207 64.7875 40.1151C64.5989 40.0207 64.3631 39.879 64.0796 39.7847C63.7967 39.6902 63.466 39.643 63.1359 39.643C62.4745 39.643 62.0029 39.8318 61.6251 40.2095C61.2472 40.5871 61.0586 41.0591 61.0586 41.72C61.0586 42.0504 61.1058 42.3809 61.2001 42.6169C61.2944 42.8529 61.4365 43.0889 61.6251 43.2305C61.8137 43.3721 62.0029 43.5138 62.2387 43.6081C62.4745 43.7026 62.7109 43.7498 62.9467 43.7498C63.1359 43.7498 63.2773 43.7498 63.3717 43.7026C63.5131 43.6554 63.6074 43.6554 63.6546 43.6081V42.5225H62.4273C62.3802 42.428 62.333 42.3337 62.2859 42.192C62.2387 42.0504 62.2387 41.9088 62.2387 41.7672C62.2387 41.484 62.2859 41.2952 62.4273 41.1536C62.5694 41.0119 62.7109 40.9648 62.8995 40.9648H64.8347C65.0711 40.9648 65.2597 41.0119 65.354 41.1536C65.4961 41.2952 65.5432 41.4368 65.5432 41.6728V44.033H65.5904Z" fill="white"/>
<path d="M69.1303 45.1184C69.036 45.1184 68.9417 45.1656 68.7531 45.1656C68.5638 45.1656 68.4224 45.2128 68.2337 45.2128C68.0451 45.2128 67.903 45.2128 67.7616 45.1656C67.6201 45.1184 67.5258 45.1184 67.4315 45.024C67.3366 44.9768 67.2894 44.8824 67.2423 44.7408C67.1951 44.5992 67.1479 44.4575 67.1479 44.2687V40.87C67.1479 40.6812 67.1951 40.5396 67.2423 40.398C67.2894 40.2564 67.3837 40.162 67.5258 40.0676C67.6673 39.9731 67.8087 39.8788 67.998 39.7843C68.1866 39.6899 68.3752 39.6428 68.5638 39.5955C68.7531 39.5483 68.9888 39.5011 69.2252 39.4539C69.461 39.4067 69.6496 39.4067 69.886 39.4067C70.2633 39.4067 70.5468 39.4539 70.7354 39.5955C70.9718 39.7371 71.0661 39.9732 71.0661 40.3036C71.0661 40.398 71.0661 40.4924 71.0189 40.634C70.9718 40.7756 70.9718 40.8229 70.924 40.9172C70.7826 40.9172 70.5939 40.9172 70.4525 40.9172C70.2633 40.9172 70.1218 40.9644 69.9803 40.9644C69.8388 40.9644 69.6496 41.0117 69.5082 41.0589C69.3667 41.106 69.2252 41.1533 69.1303 41.2005V45.1184Z" fill="white"/>
<path d="M77.8164 42.3809C77.8164 42.853 77.7221 43.2778 77.5806 43.6555C77.4385 44.0331 77.2499 44.3163 76.967 44.5995C76.6834 44.8356 76.4005 45.0244 76.0227 45.166C75.6448 45.3076 75.2676 45.3548 74.7954 45.3548C74.3704 45.3548 73.9454 45.3076 73.5681 45.166C73.1903 45.0244 72.9074 44.8356 72.6238 44.5995C72.3409 44.3635 72.1517 44.0331 72.0102 43.6555C71.8687 43.2778 71.7744 42.9002 71.7744 42.4281C71.7744 42.0033 71.8687 41.5784 72.0102 41.2008C72.1517 40.8232 72.3409 40.54 72.6238 40.2567C72.9074 40.0207 73.1903 39.7847 73.5681 39.6903C73.9454 39.5487 74.3232 39.5015 74.7954 39.5015C75.2204 39.5015 75.6448 39.5487 76.0227 39.6903C76.4005 39.8319 76.6834 40.0207 76.967 40.304C77.2499 40.54 77.4385 40.8704 77.5806 41.248C77.7221 41.6257 77.8164 41.9089 77.8164 42.3809ZM73.8511 42.3809C73.8511 42.853 73.9454 43.1834 74.1346 43.4667C74.3232 43.7027 74.559 43.8443 74.8897 43.8443C75.2204 43.8443 75.4562 43.7027 75.6448 43.4667C75.834 43.2306 75.8812 42.853 75.8812 42.4281C75.8812 41.9561 75.7869 41.6256 75.5977 41.3896C75.409 41.1536 75.1727 41.012 74.8426 41.012C74.5119 41.012 74.2761 41.1536 74.0875 41.3896C73.9454 41.5784 73.8511 41.9089 73.8511 42.3809Z" fill="white"/>
<path d="M79.2319 39.6901C79.3262 39.6901 79.4206 39.6429 79.6098 39.6429C79.7984 39.6429 79.9399 39.5957 80.1291 39.5957C80.3177 39.5957 80.4592 39.5957 80.6007 39.6429C80.7427 39.6901 80.837 39.6901 80.9313 39.7845C81.0257 39.8317 81.0728 39.9261 81.12 40.0677C81.1671 40.1621 81.2143 40.351 81.2143 40.5398V42.9944C81.2143 43.3248 81.3092 43.5136 81.4507 43.6553C81.5921 43.7969 81.8279 43.8441 82.1115 43.8441C82.3001 43.8441 82.4421 43.8441 82.5365 43.7969C82.6308 43.7496 82.7251 43.7496 82.7722 43.7024V39.6901C82.8666 39.6901 82.9609 39.6429 83.1501 39.6429C83.3387 39.6429 83.4802 39.5957 83.6694 39.5957C83.858 39.5957 83.9995 39.5957 84.141 39.6429C84.283 39.6901 84.3773 39.6901 84.4717 39.7845C84.566 39.8317 84.6131 39.9261 84.6603 40.0677C84.7074 40.1621 84.7546 40.351 84.7546 40.5398V43.9384C84.7546 44.3161 84.6131 44.5993 84.283 44.7882C83.9995 44.977 83.7166 45.0714 83.3387 45.1658C82.9609 45.2602 82.5836 45.3074 82.1586 45.3074C81.7336 45.3074 81.3564 45.2602 81.0257 45.1658C80.6956 45.0714 80.3649 44.9297 80.1291 44.7409C79.8927 44.5521 79.7041 44.3161 79.5626 43.9857C79.4206 43.7024 79.3734 43.3248 79.3734 42.9V39.6901H79.2319Z" fill="white"/>
<path d="M88.8152 39.4536C89.2873 39.4536 89.7117 39.5008 90.0896 39.6425C90.4674 39.7369 90.7975 39.9257 91.081 40.1617C91.364 40.3977 91.6004 40.7281 91.7418 41.0586C91.8833 41.389 91.9776 41.861 91.9776 42.3803C91.9776 42.8523 91.9305 43.2772 91.789 43.6548C91.6475 44.0324 91.4583 44.3157 91.2225 44.5517C90.9867 44.7877 90.656 44.9765 90.3259 45.1182C89.9953 45.2598 89.5703 45.307 89.1458 45.307C88.8152 45.307 88.5316 45.2598 88.2487 45.1653V47.0535C88.1544 47.0535 88.0601 47.1007 87.8708 47.1479C87.6822 47.1951 87.5407 47.1951 87.3521 47.1951C87.1629 47.1951 87.0214 47.1951 86.88 47.1479C86.7379 47.1007 86.6436 47.1007 86.5493 47.0063C86.455 46.9591 86.4078 46.8647 86.3606 46.723C86.3135 46.5814 86.3135 46.4399 86.3135 46.251V40.7754C86.3135 40.5866 86.3606 40.3977 86.455 40.2561C86.5493 40.1145 86.6436 40.0201 86.8328 39.9257C87.0686 39.7841 87.3515 39.6425 87.7294 39.548C87.9657 39.5008 88.3902 39.4536 88.8152 39.4536ZM88.8152 43.7964C89.6174 43.7964 89.9953 43.3244 89.9953 42.3803C89.9953 41.9083 89.9009 41.5306 89.7123 41.2946C89.5231 41.0586 89.2402 40.9642 88.8623 40.9642C88.7208 40.9642 88.5794 40.9642 88.4845 41.0114C88.3901 41.0586 88.2487 41.1058 88.2015 41.153V43.6548C88.2958 43.702 88.3901 43.7492 88.4845 43.7492C88.5794 43.7492 88.7208 43.7964 88.8152 43.7964Z" fill="white"/>
</svg>
