<svg width="231" height="40" viewBox="0 0 231 40" fill="none" xmlns="http://www.w3.org/2000/svg">
<path d="M70.423 24.8169C70.423 27.8536 67.5958 30.0525 63.6167 30.0525H54.2974V11.2043L63.3026 11.2043C67.1769 11.2043 69.8995 13.2986 69.8995 16.2305C69.8995 18.2201 68.8523 19.4766 67.2817 20.2096C68.957 20.8379 70.423 22.5132 70.423 24.8169ZM58.3811 14.6598V18.7436H63.1979C64.6639 18.7436 65.6063 17.9059 65.6063 16.7541C65.6063 15.6023 64.5591 14.6598 63.1979 14.6598H58.3811ZM63.6167 26.597C65.1874 26.597 66.3392 25.6546 66.3392 24.2934C66.3392 22.9321 65.2921 21.9897 63.6167 21.9897H58.3811V26.597H63.6167Z" fill="white"/>
<path d="M85.8157 29.9478L79.3236 22.5133H78.2765V29.9478H74.088V11.2043H78.2765V18.4295H79.3236L85.6063 11.2043H90.5278L82.6744 20.2096L91.2608 29.9478L85.8157 29.9478Z" fill="white"/>
<path d="M91.2608 20.6284C91.2608 14.9739 95.4493 10.8901 101.313 10.8901C107.177 10.8901 111.366 14.9739 111.366 20.6284C111.366 26.2828 107.177 30.3666 101.313 30.3666C95.4493 30.3666 91.2608 26.2828 91.2608 20.6284ZM106.968 20.6284C106.968 17.0681 104.664 14.6598 101.313 14.6598C97.9624 14.6598 95.6587 17.0681 95.6587 20.6284C95.6587 24.1886 97.9624 26.5969 101.313 26.5969C104.664 26.5969 106.968 24.1886 106.968 20.6284Z" fill="white"/>
<path d="M127.386 11.2043H131.575V29.9478L127.386 29.9478V22.4085H119.009V29.9478H114.821V11.2043H119.009V18.6389H127.386V11.2043Z" fill="white"/>
<path d="M140.58 29.9478V14.974H134.088V11.2043L151.156 11.2043V14.974H144.664V29.9478H140.58Z" fill="white"/>
<path d="M169.166 19.4765V29.9477L166.13 29.9477L165.292 27.0158C164.35 28.5865 162.36 30.3666 159.324 30.3666C155.554 30.3666 152.831 27.8535 152.831 24.398C152.831 20.9425 155.554 18.5341 161.104 18.5341H165.187C164.978 16.1257 163.721 14.4503 161.418 14.4503C159.533 14.4503 158.276 15.4975 157.648 16.6493L153.878 16.021C154.821 12.775 158.067 10.8901 161.627 10.8901C166.235 10.8901 169.166 14.0315 169.166 19.4765ZM165.083 21.7802H161.208C158.067 21.7802 157.02 22.8273 157.02 24.1886C157.02 25.7592 158.276 26.8064 160.371 26.8064C163.093 26.8064 165.083 24.8168 165.083 21.7802Z" fill="white"/>
<path d="M185.292 29.9478L178.8 22.5133H177.753V29.9478H173.564V11.2043H177.753V18.4295H178.8L185.083 11.2043H190.004L182.151 20.2096L190.737 29.9478L185.292 29.9478Z" fill="white"/>
<path d="M198.277 29.9478V14.974H191.784V11.2043L208.852 11.2043V14.974H202.36V29.9478H198.277Z" fill="white"/>
<path d="M229.795 21.7802H214.716C215.135 24.7121 217.229 26.5969 220.371 26.5969C222.57 26.5969 224.245 25.6545 225.187 24.2933L229.062 24.9216C227.7 28.4818 224.036 30.3666 220.057 30.3666C214.402 30.3666 210.318 26.2828 210.318 20.6284C210.318 14.9739 214.402 10.8901 220.057 10.8901C225.711 10.8901 229.795 14.9739 229.795 20.4189C229.899 20.9425 229.795 21.3613 229.795 21.7802ZM215.03 18.5341H225.397C224.664 16.2304 222.779 14.5551 220.161 14.5551C217.648 14.4503 215.659 16.1257 215.03 18.5341Z" fill="white"/>
<path fill-rule="evenodd" clip-rule="evenodd" d="M3.706 2.81177C0.894226 5.62355 0.894226 10.149 0.894226 19.2L0.894226 20.8C0.894226 29.851 0.894226 34.3765 3.706 37.1882C6.51778 40 11.0433 40 20.0942 40H21.6942C30.7452 40 35.2707 40 38.0825 37.1882C40.8942 34.3765 40.8942 29.851 40.8942 20.8V20.8V19.2V19.2C40.8942 10.149 40.8942 5.62355 38.0825 2.81177C35.2707 0 30.7452 0 21.6942 0L20.0942 0C11.0433 0 6.51778 0 3.706 2.81177ZM7.64434 12.1668C7.861 22.5668 13.061 28.8168 22.1776 28.8168H22.6944V22.8667C26.0444 23.2001 28.5775 25.6501 29.5942 28.8168H34.3277C33.0277 24.0834 29.6108 21.4667 27.4775 20.4667C29.6108 19.2334 32.6109 16.2334 33.3275 12.1668H29.0274C28.0941 15.4668 25.3277 18.4667 22.6944 18.7501L22.6944 12.1668L18.3943 12.1668L18.3943 23.7001C15.7276 23.0334 12.361 19.8001 12.211 12.1668L7.64434 12.1668Z" fill="white"/>
</svg>
