<?xml version="1.0" standalone="no"?>
  <!DOCTYPE svg PUBLIC "-//W3C//DTD SVG 1.1//EN" "http://www.w3.org/Graphics/SVG/1.1/DTD/svg11.dtd" >
  <svg>
  <metadata>
  Created by font-carrier
  </metadata>
  <defs>
  <font id="GraphikLCWeb-Medium" horiz-adv-x="1168" vert-adv-y="1168" >
    <font-face
      
      font-family="Graphik LC Web Medium"
      
      font-weight="400"
      
      font-stretch="normal"
      
      units-per-em="1000"
      
      ascent="818"
      
      descent="-182"
      
    />
      <missing-glyph />

      

      
      <glyph glyph-name="uni21" unicode="&#x21;" d="M152-7Q119-7 95.50 15.50Q72 38 72 70Q72 103 95.50 125.50Q119 148 152 148Q186 148 209.50 125.50Q233 103 233 70Q233 38 209.50 15.50Q186-7 152-7M86 715L221 715L202 215L104 215L86 715Z"  horiz-adv-x="309" vert-adv-y="1000"  />

      
      <glyph glyph-name="uni22" unicode="&#x22;" d="M53 715L174 715L157 458L70 458L53 715M235 715L356 715L339 458L253 458L235 715Z"  horiz-adv-x="413" vert-adv-y="1000"  />

      
      <glyph glyph-name="uni23" unicode="&#x23;" d="M283 266L200 266L176 99L87 99L111 266L34 266L34 364L126 364L142 474L60 474L60 569L156 569L178 715L266 715L245 569L328 569L350 715L439 715L417 569L498 569L498 474L403 474L387 364L472 364L472 266L372 266L348 99L259 99L283 266M215 364L298 364L314 474L231 474L215 364Z"  horiz-adv-x="536" vert-adv-y="1000"  />

      
      <glyph glyph-name="uni24" unicode="&#x24;" d="M286-9Q222-5 176.50 14.50Q131 34 101 65Q71 96 56 136Q41 176 37 221L161 221Q164 197 170.50 175Q177 153 191 135.50Q205 118 227.50 105.50Q250 93 286 89L286 314Q230 323 188 338.50Q146 354 118 378.50Q90 403 75.50 437.50Q61 472 61 520Q61 562 77 597.50Q93 633 122.50 660Q152 687 193.50 703.50Q235 720 286 723L286 813L353 813L353 722Q450 713 507.50 663Q565 613 574 519L456 519Q448 565 423.50 591Q399 617 353 625L353 420Q408 411 451.50 396Q495 381 525 357Q555 333 571 297.50Q587 262 587 211Q587 167 571 128.50Q555 90 525 61Q495 32 451.50 13.50Q408-5 353-9L353-135L286-135L286-9M464 199Q464 220 459 236.50Q454 253 441 265.50Q428 278 407 287Q386 296 353 303L353 89Q404 96 434 125Q464 154 464 199M179 531Q179 511 183.50 495.50Q188 480 199.50 468Q211 456 232 447Q253 438 286 431L286 628Q234 622 206.50 595.50Q179 569 179 531Z"  horiz-adv-x="639" vert-adv-y="1000"  />

      
      <glyph glyph-name="uni25" unicode="&#x25;" d="M205 456Q240 456 260.50 480Q281 504 281 549Q281 593 260.50 617.50Q240 642 205 642Q170 642 149 618Q128 594 128 549Q128 503 149 479.50Q170 456 205 456M204 375Q167 375 135.50 388Q104 401 80.50 424.50Q57 448 43.50 479.50Q30 511 30 548Q30 585 44 617Q58 649 81.50 672.50Q105 696 137 709Q169 722 205 722Q241 722 272.50 709Q304 696 327.50 673.50Q351 651 364.50 619Q378 587 378 550Q378 512 364.50 480Q351 448 327.50 424.50Q304 401 272.50 388Q241 375 204 375M589 715L673 715L213 0L128 0L589 715M597 71Q632 71 652.50 95Q673 119 673 164Q673 208 652.50 232.50Q632 257 597 257Q562 257 541 233Q520 209 520 164Q520 118 541 94.50Q562 71 597 71M596-10Q559-10 527.50 3Q496 16 472.50 39.50Q449 63 436 94.50Q423 126 423 163Q423 200 436.50 232Q450 264 474 287.50Q498 311 529.50 324Q561 337 597 337Q633 337 664.50 324Q696 311 720 288.50Q744 266 757.50 234Q771 202 771 165Q771 127 757.50 95Q744 63 720.50 39.50Q697 16 665 3Q633-10 596-10Z"  horiz-adv-x="805" vert-adv-y="1000"  />

      
      <glyph glyph-name="uni26" unicode="&#x26;" d="M568 146L688 0L535 0L475 73Q441 38 394.50 14.50Q348-9 279-9Q227-9 183.50 5.50Q140 20 109 46.50Q78 73 61 110.50Q44 148 44 195Q44 234 55.50 266Q67 298 88.50 323.50Q110 349 139.50 369.50Q169 390 205 407Q149 481 149 548Q149 590 165 622.50Q181 655 208.50 677Q236 699 271.50 710Q307 721 346 721Q383 721 415.50 710.50Q448 700 472.50 679.50Q497 659 511.50 630.50Q526 602 526 566Q526 503 486.50 458.50Q447 414 377 384L503 230L576 370L685 370L568 146M293 91Q363 91 413 150L261 335Q221 315 195.50 286.50Q170 258 170 208Q170 154 202 122.50Q234 91 293 91M267 547Q267 522 281 497.50Q295 473 321 442Q372 465 394 492Q416 519 416 561Q416 592 397 612Q378 632 346 632Q313 632 290 611Q267 590 267 547Z"  horiz-adv-x="720" vert-adv-y="1000"  />

      
      <glyph glyph-name="uni27" unicode="&#x27;" d="M53 715L176 715L159 458L70 458L53 715Z"  horiz-adv-x="233" vert-adv-y="1000"  />

      
      <glyph glyph-name="uni28" unicode="&#x28;" d="M213-148Q181-110 151-62.50Q121-15 98 42.50Q75 100 61 167.50Q47 235 47 313Q47 391 61 458.50Q75 526 98 583.50Q121 641 151 688.50Q181 736 213 774L319 774Q289 733 261.50 685.50Q234 638 213 581Q192 524 179.50 457.50Q167 391 167 313Q167 235 179.50 168.50Q192 102 213 45Q234-12 261.50-60Q289-108 319-148L213-148L213-148Z"  horiz-adv-x="339" vert-adv-y="1000"  />

      
      <glyph glyph-name="uni29" unicode="&#x29;" d="M17-148Q47-108 74.50-60Q102-12 122.50 45Q143 102 155.50 168.50Q168 235 168 313Q168 391 155.50 457.50Q143 524 122.50 581Q102 638 74.50 685.50Q47 733 17 774L122 774Q154 736 184 688.50Q214 641 237 583.50Q260 526 274 458.50Q288 391 288 313Q288 235 274 167.50Q260 100 237 42.50Q214-15 184-62.50Q154-110 122-148L17-148L17-148Z"  horiz-adv-x="339" vert-adv-y="1000"  />

      
      <glyph glyph-name="uni2a" unicode="&#x2a;" d="M72 449L157 551L37 574L64 663L178 613L165 743L265 743L252 613L366 663L392 574L271 551L356 449L280 394L213 512L149 394L72 449Z"  horiz-adv-x="433" vert-adv-y="1000"  />

      
      <glyph glyph-name="uni2b" unicode="&#x2b;" d="M219 294L37 294L37 388L219 388L219 586L320 586L320 388L503 388L503 294L320 294L320 96L219 96L219 294Z"  horiz-adv-x="543" vert-adv-y="1000"  />

      
      <glyph glyph-name="uni2c" unicode="&#x2c;" d="M28-90L119 147L234 101L103-123L28-90Z"  horiz-adv-x="296" vert-adv-y="1000"  />

      
      <glyph glyph-name="uni2d" unicode="&#x2d;" d="M56 329L296 329L296 229L56 229L56 329Z"  horiz-adv-x="357" vert-adv-y="1000"  />

      
      <glyph glyph-name="uni2e" unicode="&#x2e;" d="M144-7Q111-7 88 15.50Q65 38 65 71Q65 104 88 127Q111 150 144 150Q178 150 201 127Q224 104 224 71Q224 38 201 15.50Q178-7 144-7Z"  horiz-adv-x="293" vert-adv-y="1000"  />

      
      <glyph glyph-name="uni2f" unicode="&#x2f;" d="M295 776L398 776L96-148L-6-148L295 776Z"  horiz-adv-x="419" vert-adv-y="1000"  />

      
      <glyph glyph-name="uni30" unicode="&#x30;" d="M354 96Q437 96 477 158Q517 220 517 342L517 377Q517 492 475 556.50Q433 621 352 621Q271 621 228 558.50Q185 496 185 376L185 340Q185 218 229 157Q273 96 354 96M351-10Q283-10 227.50 14.50Q172 39 133 84Q94 129 72.50 193.50Q51 258 51 339L51 375Q51 456 72.50 521Q94 586 133.50 631.50Q173 677 228 701Q283 725 351 725Q419 725 474 701Q529 677 568 632Q607 587 628.50 523Q650 459 650 378L650 342Q650 261 629.50 196Q609 131 570.50 85.50Q532 40 476.50 15Q421-10 351-10Z"  horiz-adv-x="705" vert-adv-y="1000"  />

      
      <glyph glyph-name="uni31" unicode="&#x31;" d="M183 583L32 480L32 597L198 715L317 715L317 0L183 0L183 583Z"  horiz-adv-x="423" vert-adv-y="1000"  />

      
      <glyph glyph-name="uni32" unicode="&#x32;" d="M15 24L285 309Q336 363 365 412Q394 461 394 512Q394 563 366.50 592Q339 621 287 621Q233 621 200.50 588Q168 555 159 479L37 479Q44 597 110.50 661Q177 725 291 725Q346 725 390 709.50Q434 694 464.50 666.50Q495 639 511 600Q527 561 527 514Q527 444 489 382Q451 320 387 258L228 103L532 103L532 0L15 0L15 24Z"  horiz-adv-x="582" vert-adv-y="1000"  />

      
      <glyph glyph-name="uni33" unicode="&#x33;" d="M304-10Q240-10 191 7Q142 24 108 54.50Q74 85 55.50 127.50Q37 170 35 221L156 221Q161 165 195 127.50Q229 90 301 90Q371 90 404 121Q437 152 437 206Q437 323 308 323L253 323L253 418L304 418Q366 418 394.50 445Q423 472 423 523Q423 567 395.50 595.50Q368 624 312 624Q255 624 220 592Q185 560 179 506L61 506Q64 552 82 592.50Q100 633 132.50 662Q165 691 211 708Q257 725 314 725Q370 725 414 710Q458 695 488 669Q518 643 534 608Q550 573 550 533Q550 472 518 434.50Q486 397 434 377Q497 363 534.50 319.50Q572 276 572 204Q572 154 553 114.50Q534 75 499.50 47.50Q465 20 415 5Q365-10 304-10Z"  horiz-adv-x="627" vert-adv-y="1000"  />

      
      <glyph glyph-name="uni34" unicode="&#x34;" d="M385 145L31 145L31 192L347 715L514 715L514 244L610 244L610 145L514 145L514 0L385 0L385 145M387 244L387 614L173 244L387 244Z"  horiz-adv-x="645" vert-adv-y="1000"  />

      
      <glyph glyph-name="uni35" unicode="&#x35;" d="M291-10Q228-10 181.50 6.50Q135 23 103.50 51.50Q72 80 55.50 119.50Q39 159 36 205L160 205Q164 180 172 159.50Q180 139 194.50 124Q209 109 232 101Q255 93 290 93Q352 93 385.50 132.50Q419 172 419 238Q419 303 384.50 341Q350 379 290 379Q235 379 200 362Q165 345 141 317L73 317L79 715L513 715L513 610L181 610L180 416Q201 440 239 458Q277 476 334 476Q382 476 422.50 459.50Q463 443 492.50 412Q522 381 538 336.50Q554 292 554 236Q554 179 534.50 133.50Q515 88 480 56Q445 24 397 7Q349-10 291-10Z"  horiz-adv-x="608" vert-adv-y="1000"  />

      
      <glyph glyph-name="uni36" unicode="&#x36;" d="M331-10Q253-10 199.50 16Q146 42 113 87Q80 132 65.50 193Q51 254 51 325L51 342Q51 435 73 506.50Q95 578 134.50 626.50Q174 675 228.50 700Q283 725 347 725Q445 725 506 677.50Q567 630 580 536L456 536Q446 577 422 599.50Q398 622 346 622Q274 622 230 559.50Q186 497 183 374Q208 416 252 441Q296 466 360 466Q411 466 454.50 449Q498 432 529 401.50Q560 371 577.50 328Q595 285 595 233Q595 179 576.50 134Q558 89 523.50 57Q489 25 440.50 7.50Q392-10 331-10M329 88Q389 88 426 127Q463 166 463 230Q463 295 427 334.50Q391 374 329 374Q299 374 273.50 364Q248 354 229.50 336Q211 318 201 293Q191 268 191 238Q191 166 229.50 127Q268 88 329 88Z"  horiz-adv-x="645" vert-adv-y="1000"  />

      
      <glyph glyph-name="uni37" unicode="&#x37;" d="M362 607L29 607L29 715L529 715L529 699L269 0L132 0L362 607Z"  horiz-adv-x="549" vert-adv-y="1000"  />

      
      <glyph glyph-name="uni38" unicode="&#x38;" d="M314-10Q261-10 212.50 3.50Q164 17 127 43.50Q90 70 68 109.50Q46 149 46 202Q46 271 83 317Q120 363 180 384Q130 404 102 441.50Q74 479 74 533Q74 578 94 614Q114 650 147.50 674.50Q181 699 224 712Q267 725 314 725Q362 725 405.50 712Q449 699 481.50 674.50Q514 650 533.50 614.50Q553 579 553 535Q553 480 524 443Q495 406 447 385Q510 362 545 317Q580 272 580 206Q580 153 558.50 112.50Q537 72 501 45Q465 18 416.50 4Q368-10 314-10M314 90Q371 90 409 122Q447 154 447 214Q447 244 437 266.50Q427 289 409 304.50Q391 320 367 328Q343 336 315 336Q288 336 263.50 328Q239 320 220.50 304.50Q202 289 191 266Q180 243 180 213Q180 183 191 160Q202 137 220 121.50Q238 106 262.50 98Q287 90 314 90M316 423Q365 423 396 450.50Q427 478 427 527Q427 573 394.50 601Q362 629 314 629Q266 629 233.50 601.50Q201 574 201 526Q201 502 210 482.50Q219 463 235 450Q251 437 272 430Q293 423 316 423Z"  horiz-adv-x="631" vert-adv-y="1000"  />

      
      <glyph glyph-name="uni39" unicode="&#x39;" d="M302-9Q192-9 128.50 42Q65 93 52 186L177 186Q187 144 214.50 119Q242 94 300 94Q377 94 417 155Q457 216 459 339Q434 298 390.50 273.50Q347 249 283 249Q231 249 187.50 265.50Q144 282 112.50 312Q81 342 63.50 385Q46 428 46 481Q46 536 64.50 581Q83 626 117.50 658Q152 690 201 708Q250 726 311 726Q381 726 433.50 703Q486 680 520.50 637Q555 594 572.50 532.50Q590 471 590 394L590 357Q590 180 515.50 85.50Q441-9 302-9M311 342Q372 342 410.50 378.50Q449 415 449 475Q449 547 410.50 587Q372 627 310 627Q250 627 213.50 588Q177 549 177 485Q177 420 213 381Q249 342 311 342Z"  horiz-adv-x="646" vert-adv-y="1000"  />

      
      <glyph glyph-name="uni3a" unicode="&#x3a;" d="M148-7Q115-7 92 15.50Q69 38 69 71Q69 104 92 127Q115 150 148 150Q182 150 205 127Q228 104 228 71Q228 38 205 15.50Q182-7 148-7M148 285Q115 285 92 308Q69 331 69 364Q69 397 92 419.50Q115 442 148 442Q182 442 205 419.50Q228 397 228 364Q228 331 205 308Q182 285 148 285Z"  horiz-adv-x="301" vert-adv-y="1000"  />

      
      <glyph glyph-name="uni3b" unicode="&#x3b;" d="M17-90L108 147L222 101L91-123L17-90M163 285Q129 285 106 308Q83 331 83 364Q83 397 106 419.50Q129 442 163 442Q196 442 219.50 419.50Q243 397 243 364Q243 331 219.50 308Q196 285 163 285Z"  horiz-adv-x="307" vert-adv-y="1000"  />

      
      <glyph glyph-name="uni3c" unicode="&#x3c;" d="M49 309L49 335L447 563L447 451L213 323L447 192L447 81L49 309Z"  horiz-adv-x="511" vert-adv-y="1000"  />

      
      <glyph glyph-name="uni3d" unicode="&#x3d;" d="M39 276L473 276L473 185L39 185L39 276M39 463L473 463L473 371L39 371L39 463Z"  horiz-adv-x="517" vert-adv-y="1000"  />

      
      <glyph glyph-name="uni3e" unicode="&#x3e;" d="M60 194L294 322L60 453L60 564L459 335L459 310L60 81L60 194Z"  horiz-adv-x="511" vert-adv-y="1000"  />

      
      <glyph glyph-name="uni3f" unicode="&#x3f;" d="M175 253Q175 283 184 307Q193 331 207.50 352Q222 373 240 391.50Q258 410 276 428Q304 456 325 482.50Q346 509 346 541Q346 579 324.50 602Q303 625 257 625Q210 625 180 594.50Q150 564 145 512L29 512Q32 561 50 600.50Q68 640 98.50 667.50Q129 695 171 710Q213 725 263 725Q317 725 356.50 711.50Q396 698 422 674Q448 650 460.50 618Q473 586 473 550Q473 523 465.50 501Q458 479 446 459.50Q434 440 418 422.50Q402 405 385 389Q367 372 350 355.50Q333 339 319.50 322Q306 305 297 286.50Q288 268 287 247L287 215L175 215L175 253M230-7Q196-7 172 15.50Q148 38 148 70Q148 103 172 125.50Q196 148 230 148Q263 148 286.50 125.50Q310 103 310 70Q310 38 286.50 15.50Q263-7 230-7Z"  horiz-adv-x="520" vert-adv-y="1000"  />

      
      <glyph glyph-name="uni40" unicode="&#x40;" d="M460-151Q359-151 280.50-118Q202-85 148.50-29Q95 27 67 101Q39 175 39 257Q39 351 74.50 430.50Q110 510 170 567.50Q230 625 309 657Q388 689 475 689Q564 689 638.50 661.50Q713 634 766.50 585.50Q820 537 849.50 470Q879 403 879 324Q879 252 860.50 202Q842 152 813 120.50Q784 89 749 75Q714 61 680 61Q617 61 588.50 83.50Q560 106 552 145Q531 106 494 81Q457 56 409 56Q335 56 291 103.50Q247 151 247 235Q247 286 262.50 329Q278 372 304.50 403Q331 434 367 451Q403 468 444 468Q495 468 522.50 448.50Q550 429 561 403L568 460L676 460L645 200Q634 126 691 126Q712 126 732 137Q752 148 768 172Q784 196 793.50 233Q803 270 803 323Q803 390 780.50 445Q758 500 716 539.50Q674 579 613 600.50Q552 622 475 622Q399 622 334 595.50Q269 569 221 521Q173 473 146 406Q119 339 119 257Q119 188 140.50 126Q162 64 205 17.50Q248-29 312-56.50Q376-84 461-84Q546-84 604-61Q662-38 705 0L788 0Q767-34 733.50-61.50Q700-89 657.50-109Q615-129 565-140Q515-151 460-151M439 141Q460 141 479.50 150.50Q499 160 514 179Q529 198 538.50 224.50Q548 251 548 286Q548 334 525 358Q502 382 459 382Q417 382 387.50 344Q358 306 358 238Q358 193 380 167Q402 141 439 141Z"  horiz-adv-x="921" vert-adv-y="1000"  />

      
      <glyph glyph-name="uni41" unicode="&#x41;" d="M266 715L440 715L676 0L538 0L481 177L208 177L152 0L27 0L266 715M239 274L450 274L345 606L239 274Z"  horiz-adv-x="707" vert-adv-y="1000"  />

      
      <glyph glyph-name="uni42" unicode="&#x42;" d="M82 715L338 715Q449 715 510.50 671Q572 627 572 529L572 525Q572 471 546 431.50Q520 392 459 373Q532 357 567 316.50Q602 276 602 204L602 200Q602 100 538.50 50Q475 0 357 0L82 0L82 715M341 95Q408 95 439.50 124Q471 153 471 209L471 213Q471 269 438.50 296.50Q406 324 332 324L212 324L212 95L341 95M322 414Q388 414 416 439Q444 464 444 519L444 523Q444 574 414 597Q384 620 320 620L212 620L212 414L322 414Z"  horiz-adv-x="649" vert-adv-y="1000"  />

      
      <glyph glyph-name="uni43" unicode="&#x43;" d="M395-10Q311-10 246 16Q181 42 136.50 89Q92 136 69 203Q46 270 46 353L46 361Q46 442 72 509Q98 576 144.50 624Q191 672 254.50 699Q318 726 393 726Q454 726 507.50 710.50Q561 695 602 664Q643 633 668.50 586Q694 539 700 476L565 476Q554 548 513 584Q472 620 394 620Q347 620 308.50 602Q270 584 243 551Q216 518 201 470Q186 422 186 362L186 354Q186 233 240.50 165.50Q295 98 395 98Q470 98 518.50 135.50Q567 173 578 249L708 249Q700 184 674 135.50Q648 87 607.50 55Q567 23 513 6.50Q459-10 395-10Z"  horiz-adv-x="745" vert-adv-y="1000"  />

      
      <glyph glyph-name="uni44" unicode="&#x44;" d="M293 105Q414 105 472 170.50Q530 236 530 355L530 363Q530 421 516.50 466.50Q503 512 474 544Q445 576 400 593Q355 610 292 610L215 610L215 105L293 105M82 715L299 715Q392 715 461.50 689.50Q531 664 577 618Q623 572 646 507.50Q669 443 669 365L669 356Q669 278 646 212.50Q623 147 577 100Q531 53 461 26.50Q391 0 297 0L82 0L82 715Z"  horiz-adv-x="718" vert-adv-y="1000"  />

      
      <glyph glyph-name="uni45" unicode="&#x45;" d="M82 715L529 715L529 610L215 610L215 414L467 414L467 314L215 314L215 105L546 105L546 0L82 0L82 715Z"  horiz-adv-x="588" vert-adv-y="1000"  />

      
      <glyph glyph-name="uni46" unicode="&#x46;" d="M82 715L525 715L525 609L215 609L215 396L459 396L459 293L215 293L215 0L82 0L82 715Z"  horiz-adv-x="563" vert-adv-y="1000"  />

      
      <glyph glyph-name="uni47" unicode="&#x47;" d="M403-10Q317-10 250.50 17Q184 44 138.50 92.50Q93 141 69.50 207.50Q46 274 46 353L46 361Q46 441 72.50 508Q99 575 146 623.50Q193 672 259 699Q325 726 403 726Q460 726 513 712.50Q566 699 607.50 669.50Q649 640 676.50 594.50Q704 549 711 485L578 485Q566 557 520.50 589Q475 621 405 621Q352 621 311 602.50Q270 584 242 549.50Q214 515 199 467Q184 419 184 360L184 352Q184 295 197.50 247.50Q211 200 238.50 166Q266 132 307.50 113Q349 94 405 94Q455 94 491 108Q527 122 550 146.50Q573 171 584.50 204Q596 237 598 274L418 274L418 374L729 374L729 308Q729 234 706.50 175Q684 116 642 75Q600 34 539.50 12Q479-10 403-10Z"  horiz-adv-x="779" vert-adv-y="1000"  />

      
      <glyph glyph-name="uni48" unicode="&#x48;" d="M82 715L215 715L215 411L536 411L536 715L670 715L670 0L536 0L536 304L215 304L215 0L82 0L82 715Z"  horiz-adv-x="755" vert-adv-y="1000"  />

      
      <glyph glyph-name="uni49" unicode="&#x49;" d="M86 715L220 715L220 0L86 0L86 715Z"  horiz-adv-x="311" vert-adv-y="1000"  />

      
      <glyph glyph-name="uni4a" unicode="&#x4a;" d="M148-9Q103-9 78-3Q53 3 36 12L36 116Q55 108 75.50 103Q96 98 128 98Q177 98 206 126Q235 154 235 220L235 715L369 715L369 217Q369 159 353 116.50Q337 74 308 46Q279 18 238 4.50Q197-9 148-9Z"  horiz-adv-x="447" vert-adv-y="1000"  />

      
      <glyph glyph-name="uni4b" unicode="&#x4b;" d="M82 715L215 715L215 391L489 716L632 716L336 374L647 0L490 0L215 334L215 0L82 0L82 715Z"  horiz-adv-x="663" vert-adv-y="1000"  />

      
      <glyph glyph-name="uni4c" unicode="&#x4c;" d="M82 715L215 715L215 106L520 106L520 0L82 0L82 715Z"  horiz-adv-x="555" vert-adv-y="1000"  />

      
      <glyph glyph-name="uni4d" unicode="&#x4d;" d="M82 715L260 715L448 227L632 715L808 715L808 0L675 0L675 540L462 0L419 0L202 540L202 0L82 0L82 715Z"  horiz-adv-x="894" vert-adv-y="1000"  />

      
      <glyph glyph-name="uni4e" unicode="&#x4e;" d="M82 715L241 715L542 198L542 715L663 715L663 0L525 0L203 548L203 0L82 0L82 715Z"  horiz-adv-x="749" vert-adv-y="1000"  />

      
      <glyph glyph-name="uni4f" unicode="&#x4f;" d="M410 97Q461 97 501.50 115.50Q542 134 570.50 168Q599 202 614.50 249.50Q630 297 630 355L630 363Q630 418 615 465Q600 512 571.50 546Q543 580 501.50 599.50Q460 619 408 619Q355 619 314 600.50Q273 582 244 548Q215 514 200 467Q185 420 185 362L185 354Q185 295 202 248Q219 201 249 167Q279 133 320 115Q361 97 410 97M408-10Q326-10 259 17.50Q192 45 145 94Q98 143 72 209.50Q46 276 46 353L46 361Q46 439 72.50 506Q99 573 147 621.50Q195 670 261.50 697.50Q328 725 408 725Q488 725 554 698Q620 671 667.50 623Q715 575 741.50 509Q768 443 768 364L768 356Q768 278 742.50 211Q717 144 669.50 95Q622 46 555.50 18Q489-10 408-10Z"  horiz-adv-x="818" vert-adv-y="1000"  />

      
      <glyph glyph-name="uni50" unicode="&#x50;" d="M82 715L312 715Q372 715 421 701.50Q470 688 504.50 660.50Q539 633 558 591.50Q577 550 577 494L577 490Q577 433 557.50 392Q538 351 503.50 324.50Q469 298 420.50 285Q372 272 315 272L215 272L215 0L82 0L82 715M312 368Q378 368 412.50 399Q447 430 447 490L447 494Q447 558 411.50 585Q376 612 312 612L215 612L215 368L312 368Z"  horiz-adv-x="613" vert-adv-y="1000"  />

      
      <glyph glyph-name="uni51" unicode="&#x51;" d="M546 14Q515 3 480.50-3.50Q446-10 408-10Q326-10 259 17.50Q192 45 145 94Q98 143 72 209.50Q46 276 46 353L46 361Q46 439 72.50 505.50Q99 572 147 620.50Q195 669 261.50 696.50Q328 724 408 724Q488 724 554.50 697Q621 670 668.50 622Q716 574 742.50 508Q769 442 769 364L769 356Q769 267 736.50 194.50Q704 122 645 72L724-13L644-91L546 14M409 95Q439 95 465 101L395 177L476 253L564 158Q596 193 613 243Q630 293 630 356L630 364Q630 419 615 466Q600 513 571.50 547Q543 581 501.50 600Q460 619 408 619Q355 619 313.50 600.50Q272 582 243 548Q214 514 199 467Q184 420 184 362L184 354Q184 294 201 246Q218 198 248 164.50Q278 131 319.50 113Q361 95 409 95Z"  horiz-adv-x="818" vert-adv-y="1000"  />

      
      <glyph glyph-name="uni52" unicode="&#x52;" d="M82 715L322 715Q381 715 430 702.50Q479 690 514.50 664.50Q550 639 569.50 599.50Q589 560 589 505L589 501Q589 459 576.50 427Q564 395 542.50 371.50Q521 348 492 333Q463 318 430 309L631 0L487 0L300 289L215 289L215 0L82 0L82 715M322 384Q458 384 458 498L458 502Q458 564 422 588Q386 612 322 612L215 612L215 384L322 384Z"  horiz-adv-x="659" vert-adv-y="1000"  />

      
      <glyph glyph-name="uni53" unicode="&#x53;" d="M325-10Q252-10 199.50 7.50Q147 25 112.50 55.50Q78 86 60 128.50Q42 171 38 222L166 222Q169 195 177.50 171Q186 147 203.50 129Q221 111 250.50 100.50Q280 90 325 90Q385 90 422.50 120Q460 150 460 200Q460 225 453 242.50Q446 260 429 272.50Q412 285 383 294Q354 303 311 310Q247 319 199.50 333.50Q152 348 121 372.50Q90 397 74.50 433Q59 469 59 519Q59 563 77 600.50Q95 638 127.50 665.50Q160 693 206 708.50Q252 724 308 724Q424 724 490.50 672Q557 620 568 517L446 517Q436 574 403 599Q370 624 308 624Q247 624 216 598Q185 572 185 530Q185 508 190.50 491.50Q196 475 212.50 462.50Q229 450 257.50 441Q286 432 333 425Q396 416 443.50 402Q491 388 523.50 363Q556 338 572 301.50Q588 265 588 211Q588 164 569 124Q550 84 515.50 54Q481 24 432.50 7Q384-10 325-10Z"  horiz-adv-x="639" vert-adv-y="1000"  />

      
      <glyph glyph-name="uni54" unicode="&#x54;" d="M225 610L26 610L26 715L558 715L558 610L359 610L359 0L225 0L225 610Z"  horiz-adv-x="587" vert-adv-y="1000"  />

      
      <glyph glyph-name="uni55" unicode="&#x55;" d="M357-10Q222-10 149 61.50Q76 133 76 272L76 715L210 715L210 282Q210 183 244 140Q278 97 358 97Q397 97 426 106.50Q455 116 474.50 138.50Q494 161 503.50 198Q513 235 513 291L513 715L647 715L647 280Q647 139 573.50 64.50Q500-10 357-10Z"  horiz-adv-x="727" vert-adv-y="1000"  />

      
      <glyph glyph-name="uni56" unicode="&#x56;" d="M23 715L162 715L348 135L535 715L660 715L418 0L264 0L23 715Z"  horiz-adv-x="687" vert-adv-y="1000"  />

      
      <glyph glyph-name="uni57" unicode="&#x57;" d="M26 715L162 715L286 190L425 715L535 715L677 187L805 715L929 715L750 0L617 0L476 521L331 0L204 0L26 715Z"  horiz-adv-x="959" vert-adv-y="1000"  />

      
      <glyph glyph-name="uni58" unicode="&#x58;" d="M266 367L52 715L202 715L354 461L505 715L642 715L431 370L660 0L508 0L340 279L172 0L36 0L266 367Z"  horiz-adv-x="699" vert-adv-y="1000"  />

      
      <glyph glyph-name="uni59" unicode="&#x59;" d="M254 310L17 715L164 715L325 419L482 715L612 715L388 309L388 0L254 0L254 310Z"  horiz-adv-x="633" vert-adv-y="1000"  />

      
      <glyph glyph-name="uni5a" unicode="&#x5a;" d="M22 18L387 610L59 610L59 715L575 715L575 698L218 107L565 107L565 0L22 0L22 18Z"  horiz-adv-x="612" vert-adv-y="1000"  />

      
      <glyph glyph-name="uni5b" unicode="&#x5b;" d="M79 776L335 776L335 685L201 685L201-57L335-57L335-148L79-148L79 776Z"  horiz-adv-x="381" vert-adv-y="1000"  />

      
      <glyph glyph-name="uni5c" unicode="&#x5c;" d="M18 776L120 776L421-148L319-148L18 776Z"  horiz-adv-x="419" vert-adv-y="1000"  />

      
      <glyph glyph-name="uni5d" unicode="&#x5d;" d="M42-57L176-57L176 685L42 685L42 776L298 776L298-148L42-148L42-57Z"  horiz-adv-x="381" vert-adv-y="1000"  />

      
      <glyph glyph-name="uni5e" unicode="&#x5e;" d="M202 715L315 715L481 402L369 402L257 615L144 402L36 402L202 715Z"  horiz-adv-x="520" vert-adv-y="1000"  />

      
      <glyph glyph-name="uni5f" unicode="&#x5f;" d="M-1-85L411-85L411-159L-1-159L-1-85Z"  horiz-adv-x="414" vert-adv-y="1000"  />

      
      <glyph glyph-name="uni60" unicode="&#x60;" d="M59 756L193 756L252 601L163 601L59 756Z"  horiz-adv-x="404" vert-adv-y="1000"  />

      
      <glyph glyph-name="uni61" unicode="&#x61;" d="M209-10Q173-10 141-1Q109 8 85.50 26.50Q62 45 48 74.50Q34 104 34 145Q34 191 55 222.50Q76 254 112 273.50Q148 293 197 302Q246 311 302 311L367 311L367 338Q367 391 346.50 417Q326 443 272 443Q224 443 200.50 421.50Q177 400 172 361L55 361Q59 407 78 439.50Q97 472 127 493Q157 514 196 524Q235 534 279 534Q323 534 361 524.50Q399 515 427.50 492.50Q456 470 472 433.50Q488 397 488 343L488 0L369 0L369 64Q343 30 306 10Q269-10 209-10M238 77Q294 77 330.50 104.50Q367 132 367 183L367 235L305 235Q236 235 195 216.50Q154 198 154 150Q154 117 173.50 97Q193 77 238 77Z"  horiz-adv-x="559" vert-adv-y="1000"  />

      
      <glyph glyph-name="uni62" unicode="&#x62;" d="M364-10Q301-10 257.50 17Q214 44 193 84L193 0L72 0L72 765L193 765L193 439Q204 458 221 475Q238 492 260.50 505Q283 518 309 526Q335 534 364 534Q413 534 455.50 516Q498 498 529 464Q560 430 578 380.50Q596 331 596 268L596 260Q596 197 578.50 147Q561 97 530.50 62Q500 27 457.50 8.50Q415-10 364-10M334 86Q401 86 436.50 129.50Q472 173 472 258L472 266Q472 309 461.50 341.50Q451 374 432 396Q413 418 388 428.50Q363 439 333 439Q270 439 229.50 396.50Q189 354 189 266L189 258Q189 170 228.50 128Q268 86 334 86Z"  horiz-adv-x="637" vert-adv-y="1000"  />

      
      <glyph glyph-name="uni63" unicode="&#x63;" d="M301-10Q245-10 196.50 8Q148 26 112.50 60Q77 94 57 143Q37 192 37 255L37 263Q37 325 57.50 375Q78 425 114 460.50Q150 496 198 515Q246 534 301 534Q344 534 385 523.50Q426 513 458.50 490Q491 467 513 429.50Q535 392 540 338L423 338Q415 391 383 414Q351 437 303 437Q272 437 246 425.50Q220 414 201 391.50Q182 369 171.50 337Q161 305 161 265L161 257Q161 171 200 127Q239 83 306 83Q330 83 351.50 90Q373 97 390 111Q407 125 418 146Q429 167 432 195L543 195Q540 150 521.50 112.50Q503 75 472 47.50Q441 20 397.50 5Q354-10 301-10Z"  horiz-adv-x="579" vert-adv-y="1000"  />

      
      <glyph glyph-name="uni64" unicode="&#x64;" d="M268-10Q219-10 177 7Q135 24 104 57.50Q73 91 55.50 140Q38 189 38 253L38 261Q38 324 55.50 374.50Q73 425 104.50 460.50Q136 496 179 515Q222 534 273 534Q337 534 377.50 508Q418 482 440 443L440 765L561 765L561 0L440 0L440 88Q429 68 412 50.50Q395 33 372.50 19.50Q350 6 323.50-2Q297-10 268-10M298 86Q361 86 402.50 128.50Q444 171 444 259L444 267Q444 354 406.50 396.50Q369 439 303 439Q236 439 199 394Q162 349 162 264L162 256Q162 170 200.50 128Q239 86 298 86Z"  horiz-adv-x="637" vert-adv-y="1000"  />

      
      <glyph glyph-name="uni65" unicode="&#x65;" d="M302-10Q244-10 195.50 8.50Q147 27 111.50 61.50Q76 96 56.50 145Q37 194 37 256L37 264Q37 325 56.50 374.50Q76 424 111 459.50Q146 495 193.50 514.50Q241 534 297 534Q346 534 390.50 519Q435 504 469 472Q503 440 523.50 390Q544 340 544 270L544 235L161 235Q164 160 200.50 120Q237 80 305 80Q360 80 389 101Q418 122 425 160L542 160Q529 77 466 33.50Q403-10 302-10M424 316Q419 384 386.50 415Q354 446 297 446Q242 446 207 411.50Q172 377 163 316L424 316Z"  horiz-adv-x="584" vert-adv-y="1000"  />

      
      <glyph glyph-name="uni66" unicode="&#x66;" d="M93 432L22 432L22 523L93 523L93 593Q93 680 138.50 725Q184 770 269 770Q291 770 306 767.50Q321 765 338 760L338 666Q327 670 313.50 672.50Q300 675 283 675Q246 675 230 653.50Q214 632 214 598L214 523L333 523L333 432L214 432L214 0L93 0L93 432Z"  horiz-adv-x="366" vert-adv-y="1000"  />

      
      <glyph glyph-name="uni67" unicode="&#x67;" d="M295-192Q233-192 188-179Q143-166 112.50-142.50Q82-119 65-87.50Q48-56 43-18L165-18Q173-57 203.50-78.50Q234-100 294-100Q365-100 402.50-65Q440-30 440 41L440 118Q429 99 412 81.50Q395 64 372.50 50.50Q350 37 324 29Q298 21 269 21Q220 21 177.50 38.50Q135 56 104 88.50Q73 121 55 167Q37 213 37 270L37 277Q37 332 54.50 379Q72 426 103.50 460.50Q135 495 178 514.50Q221 534 272 534Q337 534 377 508Q417 482 440 443L440 523L561 523L561 39Q560-77 488.50-134.50Q417-192 295-192M299 114Q362 114 403 156.50Q444 199 444 274L444 281Q444 356 406.50 397.50Q369 439 303 439Q235 439 198 395Q161 351 161 279L161 271Q161 235 171.50 205.50Q182 176 200.50 156Q219 136 244.50 125Q270 114 299 114Z"  horiz-adv-x="637" vert-adv-y="1000"  />

      
      <glyph glyph-name="uni68" unicode="&#x68;" d="M72 765L193 765L193 440Q212 478 254.50 506Q297 534 362 534Q401 534 434 522Q467 510 491 485.50Q515 461 528 422Q541 383 541 329L541 0L420 0L420 318Q420 378 395 405.50Q370 433 316 433Q265 433 229 401.50Q193 370 193 308L193 0L72 0L72 765Z"  horiz-adv-x="612" vert-adv-y="1000"  />

      
      <glyph glyph-name="uni69" unicode="&#x69;" d="M75 523L196 523L196 0L75 0L75 523M134 609Q104 609 83 629Q62 649 62 678Q62 708 83 728Q104 748 134 748Q164 748 185 728Q206 708 206 678Q206 649 185 629Q164 609 134 609Z"  horiz-adv-x="275" vert-adv-y="1000"  />

      
      <glyph glyph-name="uni6a" unicode="&#x6a;" d="M3-95Q43-92 59-73Q75-54 75-21L75 523L196 523L196-18Q196-58 186-89Q176-120 153.50-142Q131-164 94-175.50Q57-187 3-188L3-95M134 609Q104 609 83 629Q62 649 62 678Q62 708 83 728Q104 748 134 748Q164 748 185 728Q206 708 206 678Q206 649 185 629Q164 609 134 609Z"  horiz-adv-x="275" vert-adv-y="1000"  />

      
      <glyph glyph-name="uni6b" unicode="&#x6b;" d="M72 765L193 765L193 293L380 523L512 523L309 283L529 0L389 0L193 257L193 0L72 0L72 765Z"  horiz-adv-x="544" vert-adv-y="1000"  />

      
      <glyph glyph-name="uni6c" unicode="&#x6c;" d="M75 765L196 765L196 0L75 0L75 765Z"  horiz-adv-x="275" vert-adv-y="1000"  />

      
      <glyph glyph-name="uni6d" unicode="&#x6d;" d="M72 523L193 523L193 443Q212 480 253 507Q294 534 352 534Q403 534 441.50 511.50Q480 489 500 440Q530 489 579 511.50Q628 534 677 534Q713 534 744.50 522.50Q776 511 800 486.50Q824 462 837.50 423.50Q851 385 851 331L851 0L730 0L730 323Q730 381 706 407Q682 433 637 433Q614 433 593.50 425.50Q573 418 557 403Q541 388 531.50 365.50Q522 343 522 313L522 0L401 0L401 323Q401 381 377 407Q353 433 308 433Q285 433 264.50 425.50Q244 418 228 403Q212 388 202.50 365.50Q193 343 193 313L193 0L72 0L72 523Z"  horiz-adv-x="922" vert-adv-y="1000"  />

      
      <glyph glyph-name="uni6e" unicode="&#x6e;" d="M72 523L193 523L193 440Q212 478 254.50 506Q297 534 362 534Q401 534 434 522Q467 510 491 485.50Q515 461 528 422Q541 383 541 329L541 0L420 0L420 318Q420 378 395 405.50Q370 433 316 433Q265 433 229 401.50Q193 370 193 308L193 0L72 0L72 523Z"  horiz-adv-x="612" vert-adv-y="1000"  />

      
      <glyph glyph-name="uni6f" unicode="&#x6f;" d="M306 84Q374 84 412 130.50Q450 177 450 258L450 265Q450 346 412 392.50Q374 439 306 439Q238 439 199.50 393Q161 347 161 266L161 258Q161 177 199 130.50Q237 84 306 84M305-10Q247-10 198 9Q149 28 113 63Q77 98 57 147Q37 196 37 256L37 264Q37 325 57.50 374.50Q78 424 114 459.50Q150 495 199 514.50Q248 534 306 534Q363 534 412 515Q461 496 497 460.50Q533 425 553.50 376Q574 327 574 267L574 259Q574 198 553.50 148.50Q533 99 497 63.50Q461 28 412 9Q363-10 305-10Z"  horiz-adv-x="615" vert-adv-y="1000"  />

      
      <glyph glyph-name="uni70" unicode="&#x70;" d="M72 523L193 523L193 439Q204 458 221 475Q238 492 260.50 505Q283 518 309 526Q335 534 364 534Q413 534 455.50 516Q498 498 529 464Q560 430 578 380.50Q596 331 596 268L596 260Q596 197 578.50 147Q561 97 530.50 62Q500 27 457.50 8.50Q415-10 364-10Q301-10 257.50 17Q214 44 193 82L193-179L72-179L72 523M334 86Q401 86 436.50 129.50Q472 173 472 258L472 266Q472 309 461.50 341.50Q451 374 432 396Q413 418 388 428.50Q363 439 333 439Q270 439 229.50 396.50Q189 354 189 266L189 258Q189 170 228.50 128Q268 86 334 86Z"  horiz-adv-x="637" vert-adv-y="1000"  />

      
      <glyph glyph-name="uni71" unicode="&#x71;" d="M440 86Q429 67 412 50Q395 33 372.50 19.50Q350 6 323.50-2Q297-10 268-10Q219-10 177 7Q135 24 104 57.50Q73 91 55.50 140Q38 189 38 253L38 261Q38 324 55.50 374.50Q73 425 104.50 460.50Q136 496 179 515Q222 534 273 534Q337 534 377.50 508Q418 482 440 443L440 523L561 523L561-179L440-179L440 86M298 86Q361 86 402.50 128.50Q444 171 444 259L444 267Q444 354 406.50 396.50Q369 439 303 439Q236 439 199 394Q162 349 162 264L162 256Q162 170 200.50 128Q239 86 298 86Z"  horiz-adv-x="637" vert-adv-y="1000"  />

      
      <glyph glyph-name="uni72" unicode="&#x72;" d="M72 523L193 523L193 425Q218 475 257.50 502.50Q297 530 363 531L363 418Q323 418 291.50 410.50Q260 403 238 386Q216 369 204.50 341.50Q193 314 193 272L193 0L72 0L72 523Z"  horiz-adv-x="401" vert-adv-y="1000"  />

      
      <glyph glyph-name="uni73" unicode="&#x73;" d="M251-10Q149-10 92.50 34.50Q36 79 32 163L146 163Q151 123 173.50 101Q196 79 250 79Q299 79 321.50 96Q344 113 344 146Q344 178 317 193Q290 208 232 218Q180 226 144 238Q108 250 85.50 269Q63 288 53 314Q43 340 43 377Q43 416 60 445.50Q77 475 104.50 494.50Q132 514 167 524Q202 534 239 534Q279 534 314.50 526Q350 518 377 499.50Q404 481 421.50 450.50Q439 420 444 376L332 376Q324 412 302.50 429Q281 446 239 446Q200 446 178 429Q156 412 156 384Q156 370 161 359.50Q166 349 178.50 341.50Q191 334 212 328Q233 322 264 317Q310 310 346.50 299.50Q383 289 408 271.50Q433 254 446.50 226.50Q460 199 460 157Q460 77 406 33.50Q352-10 251-10Z"  horiz-adv-x="498" vert-adv-y="1000"  />

      
      <glyph glyph-name="uni74" unicode="&#x74;" d="M250-9Q172-9 132 31Q92 71 92 146L92 432L22 432L22 523L92 523L92 638L213 638L213 523L328 523L328 432L213 432L213 157Q213 122 228.50 106Q244 90 273 90Q308 90 332 100L332 4Q318-1 298-5Q278-9 250-9Z"  horiz-adv-x="373" vert-adv-y="1000"  />

      
      <glyph glyph-name="uni75" unicode="&#x75;" d="M247-10Q208-10 175 1.50Q142 13 118 37Q94 61 80.50 98.50Q67 136 67 188L67 523L188 523L188 202Q188 142 213 114.50Q238 87 291 87Q315 87 337.50 95Q360 103 376.50 118.50Q393 134 403 157.50Q413 181 413 212L413 523L534 523L534 0L413 0L413 82Q393 44 352 17Q311-10 247-10Z"  horiz-adv-x="609" vert-adv-y="1000"  />

      
      <glyph glyph-name="uni76" unicode="&#x76;" d="M18 523L148 523L285 124L420 523L539 523L350 0L209 0L18 523Z"  horiz-adv-x="561" vert-adv-y="1000"  />

      
      <glyph glyph-name="uni77" unicode="&#x77;" d="M20 523L149 523L253 145L364 523L465 523L567 145L676 523L794 523L630 0L507 0L410 352L304 0L180 0L20 523Z"  horiz-adv-x="818" vert-adv-y="1000"  />

      
      <glyph glyph-name="uni78" unicode="&#x78;" d="M203 268L33 523L173 523L282 354L390 523L517 523L348 277L535 0L394 0L272 189L147 0L21 0L203 268Z"  horiz-adv-x="560" vert-adv-y="1000"  />

      
      <glyph glyph-name="uni79" unicode="&#x79;" d="M225 53L18 523L149 523L288 186L416 523L534 523L249-179L130-179L225 53Z"  horiz-adv-x="557" vert-adv-y="1000"  />

      
      <glyph glyph-name="uni7a" unicode="&#x7a;" d="M17 14L294 427L44 427L44 523L473 523L473 506L197 97L465 97L465 0L17 0L17 14Z"  horiz-adv-x="497" vert-adv-y="1000"  />

      
      <glyph glyph-name="uni7b" unicode="&#x7b;" d="M354-148Q227-148 168-97.50Q109-47 129 69L146 165Q150 186 146 205Q142 224 129.50 238.50Q117 253 94 262Q71 271 36 271L36 358Q71 358 94 367Q117 376 129.50 391Q142 406 146 425Q150 444 146 464L129 560Q119 619 129 660Q139 701 168 727Q197 753 244 765Q291 777 354 777L354 688Q320 687 297 681Q274 675 261 660.50Q248 646 244.50 621.50Q241 597 246 561L263 451Q271 397 243 362.50Q215 328 163 315Q216 303 243.50 268Q271 233 263 179L246 70Q241 33 244.50 8.50Q248-16 261-30.50Q274-45 297-51.50Q320-58 354-59L354-148L354-148Z"  horiz-adv-x="400" vert-adv-y="1000"  />

      
      <glyph glyph-name="uni7c" unicode="&#x7c;" d="M84 776L174 776L174-148L84-148L84 776Z"  horiz-adv-x="263" vert-adv-y="1000"  />

      
      <glyph glyph-name="uni7d" unicode="&#x7d;" d="M42-59Q75-58 98-51.50Q121-45 134.50-30.50Q148-16 151.50 8.50Q155 33 149 70L133 179Q125 233 152.50 268Q180 303 233 315Q180 328 152.50 362.50Q125 397 133 451L149 561Q155 597 151.50 621.50Q148 646 134.50 660.50Q121 675 98 681Q75 687 42 688L42 777Q105 777 152 765Q199 753 228 727Q257 701 267 660Q277 619 267 560L250 464Q246 444 249.50 425Q253 406 266 391Q279 376 301.50 367Q324 358 359 358L359 271Q324 271 301.50 262Q279 253 266 238.50Q253 224 249.50 205Q246 186 250 165L267 69Q287-47 228-97.50Q169-148 42-148L42-59Z"  horiz-adv-x="400" vert-adv-y="1000"  />

      
      <glyph glyph-name="uni7e" unicode="&#x7e;" d="M38 220Q41 260 52 289.50Q63 319 79.50 338Q96 357 117 366Q138 375 160 375Q185 375 206.50 367.50Q228 360 245.50 351Q263 342 278 334.50Q293 327 305 327Q322 327 335 339.50Q348 352 350 377L436 377Q434 337 423 308Q412 279 395.50 259.50Q379 240 358 230.50Q337 221 316 221Q289 221 267.50 228.50Q246 236 228.50 245.50Q211 255 196.50 262.50Q182 270 169 270Q151 270 139 257Q127 244 124 220L38 220L38 220Z"  horiz-adv-x="478" vert-adv-y="1000"  />

      
      <glyph glyph-name="unia1" unicode="&#xa1;" d="M153.01 605.00Q186.01 605.00 209.51 582.50Q233.00 560.00 233.00 528.00Q233.00 495.01 209.51 472.51Q186.01 450.01 153.01 450.01Q119.01 450.01 95.51 472.51Q72.01 495.01 72.01 528.00Q72.01 560.00 95.51 582.50Q119.01 605.00 153.01 605.00M219.01-116.96L84.01-116.96L103.01 383.01L201.01 383.01L219.01-116.96Z"  horiz-adv-x="310" vert-adv-y="1000"  />

      
      <glyph glyph-name="unia2" unicode="&#xa2;" d="M270-8Q219-3 176 17Q133 37 102.50 70.50Q72 104 54.50 151Q37 198 37 256L37 264Q37 321 55 368Q73 415 104 449.50Q135 484 177.50 505Q220 526 270 532L270 629L337 629L337 532Q376 529 412 516Q448 503 475.50 479.50Q503 456 521.50 421Q540 386 545 338L431 338Q424 383 398.50 406.50Q373 430 337 438L337 82Q377 90 405.50 118Q434 146 439 195L548 195Q545 153 528.50 118Q512 83 485 56Q458 29 420.50 12.50Q383-4 337-8L337-135L270-135L270-8M159 256Q159 182 189 138.50Q219 95 270 84L270 437Q220 425 189.50 380.50Q159 336 159 264L159 256Z"  horiz-adv-x="581" vert-adv-y="1000"  />

      
      <glyph glyph-name="unia3" unicode="&#xa3;" d="M42 389L102 389Q95 416 90.50 445.50Q86 475 86 509Q86 558 104.50 598Q123 638 156 666Q189 694 233 709Q277 724 328 724Q384 724 427 709Q470 694 500 666.50Q530 639 546.50 600.50Q563 562 566 515L441 515Q432 568 407.50 594.50Q383 621 331 621Q281 621 250.50 589.50Q220 558 220 504Q220 472 224 444Q228 416 233 389L432 389L432 304L250 304Q255 280 257.50 255Q260 230 260 202Q260 184 256.50 168.50Q253 153 248 139Q290 128 325.50 113Q361 98 388 98Q423 98 444 114.50Q465 131 468 173L585 173Q583 134 570.50 100.50Q558 67 536 42.50Q514 18 482 4.50Q450-9 410-9Q375-9 344 0Q313 9 286 20.50Q259 32 236 41Q213 50 193 50Q164 50 150 34.50Q136 19 134 0L30 0Q32 22 39 44.50Q46 67 58.50 87Q71 107 90 122Q109 137 135 144Q140 157 142.50 171Q145 185 145 203Q145 229 140 253.50Q135 278 127 304L42 304L42 389Z"  horiz-adv-x="624" vert-adv-y="1000"  />

      
      <glyph glyph-name="unia5" unicode="&#xa5;" d="M76 350L225 350L21 715L166 715L313 427L454 715L582 715L390 350L540 350L540 286L374 286L374 219L540 219L540 155L374 155L374 0L242 0L242 155L76 155L76 219L242 219L242 286L76 286L76 350Z"  horiz-adv-x="608" vert-adv-y="1000"  />

      
      <glyph glyph-name="unia6" unicode="&#xa6;" d="M84 299L174 299L174-148L84-148L84 299M84 776L174 776L174 369L84 369L84 776Z"  horiz-adv-x="268" vert-adv-y="1000"  />

      
      <glyph glyph-name="unia7" unicode="&#xa7;" d="M276-137Q184-137 130.50-92Q77-47 75 34L191 34Q194-4 213-25.50Q232-47 277-47Q320-47 340.50-26.50Q361-6 361 26Q361 42 355.50 54.50Q350 67 335.50 77.50Q321 88 296.50 97Q272 106 234 115Q189 126 152 140.50Q115 155 88.50 176Q62 197 48 226Q34 255 34 295Q34 345 64 379.50Q94 414 145 430Q118 452 104 481.50Q90 511 90 553Q90 592 106 623.50Q122 655 149 677.50Q176 700 212 712Q248 724 289 724Q380 724 431.50 680.50Q483 637 486 557L371 557Q368 592 350.50 613Q333 634 288 634Q244 634 224.50 612.50Q205 591 205 560Q205 543 210 531Q215 519 228.50 509Q242 499 265.50 490Q289 481 327 472Q372 461 409.50 447Q447 433 474.50 413Q502 393 517 363.50Q532 334 532 291Q532 245 502.50 209Q473 173 422 155Q448 134 462 104.50Q476 75 476 33Q476-4 461-35Q446-66 419-88.50Q392-111 355.50-124Q319-137 276-137M343 200Q380 209 397 228.50Q414 248 414 276Q414 294 406.50 306.50Q399 319 385 329Q371 339 349 347Q327 355 299 363L222 385Q190 378 171 358Q152 338 152 309Q152 275 181 257.50Q210 240 268 223L343 200Z"  horiz-adv-x="569" vert-adv-y="1000"  />

      
      <glyph glyph-name="unia8" unicode="&#xa8;" d="M101 613Q74 613 54.50 632Q35 651 35 678Q35 704 54.50 723.50Q74 743 101 743Q128 743 147.50 723.50Q167 704 167 678Q167 651 147.50 632Q128 613 101 613M299 613Q271 613 252 632Q233 651 233 678Q233 704 252 723.50Q271 743 299 743Q326 743 345.50 723.50Q365 704 365 678Q365 651 345.50 632Q326 613 299 613Z"  horiz-adv-x="404" vert-adv-y="1000"  />

      
      <glyph glyph-name="unia9" unicode="&#xa9;" d="M425 153Q328 153 276.50 207.50Q225 262 225 353L225 361Q225 406 240 443.50Q255 481 281.50 507Q308 533 344 547.50Q380 562 423 562Q496 562 545 526Q594 490 600 416L504 416Q493 486 423 486Q378 486 351.50 454Q325 422 325 361L325 354Q325 294 350.50 262Q376 230 424 230Q459 230 483 248Q507 266 512 304L604 304Q598 229 549 191Q500 153 425 153M421 32Q485 32 543.50 56Q602 80 646 123Q690 166 716 226Q742 286 742 359Q742 431 717 490.50Q692 550 648.50 592.50Q605 635 547 659Q489 683 423 683Q356 683 297.50 659Q239 635 195.50 592Q152 549 127 489Q102 429 102 357Q102 284 128 224Q154 164 198 121.50Q242 79 299.50 55.50Q357 32 421 32M421-13Q343-13 275 15.50Q207 44 156.50 93.50Q106 143 77 210.50Q48 278 48 357Q48 435 77 502.50Q106 570 156.50 620Q207 670 275.50 699Q344 728 423 728Q502 728 570.50 699.50Q639 671 689 621Q739 571 767.50 503.50Q796 436 796 359Q796 280 767 212Q738 144 687 94Q636 44 567.50 15.50Q499-13 421-13Z"  horiz-adv-x="847" vert-adv-y="1000"  />

      
      <glyph glyph-name="uniaa" unicode="&#xaa;" d="M169 289Q140 289 115 296Q90 303 70.50 318Q51 333 40 356.50Q29 380 29 413Q29 450 45 475Q61 500 89.50 515.50Q118 531 157.50 538Q197 545 244 545L295 545L295 567Q295 605 279 624Q263 643 225 643Q190 643 172.50 626.50Q155 610 150 584L46 584Q49 620 64 646.50Q79 673 103.50 690Q128 707 160 715.50Q192 724 230 724Q268 724 299.50 716Q331 708 354 689.50Q377 671 390 641.50Q403 612 403 569L403 298L296 298L296 348Q278 322 248 305.50Q218 289 169 289M200 368Q241 368 268 387.50Q295 407 295 444L295 481L247 481Q196 481 167 467.50Q138 454 138 420Q138 395 152.50 381.50Q167 368 200 368Z"  horiz-adv-x="448" vert-adv-y="1000"  />

      
      <glyph glyph-name="uniab" unicode="&#xab;" d="M48 261L176 444L271 444L148 261L271 78L176 78L48 261M227 261L355 444L450 444L327 261L450 78L355 78L227 261Z"  horiz-adv-x="496" vert-adv-y="1000"  />

      
      <glyph glyph-name="uniae" unicode="&#xae;" d="M178 615L260 615Q301 615 324 598.50Q347 582 347 547L347 546Q347 522 335 508Q323 494 305 487L360 396L301 396L253 477L234 477L234 396L178 396L178 615M258 515Q292 515 292 543L292 544Q292 560 283 566Q274 572 258 572L234 572L234 515L258 515M258 319Q297 319 330 332.50Q363 346 388 370Q413 394 427 428Q441 462 441 503Q441 544 427.50 578Q414 612 389.50 636Q365 660 331.50 673.50Q298 687 258 687Q218 687 184 673.50Q150 660 125.50 635.50Q101 611 87.50 577Q74 543 74 502Q74 461 88.50 427Q103 393 127.50 369Q152 345 185.50 332Q219 319 258 319M258 281Q211 281 170 298Q129 315 98.50 344.50Q68 374 50.50 414.50Q33 455 33 502Q33 548 50.50 588.50Q68 629 98.50 659.50Q129 690 170 707.50Q211 725 258 725Q306 725 347 707.50Q388 690 418 660Q448 630 465 589.50Q482 549 482 503Q482 456 464.50 415.50Q447 375 417 345Q387 315 346 298Q305 281 258 281Z"  horiz-adv-x="519" vert-adv-y="1000"  />

      
      <glyph glyph-name="uniaf" unicode="&#xaf;" d="M60 712L340 712L340 634L60 634L60 712Z"  horiz-adv-x="404" vert-adv-y="1000"  />

      
      <glyph glyph-name="unib0" unicode="&#xb0;" d="M219 459Q259 459 284 488Q309 517 309 559Q309 603 284 632Q259 661 219 661Q178 661 152 632Q126 603 126 559Q126 517 152 488Q178 459 219 459M219 396Q184 396 153 409Q122 422 99 444Q76 466 63 496Q50 526 50 559Q50 593 63 623Q76 653 99 675.50Q122 698 153 711Q184 724 219 724Q254 724 284.50 711Q315 698 338 675.50Q361 653 374 623Q387 593 387 559Q387 526 374 496Q361 466 338 444Q315 422 284.50 409Q254 396 219 396Z"  horiz-adv-x="441" vert-adv-y="1000"  />

      
      <glyph glyph-name="unib1" unicode="&#xb1;" d="M219 332L37 332L37 426L219 426L219 602L320 602L320 426L503 426L503 332L320 332L320 157L219 157L219 332M37 89L504 89L504 0L37 0L37 89Z"  horiz-adv-x="543" vert-adv-y="1000"  />

      
      <glyph glyph-name="unib2" unicode="&#xb2;" d="M7 373L135 508Q162 536 178 560Q194 584 194 607Q194 627 183.50 638.50Q173 650 152 650Q130 650 117 635.50Q104 621 100 589L15 589Q18 652 55.50 686Q93 720 156 720Q220 720 252.50 689.50Q285 659 285 611Q285 575 266 545Q247 515 215 485L157 428L288 428L288 360L7 360L7 373Z"  horiz-adv-x="317" vert-adv-y="1000"  />

      
      <glyph glyph-name="unib3" unicode="&#xb3;" d="M166 354Q92 354 57 387Q22 420 20 474L103 474Q105 451 118.50 435.50Q132 420 161 420Q188 420 201.50 432.50Q215 445 215 467Q215 512 161 512L133 512L133 570L160 570Q212 570 212 613Q212 631 201 642Q190 653 167 653Q144 653 130 640.50Q116 628 113 605L30 605Q34 655 69.50 687.50Q105 720 169 720Q232 720 266 693Q300 666 300 623Q300 593 283.50 574Q267 555 239 546Q270 540 289.50 519Q309 498 309 464Q309 413 272 383.50Q235 354 166 354Z"  horiz-adv-x="340" vert-adv-y="1000"  />

      
      <glyph glyph-name="unib4" unicode="&#xb4;" d="M207 756L341 756L237 601L148 601L207 756Z"  horiz-adv-x="404" vert-adv-y="1000"  />

      
      <glyph glyph-name="unib6" unicode="&#xb6;" d="M268 339L257 339Q208 339 168 350.50Q128 362 99 385Q70 408 54 442.50Q38 477 38 524Q38 572 54.50 608Q71 644 100 668Q129 692 169.50 703.50Q210 715 257 715L489 715L489-100L417-100L417 655L339 655L339-100L268-100L268 339Z"  horiz-adv-x="577" vert-adv-y="1000"  />

      
      <glyph glyph-name="unib7" unicode="&#xb7;" d="M144 248Q111 248 88 271Q65 294 65 327Q65 360 88 382.50Q111 405 144 405Q178 405 201 382.50Q224 360 224 327Q224 294 201 271Q178 248 144 248Z"  horiz-adv-x="293" vert-adv-y="1000"  />

      
      <glyph glyph-name="unib8" unicode="&#xb8;" d="M206-219Q158-219 129.50-195.50Q101-172 96-131L162-131Q164-144 174-154Q184-164 202-164Q219-164 229-154.50Q239-145 239-130Q239-116 229.50-107Q220-98 204-98Q193-98 186-101Q179-104 174-107L140-75L184 0L244 0L215-50Q234-48 252-51.50Q270-55 284-65.50Q298-76 306.50-92.50Q315-109 315-133Q315-175 284-197Q253-219 206-219Z"  horiz-adv-x="404" vert-adv-y="1000"  />

      
      <glyph glyph-name="unib9" unicode="&#xb9;" d="M104 625L22 574L22 652L116 715L198 715L198 360L104 360L104 625Z"  horiz-adv-x="257" vert-adv-y="1000"  />

      
      <glyph glyph-name="uniba" unicode="&#xba;" d="M253 374Q304 374 330.50 409Q357 444 357 504L357 510Q357 570 330 604.50Q303 639 253 639Q203 639 175 605Q147 571 147 510L147 504Q147 443 174.50 408.50Q202 374 253 374M252 289Q205 289 165 304Q125 319 96 347Q67 375 50.50 414Q34 453 34 501L34 507Q34 556 50.50 596.50Q67 637 96.50 665Q126 693 166 708.50Q206 724 253 724Q299 724 339 709Q379 694 408 666Q437 638 453.50 598.50Q470 559 470 511L470 505Q470 455 453.50 415.50Q437 376 407.50 347.50Q378 319 338 304Q298 289 252 289Z"  horiz-adv-x="508" vert-adv-y="1000"  />

      
      <glyph glyph-name="unibb" unicode="&#xbb;" d="M166 261L43 444L138 444L266 261L138 78L43 78L166 261M344 261L221 444L316 444L444 261L316 78L221 78L344 261Z"  horiz-adv-x="496" vert-adv-y="1000"  />

      
      <glyph glyph-name="unibc" unicode="&#xbc;" d="M106 625L24 574L24 652L118 715L200 715L200 360L106 360L106 625M583 715L660 715L132 0L55 0L583 715M566 69L388 69L388 103L542 355L655 355L655 133L701 133L701 69L655 69L655 0L566 0L566 69M568 133L568 290L477 133L568 133Z"  horiz-adv-x="728" vert-adv-y="1000"  />

      
      <glyph glyph-name="unibd" unicode="&#xbd;" d="M106 625L24 574L24 652L118 715L200 715L200 360L106 360L106 625M570 715L647 715L119 0L42 0L570 715M418 13L546 148Q573 176 589 200Q605 224 605 247Q605 267 594.50 278.50Q584 290 563 290Q541 290 528 275.50Q515 261 511 229L426 229Q429 292 466.50 326Q504 360 567 360Q631 360 663.50 329.50Q696 299 696 251Q696 215 677 185Q658 155 626 125L568 68L699 68L699 0L418 0L418 13Z"  horiz-adv-x="732" vert-adv-y="1000"  />

      
      <glyph glyph-name="unibe" unicode="&#xbe;" d="M169 354Q95 354 60 387Q25 420 23 474L106 474Q108 451 121.50 435.50Q135 420 164 420Q191 420 204.50 432.50Q218 445 218 467Q218 512 164 512L136 512L136 570L163 570Q215 570 215 613Q215 631 204 642Q193 653 170 653Q147 653 133 640.50Q119 628 116 605L33 605Q37 655 72.50 687.50Q108 720 172 720Q235 720 269 693Q303 666 303 623Q303 593 286.50 574Q270 555 242 546Q273 540 292.50 519Q312 498 312 464Q312 413 275 383.50Q238 354 169 354M624 715L701 715L173 0L96 0L624 715M577 69L399 69L399 103L553 355L666 355L666 133L712 133L712 69L666 69L666 0L577 0L577 69M579 133L579 290L488 133L579 133Z"  horiz-adv-x="742" vert-adv-y="1000"  />

      
      <glyph glyph-name="unibf" unicode="&#xbf;" d="M340.01 346.02Q340.01 316.02 331.01 292.02Q322.01 268.02 307.51 247.02Q293.01 226.02 275.01 207.52Q257.02 189.03 239.02 171.03Q211.02 143.03 190.02 116.53Q169.02 90.03 169.02 58.03Q169.02 20.04 190.52-2.96Q212.02-25.96 258.02-25.96Q305.01-25.96 335.01 4.54Q365.01 35.03 370.01 87.03L486.00 87.03Q483.00 38.03 465.00-1.46Q447.00-40.96 416.51-68.46Q386.01-95.96 344.01-110.96Q302.01-125.96 252.02-125.96Q198.02-125.96 158.52-112.46Q119.02-98.96 93.03-74.96Q67.03-50.96 54.53-18.96Q42.03 13.04 42.03 49.03Q42.03 76.03 49.53 98.03Q57.03 120.03 69.03 139.53Q81.03 159.03 97.03 176.53Q113.02 194.02 130.02 210.02Q148.02 227.02 165.02 243.52Q182.02 260.02 195.52 277.02Q209.02 294.02 218.02 312.52Q227.02 331.02 228.02 352.02L228.02 384.01L340.01 384.01L340.01 346.02M285.01 606.00Q319.01 606.00 343.01 583.50Q367.01 561.00 367.01 529.00Q367.01 496.01 343.01 473.51Q319.01 451.01 285.01 451.01Q252.02 451.01 228.52 473.51Q205.02 496.01 205.02 529.00Q205.02 561.00 228.52 583.50Q252.02 606.00 285.01 606.00Z"  horiz-adv-x="520" vert-adv-y="1000"  />

      
      <glyph glyph-name="unic0" unicode="&#xc0;" d="M266 715L440 715L676 0L538 0L481 177L208 177L152 0L27 0L266 715M239 274L450 274L345 606L239 274M213 901L349 901L402 766L311 766L213 901Z"  horiz-adv-x="707" vert-adv-y="1000"  />

      
      <glyph glyph-name="unic1" unicode="&#xc1;" d="M266 715L440 715L676 0L538 0L481 177L208 177L152 0L27 0L266 715M239 274L450 274L345 606L239 274M352 901L488 901L389 766L298 766L352 901Z"  horiz-adv-x="707" vert-adv-y="1000"  />

      
      <glyph glyph-name="unic2" unicode="&#xc2;" d="M266 715L440 715L676 0L538 0L481 177L208 177L152 0L27 0L266 715M239 274L450 274L345 606L239 274M299 901L403 901L511 766L423 766L349 821L274 766L188 766L299 901Z"  horiz-adv-x="707" vert-adv-y="1000"  />

      
      <glyph glyph-name="unic3" unicode="&#xc3;" d="M266 715L440 715L676 0L538 0L481 177L208 177L152 0L27 0L266 715M239 274L450 274L345 606L239 274M408 768Q390 768 374.50 774Q359 780 345 787.50Q331 795 319 801Q307 807 296 807Q282 807 272 795.50Q262 784 259 767L183 767Q188 830 219 864Q250 898 292 898Q309 898 324.50 891.50Q340 885 354 877.50Q368 870 380.50 864Q393 858 405 858Q419 858 428.50 869.50Q438 881 441 898L518 898Q512 835 481 801.50Q450 768 408 768Z"  horiz-adv-x="707" vert-adv-y="1000"  />

      
      <glyph glyph-name="unic4" unicode="&#xc4;" d="M266 715L440 715L676 0L538 0L481 177L208 177L152 0L27 0L266 715M239 274L450 274L345 606L239 274M244 777Q217 777 197.50 796Q178 815 178 842Q178 869 197.50 888Q217 907 244 907Q271 907 290.50 888Q310 869 310 842Q310 815 290.50 796Q271 777 244 777M455 777Q428 777 408.50 796Q389 815 389 842Q389 869 408.50 888Q428 907 455 907Q482 907 501.50 888Q521 869 521 842Q521 815 501.50 796Q482 777 455 777Z"  horiz-adv-x="707" vert-adv-y="1000"  />

      
      <glyph glyph-name="unic5" unicode="&#xc5;" d="M266 715L440 715L676 0L538 0L481 177L208 177L152 0L27 0L266 715M239 274L450 274L345 606L239 274M350 807Q372 807 386 822.50Q400 838 400 862Q400 886 386 901.50Q372 917 350 917Q327 917 313.50 901.50Q300 886 300 862Q300 838 313.50 822.50Q327 807 350 807M350 753Q327 753 306.50 761.50Q286 770 271 785Q256 800 247 819.50Q238 839 238 862Q238 884 247 904Q256 924 271 939Q286 954 306.50 962.50Q327 971 350 971Q373 971 393.50 962.50Q414 954 429 939Q444 924 453 904Q462 884 462 862Q462 839 453 819.50Q444 800 429 785Q414 770 393.50 761.50Q373 753 350 753Z"  horiz-adv-x="707" vert-adv-y="1000"  />

      
      <glyph glyph-name="unic6" unicode="&#xc6;" d="M373 715L916 715L916 610L604 610L604 414L854 414L854 314L604 314L604 105L933 105L933 0L471 0L471 183L239 183L152 0L22 0L373 715M285 278L471 278L471 610L444 610L285 278Z"  horiz-adv-x="975" vert-adv-y="1000"  />

      
      <glyph glyph-name="unic7" unicode="&#xc7;" d="M380-219Q332-219 303.50-195.50Q275-172 270-131L336-131Q338-144 348-154Q358-164 376-164Q393-164 403-154.50Q413-145 413-130Q413-116 403.50-107Q394-98 378-98Q367-98 360-101Q353-104 348-107L314-75L353-8Q279-2 221.50 26.50Q164 55 125 101.50Q86 148 66 212Q46 276 46 353L46 361Q46 442 72 509Q98 576 144.50 624Q191 672 254.50 699Q318 726 393 726Q454 726 507.50 710.50Q561 695 602 664Q643 633 668.50 586Q694 539 700 476L565 476Q554 548 513 584Q472 620 394 620Q347 620 308.50 602Q270 584 243 551Q216 518 201 470Q186 422 186 362L186 354Q186 233 240.50 165.50Q295 98 395 98Q470 98 518.50 135.50Q567 173 578 249L708 249Q692 124 612.50 59.50Q533-5 412-10L389-50Q408-48 426-51.50Q444-55 458-65.50Q472-76 480.50-92.50Q489-109 489-133Q489-175 458-197Q427-219 380-219Z"  horiz-adv-x="745" vert-adv-y="1000"  />

      
      <glyph glyph-name="unic8" unicode="&#xc8;" d="M82 715L529 715L529 610L215 610L215 414L467 414L467 314L215 314L215 105L546 105L546 0L82 0L82 715M176 901L312 901L365 766L274 766L176 901Z"  horiz-adv-x="588" vert-adv-y="1000"  />

      
      <glyph glyph-name="unic9" unicode="&#xc9;" d="M82 715L529 715L529 610L215 610L215 414L467 414L467 314L215 314L215 105L546 105L546 0L82 0L82 715M315 901L451 901L352 766L261 766L315 901Z"  horiz-adv-x="588" vert-adv-y="1000"  />

      
      <glyph glyph-name="unica" unicode="&#xca;" d="M82 715L529 715L529 610L215 610L215 414L467 414L467 314L215 314L215 105L546 105L546 0L82 0L82 715M262 901L366 901L474 766L386 766L312 821L237 766L151 766L262 901Z"  horiz-adv-x="588" vert-adv-y="1000"  />

      
      <glyph glyph-name="unicb" unicode="&#xcb;" d="M82 715L529 715L529 610L215 610L215 414L467 414L467 314L215 314L215 105L546 105L546 0L82 0L82 715M207 777Q180 777 160.50 796Q141 815 141 842Q141 869 160.50 888Q180 907 207 907Q234 907 253.50 888Q273 869 273 842Q273 815 253.50 796Q234 777 207 777M418 777Q391 777 371.50 796Q352 815 352 842Q352 869 371.50 888Q391 907 418 907Q445 907 464.50 888Q484 869 484 842Q484 815 464.50 796Q445 777 418 777Z"  horiz-adv-x="588" vert-adv-y="1000"  />

      
      <glyph glyph-name="unicc" unicode="&#xcc;" d="M86 715L220 715L220 0L86 0L86 715M16 901L152 901L205 766L114 766L16 901Z"  horiz-adv-x="311" vert-adv-y="1000"  />

      
      <glyph glyph-name="unicd" unicode="&#xcd;" d="M86 715L220 715L220 0L86 0L86 715M155 901L291 901L192 766L101 766L155 901Z"  horiz-adv-x="311" vert-adv-y="1000"  />

      
      <glyph glyph-name="unice" unicode="&#xce;" d="M86 715L220 715L220 0L86 0L86 715M102 901L206 901L314 766L226 766L152 821L77 766L-9 766L102 901Z"  horiz-adv-x="311" vert-adv-y="1000"  />

      
      <glyph glyph-name="unicf" unicode="&#xcf;" d="M86 715L220 715L220 0L86 0L86 715M47 777Q20 777 0.50 796Q-19 815-19 842Q-19 869 0.50 888Q20 907 47 907Q74 907 93.50 888Q113 869 113 842Q113 815 93.50 796Q74 777 47 777M258 777Q231 777 211.50 796Q192 815 192 842Q192 869 211.50 888Q231 907 258 907Q285 907 304.50 888Q324 869 324 842Q324 815 304.50 796Q285 777 258 777Z"  horiz-adv-x="311" vert-adv-y="1000"  />

      
      <glyph glyph-name="unid0" unicode="&#xd0;" d="M32 406L101 406L101 715L318 715Q411 715 480.50 689.50Q550 664 596 618Q642 572 665 507.50Q688 443 688 365L688 356Q688 278 665.50 212.50Q643 147 597 100Q551 53 481 26.50Q411 0 317 0L101 0L101 311L32 311L32 406M313 105Q434 105 491.50 170.50Q549 236 549 355L549 363Q549 421 535.50 466.50Q522 512 493.50 544Q465 576 420 593Q375 610 312 610L233 610L233 406L406 406L406 311L233 311L233 105L313 105Z"  horiz-adv-x="743" vert-adv-y="1000"  />

      
      <glyph glyph-name="unid1" unicode="&#xd1;" d="M82 715L241 715L542 198L542 715L663 715L663 0L525 0L203 548L203 0L82 0L82 715M443 768Q425 768 409.50 774Q394 780 380 787.50Q366 795 354 801Q342 807 331 807Q317 807 307 795.50Q297 784 294 767L218 767Q223 830 254 864Q285 898 327 898Q344 898 359.50 891.50Q375 885 389 877.50Q403 870 415.50 864Q428 858 440 858Q454 858 463.50 869.50Q473 881 476 898L553 898Q547 835 516 801.50Q485 768 443 768Z"  horiz-adv-x="749" vert-adv-y="1000"  />

      
      <glyph glyph-name="unid2" unicode="&#xd2;" d="M410 97Q461 97 501.50 115.50Q542 134 570.50 168Q599 202 614.50 249.50Q630 297 630 355L630 363Q630 418 615 465Q600 512 571.50 546Q543 580 501.50 599.50Q460 619 408 619Q355 619 314 600.50Q273 582 244 548Q215 514 200 467Q185 420 185 362L185 354Q185 295 202 248Q219 201 249 167Q279 133 320 115Q361 97 410 97M408-10Q326-10 259 17.50Q192 45 145 94Q98 143 72 209.50Q46 276 46 353L46 361Q46 439 72.50 506Q99 573 147 621.50Q195 670 261.50 697.50Q328 725 408 725Q488 725 554 698Q620 671 667.50 623Q715 575 741.50 509Q768 443 768 364L768 356Q768 278 742.50 211Q717 144 669.50 95Q622 46 555.50 18Q489-10 408-10M269 901L405 901L458 766L367 766L269 901Z"  horiz-adv-x="818" vert-adv-y="1000"  />

      
      <glyph glyph-name="unid3" unicode="&#xd3;" d="M410 97Q461 97 501.50 115.50Q542 134 570.50 168Q599 202 614.50 249.50Q630 297 630 355L630 363Q630 418 615 465Q600 512 571.50 546Q543 580 501.50 599.50Q460 619 408 619Q355 619 314 600.50Q273 582 244 548Q215 514 200 467Q185 420 185 362L185 354Q185 295 202 248Q219 201 249 167Q279 133 320 115Q361 97 410 97M408-10Q326-10 259 17.50Q192 45 145 94Q98 143 72 209.50Q46 276 46 353L46 361Q46 439 72.50 506Q99 573 147 621.50Q195 670 261.50 697.50Q328 725 408 725Q488 725 554 698Q620 671 667.50 623Q715 575 741.50 509Q768 443 768 364L768 356Q768 278 742.50 211Q717 144 669.50 95Q622 46 555.50 18Q489-10 408-10M408 901L544 901L445 766L354 766L408 901Z"  horiz-adv-x="818" vert-adv-y="1000"  />

      
      <glyph glyph-name="unid4" unicode="&#xd4;" d="M410 97Q461 97 501.50 115.50Q542 134 570.50 168Q599 202 614.50 249.50Q630 297 630 355L630 363Q630 418 615 465Q600 512 571.50 546Q543 580 501.50 599.50Q460 619 408 619Q355 619 314 600.50Q273 582 244 548Q215 514 200 467Q185 420 185 362L185 354Q185 295 202 248Q219 201 249 167Q279 133 320 115Q361 97 410 97M408-10Q326-10 259 17.50Q192 45 145 94Q98 143 72 209.50Q46 276 46 353L46 361Q46 439 72.50 506Q99 573 147 621.50Q195 670 261.50 697.50Q328 725 408 725Q488 725 554 698Q620 671 667.50 623Q715 575 741.50 509Q768 443 768 364L768 356Q768 278 742.50 211Q717 144 669.50 95Q622 46 555.50 18Q489-10 408-10M355 901L459 901L567 766L479 766L405 821L330 766L244 766L355 901Z"  horiz-adv-x="818" vert-adv-y="1000"  />

      
      <glyph glyph-name="unid5" unicode="&#xd5;" d="M410 97Q461 97 501.50 115.50Q542 134 570.50 168Q599 202 614.50 249.50Q630 297 630 355L630 363Q630 418 615 465Q600 512 571.50 546Q543 580 501.50 599.50Q460 619 408 619Q355 619 314 600.50Q273 582 244 548Q215 514 200 467Q185 420 185 362L185 354Q185 295 202 248Q219 201 249 167Q279 133 320 115Q361 97 410 97M408-10Q326-10 259 17.50Q192 45 145 94Q98 143 72 209.50Q46 276 46 353L46 361Q46 439 72.50 506Q99 573 147 621.50Q195 670 261.50 697.50Q328 725 408 725Q488 725 554 698Q620 671 667.50 623Q715 575 741.50 509Q768 443 768 364L768 356Q768 278 742.50 211Q717 144 669.50 95Q622 46 555.50 18Q489-10 408-10M464 768Q446 768 430.50 774Q415 780 401 787.50Q387 795 375 801Q363 807 352 807Q338 807 328 795.50Q318 784 315 767L239 767Q244 830 275 864Q306 898 348 898Q365 898 380.50 891.50Q396 885 410 877.50Q424 870 436.50 864Q449 858 461 858Q475 858 484.50 869.50Q494 881 497 898L574 898Q568 835 537 801.50Q506 768 464 768Z"  horiz-adv-x="818" vert-adv-y="1000"  />

      
      <glyph glyph-name="unid6" unicode="&#xd6;" d="M410 97Q461 97 501.50 115.50Q542 134 570.50 168Q599 202 614.50 249.50Q630 297 630 355L630 363Q630 418 615 465Q600 512 571.50 546Q543 580 501.50 599.50Q460 619 408 619Q355 619 314 600.50Q273 582 244 548Q215 514 200 467Q185 420 185 362L185 354Q185 295 202 248Q219 201 249 167Q279 133 320 115Q361 97 410 97M408-10Q326-10 259 17.50Q192 45 145 94Q98 143 72 209.50Q46 276 46 353L46 361Q46 439 72.50 506Q99 573 147 621.50Q195 670 261.50 697.50Q328 725 408 725Q488 725 554 698Q620 671 667.50 623Q715 575 741.50 509Q768 443 768 364L768 356Q768 278 742.50 211Q717 144 669.50 95Q622 46 555.50 18Q489-10 408-10M300 777Q273 777 253.50 796Q234 815 234 842Q234 869 253.50 888Q273 907 300 907Q327 907 346.50 888Q366 869 366 842Q366 815 346.50 796Q327 777 300 777M511 777Q484 777 464.50 796Q445 815 445 842Q445 869 464.50 888Q484 907 511 907Q538 907 557.50 888Q577 869 577 842Q577 815 557.50 796Q538 777 511 777Z"  horiz-adv-x="818" vert-adv-y="1000"  />

      
      <glyph glyph-name="unid7" unicode="&#xd7;" d="M35 181L189 334L34 488L100 555L254 400L408 554L474 488L320 334L475 180L408 114L254 269L101 115L35 181Z"  horiz-adv-x="513" vert-adv-y="1000"  />

      
      <glyph glyph-name="unid8" unicode="&#xd8;" d="M34 18L125 116Q87 164 66.50 224Q46 284 46 353L46 361Q46 439 72.50 505.50Q99 572 147 620.50Q195 669 261.50 696.50Q328 724 408 724Q472 724 527 706.50Q582 689 627 657L705 741L755 691L680 610Q722 562 745.50 500Q769 438 769 364L769 356Q769 278 743 211Q717 144 670 95Q623 46 556 18Q489-10 408-10Q338-10 279.50 10Q221 30 176 66L84-33L34 18M409 97Q460 97 501.50 115.50Q543 134 571.50 168Q600 202 615.50 249.50Q631 297 631 356L631 364Q631 455 594 518L258 154Q318 97 409 97M184 354Q184 272 215 213L548 572Q492 619 408 619Q355 619 313.50 600.50Q272 582 243 548Q214 514 199 467Q184 420 184 362L184 354Z"  horiz-adv-x="818" vert-adv-y="1000"  />

      
      <glyph glyph-name="unid9" unicode="&#xd9;" d="M357-10Q222-10 149 61.50Q76 133 76 272L76 715L210 715L210 282Q210 183 244 140Q278 97 358 97Q397 97 426 106.50Q455 116 474.50 138.50Q494 161 503.50 198Q513 235 513 291L513 715L647 715L647 280Q647 139 573.50 64.50Q500-10 357-10M223 901L359 901L412 766L321 766L223 901Z"  horiz-adv-x="727" vert-adv-y="1000"  />

      
      <glyph glyph-name="unida" unicode="&#xda;" d="M357-10Q222-10 149 61.50Q76 133 76 272L76 715L210 715L210 282Q210 183 244 140Q278 97 358 97Q397 97 426 106.50Q455 116 474.50 138.50Q494 161 503.50 198Q513 235 513 291L513 715L647 715L647 280Q647 139 573.50 64.50Q500-10 357-10M362 901L498 901L399 766L308 766L362 901Z"  horiz-adv-x="727" vert-adv-y="1000"  />

      
      <glyph glyph-name="unidb" unicode="&#xdb;" d="M357-10Q222-10 149 61.50Q76 133 76 272L76 715L210 715L210 282Q210 183 244 140Q278 97 358 97Q397 97 426 106.50Q455 116 474.50 138.50Q494 161 503.50 198Q513 235 513 291L513 715L647 715L647 280Q647 139 573.50 64.50Q500-10 357-10M309 901L413 901L521 766L433 766L359 821L284 766L198 766L309 901Z"  horiz-adv-x="727" vert-adv-y="1000"  />

      
      <glyph glyph-name="unidc" unicode="&#xdc;" d="M357-10Q222-10 149 61.50Q76 133 76 272L76 715L210 715L210 282Q210 183 244 140Q278 97 358 97Q397 97 426 106.50Q455 116 474.50 138.50Q494 161 503.50 198Q513 235 513 291L513 715L647 715L647 280Q647 139 573.50 64.50Q500-10 357-10M254 777Q227 777 207.50 796Q188 815 188 842Q188 869 207.50 888Q227 907 254 907Q281 907 300.50 888Q320 869 320 842Q320 815 300.50 796Q281 777 254 777M465 777Q438 777 418.50 796Q399 815 399 842Q399 869 418.50 888Q438 907 465 907Q492 907 511.50 888Q531 869 531 842Q531 815 511.50 796Q492 777 465 777Z"  horiz-adv-x="727" vert-adv-y="1000"  />

      
      <glyph glyph-name="unidd" unicode="&#xdd;" d="M254 310L17 715L164 715L325 419L482 715L612 715L388 309L388 0L254 0L254 310M319 901L455 901L356 766L265 766L319 901Z"  horiz-adv-x="633" vert-adv-y="1000"  />

      
      <glyph glyph-name="unide" unicode="&#xde;" d="M82 715L215 715L215 588L312 588Q372 588 421 575.50Q470 563 504.50 537Q539 511 558 470.50Q577 430 577 373L577 369Q577 312 557.50 271.50Q538 231 503.50 204.50Q469 178 420.50 165.50Q372 153 315 153L215 153L215 0L82 0L82 715M312 250Q378 250 412.50 279.50Q447 309 447 369L447 373Q447 437 411.50 462.50Q376 488 312 488L215 488L215 250L312 250Z"  horiz-adv-x="613" vert-adv-y="1000"  />

      
      <glyph glyph-name="unidf" unicode="&#xdf;" d="M353-9Q321-9 296.50-4.50Q272 0 260 5L260 101Q272 96 290.50 91Q309 86 332 86Q353 86 374 91.50Q395 97 411.50 112.50Q428 128 438.50 154.50Q449 181 449 223L449 230Q449 306 401.50 345Q354 384 275 382L275 477Q311 476 335.50 486Q360 496 375 512Q390 528 396.50 547.50Q403 567 403 587L403 591Q403 636 376.50 661Q350 686 299 686Q251 686 222 654Q193 622 193 566L193 0L72 0L72 557Q72 610 90.50 650.50Q109 691 141 718.50Q173 746 215 760Q257 774 304 774Q352 774 391.50 761.50Q431 749 459 726Q487 703 502.50 669Q518 635 518 593L518 590Q518 541 486.50 498Q455 455 399 437Q436 428 468 409Q500 390 523 363Q546 336 559.50 301Q573 266 573 225L573 219Q573 157 555 113.50Q537 70 507 43Q477 16 437 3.50Q397-9 353-9Z"  horiz-adv-x="612" vert-adv-y="1000"  />

      
      <glyph glyph-name="unie0" unicode="&#xe0;" d="M209-10Q173-10 141-1Q109 8 85.50 26.50Q62 45 48 74.50Q34 104 34 145Q34 191 55 222.50Q76 254 112 273.50Q148 293 197 302Q246 311 302 311L367 311L367 338Q367 391 346.50 417Q326 443 272 443Q224 443 200.50 421.50Q177 400 172 361L55 361Q59 407 78 439.50Q97 472 127 493Q157 514 196 524Q235 534 279 534Q323 534 361 524.50Q399 515 427.50 492.50Q456 470 472 433.50Q488 397 488 343L488 0L369 0L369 64Q343 30 306 10Q269-10 209-10M238 77Q294 77 330.50 104.50Q367 132 367 183L367 235L305 235Q236 235 195 216.50Q154 198 154 150Q154 117 173.50 97Q193 77 238 77M136 756L270 756L329 601L240 601L136 756Z"  horiz-adv-x="559" vert-adv-y="1000"  />

      
      <glyph glyph-name="unie1" unicode="&#xe1;" d="M209-10Q173-10 141-1Q109 8 85.50 26.50Q62 45 48 74.50Q34 104 34 145Q34 191 55 222.50Q76 254 112 273.50Q148 293 197 302Q246 311 302 311L367 311L367 338Q367 391 346.50 417Q326 443 272 443Q224 443 200.50 421.50Q177 400 172 361L55 361Q59 407 78 439.50Q97 472 127 493Q157 514 196 524Q235 534 279 534Q323 534 361 524.50Q399 515 427.50 492.50Q456 470 472 433.50Q488 397 488 343L488 0L369 0L369 64Q343 30 306 10Q269-10 209-10M238 77Q294 77 330.50 104.50Q367 132 367 183L367 235L305 235Q236 235 195 216.50Q154 198 154 150Q154 117 173.50 97Q193 77 238 77M288 756L422 756L318 601L229 601L288 756Z"  horiz-adv-x="559" vert-adv-y="1000"  />

      
      <glyph glyph-name="unie2" unicode="&#xe2;" d="M209-10Q173-10 141-1Q109 8 85.50 26.50Q62 45 48 74.50Q34 104 34 145Q34 191 55 222.50Q76 254 112 273.50Q148 293 197 302Q246 311 302 311L367 311L367 338Q367 391 346.50 417Q326 443 272 443Q224 443 200.50 421.50Q177 400 172 361L55 361Q59 407 78 439.50Q97 472 127 493Q157 514 196 524Q235 534 279 534Q323 534 361 524.50Q399 515 427.50 492.50Q456 470 472 433.50Q488 397 488 343L488 0L369 0L369 64Q343 30 306 10Q269-10 209-10M238 77Q294 77 330.50 104.50Q367 132 367 183L367 235L305 235Q236 235 195 216.50Q154 198 154 150Q154 117 173.50 97Q193 77 238 77M223 753L319 753L430 602L344 602L269 670L193 602L109 602L223 753Z"  horiz-adv-x="559" vert-adv-y="1000"  />

      
      <glyph glyph-name="unie3" unicode="&#xe3;" d="M209-10Q173-10 141-1Q109 8 85.50 26.50Q62 45 48 74.50Q34 104 34 145Q34 191 55 222.50Q76 254 112 273.50Q148 293 197 302Q246 311 302 311L367 311L367 338Q367 391 346.50 417Q326 443 272 443Q224 443 200.50 421.50Q177 400 172 361L55 361Q59 407 78 439.50Q97 472 127 493Q157 514 196 524Q235 534 279 534Q323 534 361 524.50Q399 515 427.50 492.50Q456 470 472 433.50Q488 397 488 343L488 0L369 0L369 64Q343 30 306 10Q269-10 209-10M238 77Q294 77 330.50 104.50Q367 132 367 183L367 235L305 235Q236 235 195 216.50Q154 198 154 150Q154 117 173.50 97Q193 77 238 77M337 606Q319 606 303.50 612Q288 618 274.50 625.50Q261 633 249 639.50Q237 646 226 646Q212 646 202 634.50Q192 623 189 606L114 606Q120 669 149.50 703Q179 737 221 737Q238 737 253.50 731Q269 725 282.50 717.50Q296 710 308.50 704Q321 698 333 698Q347 698 356.50 709Q366 720 369 738L444 738Q438 675 408.50 640.50Q379 606 337 606Z"  horiz-adv-x="559" vert-adv-y="1000"  />

      
      <glyph glyph-name="unie4" unicode="&#xe4;" d="M209-10Q173-10 141-1Q109 8 85.50 26.50Q62 45 48 74.50Q34 104 34 145Q34 191 55 222.50Q76 254 112 273.50Q148 293 197 302Q246 311 302 311L367 311L367 338Q367 391 346.50 417Q326 443 272 443Q224 443 200.50 421.50Q177 400 172 361L55 361Q59 407 78 439.50Q97 472 127 493Q157 514 196 524Q235 534 279 534Q323 534 361 524.50Q399 515 427.50 492.50Q456 470 472 433.50Q488 397 488 343L488 0L369 0L369 64Q343 30 306 10Q269-10 209-10M238 77Q294 77 330.50 104.50Q367 132 367 183L367 235L305 235Q236 235 195 216.50Q154 198 154 150Q154 117 173.50 97Q193 77 238 77M180 613Q153 613 133.50 632Q114 651 114 678Q114 704 133.50 723.50Q153 743 180 743Q207 743 226.50 723.50Q246 704 246 678Q246 651 226.50 632Q207 613 180 613M378 613Q350 613 331 632Q312 651 312 678Q312 704 331 723.50Q350 743 378 743Q405 743 424.50 723.50Q444 704 444 678Q444 651 424.50 632Q405 613 378 613Z"  horiz-adv-x="559" vert-adv-y="1000"  />

      
      <glyph glyph-name="unie5" unicode="&#xe5;" d="M209-10Q173-10 141-1Q109 8 85.50 26.50Q62 45 48 74.50Q34 104 34 145Q34 191 55 222.50Q76 254 112 273.50Q148 293 197 302Q246 311 302 311L367 311L367 338Q367 391 346.50 417Q326 443 272 443Q224 443 200.50 421.50Q177 400 172 361L55 361Q59 407 78 439.50Q97 472 127 493Q157 514 196 524Q235 534 279 534Q323 534 361 524.50Q399 515 427.50 492.50Q456 470 472 433.50Q488 397 488 343L488 0L369 0L369 64Q343 30 306 10Q269-10 209-10M238 77Q294 77 330.50 104.50Q367 132 367 183L367 235L305 235Q236 235 195 216.50Q154 198 154 150Q154 117 173.50 97Q193 77 238 77M279 643Q301 643 315 659Q329 675 329 698Q329 722 315 737.50Q301 753 279 753Q257 753 243 737.50Q229 722 229 698Q229 675 243 659Q257 643 279 643M279 590Q256 590 236 598.50Q216 607 201 622Q186 637 177 656.50Q168 676 168 698Q168 720 177 739.50Q186 759 201 774Q216 789 236 797.50Q256 806 279 806Q302 806 322 797.50Q342 789 357 774Q372 759 381 739.50Q390 720 390 698Q390 676 381 656.50Q372 637 357 622Q342 607 322 598.50Q302 590 279 590Z"  horiz-adv-x="559" vert-adv-y="1000"  />

      
      <glyph glyph-name="unie6" unicode="&#xe6;" d="M620-10Q552-10 502 16Q452 42 421 90Q386 39 338.50 14.50Q291-10 216-10Q178-10 145-1Q112 8 87 26.50Q62 45 48 74.50Q34 104 34 145Q34 191 54.50 223Q75 255 111 275Q147 295 195.50 303.50Q244 312 300 312L368 312L368 338Q368 391 346 417Q324 443 273 443Q181 443 172 361L55 361Q59 407 78 439.50Q97 472 126.50 493Q156 514 194.50 524Q233 534 276 534Q333 534 375.50 517Q418 500 442 458Q473 494 516.50 514Q560 534 615 534Q662 534 705.50 519.50Q749 505 782.50 473Q816 441 836 391Q856 341 856 268L856 235L484 235Q487 162 521 121Q555 80 621 80Q674 80 702 101Q730 122 737 160L853 160Q840 77 778.50 33.50Q717-10 620-10M239 77Q296 77 332 104.50Q368 132 368 183L368 234L303 234Q235 234 194.50 217Q154 200 154 152Q154 117 173.50 97Q193 77 239 77M736 312Q731 383 700 414.50Q669 446 615 446Q562 446 528 411Q494 376 486 312L736 312Z"  horiz-adv-x="895" vert-adv-y="1000"  />

      
      <glyph glyph-name="unie7" unicode="&#xe7;" d="M283-219Q235-219 206.50-195.50Q178-172 173-131L239-131Q241-144 251-154Q261-164 279-164Q296-164 306-154.50Q316-145 316-130Q316-116 306.50-107Q297-98 281-98Q270-98 263-101Q256-104 251-107L217-75L257-7Q209-1 168.50 19.50Q128 40 99 73.50Q70 107 53.50 152.50Q37 198 37 255L37 263Q37 325 57.50 375Q78 425 114 460.50Q150 496 198 515Q246 534 301 534Q344 534 385 523.50Q426 513 458.50 490Q491 467 513 429.50Q535 392 540 338L423 338Q415 391 383 414Q351 437 303 437Q272 437 246 425.50Q220 414 201 391.50Q182 369 171.50 337Q161 305 161 265L161 257Q161 171 200 127Q239 83 306 83Q330 83 351.50 90Q373 97 390 111Q407 125 418 146Q429 167 432 195L543 195Q536 107 476 51Q416-5 315-10L292-50Q311-48 329-51.50Q347-55 361-65.50Q375-76 383.50-92.50Q392-109 392-133Q392-175 361-197Q330-219 283-219Z"  horiz-adv-x="579" vert-adv-y="1000"  />

      
      <glyph glyph-name="unie8" unicode="&#xe8;" d="M302-10Q244-10 195.50 8.50Q147 27 111.50 61.50Q76 96 56.50 145Q37 194 37 256L37 264Q37 325 56.50 374.50Q76 424 111 459.50Q146 495 193.50 514.50Q241 534 297 534Q346 534 390.50 519Q435 504 469 472Q503 440 523.50 390Q544 340 544 270L544 235L161 235Q164 160 200.50 120Q237 80 305 80Q360 80 389 101Q418 122 425 160L542 160Q529 77 466 33.50Q403-10 302-10M424 316Q419 384 386.50 415Q354 446 297 446Q242 446 207 411.50Q172 377 163 316L424 316M152 756L286 756L345 601L256 601L152 756Z"  horiz-adv-x="584" vert-adv-y="1000"  />

      
      <glyph glyph-name="unie9" unicode="&#xe9;" d="M302-10Q244-10 195.50 8.50Q147 27 111.50 61.50Q76 96 56.50 145Q37 194 37 256L37 264Q37 325 56.50 374.50Q76 424 111 459.50Q146 495 193.50 514.50Q241 534 297 534Q346 534 390.50 519Q435 504 469 472Q503 440 523.50 390Q544 340 544 270L544 235L161 235Q164 160 200.50 120Q237 80 305 80Q360 80 389 101Q418 122 425 160L542 160Q529 77 466 33.50Q403-10 302-10M424 316Q419 384 386.50 415Q354 446 297 446Q242 446 207 411.50Q172 377 163 316L424 316M304 756L438 756L334 601L245 601L304 756Z"  horiz-adv-x="584" vert-adv-y="1000"  />

      
      <glyph glyph-name="uniea" unicode="&#xea;" d="M302-10Q244-10 195.50 8.50Q147 27 111.50 61.50Q76 96 56.50 145Q37 194 37 256L37 264Q37 325 56.50 374.50Q76 424 111 459.50Q146 495 193.50 514.50Q241 534 297 534Q346 534 390.50 519Q435 504 469 472Q503 440 523.50 390Q544 340 544 270L544 235L161 235Q164 160 200.50 120Q237 80 305 80Q360 80 389 101Q418 122 425 160L542 160Q529 77 466 33.50Q403-10 302-10M424 316Q419 384 386.50 415Q354 446 297 446Q242 446 207 411.50Q172 377 163 316L424 316M248 753L344 753L455 602L369 602L294 670L218 602L134 602L248 753Z"  horiz-adv-x="584" vert-adv-y="1000"  />

      
      <glyph glyph-name="unieb" unicode="&#xeb;" d="M302-10Q244-10 195.50 8.50Q147 27 111.50 61.50Q76 96 56.50 145Q37 194 37 256L37 264Q37 325 56.50 374.50Q76 424 111 459.50Q146 495 193.50 514.50Q241 534 297 534Q346 534 390.50 519Q435 504 469 472Q503 440 523.50 390Q544 340 544 270L544 235L161 235Q164 160 200.50 120Q237 80 305 80Q360 80 389 101Q418 122 425 160L542 160Q529 77 466 33.50Q403-10 302-10M424 316Q419 384 386.50 415Q354 446 297 446Q242 446 207 411.50Q172 377 163 316L424 316M196 613Q169 613 149.50 632Q130 651 130 678Q130 704 149.50 723.50Q169 743 196 743Q223 743 242.50 723.50Q262 704 262 678Q262 651 242.50 632Q223 613 196 613M394 613Q366 613 347 632Q328 651 328 678Q328 704 347 723.50Q366 743 394 743Q421 743 440.50 723.50Q460 704 460 678Q460 651 440.50 632Q421 613 394 613Z"  horiz-adv-x="584" vert-adv-y="1000"  />

      
      <glyph glyph-name="uniec" unicode="&#xec;" d="M75 523L196 523L196 0L75 0L75 523M-7 756L127 756L186 601L97 601L-7 756Z"  horiz-adv-x="275" vert-adv-y="1000"  />

      
      <glyph glyph-name="unied" unicode="&#xed;" d="M75 523L196 523L196 0L75 0L75 523M145 756L279 756L175 601L86 601L145 756Z"  horiz-adv-x="275" vert-adv-y="1000"  />

      
      <glyph glyph-name="uniee" unicode="&#xee;" d="M75 523L196 523L196 0L75 0L75 523M89 753L185 753L296 602L210 602L135 670L59 602L-25 602L89 753Z"  horiz-adv-x="275" vert-adv-y="1000"  />

      
      <glyph glyph-name="unief" unicode="&#xef;" d="M39 613Q12 613-7.50 632Q-27 651-27 678Q-27 704-7.50 723.50Q12 743 39 743Q66 743 85.50 723.50Q105 704 105 678Q105 651 85.50 632Q66 613 39 613M231 613Q204 613 184.50 632Q165 651 165 678Q165 704 184.50 723.50Q204 743 231 743Q258 743 277.50 723.50Q297 704 297 678Q297 651 277.50 632Q258 613 231 613M75 523L196 523L196 0L75 0L75 523Z"  horiz-adv-x="275" vert-adv-y="1000"  />

      
      <glyph glyph-name="unif0" unicode="&#xf0;" d="M141 620L244 669Q213 696 181.50 720Q150 744 120 765L263 765Q280 755 299 743Q318 731 338 715L431 760L458 706L389 672Q425 639 458 598Q491 557 517 509Q543 461 558.50 406.50Q574 352 574 292L574 270Q574 207 554 155.50Q534 104 498 67Q462 30 412.50 10Q363-10 304-10Q246-10 197 9.50Q148 29 112.50 64Q77 99 57 149Q37 199 37 259L37 269Q37 328 56.50 376.50Q76 425 109 459.50Q142 494 184.50 512.50Q227 531 274 531Q320 531 351.50 514.50Q383 498 408 470Q387 512 357 551Q327 590 291 625L168 566L141 620M306 84Q374 84 412 131Q450 178 450 257L450 265Q450 346 412 392.50Q374 439 307 439Q239 439 200 393Q161 347 161 266L161 258Q161 177 199 130.50Q237 84 306 84Z"  horiz-adv-x="615" vert-adv-y="1000"  />

      
      <glyph glyph-name="unif1" unicode="&#xf1;" d="M72 523L193 523L193 440Q212 478 254.50 506Q297 534 362 534Q401 534 434 522Q467 510 491 485.50Q515 461 528 422Q541 383 541 329L541 0L420 0L420 318Q420 378 395 405.50Q370 433 316 433Q265 433 229 401.50Q193 370 193 308L193 0L72 0L72 523M361 606Q343 606 327.50 612Q312 618 298.50 625.50Q285 633 273 639.50Q261 646 250 646Q236 646 226 634.50Q216 623 213 606L138 606Q144 669 173.50 703Q203 737 245 737Q262 737 277.50 731Q293 725 306.50 717.50Q320 710 332.50 704Q345 698 357 698Q371 698 380.50 709Q390 720 393 738L468 738Q462 675 432.50 640.50Q403 606 361 606Z"  horiz-adv-x="612" vert-adv-y="1000"  />

      
      <glyph glyph-name="unif2" unicode="&#xf2;" d="M306 84Q374 84 412 130.50Q450 177 450 258L450 265Q450 346 412 392.50Q374 439 306 439Q238 439 199.50 393Q161 347 161 266L161 258Q161 177 199 130.50Q237 84 306 84M305-10Q247-10 198 9Q149 28 113 63Q77 98 57 147Q37 196 37 256L37 264Q37 325 57.50 374.50Q78 424 114 459.50Q150 495 199 514.50Q248 534 306 534Q363 534 412 515Q461 496 497 460.50Q533 425 553.50 376Q574 327 574 267L574 259Q574 198 553.50 148.50Q533 99 497 63.50Q461 28 412 9Q363-10 305-10M162 756L296 756L355 601L266 601L162 756Z"  horiz-adv-x="615" vert-adv-y="1000"  />

      
      <glyph glyph-name="unif3" unicode="&#xf3;" d="M306 84Q374 84 412 130.50Q450 177 450 258L450 265Q450 346 412 392.50Q374 439 306 439Q238 439 199.50 393Q161 347 161 266L161 258Q161 177 199 130.50Q237 84 306 84M305-10Q247-10 198 9Q149 28 113 63Q77 98 57 147Q37 196 37 256L37 264Q37 325 57.50 374.50Q78 424 114 459.50Q150 495 199 514.50Q248 534 306 534Q363 534 412 515Q461 496 497 460.50Q533 425 553.50 376Q574 327 574 267L574 259Q574 198 553.50 148.50Q533 99 497 63.50Q461 28 412 9Q363-10 305-10M314 756L448 756L344 601L255 601L314 756Z"  horiz-adv-x="615" vert-adv-y="1000"  />

      
      <glyph glyph-name="unif4" unicode="&#xf4;" d="M306 84Q374 84 412 130.50Q450 177 450 258L450 265Q450 346 412 392.50Q374 439 306 439Q238 439 199.50 393Q161 347 161 266L161 258Q161 177 199 130.50Q237 84 306 84M305-10Q247-10 198 9Q149 28 113 63Q77 98 57 147Q37 196 37 256L37 264Q37 325 57.50 374.50Q78 424 114 459.50Q150 495 199 514.50Q248 534 306 534Q363 534 412 515Q461 496 497 460.50Q533 425 553.50 376Q574 327 574 267L574 259Q574 198 553.50 148.50Q533 99 497 63.50Q461 28 412 9Q363-10 305-10M258 753L354 753L465 602L379 602L304 670L228 602L144 602L258 753Z"  horiz-adv-x="615" vert-adv-y="1000"  />

      
      <glyph glyph-name="unif5" unicode="&#xf5;" d="M306 84Q374 84 412 130.50Q450 177 450 258L450 265Q450 346 412 392.50Q374 439 306 439Q238 439 199.50 393Q161 347 161 266L161 258Q161 177 199 130.50Q237 84 306 84M305-10Q247-10 198 9Q149 28 113 63Q77 98 57 147Q37 196 37 256L37 264Q37 325 57.50 374.50Q78 424 114 459.50Q150 495 199 514.50Q248 534 306 534Q363 534 412 515Q461 496 497 460.50Q533 425 553.50 376Q574 327 574 267L574 259Q574 198 553.50 148.50Q533 99 497 63.50Q461 28 412 9Q363-10 305-10M363 606Q345 606 329.50 612Q314 618 300.50 625.50Q287 633 275 639.50Q263 646 252 646Q238 646 228 634.50Q218 623 215 606L140 606Q146 669 175.50 703Q205 737 247 737Q264 737 279.50 731Q295 725 308.50 717.50Q322 710 334.50 704Q347 698 359 698Q373 698 382.50 709Q392 720 395 738L470 738Q464 675 434.50 640.50Q405 606 363 606Z"  horiz-adv-x="615" vert-adv-y="1000"  />

      
      <glyph glyph-name="unif6" unicode="&#xf6;" d="M306 84Q374 84 412 130.50Q450 177 450 258L450 265Q450 346 412 392.50Q374 439 306 439Q238 439 199.50 393Q161 347 161 266L161 258Q161 177 199 130.50Q237 84 306 84M305-10Q247-10 198 9Q149 28 113 63Q77 98 57 147Q37 196 37 256L37 264Q37 325 57.50 374.50Q78 424 114 459.50Q150 495 199 514.50Q248 534 306 534Q363 534 412 515Q461 496 497 460.50Q533 425 553.50 376Q574 327 574 267L574 259Q574 198 553.50 148.50Q533 99 497 63.50Q461 28 412 9Q363-10 305-10M206 613Q179 613 159.50 632Q140 651 140 678Q140 704 159.50 723.50Q179 743 206 743Q233 743 252.50 723.50Q272 704 272 678Q272 651 252.50 632Q233 613 206 613M404 613Q376 613 357 632Q338 651 338 678Q338 704 357 723.50Q376 743 404 743Q431 743 450.50 723.50Q470 704 470 678Q470 651 450.50 632Q431 613 404 613Z"  horiz-adv-x="615" vert-adv-y="1000"  />

      
      <glyph glyph-name="unif7" unicode="&#xf7;" d="M270 71Q238 71 216 92.50Q194 114 194 146Q194 178 216 199.50Q238 221 270 221Q301 221 323.50 199.50Q346 178 346 146Q346 114 323.50 92.50Q301 71 270 71M37 387L504 387L504 296L37 296L37 387M270 461Q238 461 216 482.50Q194 504 194 536Q194 568 216 590Q238 612 270 612Q301 612 323.50 590Q346 568 346 536Q346 504 323.50 482.50Q301 461 270 461Z"  horiz-adv-x="544" vert-adv-y="1000"  />

      
      <glyph glyph-name="unif8" unicode="&#xf8;" d="M22 4L95 83Q67 117 52 160.50Q37 204 37 256L37 264Q37 325 57.50 374.50Q78 424 114 459.50Q150 495 199 514.50Q248 534 306 534Q397 534 465 486L532 559L579 517L512 444Q541 410 557.50 365.50Q574 321 574 267L574 259Q574 198 553.50 148.50Q533 99 497 63.50Q461 28 412 9Q363-10 305-10Q257-10 215.50 3Q174 16 141 40L69-38L22 4M306 84Q375 84 413 130.50Q451 177 451 257L451 265Q451 319 433 358L211 117Q247 84 306 84M161 258Q161 210 175 171L395 410Q357 440 306 440Q238 440 199.50 393.50Q161 347 161 266L161 258Z"  horiz-adv-x="615" vert-adv-y="1000"  />

      
      <glyph glyph-name="unif9" unicode="&#xf9;" d="M247-10Q208-10 175 1.50Q142 13 118 37Q94 61 80.50 98.50Q67 136 67 188L67 523L188 523L188 202Q188 142 213 114.50Q238 87 291 87Q315 87 337.50 95Q360 103 376.50 118.50Q393 134 403 157.50Q413 181 413 212L413 523L534 523L534 0L413 0L413 82Q393 44 352 17Q311-10 247-10M159 756L293 756L352 601L263 601L159 756Z"  horiz-adv-x="609" vert-adv-y="1000"  />

      
      <glyph glyph-name="unifa" unicode="&#xfa;" d="M247-10Q208-10 175 1.50Q142 13 118 37Q94 61 80.50 98.50Q67 136 67 188L67 523L188 523L188 202Q188 142 213 114.50Q238 87 291 87Q315 87 337.50 95Q360 103 376.50 118.50Q393 134 403 157.50Q413 181 413 212L413 523L534 523L534 0L413 0L413 82Q393 44 352 17Q311-10 247-10M311 756L445 756L341 601L252 601L311 756Z"  horiz-adv-x="609" vert-adv-y="1000"  />

      
      <glyph glyph-name="unifb" unicode="&#xfb;" d="M247-10Q208-10 175 1.50Q142 13 118 37Q94 61 80.50 98.50Q67 136 67 188L67 523L188 523L188 202Q188 142 213 114.50Q238 87 291 87Q315 87 337.50 95Q360 103 376.50 118.50Q393 134 403 157.50Q413 181 413 212L413 523L534 523L534 0L413 0L413 82Q393 44 352 17Q311-10 247-10M255 753L351 753L462 602L376 602L301 670L225 602L141 602L255 753Z"  horiz-adv-x="609" vert-adv-y="1000"  />

      
      <glyph glyph-name="unifc" unicode="&#xfc;" d="M247-10Q208-10 175 1.50Q142 13 118 37Q94 61 80.50 98.50Q67 136 67 188L67 523L188 523L188 202Q188 142 213 114.50Q238 87 291 87Q315 87 337.50 95Q360 103 376.50 118.50Q393 134 403 157.50Q413 181 413 212L413 523L534 523L534 0L413 0L413 82Q393 44 352 17Q311-10 247-10M203 613Q176 613 156.50 632Q137 651 137 678Q137 704 156.50 723.50Q176 743 203 743Q230 743 249.50 723.50Q269 704 269 678Q269 651 249.50 632Q230 613 203 613M401 613Q373 613 354 632Q335 651 335 678Q335 704 354 723.50Q373 743 401 743Q428 743 447.50 723.50Q467 704 467 678Q467 651 447.50 632Q428 613 401 613Z"  horiz-adv-x="609" vert-adv-y="1000"  />

      
      <glyph glyph-name="unifd" unicode="&#xfd;" d="M225 53L18 523L149 523L288 186L416 523L534 523L249-179L130-179L225 53M294 756L428 756L324 601L235 601L294 756Z"  horiz-adv-x="557" vert-adv-y="1000"  />

      
      <glyph glyph-name="unife" unicode="&#xfe;" d="M72 765L193 765L193 439Q204 458 221 475Q238 492 260.50 505Q283 518 309 526Q335 534 364 534Q413 534 455.50 516Q498 498 529 464Q560 430 578 380.50Q596 331 596 268L596 260Q596 197 578.50 147Q561 97 530.50 62Q500 27 457.50 8.50Q415-10 364-10Q301-10 257.50 17Q214 44 193 82L193-179L72-179L72 765M334 86Q401 86 436.50 129.50Q472 173 472 258L472 266Q472 309 461.50 341.50Q451 374 432 396Q413 418 388 428.50Q363 439 333 439Q270 439 229.50 396.50Q189 354 189 266L189 258Q189 170 228.50 128Q268 86 334 86Z"  horiz-adv-x="637" vert-adv-y="1000"  />

      
      <glyph glyph-name="uniff" unicode="&#xff;" d="M225 53L18 523L149 523L288 186L416 523L534 523L249-179L130-179L225 53M186 613Q159 613 139.50 632Q120 651 120 678Q120 704 139.50 723.50Q159 743 186 743Q213 743 232.50 723.50Q252 704 252 678Q252 651 232.50 632Q213 613 186 613M384 613Q356 613 337 632Q318 651 318 678Q318 704 337 723.50Q356 743 384 743Q411 743 430.50 723.50Q450 704 450 678Q450 651 430.50 632Q411 613 384 613Z"  horiz-adv-x="557" vert-adv-y="1000"  />

      
      <glyph glyph-name="uni0100" unicode="&#x0100;" d="M266 715L440 715L676 0L538 0L481 177L208 177L152 0L27 0L266 715M239 274L450 274L345 606L239 274M206 861L494 861L494 780L206 780L206 861Z"  horiz-adv-x="707" vert-adv-y="1000"  />

      
      <glyph glyph-name="uni0101" unicode="&#x0101;" d="M209-10Q173-10 141-1Q109 8 85.50 26.50Q62 45 48 74.50Q34 104 34 145Q34 191 55 222.50Q76 254 112 273.50Q148 293 197 302Q246 311 302 311L367 311L367 338Q367 391 346.50 417Q326 443 272 443Q224 443 200.50 421.50Q177 400 172 361L55 361Q59 407 78 439.50Q97 472 127 493Q157 514 196 524Q235 534 279 534Q323 534 361 524.50Q399 515 427.50 492.50Q456 470 472 433.50Q488 397 488 343L488 0L369 0L369 64Q343 30 306 10Q269-10 209-10M238 77Q294 77 330.50 104.50Q367 132 367 183L367 235L305 235Q236 235 195 216.50Q154 198 154 150Q154 117 173.50 97Q193 77 238 77M139 712L419 712L419 634L139 634L139 712Z"  horiz-adv-x="559" vert-adv-y="1000"  />

      
      <glyph glyph-name="uni0102" unicode="&#x0102;" d="M266 715L440 715L676 0L538 0L481 177L208 177L152 0L27 0L266 715M239 274L450 274L345 606L239 274M349 761Q286 761 246.50 799.50Q207 838 204 901L289 901Q293 875 307.50 860Q322 845 349 845Q376 845 391.50 860Q407 875 412 901L496 901Q494 870 482 844Q470 818 450.50 799.50Q431 781 405 771Q379 761 349 761Z"  horiz-adv-x="707" vert-adv-y="1000"  />

      
      <glyph glyph-name="uni0103" unicode="&#x0103;" d="M209-10Q173-10 141-1Q109 8 85.50 26.50Q62 45 48 74.50Q34 104 34 145Q34 191 55 222.50Q76 254 112 273.50Q148 293 197 302Q246 311 302 311L367 311L367 338Q367 391 346.50 417Q326 443 272 443Q224 443 200.50 421.50Q177 400 172 361L55 361Q59 407 78 439.50Q97 472 127 493Q157 514 196 524Q235 534 279 534Q323 534 361 524.50Q399 515 427.50 492.50Q456 470 472 433.50Q488 397 488 343L488 0L369 0L369 64Q343 30 306 10Q269-10 209-10M238 77Q294 77 330.50 104.50Q367 132 367 183L367 235L305 235Q236 235 195 216.50Q154 198 154 150Q154 117 173.50 97Q193 77 238 77M278 606Q216 606 176.50 645Q137 684 133 749L217 749Q221 722 235.50 706.50Q250 691 278 691Q306 691 322 706.50Q338 722 343 749L425 749Q423 717 411 690.50Q399 664 379.50 645Q360 626 334 616Q308 606 278 606Z"  horiz-adv-x="559" vert-adv-y="1000"  />

      
      <glyph glyph-name="uni0104" unicode="&#x0104;" d="M605-182Q554-182 523.50-160.50Q493-139 493-101Q493-67 517.50-41.50Q542-16 574 0L538 0L481 177L208 177L152 0L27 0L266 715L440 715L673 7Q602-34 602-76Q602-108 637-108Q662-108 680-99L680-168Q667-174 649-178Q631-182 605-182M239 274L450 274L345 606L239 274Z"  horiz-adv-x="707" vert-adv-y="1000"  />

      
      <glyph glyph-name="uni0105" unicode="&#x0105;" d="M421-182Q372-182 342-161Q312-140 312-102Q312-67 337-41.50Q362-16 394 0L369 0L369 64Q343 30 306 10Q269-10 209-10Q173-10 141-1Q109 8 85.50 26.50Q62 45 48 74.50Q34 104 34 145Q34 191 55 222.50Q76 254 112 273.50Q148 293 197 302Q246 311 302 311L367 311L367 338Q367 391 346.50 417Q326 443 272 443Q224 443 200.50 421.50Q177 400 172 361L55 361Q59 407 78 439.50Q97 472 127 493Q157 514 196 524Q235 534 279 534Q323 534 361 524.50Q399 515 427.50 492.50Q456 470 472 433.50Q488 397 488 343L488 7Q451-16 434.50-36Q418-56 418-77Q418-110 453-110Q476-110 496-101L496-168Q483-174 465-178Q447-182 421-182M238 77Q294 77 330.50 104.50Q367 132 367 183L367 235L305 235Q236 235 195 216.50Q154 198 154 150Q154 117 173.50 97Q193 77 238 77Z"  horiz-adv-x="559" vert-adv-y="1000"  />

      
      <glyph glyph-name="uni0106" unicode="&#x0106;" d="M395-10Q311-10 246 16Q181 42 136.50 89Q92 136 69 203Q46 270 46 353L46 361Q46 442 72 509Q98 576 144.50 624Q191 672 254.50 699Q318 726 393 726Q454 726 507.50 710.50Q561 695 602 664Q643 633 668.50 586Q694 539 700 476L565 476Q554 548 513 584Q472 620 394 620Q347 620 308.50 602Q270 584 243 551Q216 518 201 470Q186 422 186 362L186 354Q186 233 240.50 165.50Q295 98 395 98Q470 98 518.50 135.50Q567 173 578 249L708 249Q700 184 674 135.50Q648 87 607.50 55Q567 23 513 6.50Q459-10 395-10M396 901L532 901L433 766L342 766L396 901Z"  horiz-adv-x="745" vert-adv-y="1000"  />

      
      <glyph glyph-name="uni0107" unicode="&#x0107;" d="M301-10Q245-10 196.50 8Q148 26 112.50 60Q77 94 57 143Q37 192 37 255L37 263Q37 325 57.50 375Q78 425 114 460.50Q150 496 198 515Q246 534 301 534Q344 534 385 523.50Q426 513 458.50 490Q491 467 513 429.50Q535 392 540 338L423 338Q415 391 383 414Q351 437 303 437Q272 437 246 425.50Q220 414 201 391.50Q182 369 171.50 337Q161 305 161 265L161 257Q161 171 200 127Q239 83 306 83Q330 83 351.50 90Q373 97 390 111Q407 125 418 146Q429 167 432 195L543 195Q540 150 521.50 112.50Q503 75 472 47.50Q441 20 397.50 5Q354-10 301-10M307 756L441 756L337 601L248 601L307 756Z"  horiz-adv-x="579" vert-adv-y="1000"  />

      
      <glyph glyph-name="uni0108" unicode="&#x0108;" d="M395-10Q311-10 246 16Q181 42 136.50 89Q92 136 69 203Q46 270 46 353L46 361Q46 442 72 509Q98 576 144.50 624Q191 672 254.50 699Q318 726 393 726Q454 726 507.50 710.50Q561 695 602 664Q643 633 668.50 586Q694 539 700 476L565 476Q554 548 513 584Q472 620 394 620Q347 620 308.50 602Q270 584 243 551Q216 518 201 470Q186 422 186 362L186 354Q186 233 240.50 165.50Q295 98 395 98Q470 98 518.50 135.50Q567 173 578 249L708 249Q700 184 674 135.50Q648 87 607.50 55Q567 23 513 6.50Q459-10 395-10M343 901L447 901L555 766L467 766L393 821L318 766L232 766L343 901Z"  horiz-adv-x="745" vert-adv-y="1000"  />

      
      <glyph glyph-name="uni0109" unicode="&#x0109;" d="M301-10Q245-10 196.50 8Q148 26 112.50 60Q77 94 57 143Q37 192 37 255L37 263Q37 325 57.50 375Q78 425 114 460.50Q150 496 198 515Q246 534 301 534Q344 534 385 523.50Q426 513 458.50 490Q491 467 513 429.50Q535 392 540 338L423 338Q415 391 383 414Q351 437 303 437Q272 437 246 425.50Q220 414 201 391.50Q182 369 171.50 337Q161 305 161 265L161 257Q161 171 200 127Q239 83 306 83Q330 83 351.50 90Q373 97 390 111Q407 125 418 146Q429 167 432 195L543 195Q540 150 521.50 112.50Q503 75 472 47.50Q441 20 397.50 5Q354-10 301-10M251 753L347 753L458 602L372 602L297 670L221 602L137 602L251 753Z"  horiz-adv-x="579" vert-adv-y="1000"  />

      
      <glyph glyph-name="uni010A" unicode="&#x010A;" d="M395-10Q311-10 246 16Q181 42 136.50 89Q92 136 69 203Q46 270 46 353L46 361Q46 442 72 509Q98 576 144.50 624Q191 672 254.50 699Q318 726 393 726Q454 726 507.50 710.50Q561 695 602 664Q643 633 668.50 586Q694 539 700 476L565 476Q554 548 513 584Q472 620 394 620Q347 620 308.50 602Q270 584 243 551Q216 518 201 470Q186 422 186 362L186 354Q186 233 240.50 165.50Q295 98 395 98Q470 98 518.50 135.50Q567 173 578 249L708 249Q700 184 674 135.50Q648 87 607.50 55Q567 23 513 6.50Q459-10 395-10M391 775Q361 775 340.50 795Q320 815 320 844Q320 873 340.50 892.50Q361 912 391 912Q420 912 441 892.50Q462 873 462 844Q462 815 441 795Q420 775 391 775Z"  horiz-adv-x="745" vert-adv-y="1000"  />

      
      <glyph glyph-name="uni010B" unicode="&#x010B;" d="M301-10Q245-10 196.50 8Q148 26 112.50 60Q77 94 57 143Q37 192 37 255L37 263Q37 325 57.50 375Q78 425 114 460.50Q150 496 198 515Q246 534 301 534Q344 534 385 523.50Q426 513 458.50 490Q491 467 513 429.50Q535 392 540 338L423 338Q415 391 383 414Q351 437 303 437Q272 437 246 425.50Q220 414 201 391.50Q182 369 171.50 337Q161 305 161 265L161 257Q161 171 200 127Q239 83 306 83Q330 83 351.50 90Q373 97 390 111Q407 125 418 146Q429 167 432 195L543 195Q540 150 521.50 112.50Q503 75 472 47.50Q441 20 397.50 5Q354-10 301-10M299 611Q269 611 248.50 631Q228 651 228 680Q228 709 248.50 728.50Q269 748 299 748Q328 748 349 728.50Q370 709 370 680Q370 651 349 631Q328 611 299 611Z"  horiz-adv-x="579" vert-adv-y="1000"  />

      
      <glyph glyph-name="uni010C" unicode="&#x010C;" d="M395-10Q311-10 246 16Q181 42 136.50 89Q92 136 69 203Q46 270 46 353L46 361Q46 442 72 509Q98 576 144.50 624Q191 672 254.50 699Q318 726 393 726Q454 726 507.50 710.50Q561 695 602 664Q643 633 668.50 586Q694 539 700 476L565 476Q554 548 513 584Q472 620 394 620Q347 620 308.50 602Q270 584 243 551Q216 518 201 470Q186 422 186 362L186 354Q186 233 240.50 165.50Q295 98 395 98Q470 98 518.50 135.50Q567 173 578 249L708 249Q700 184 674 135.50Q648 87 607.50 55Q567 23 513 6.50Q459-10 395-10M232 901L320 901L395 846L469 901L555 901L445 766L340 766L232 901Z"  horiz-adv-x="745" vert-adv-y="1000"  />

      
      <glyph glyph-name="uni010D" unicode="&#x010D;" d="M301-10Q245-10 196.50 8Q148 26 112.50 60Q77 94 57 143Q37 192 37 255L37 263Q37 325 57.50 375Q78 425 114 460.50Q150 496 198 515Q246 534 301 534Q344 534 385 523.50Q426 513 458.50 490Q491 467 513 429.50Q535 392 540 338L423 338Q415 391 383 414Q351 437 303 437Q272 437 246 425.50Q220 414 201 391.50Q182 369 171.50 337Q161 305 161 265L161 257Q161 171 200 127Q239 83 306 83Q330 83 351.50 90Q373 97 390 111Q407 125 418 146Q429 167 432 195L543 195Q540 150 521.50 112.50Q503 75 472 47.50Q441 20 397.50 5Q354-10 301-10M137 753L224 753L299 686L374 753L458 753L345 602L249 602L137 753Z"  horiz-adv-x="579" vert-adv-y="1000"  />

      
      <glyph glyph-name="uni010E" unicode="&#x010E;" d="M293 105Q414 105 472 170.50Q530 236 530 355L530 363Q530 421 516.50 466.50Q503 512 474 544Q445 576 400 593Q355 610 292 610L215 610L215 105L293 105M82 715L299 715Q392 715 461.50 689.50Q531 664 577 618Q623 572 646 507.50Q669 443 669 365L669 356Q669 278 646 212.50Q623 147 577 100Q531 53 461 26.50Q391 0 297 0L82 0L82 715M162 901L250 901L325 846L399 901L485 901L375 766L270 766L162 901Z"  horiz-adv-x="718" vert-adv-y="1000"  />

      
      <glyph glyph-name="uni010F" unicode="&#x010F;" d="M268-10Q219-10 177 7Q135 24 104 57.50Q73 91 55.50 140Q38 189 38 253L38 261Q38 324 55.50 374.50Q73 425 104.50 460.50Q136 496 179 515Q222 534 273 534Q337 534 377.50 508Q418 482 440 443L440 765L561 765L561 0L440 0L440 88Q429 68 412 50.50Q395 33 372.50 19.50Q350 6 323.50-2Q297-10 268-10M298 86Q361 86 402.50 128.50Q444 171 444 259L444 267Q444 354 406.50 396.50Q369 439 303 439Q236 439 199 394Q162 349 162 264L162 256Q162 170 200.50 128Q239 86 298 86M615 765L725 765L676 590L605 590L615 765Z"  horiz-adv-x="637" vert-adv-y="1000"  />

      
      <glyph glyph-name="uni0110" unicode="&#x0110;" d="M32 406L101 406L101 715L318 715Q411 715 480.50 689.50Q550 664 596 618Q642 572 665 507.50Q688 443 688 365L688 356Q688 278 665.50 212.50Q643 147 597 100Q551 53 481 26.50Q411 0 317 0L101 0L101 311L32 311L32 406M313 105Q434 105 491.50 170.50Q549 236 549 355L549 363Q549 421 535.50 466.50Q522 512 493.50 544Q465 576 420 593Q375 610 312 610L233 610L233 406L406 406L406 311L233 311L233 105L313 105Z"  horiz-adv-x="743" vert-adv-y="1000"  />

      
      <glyph glyph-name="uni0111" unicode="&#x0111;" d="M271 679L440 679L440 765L561 765L561 679L629 679L629 604L561 604L561 0L440 0L440 88Q429 68 412 50.50Q395 33 372.50 19.50Q350 6 323.50-2Q297-10 268-10Q219-10 177 7Q135 24 104 57.50Q73 91 55.50 140Q38 189 38 253L38 261Q38 324 55.50 374.50Q73 425 104.50 460.50Q136 496 179 515Q222 534 273 534Q337 534 377.50 508Q418 482 440 443L440 604L271 604L271 679M298 86Q361 86 402.50 128.50Q444 171 444 259L444 267Q444 354 406.50 396.50Q369 439 303 439Q236 439 199 394Q162 349 162 264L162 256Q162 170 200.50 128Q239 86 298 86Z"  horiz-adv-x="637" vert-adv-y="1000"  />

      
      <glyph glyph-name="uni0112" unicode="&#x0112;" d="M82 715L529 715L529 610L215 610L215 414L467 414L467 314L215 314L215 105L546 105L546 0L82 0L82 715M169 861L457 861L457 780L169 780L169 861Z"  horiz-adv-x="588" vert-adv-y="1000"  />

      
      <glyph glyph-name="uni0113" unicode="&#x0113;" d="M302-10Q244-10 195.50 8.50Q147 27 111.50 61.50Q76 96 56.50 145Q37 194 37 256L37 264Q37 325 56.50 374.50Q76 424 111 459.50Q146 495 193.50 514.50Q241 534 297 534Q346 534 390.50 519Q435 504 469 472Q503 440 523.50 390Q544 340 544 270L544 235L161 235Q164 160 200.50 120Q237 80 305 80Q360 80 389 101Q418 122 425 160L542 160Q529 77 466 33.50Q403-10 302-10M424 316Q419 384 386.50 415Q354 446 297 446Q242 446 207 411.50Q172 377 163 316L424 316M155 712L435 712L435 634L155 634L155 712Z"  horiz-adv-x="584" vert-adv-y="1000"  />

      
      <glyph glyph-name="uni0114" unicode="&#x0114;" d="M82 715L529 715L529 610L215 610L215 414L467 414L467 314L215 314L215 105L546 105L546 0L82 0L82 715M316 761Q253 761 213.50 799.50Q174 838 171 901L256 901Q260 875 274.50 860Q289 845 316 845Q343 845 358.50 860Q374 875 379 901L463 901Q461 870 449 844Q437 818 417.50 799.50Q398 781 372 771Q346 761 316 761Z"  horiz-adv-x="588" vert-adv-y="1000"  />

      
      <glyph glyph-name="uni0115" unicode="&#x0115;" d="M302-10Q244-10 195.50 8.50Q147 27 111.50 61.50Q76 96 56.50 145Q37 194 37 256L37 264Q37 325 56.50 374.50Q76 424 111 459.50Q146 495 193.50 514.50Q241 534 297 534Q346 534 390.50 519Q435 504 469 472Q503 440 523.50 390Q544 340 544 270L544 235L161 235Q164 160 200.50 120Q237 80 305 80Q360 80 389 101Q418 122 425 160L542 160Q529 77 466 33.50Q403-10 302-10M424 316Q419 384 386.50 415Q354 446 297 446Q242 446 207 411.50Q172 377 163 316L424 316M287 606Q225 606 185.50 645Q146 684 142 749L226 749Q230 722 244.50 706.50Q259 691 287 691Q315 691 331 706.50Q347 722 352 749L434 749Q432 717 420 690.50Q408 664 388.50 645Q369 626 343 616Q317 606 287 606Z"  horiz-adv-x="584" vert-adv-y="1000"  />

      
      <glyph glyph-name="uni0116" unicode="&#x0116;" d="M82 715L529 715L529 610L215 610L215 414L467 414L467 314L215 314L215 105L546 105L546 0L82 0L82 715M313 775Q283 775 262.50 795Q242 815 242 844Q242 873 262.50 892.50Q283 912 313 912Q342 912 363 892.50Q384 873 384 844Q384 815 363 795Q342 775 313 775Z"  horiz-adv-x="588" vert-adv-y="1000"  />

      
      <glyph glyph-name="uni0117" unicode="&#x0117;" d="M302-10Q244-10 195.50 8.50Q147 27 111.50 61.50Q76 96 56.50 145Q37 194 37 256L37 264Q37 325 56.50 374.50Q76 424 111 459.50Q146 495 193.50 514.50Q241 534 297 534Q346 534 390.50 519Q435 504 469 472Q503 440 523.50 390Q544 340 544 270L544 235L161 235Q164 160 200.50 120Q237 80 305 80Q360 80 389 101Q418 122 425 160L542 160Q529 77 466 33.50Q403-10 302-10M424 316Q419 384 386.50 415Q354 446 297 446Q242 446 207 411.50Q172 377 163 316L424 316M295 611Q265 611 244.50 631Q224 651 224 680Q224 709 244.50 728.50Q265 748 295 748Q324 748 345 728.50Q366 709 366 680Q366 651 345 631Q324 611 295 611Z"  horiz-adv-x="584" vert-adv-y="1000"  />

      
      <glyph glyph-name="uni0118" unicode="&#x0118;" d="M459-182Q408-182 378-160.50Q348-139 348-101Q348-67 372.50-41.50Q397-16 429 0L82 0L82 715L529 715L529 610L215 610L215 414L467 414L467 314L215 314L215 105L546 105L546 0L514 0Q485-20 471-38Q457-56 457-76Q457-108 492-108Q515-108 535-99L535-168Q522-174 503.50-178Q485-182 459-182Z"  horiz-adv-x="588" vert-adv-y="1000"  />

      
      <glyph glyph-name="uni0119" unicode="&#x0119;" d="M395-182Q345-182 315-161Q285-140 285-102Q285-72 307.50-47.50Q330-23 359-6Q346-8 331-9Q316-10 302-10Q244-10 195.50 8.50Q147 27 111.50 61.50Q76 96 56.50 145Q37 194 37 256L37 264Q37 325 56.50 374.50Q76 424 111 459.50Q146 495 193.50 514.50Q241 534 297 534Q346 534 390.50 519Q435 504 469 472Q503 440 523.50 390Q544 340 544 270L544 235L161 235Q164 160 200.50 120Q237 80 305 80Q360 80 389 101Q418 122 425 160L542 160Q537 131 527.50 109.50Q518 88 506 71.50Q494 55 481.50 43Q469 31 459 22Q428-6 409-30Q390-54 390-77Q390-110 425-110Q449-110 469-101L469-168Q455-174 438-178Q421-182 395-182M424 316Q419 384 386.50 415Q354 446 297 446Q242 446 207 411.50Q172 377 163 316L424 316Z"  horiz-adv-x="584" vert-adv-y="1000"  />

      
      <glyph glyph-name="uni011A" unicode="&#x011A;" d="M82 715L529 715L529 610L215 610L215 414L467 414L467 314L215 314L215 105L546 105L546 0L82 0L82 715M153 901L241 901L316 846L390 901L476 901L366 766L261 766L153 901Z"  horiz-adv-x="588" vert-adv-y="1000"  />

      
      </font>
</defs>
</svg>
