<svg width="100" height="100" viewBox="0 0 100 100" fill="none" xmlns="http://www.w3.org/2000/svg">
<rect width="100" height="100" rx="50" fill="#333638"/>
<path d="M46.5898 20.327C48.219 19.8596 49.6145 21.3059 49.717 23.0482C49.93 26.6718 50.6576 30.6633 52.5805 33.3359C53.5804 34.7257 55.5041 35.0576 56.7015 33.8456C57.9205 32.6118 58.8746 30.7396 59.6135 28.7176C60.3468 26.7109 62.6865 25.7606 64.3243 27.0802C71.9457 33.2208 79.7621 42.5888 79.7621 55.1843C79.7621 72.1516 66.4372 79.762 50.0002 79.762C33.5631 79.762 20.2383 72.1516 20.2383 55.1843C20.2383 37.9453 34.8803 26.7521 43.6243 21.6046C44.5744 21.0453 45.5702 20.6194 46.5898 20.327Z" fill="#FF4D01"/>
<path d="M51.0758 48.7896C50.3922 48.4194 49.6072 48.4194 48.9235 48.7896C46.2617 50.2309 39.583 54.568 39.583 61.8006C39.583 68.0365 44.2467 70.8334 49.9997 70.8334C55.7526 70.8334 60.4163 68.0365 60.4163 61.8006C60.4163 54.568 53.7377 50.2309 51.0758 48.7896Z" fill="#B93700"/>
</svg>
