<svg width="200" height="80" viewBox="0 0 200 80" fill="none" xmlns="http://www.w3.org/2000/svg">
<path d="M40.6297 51.7215L54.8199 61.8785L32.4264 57.714L40.6297 51.7215ZM26.7367 61.9642L32.1637 45.5862L23.6919 39.5365L26.7367 61.9642ZM52.4149 55.1491L63.3945 35.1835L49.2329 45.4034L52.4149 55.1491ZM56.1623 35.4406L40.5269 18.6741L45.9082 35.4177L56.1623 35.4406ZM38.4818 25.7291L18.0078 35.4349H35.3741L38.4818 25.7291Z" fill="white"/>
<path d="M175.173 45.7122L177.27 39.9139C177.328 39.7504 177.347 39.575 177.323 39.4028C177.3 39.2306 177.235 39.0666 177.135 38.9247C177.034 38.7828 176.901 38.6672 176.747 38.5878C176.592 38.5084 176.421 38.4675 176.247 38.4686H169.832C168.037 38.4052 166.274 38.9441 164.822 39.9996C164.107 40.5233 163.531 41.213 163.143 42.0092C162.754 42.8055 162.566 43.6843 162.594 44.5697C162.593 44.9561 162.648 45.3407 162.754 45.7122H159.829L163.479 35.4009C163.583 35.1087 163.614 34.7959 163.571 34.4888C163.529 34.1818 163.413 33.8894 163.234 33.6364C163.055 33.3834 162.817 33.1771 162.542 33.0348C162.267 32.8926 161.961 32.8185 161.651 32.8188H152.208C150.376 32.8188 149.234 33.5615 148.781 35.0468H158.538L157.338 38.4743H154.442C152.561 38.4133 150.708 38.934 149.135 39.9653C148.356 40.4799 147.722 41.1852 147.293 42.0142C146.864 42.8432 146.655 43.7682 146.684 44.7011C146.685 45.0442 146.73 45.3857 146.816 45.7179H139.064C137.856 45.7179 137.253 45.3371 137.253 44.5754C137.257 44.3943 137.289 44.215 137.35 44.0441L138.492 40.6851H141.686L140.183 43.6785H144.542C144.984 43.4382 145.351 43.0807 145.603 42.6453C145.855 42.2099 145.982 41.7136 145.97 41.2107C145.913 40.2243 145.29 39.4912 144.102 39.0113C143.113 38.6214 142.058 38.4274 140.994 38.4401H126.233C125.45 38.4401 125.228 38.3944 124.736 38.76C124.114 39.2227 124.525 40.5823 124.639 41.6848C124.733 42.5556 124.5 43.4304 123.987 44.1395C123.473 44.8487 122.714 45.342 121.857 45.5237C121.381 45.6303 120.894 45.6764 120.406 45.6608L124.188 35.0525H131.174C130.729 33.5672 129.586 32.8246 127.747 32.8246H122.606C121.825 32.8242 121.063 33.0656 120.424 33.5157C119.786 33.9657 119.303 34.6023 119.041 35.3381L117.978 38.4686H107.924C106.197 38.3822 104.485 38.8246 103.017 39.7368C102.459 40.1128 101.985 40.6004 101.625 41.1687C101.266 41.737 101.027 42.3738 100.926 43.0387C100.874 43.2925 100.845 43.5507 100.841 43.8099C100.833 44.5729 101.067 45.3188 101.509 45.9407H96.9731L100.801 35.0868L100.892 34.8354C100.941 34.5971 100.937 34.3507 100.879 34.1144C100.821 33.878 100.711 33.6574 100.557 33.4687C100.404 33.28 100.21 33.1278 99.9899 33.0234C99.77 32.9189 99.5301 32.8646 99.2867 32.8645H80.0124C78.19 32.8645 76.8362 33.8414 76.5334 35.0925H86.0392L82.2117 45.9464H73.6426C73.6426 47.1804 74.9679 48.1743 76.6248 48.1743H84.6224C85.2331 48.1285 85.8181 47.906 86.3048 47.5337C86.7915 47.1614 87.16 46.6556 87.3645 46.0778L91.2319 35.081H95.6535L91.7004 46.2492C91.6244 46.4654 91.6015 46.6967 91.6335 46.9235C91.6655 47.1504 91.7512 47.3663 91.8837 47.5531C92.0168 47.74 92.1922 47.8923 92.3956 47.9974C92.599 48.1025 92.8252 48.1573 93.0542 48.1572H106.936C107.124 48.1572 107.296 48.1572 107.507 48.1572C109.126 48.2166 110.724 47.7693 112.077 46.8776C112.673 46.4667 113.167 45.9254 113.523 45.2948C113.878 44.6643 114.085 43.9611 114.128 43.2386C114.151 42.7546 114.07 42.2712 113.888 41.8219C113.766 41.3701 113.501 40.9695 113.134 40.6794H117.167L115.608 45.0667C115.473 45.4333 115.398 45.819 115.385 46.2092C115.368 46.4754 115.424 46.7411 115.544 46.9791C115.664 47.217 115.846 47.4186 116.07 47.5631C116.428 47.7912 116.846 47.9085 117.27 47.9001H119.806C121.927 47.9496 124.029 47.4768 125.925 46.5234C127.049 45.9718 128.016 45.1446 128.735 44.1188C129.454 43.093 129.902 41.902 130.038 40.6565H133.122C132.332 41.5186 131.907 42.6526 131.934 43.8213C131.934 46.5444 134.191 47.9059 138.704 47.9059H167.301C168.604 47.9687 169.392 47.1461 170.003 46.4491C170.003 47.4165 170.765 47.9001 172.288 47.9001H177.572C179.404 47.9001 180.546 47.1575 181 45.6722H175.173V45.7122ZM108.17 45.975H107.713C106.228 45.975 105.279 45.5751 105.279 44.7753C105.281 44.594 105.314 44.4144 105.376 44.2441L106.633 40.6794H110.032L108.17 45.975ZM152.677 45.6265C151.888 45.459 151.494 45.0648 151.494 44.444C151.499 44.1869 151.546 43.9324 151.631 43.6899L152.688 40.6965H156.573L154.802 45.7122C154.092 45.728 153.383 45.7012 152.677 45.6322V45.6265ZM170.197 45.7122C168.621 45.7122 167.535 45.3066 167.535 44.5011C167.538 44.3077 167.567 44.1155 167.621 43.9299L168.598 40.6851H171.968L170.197 45.7122Z" fill="white"/>
<path d="M140.629 55.2862C140.358 55.713 139.975 56.0569 139.521 56.2802C139.47 56.2942 139.416 56.2939 139.366 56.2792C139.315 56.2645 139.27 56.236 139.234 56.197C139.198 56.1579 139.174 56.1098 139.164 56.058C139.155 56.0061 139.159 55.9525 139.178 55.9032C139.191 55.8052 139.215 55.7091 139.252 55.6176L140.258 52.6242H138.887L138.738 53.0926V53.0298C138.746 52.9685 138.737 52.9062 138.712 52.8498C138.686 52.7934 138.646 52.745 138.596 52.7099C138.423 52.6095 138.223 52.5656 138.024 52.5842C137.523 52.5799 137.036 52.7563 136.653 53.0812C136.244 53.4244 135.913 53.8509 135.682 54.3322C135.573 54.5544 135.483 54.7857 135.414 55.0235C135.348 55.2494 135.302 55.4807 135.276 55.7147C135.25 55.921 135.264 56.1304 135.316 56.3316C135.367 56.5619 135.5 56.7657 135.691 56.9046C135.881 57.0435 136.116 57.1079 136.35 57.0857C136.648 57.0715 136.939 56.9913 137.202 56.851C137.464 56.7108 137.693 56.5138 137.87 56.2745C137.856 56.3863 137.869 56.4997 137.907 56.6059C137.944 56.7121 138.005 56.8082 138.086 56.8867C138.167 56.9652 138.265 57.024 138.372 57.0585C138.479 57.0931 138.593 57.1023 138.704 57.0857C139.561 57.0857 140.264 56.423 140.898 55.4919L140.629 55.2862ZM137.95 55.4519C137.88 55.6736 137.749 55.8713 137.573 56.0232C137.426 56.1528 137.238 56.2257 137.042 56.2288C136.997 56.2302 136.953 56.2223 136.911 56.2056C136.87 56.1889 136.833 56.1637 136.802 56.1317C136.739 56.0519 136.697 55.9587 136.677 55.8596C136.657 55.7604 136.661 55.658 136.688 55.5604C136.701 55.4317 136.722 55.3039 136.75 55.1777C136.88 54.493 137.208 53.8615 137.693 53.3611C137.831 53.2074 138.024 53.1132 138.23 53.0983C138.292 53.0871 138.355 53.0928 138.413 53.115C138.472 53.1372 138.523 53.1749 138.561 53.224C138.599 53.2859 138.619 53.3571 138.618 53.4296L137.95 55.4519ZM174.008 55.4519C173.189 56.5373 172.27 57.08 171.249 57.08C170.876 57.1034 170.507 56.9873 170.215 56.7544C170.084 56.6119 169.989 56.4397 169.939 56.2526C169.89 56.0656 169.886 55.8692 169.929 55.6804C170.012 54.976 170.271 54.304 170.683 53.7267C170.987 53.2728 171.418 52.9189 171.923 52.7099C172.17 52.6025 172.436 52.5461 172.705 52.5442C173.46 52.5442 173.905 52.8013 173.848 53.3325C173.791 53.8638 172.991 53.8467 172.968 53.4354C172.968 53.1954 172.968 53.0069 172.785 53.0069C172.656 53.0338 172.534 53.0885 172.427 53.1675C172.32 53.2464 172.232 53.3476 172.169 53.4639C171.813 53.9442 171.554 54.4896 171.409 55.0692C171.354 55.2773 171.316 55.4893 171.294 55.7033C171.273 55.7852 171.271 55.8713 171.291 55.9538C171.311 56.0364 171.351 56.1126 171.408 56.1756C171.465 56.2386 171.536 56.2865 171.616 56.3147C171.696 56.343 171.782 56.3507 171.866 56.3374C172.193 56.3459 172.516 56.267 172.803 56.1089C173.112 55.9223 173.397 55.6999 173.654 55.4462H173.974L174.008 55.4519ZM86.428 52.5956C86.0155 52.5897 85.6133 52.7224 85.2854 52.9726L85.4454 52.5156H84.2058L84.0172 53.0869C84.0515 52.767 83.8116 52.607 83.2975 52.607C82.9079 52.6064 82.5257 52.7152 82.1949 52.9212C81.863 53.1224 81.5768 53.391 81.3552 53.7096C80.921 54.2903 80.644 54.9729 80.5497 55.6918C80.5097 55.8772 80.5097 56.069 80.5503 56.2542C80.5908 56.4395 80.6702 56.614 80.7839 56.7658C80.9044 56.8841 81.049 56.9754 81.2072 57.0335C81.366 57.0916 81.5351 57.1152 81.7036 57.1028C82.1321 57.095 82.5405 56.9232 82.8462 56.623L82.1607 58.6281H83.4117L84.0287 56.7944C84.1081 56.9107 84.2195 57.002 84.3486 57.0577C84.4783 57.1133 84.6211 57.131 84.7599 57.1086C85.1306 57.1158 85.4974 57.0328 85.8287 56.8665C86.1606 56.7003 86.4462 56.456 86.6622 56.1546C87.1198 55.5091 87.3905 54.7501 87.4448 53.9609C87.5288 53.0431 87.1877 52.5842 86.4223 52.5842L86.428 52.5956ZM83.1318 55.6004C83.0175 55.8541 82.8142 56.0572 82.5605 56.1717C82.4703 56.2107 82.3732 56.232 82.2749 56.2345C82.2343 56.2356 82.1938 56.228 82.1567 56.2123C82.1189 56.1965 82.0852 56.1729 82.0578 56.1431C81.9956 56.0634 81.9521 55.9704 81.9316 55.8714C81.911 55.7724 81.9127 55.6699 81.9379 55.5719C81.9893 55.2049 82.0875 54.846 82.2292 54.5036C82.3674 54.1659 82.5605 53.8532 82.8005 53.5782C82.881 53.4565 82.9873 53.3541 83.1112 53.2781C83.2358 53.2021 83.3752 53.1544 83.5203 53.1383C83.5648 53.1291 83.6111 53.1298 83.6556 53.1404C83.7002 53.1509 83.7419 53.171 83.7779 53.1993C83.8139 53.2276 83.843 53.2633 83.8636 53.3041C83.8841 53.3449 83.8956 53.3897 83.8973 53.4354L83.1318 55.6004ZM86.1138 53.9438C86.0744 54.3358 85.9801 54.7203 85.8339 55.0863C85.7156 55.4083 85.5374 55.7049 85.3083 55.9603C85.2055 56.0684 85.0861 56.1591 84.9541 56.2288C84.8176 56.2965 84.6668 56.3298 84.5142 56.3259C84.448 56.3352 84.3811 56.32 84.3252 56.2832C84.2692 56.2464 84.2292 56.1905 84.2115 56.126L85.0284 53.6581C85.1004 53.5345 85.2015 53.4304 85.3231 53.3547C85.4448 53.2791 85.5825 53.2342 85.7253 53.224C86.0527 53.2164 86.1898 53.4563 86.1366 53.9438H86.1138ZM157.853 55.2862L158.116 55.4862C157.447 56.4116 156.727 57.08 155.87 57.08C155.743 57.091 155.616 57.0693 155.499 57.0169C155.383 56.9645 155.281 56.8833 155.205 56.7808C155.129 56.6783 155.08 56.558 155.064 56.4314C155.047 56.3048 155.063 56.176 155.111 56.0574L155.471 54.9149H154.448L153.74 57.0286H152.386L153.848 52.6242H155.202L154.631 54.3894H155.653L156.225 52.6242H157.579L156.493 55.6176C156.455 55.7091 156.428 55.8051 156.413 55.9032C156.379 56.1546 156.47 56.3145 156.744 56.2802C157.195 56.0513 157.576 55.7086 157.853 55.2862ZM123.12 55.2862L123.383 55.4862C122.72 56.4116 121.995 57.08 121.138 57.08C121.01 57.0921 120.881 57.0711 120.764 57.0192C120.647 56.9673 120.545 56.8861 120.468 56.7835C120.391 56.6808 120.342 56.5601 120.325 56.433C120.309 56.3058 120.325 56.1766 120.372 56.0574L120.732 54.9149H119.692L118.984 57.0286H117.63L119.121 52.6242H120.475L119.904 54.3894H120.926L121.498 52.6242H122.852L121.766 55.6176C121.728 55.709 121.701 55.805 121.686 55.9032C121.652 56.1546 121.743 56.3145 122.018 56.2802C122.465 56.0505 122.845 55.7079 123.12 55.2862ZM105.651 55.2862L105.914 55.4862C105.245 56.4116 104.526 57.08 103.669 57.08C103.55 57.0912 103.43 57.0733 103.32 57.0277C103.21 56.9821 103.113 56.9102 103.037 56.8184C102.961 56.7266 102.908 56.6176 102.884 56.5009C102.86 56.3842 102.864 56.2633 102.897 56.1488C102.737 56.4067 102.52 56.6245 102.262 56.7859C102.005 56.9472 101.714 57.0478 101.412 57.08C101.158 57.0907 100.909 57.0004 100.721 56.8286C100.626 56.7197 100.558 56.5901 100.523 56.4503C100.487 56.3105 100.484 56.1642 100.515 56.0232C100.541 55.8285 100.587 55.637 100.652 55.4519L101.589 52.6242H102.943L101.949 55.6176C101.924 55.6995 101.907 55.7837 101.898 55.8689C101.871 56.1089 101.951 56.2288 102.138 56.2288C102.37 56.1722 102.584 56.0592 102.761 55.8997C102.939 55.7402 103.074 55.5393 103.154 55.3148C103.52 54.1723 104.006 52.6242 104.006 52.6242H105.36L104.268 55.6176C104.23 55.7089 104.203 55.8049 104.188 55.9032C104.154 56.1546 104.246 56.3145 104.52 56.2802C104.979 56.056 105.37 55.7127 105.651 55.2862Z" fill="white"/>
</svg>
