<svg width="200" height="80" viewBox="0 0 200 80" fill="none" xmlns="http://www.w3.org/2000/svg">
<path d="M154.558 39.6992H148.082L148.964 41.858H154.033C154.321 41.858 154.597 41.9724 154.801 42.1759C155.004 42.3795 155.118 42.6555 155.118 42.9434V43.7067H150.252C149.394 43.7098 148.572 44.0531 147.966 44.6611C147.36 45.2691 147.02 46.0925 147.02 46.9508V47.2728C147.02 48.1312 147.36 48.9545 147.966 49.5626C148.572 50.1706 149.394 50.5138 150.252 50.517H157.814V42.9315C157.812 42.5054 157.727 42.0839 157.562 41.6909C157.398 41.2979 157.158 40.9411 156.855 40.641C156.553 40.3409 156.195 40.1033 155.8 39.9417C155.406 39.7801 154.984 39.6977 154.558 39.6992ZM155.107 48.3462H150.789C150.501 48.3462 150.225 48.2319 150.021 48.0284C149.818 47.8248 149.704 47.5487 149.704 47.2609V46.9389C149.704 46.651 149.818 46.375 150.021 46.1715C150.225 45.9679 150.501 45.8535 150.789 45.8535H155.107V48.3462Z" fill="white"/>
<path d="M168.657 43.6947H163.362V39.6992H160.667V50.505H163.362V45.8535H168.657V50.505H171.365V39.6992H168.657V43.6947Z" fill="white"/>
<path d="M184.077 39.6992H180.905L177.911 43.6947H176.921V39.6992H174.214V50.505H176.921V45.8535H177.899L181.441 50.505H184.829L179.95 44.7801L184.077 39.6992Z" fill="white"/>
<path d="M140.603 39.6998H136.524V37.5172H143.096L143.966 35.3584H133.817V50.5056H140.603C141.783 50.5056 142.915 50.0369 143.749 49.2026C144.583 48.3683 145.052 47.2367 145.052 46.0568V44.1485C145.052 42.9687 144.583 41.8371 143.749 41.0028C142.915 40.1685 141.783 39.6998 140.603 39.6998ZM142.356 46.0568C142.356 46.6642 142.115 47.2467 141.686 47.6761C141.256 48.1055 140.674 48.3468 140.066 48.3468H136.488V41.8586H140.066C140.674 41.8586 141.256 42.0998 141.686 42.5293C142.115 42.9587 142.356 43.5412 142.356 44.1485V46.0568Z" fill="white"/>
<path d="M85.368 42.9314V47.249C85.368 47.5368 85.2537 47.8129 85.0502 48.0165C84.8466 48.2199 84.5705 48.3343 84.2827 48.3343H83.9607V50.4931H84.8194C85.6798 50.4931 86.5049 50.1513 87.1133 49.5429C87.7217 48.9346 88.0636 48.1093 88.0636 47.249V42.9314C88.0636 42.6436 88.1779 42.3675 88.3814 42.164C88.585 41.9604 88.861 41.8461 89.1488 41.8461H92.9295V50.4931H95.6371V39.6992H88.6122C87.7539 39.6992 86.9305 40.0394 86.3224 40.6452C85.7144 41.251 85.3712 42.0731 85.368 42.9314Z" fill="white"/>
<path d="M64.5101 41.858H69.4836L70.3542 39.6992H63.9614C63.1011 39.6992 62.2758 40.041 61.6675 40.6494C61.0591 41.2578 60.7173 42.083 60.7173 42.9434V47.2609C60.7173 48.1213 61.0591 48.9464 61.6675 49.5548C62.2758 50.1633 63.1011 50.505 63.9614 50.505H70.3423L69.4716 48.3462H64.5101C64.2222 48.3462 63.9461 48.2319 63.7426 48.0283C63.5391 47.8248 63.4247 47.5487 63.4247 47.2609V42.9314C63.4279 42.6456 63.5436 42.3726 63.7468 42.1717C63.95 41.9707 64.2242 41.858 64.5101 41.858Z" fill="white"/>
<path d="M79.3227 39.6992H75.0051C74.1468 39.7024 73.3247 40.0456 72.7189 40.6536C72.1131 41.2617 71.7729 42.085 71.7729 42.9434V47.2609C71.7729 48.1193 72.1131 48.9426 72.7189 49.5506C73.3247 50.1587 74.1468 50.5019 75.0051 50.505H79.3227C80.1831 50.505 81.0082 50.1633 81.6166 49.5548C82.225 48.9464 82.5668 48.1213 82.5668 47.2609V42.9314C82.5636 42.0731 82.2205 41.251 81.6124 40.6452C81.0043 40.0394 80.181 39.6992 79.3227 39.6992ZM79.8593 47.2609C79.8594 47.5467 79.7467 47.821 79.5457 48.0242C79.3447 48.2274 79.0717 48.3431 78.7859 48.3462H75.5418C75.256 48.3431 74.983 48.2274 74.7821 48.0242C74.5811 47.821 74.4684 47.5467 74.4684 47.2609V42.9314C74.4684 42.6456 74.5811 42.3714 74.7821 42.1681C74.983 41.965 75.256 41.8492 75.5418 41.8461H78.7859C79.0717 41.8492 79.3447 41.965 79.5457 42.1681C79.7467 42.3714 79.8594 42.6456 79.8593 42.9314V47.2609Z" fill="white"/>
<path d="M55.3278 39.6998H51.0103C50.8317 39.6841 50.6521 39.6841 50.4735 39.6998C50.501 39.1133 50.7528 38.5598 51.1767 38.1536C51.6007 37.7474 52.1644 37.5196 52.7515 37.5172H56.3893L57.2599 35.3584H52.2149C51.035 35.3584 49.9035 35.8271 49.0691 36.6614C48.2348 37.4957 47.7661 38.6272 47.7661 39.8072V47.2376C47.7661 48.098 48.1079 48.9232 48.7163 49.5315C49.3247 50.1399 50.1499 50.4817 51.0103 50.4817H55.3278C56.1882 50.4817 57.0133 50.1399 57.6217 49.5315C58.2301 48.9232 58.5719 48.098 58.5719 47.2376V42.932C58.5687 42.0737 58.2255 41.2516 57.6175 40.6458C57.0095 40.04 56.1861 39.6998 55.3278 39.6998ZM55.8645 47.2614C55.8645 47.5493 55.7502 47.8254 55.5466 48.0289C55.343 48.2324 55.067 48.3468 54.7792 48.3468H51.5469C51.2612 48.3436 50.9881 48.228 50.7872 48.0247C50.5863 47.8215 50.4735 47.5473 50.4735 47.2614V42.932C50.4766 42.6483 50.5907 42.377 50.7913 42.1764C50.992 41.9758 51.2632 41.8617 51.5469 41.8586H54.7911C55.079 41.8586 55.355 41.9729 55.5585 42.1765C55.7621 42.38 55.8765 42.6561 55.8765 42.9439L55.8645 47.2614Z" fill="white"/>
<path d="M116.284 41.858H119.635V50.505H122.343V41.858H126.123V39.6992H115.413L116.284 41.858Z" fill="white"/>
<path d="M111.011 39.6996H106.693C106.264 39.6933 105.839 39.7721 105.44 39.9315C105.042 40.091 104.679 40.3279 104.373 40.6285C104.067 40.9291 103.823 41.2875 103.657 41.6828C103.49 42.0782 103.403 42.5027 103.401 42.9317V43.6951H101.136V39.6996H98.4878V50.5053H101.183V45.8657H103.401V47.2732C103.401 48.1335 103.743 48.9587 104.351 49.5671C104.96 50.1755 105.785 50.5172 106.645 50.5172H110.963C111.823 50.5172 112.649 50.1755 113.257 49.5671C113.866 48.9587 114.207 48.1335 114.207 47.2732V42.9317C114.204 42.0817 113.868 41.2667 113.27 40.6622C112.672 40.0577 111.861 39.7121 111.011 39.6996ZM111.548 47.2612C111.548 47.5491 111.433 47.8251 111.229 48.0287C111.026 48.2322 110.75 48.3466 110.462 48.3466H107.23C106.945 48.3435 106.671 48.2277 106.47 48.0245C106.27 47.8213 106.157 47.547 106.157 47.2612V42.9317C106.157 42.646 106.27 42.3717 106.47 42.1685C106.671 41.9653 106.945 41.8496 107.23 41.8465H110.474C110.762 41.8465 111.038 41.9608 111.242 42.1643C111.445 42.3678 111.56 42.6439 111.56 42.9317L111.548 47.2612Z" fill="white"/>
<path d="M37.4103 35.3818L31.2917 50.5052H34.6194L35.812 47.261H42.3718L43.5646 50.5052H46.7848L40.6186 35.3818H37.4103ZM36.5396 45.1022L38.9966 38.1847L41.525 45.1022H36.5396Z" fill="white"/>
<path d="M21.1051 50.4692H15.7261L21.9758 56.7189C23.3752 58.0002 25.1742 58.7586 27.0686 58.8657H32.5191L26.1979 52.5326C24.7848 51.2849 22.9881 50.557 21.1051 50.4692Z" fill="white"/>
<path d="M24.2179 50.5525V41.6073C24.1157 39.728 23.3752 37.9397 22.1188 36.5384L18.2783 32.7456V41.5834C18.3786 43.4633 19.1194 45.2521 20.3775 46.6524L24.2179 50.5525Z" fill="white"/>
<path d="M32.6393 27.379V22L26.3538 28.2497C25.0976 29.6501 24.3607 31.4396 24.2666 33.3187V38.7692L30.5879 32.448C31.8286 31.041 32.5522 29.2529 32.6393 27.379Z" fill="white"/>
</svg>
