<svg width="200" height="80" viewBox="0 0 200 80" fill="none" xmlns="http://www.w3.org/2000/svg">
<path d="M98.5964 61.3497H100.44V58.2845H103.471V56.7839H100.44V55.2197H103.803V53.7227H98.5964V61.3497Z" fill="white"/>
<path d="M106.573 53.7227H104.729V61.3497H106.573V53.7227Z" fill="white"/>
<path d="M114.223 53.7227H112.383V58.1172H112.319L109.318 53.7227H107.731V61.3497H109.575V56.9477H109.623L112.658 61.3497H114.223V53.7227Z" fill="white"/>
<path d="M117.03 61.3497L117.533 59.7482H120.165L120.668 61.3497H122.649L120.076 53.7227H117.622L115.049 61.3497H117.03ZM117.972 58.3479L118.818 55.6443H118.877L119.726 58.3479H117.972Z" fill="white"/>
<path d="M129.963 53.7227H128.123V58.1172H128.06L125.058 53.7227H123.472V61.3497H125.315V56.9477H125.364L128.399 61.3497H129.963V53.7227Z" fill="white"/>
<path d="M138.045 56.4862C137.859 54.6613 136.499 53.6187 134.656 53.6187C132.623 53.6187 131.04 55.0152 131.04 57.5362C131.04 60.0466 132.585 61.4538 134.656 61.4538C136.749 61.4538 137.907 60.0316 138.045 58.6798L136.183 58.6683C136.053 59.4019 135.501 59.8378 134.693 59.8378C133.606 59.8378 132.92 59.0518 132.92 57.5362C132.92 56.0802 133.591 55.2349 134.704 55.2349C135.542 55.2349 136.089 55.7227 136.183 56.4862H138.045Z" fill="white"/>
<path d="M139.1 61.3497H144.418V59.8526H140.943V58.2845H144.146V56.7839H140.943V55.2197H144.418V53.7227H139.1V61.3497Z" fill="white"/>
<path d="M59.0017 61.3497C61.3255 61.3497 62.7667 59.916 62.7667 57.5325C62.7667 55.1527 61.3255 53.7227 58.998 53.7227H56.1826V61.3497H59.0017ZM58.026 59.7781V55.2942H58.9049C60.2158 55.2942 60.9196 55.8901 60.9196 57.5325C60.9196 59.1819 60.2158 59.7781 58.931 59.7781H58.026Z" fill="white"/>
<path d="M65.6882 53.7227H63.8447V61.3497H65.6882V53.7227Z" fill="white"/>
<path d="M71.85 56.2143H73.7157C73.5295 54.6949 72.174 53.6187 70.4088 53.6187C68.3717 53.6187 66.7629 55.0524 66.7629 57.5477C66.7629 59.9607 68.2451 61.4538 70.4311 61.4538C72.3937 61.4538 73.7977 60.2363 73.7977 58.1879V57.1787H70.5093V58.523H72.0213C72.0026 59.3275 71.444 59.8378 70.446 59.8378C69.3027 59.8378 68.6436 58.9924 68.6436 57.5252C68.6436 56.069 69.34 55.2349 70.446 55.2349C71.1834 55.2349 71.6861 55.5961 71.85 56.2143Z" fill="white"/>
<path d="M76.7279 53.7227H74.8845V61.3497H76.7279V53.7227Z" fill="white"/>
<path d="M77.6359 55.2197H79.9522V61.3497H81.7696V55.2197H84.0822V53.7227H77.6359V55.2197Z" fill="white"/>
<path d="M85.6782 61.3497L86.181 59.7482H88.8139L89.3166 61.3497H91.2978L88.7245 53.7227H86.2704L83.697 61.3497H85.6782ZM86.6204 58.3479L87.4658 55.6443H87.5253L88.3744 58.3479H86.6204Z" fill="white"/>
<path d="M92.1211 61.3497H97.1374V59.8526H93.9645V53.7227H92.1211V61.3497Z" fill="white"/>
<path d="M56.7237 65.5596H56V69.5546H56.7237V65.5596Z" fill="white"/>
<path d="M64.5533 65.5596H63.8335V68.2827H63.7984L61.9179 65.5596H61.2703V69.5546H61.994V66.8335H62.0271L63.9095 69.5546H64.5533V65.5596Z" fill="white"/>
<path d="M68.9299 66.1663H70.1647V69.5546H70.8826V66.1663H72.1174V65.5596H68.9299V66.1663Z" fill="white"/>
<path d="M76.4954 69.5546H79.1093V68.9478H77.2191V67.8577H78.9591V67.251H77.2191V66.1663H79.0937V65.5596H76.4954V69.5546Z" fill="white"/>
<path d="M83.5938 69.5546H84.3175V68.0919H85.0548L85.839 69.5546H86.6466L85.7825 67.9706C86.2526 67.7813 86.5003 67.3798 86.5003 66.8375C86.5003 66.0744 86.0087 65.5596 85.0919 65.5596H83.5938V69.5546ZM84.3175 67.4907V66.1643H84.9807C85.521 66.1643 85.7629 66.412 85.7629 66.8375C85.7629 67.2624 85.521 67.4907 84.9846 67.4907H84.3175Z" fill="white"/>
<path d="M94.2116 65.5596H93.4918V68.2827H93.4567L91.5762 65.5596H90.9286V69.5546H91.6523V66.8335H91.6855L93.5679 69.5546H94.2116V65.5596Z" fill="white"/>
<path d="M99.2755 69.5546L99.6052 68.5698H101.107L101.439 69.5546H102.211L100.803 65.5596H99.9095L98.5031 69.5546H99.2755ZM99.8003 67.9885L100.341 66.379H100.372L100.912 67.9885H99.8003Z" fill="white"/>
<path d="M105.844 66.1663H107.079V69.5546H107.796V66.1663H109.031V65.5596H105.844V66.1663Z" fill="white"/>
<path d="M114.131 65.5596H113.407V69.5546H114.131V65.5596Z" fill="white"/>
<path d="M122.248 67.5568C122.248 66.2654 121.46 65.5049 120.412 65.5049C119.363 65.5049 118.577 66.2654 118.577 67.5568C118.577 68.8462 119.363 69.6093 120.412 69.6093C121.46 69.6093 122.248 68.8482 122.248 67.5568ZM121.52 67.5568C121.52 68.4662 121.064 68.9596 120.412 68.9596C119.763 68.9596 119.304 68.4662 119.304 67.5568C119.304 66.648 119.763 66.1546 120.412 66.1546C121.064 66.1546 121.52 66.648 121.52 67.5568Z" fill="white"/>
<path d="M129.978 65.5596H129.258V68.2827H129.223L127.342 65.5596H126.694V69.5546H127.418V66.8335H127.451L129.334 69.5546H129.978V65.5596Z" fill="white"/>
<path d="M135.041 69.5546L135.371 68.5698H136.873L137.205 69.5546H137.977L136.569 65.5596H135.676L134.269 69.5546H135.041ZM135.566 67.9885L136.106 66.379H136.137L136.678 67.9885H135.566Z" fill="white"/>
<path d="M142.266 69.5546H144.749V68.9478H142.99V65.5596H142.266V69.5546Z" fill="white"/>
<path d="M117.833 20.0349L128.211 30.413L133.055 25.6406L121.364 14.0239C118.436 11.1145 113.707 11.122 110.788 14.0407L89.2619 35.5665C88.2478 36.5806 86.5898 36.534 85.6343 35.4644L78.1225 27.0559C77.2401 26.0681 77.2825 24.5634 78.219 23.6268L84.3289 17.517C85.304 16.5418 86.8849 16.5418 87.86 17.517L95.6388 25.2958L99.741 21.1936L90.7414 12.194C87.8161 9.26868 83.0732 9.26867 80.148 12.194L72.3429 19.9991C69.4176 22.9243 69.4176 27.6672 72.3429 30.5924L83.4532 41.7028C85.9885 44.238 90.0989 44.238 92.6341 41.7028L114.302 20.0349C115.277 19.0598 116.858 19.0598 117.833 20.0349Z" fill="white"/>
<path d="M120.885 37.817L116.53 42.1723L106.665 32.3074L111.021 27.9521L120.885 37.817Z" fill="white"/>
</svg>
