<svg width="200" height="80" viewBox="0 0 200 80" fill="none" xmlns="http://www.w3.org/2000/svg">
<path d="M49.784 65.5574H28.3377C26.7857 65.5574 25.8787 64.1767 25.8787 62.9673C25.8787 62.2518 26.1709 61.5967 26.6345 61.1331L35.9971 51.7705L49.784 65.5574Z" fill="#C4C4C4"/>
<path d="M28.3372 65.5575C26.7146 65.5575 24.6889 64.2675 24.6889 61.6875V32.8539C24.6889 28.9537 24.4873 26.2225 27.2689 23.4309L37.7099 13L56.2234 31.5438L26.634 61.1231C26.1603 61.5968 25.8781 62.2418 25.8781 62.9574C25.8781 64.1667 26.7852 65.5575 28.3372 65.5575Z" fill="white"/>
<path d="M64.7095 65.5272C62.4722 65.5272 60.8193 63.945 60.8193 61.5766C60.8193 59.2082 62.5326 57.626 64.7599 57.626C66.3422 57.626 67.4911 58.4625 68.0353 59.4804L66.8259 60.206C66.3623 59.4199 65.7274 58.9462 64.7095 58.9462C63.3691 58.9462 62.2706 59.954 62.2706 61.5766C62.2706 63.1387 63.359 64.207 64.7095 64.207C65.6669 64.207 66.3724 63.7837 66.9267 62.9875L68.1361 63.6729C67.2693 64.9326 66.3724 65.5272 64.7095 65.5272Z" fill="white"/>
<path d="M71.6936 65.5276C70.2121 65.5276 68.7507 64.5702 68.7507 62.6855C68.7507 60.8009 70.2121 59.8435 71.6936 59.8435C73.175 59.8435 74.6364 60.8009 74.6364 62.6855C74.6364 64.5802 73.165 65.5276 71.6936 65.5276ZM73.2456 62.6855C73.2456 61.6979 72.4998 61.1234 71.6936 61.1234C70.8873 61.1234 70.1415 61.6979 70.1415 62.6855C70.1415 63.6732 70.8873 64.2477 71.6936 64.2477C72.4897 64.2477 73.2456 63.6732 73.2456 62.6855Z" fill="white"/>
<path d="M75.0901 65.377V64.1676C75.0901 64.1676 75.2312 64.2281 75.4731 64.2281C75.8056 64.2281 75.977 63.9963 76.0274 63.0288L76.1987 59.9751H80.4315V65.3568H79.0609V61.2046H77.3879L77.2871 63.0691C77.2065 64.6211 76.7731 65.4274 75.5638 65.4274C75.3118 65.4576 75.0901 65.377 75.0901 65.377Z" fill="white"/>
<path d="M85.0371 64.5198C84.6542 65.1951 84.0092 65.5276 83.2331 65.5276C82.1649 65.5276 81.4191 64.8625 81.4191 63.8446C81.4191 62.7461 82.2455 62.2523 83.344 62.1011L84.9666 61.8794V61.6073C84.9666 61.0832 84.6441 60.7909 83.9588 60.7909C83.3641 60.7909 83.0114 61.063 83.0114 61.3956C83.0114 61.4359 83.0114 61.5065 83.0215 61.5468L81.7315 61.6879C81.7113 61.5871 81.7113 61.4863 81.7113 61.4057C81.7113 60.5692 82.5478 59.8335 83.9588 59.8335C85.4705 59.8335 86.3372 60.4785 86.3372 61.7887V64.0361C86.3372 64.6206 86.3876 65.0036 86.5085 65.3765H85.148C85.0875 65.1648 85.0371 64.8726 85.0371 64.5198ZM84.9565 62.9275V62.8267L83.6564 63.0081C83.0719 63.0988 82.7595 63.3105 82.7595 63.764C82.7595 64.1973 83.1021 64.4191 83.5254 64.4191C84.3216 64.4191 84.9565 63.9655 84.9565 62.9275Z" fill="white"/>
<path d="M88.8767 59.9947V60.7607C89.2395 60.2366 89.9349 59.8335 90.7411 59.8335C92.0916 59.8335 93.2203 60.8816 93.2203 62.6755C93.2203 64.3989 92.0614 65.5176 90.6303 65.5176C89.8744 65.5176 89.2697 65.1951 88.8867 64.7012V67.5836H87.5161V59.9847H88.8767V59.9947ZM88.796 62.6856C88.796 63.5624 89.441 64.2477 90.3178 64.2477C91.1946 64.2477 91.8396 63.5624 91.8396 62.6856C91.8396 61.8088 91.1946 61.1235 90.3178 61.1235C89.431 61.1235 88.796 61.8088 88.796 62.6856Z" fill="white"/>
<path d="M151.139 42.2666H148.035L144.337 46.0056V42.2666H141.706V52.5866H144.337V48.3135L148.096 52.5866H151.26L146.393 47.0436L151.139 42.2666Z" fill="white"/>
<path d="M68.0253 38.0139H61.4039V52.5768H64.1553V47.4975H68.0253C71.3107 47.4975 73.4775 45.8144 73.4775 42.7506C73.4775 39.6869 71.3107 38.0139 68.0253 38.0139ZM67.9446 45.0485H64.1553V40.473H67.9446C69.8595 40.473 70.7363 41.3901 70.7363 42.7607C70.7363 44.1314 69.8595 45.0485 67.9446 45.0485Z" fill="white"/>
<path d="M79.6757 41.9746C76.8437 41.9746 74.042 43.8088 74.042 47.4269C74.042 51.0449 76.8538 52.8792 79.6757 52.8792C82.5076 52.8792 85.3094 51.0449 85.3094 47.4269C85.3194 43.7988 82.5076 41.9746 79.6757 41.9746ZM79.6757 50.4201C78.1337 50.4201 76.7026 49.3216 76.7026 47.4269C76.7026 45.5322 78.1337 44.4337 79.6757 44.4337C81.2176 44.4337 82.6487 45.5322 82.6487 47.4269C82.6487 49.3115 81.2176 50.4201 79.6757 50.4201Z" fill="white"/>
<path d="M92.0113 50.4201C90.4291 50.4201 89.26 49.2712 89.26 47.4269C89.26 45.5927 90.4694 44.4337 92.0113 44.4337C92.9486 44.4337 93.7548 44.867 94.3998 45.8446L96.6473 44.5546C95.9015 42.9522 94.2789 41.9746 92.0315 41.9746C89.0987 41.9746 86.5994 44.1414 86.5994 47.4269C86.5994 50.7124 88.9677 52.8792 92.0315 52.8792C94.2386 52.8792 95.71 51.8814 96.7581 50.1077L94.5913 48.9185C93.9665 49.7953 93.3013 50.4201 92.0113 50.4201Z" fill="white"/>
<path d="M119.918 48.1119C119.797 49.6942 119.484 50.0469 118.94 50.0469C118.567 50.0469 118.396 50.0066 118.144 49.9361L118.154 52.6068C118.154 52.6068 118.476 52.7076 119.081 52.7076C121.308 52.7076 122.135 51.2765 122.346 48.2127L122.598 44.6148H125.551V52.5665H128.172V42.2666H120.351L119.918 48.1119Z" fill="white"/>
<path d="M112.49 41.9746C109.497 41.9746 107.058 44.1616 107.058 47.4269C107.058 50.6922 109.497 52.8792 112.359 52.8792C114.626 52.8792 116.057 52.0225 117.106 50.2588L115.029 49.2208C114.384 50.0371 113.8 50.6317 112.409 50.6317C110.867 50.6317 109.748 49.634 109.577 48.0517H117.529V47.1346C117.519 44.1112 115.443 41.9746 112.49 41.9746ZM109.617 46.0462C109.99 44.8771 111.028 43.9701 112.409 43.9701C113.87 43.9701 114.848 44.7562 115.09 46.0462H109.617Z" fill="white"/>
<path d="M135.085 41.9746C132.092 41.9746 129.653 44.1616 129.653 47.4269C129.653 50.6922 132.092 52.8792 134.954 52.8792C137.222 52.8792 138.653 52.0225 139.701 50.2588L137.625 49.2208C136.98 50.0371 136.395 50.6317 135.005 50.6317C133.463 50.6317 132.344 49.634 132.173 48.0517H140.124V47.1346C140.114 44.1112 138.038 41.9746 135.085 41.9746ZM132.213 46.0462C132.586 44.8771 133.624 43.9701 135.005 43.9701C136.466 43.9701 137.443 44.7562 137.685 46.0462H132.213Z" fill="white"/>
<path d="M97.5643 44.5543H100.648V52.5866H103.269V44.5543H106.352V42.2666H97.5643V44.5543Z" fill="white"/>
<path d="M156.462 41.9746C153.63 41.9746 150.828 43.8088 150.828 47.4269C150.828 51.0449 153.64 52.8792 156.462 52.8792C159.294 52.8792 162.095 51.0449 162.095 47.4269C162.105 43.7988 159.294 41.9746 156.462 41.9746ZM156.462 50.4201C154.92 50.4201 153.489 49.3216 153.489 47.4269C153.489 45.5322 154.92 44.4337 156.462 44.4337C158.004 44.4337 159.435 45.5322 159.435 47.4269C159.445 49.3115 158.004 50.4201 156.462 50.4201Z" fill="white"/>
<path d="M172.536 42.2566L169.694 49.4927L166.842 42.2566H163.415V52.5665H165.914V46.0359L168.676 52.5665H170.712L173.473 46.0359V52.5665H175.962V42.2566H172.536Z" fill="white"/>
</svg>
