<svg width="200" height="80" viewBox="0 0 200 80" fill="none" xmlns="http://www.w3.org/2000/svg">
<path d="M40.2326 60.2702C31.4156 51.4532 31.4156 37.1124 40.2326 28.2955L45.7033 22.8247C46.3407 22.1873 47.403 22.1873 48.0403 22.8247C48.6777 23.4621 48.6777 24.5244 48.0403 25.1617L42.5165 30.6325C34.9743 38.1747 34.9743 50.4441 42.5165 57.9332C50.0587 65.4222 62.3281 65.4753 69.8172 57.9332L83.5206 44.2828L75.2347 36.0501C74.5974 35.4127 74.5974 34.3505 75.2347 33.7131C75.8721 33.0757 76.9344 33.0757 77.5718 33.7131L87.0261 43.1674C87.6635 43.8048 87.6635 44.8671 87.0261 45.5044L72.2073 60.2702C63.3903 69.1402 49.0495 69.1402 40.2326 60.2702Z" fill="white"/>
<path d="M44.9068 55.5981C38.6924 49.3838 38.6924 39.292 44.9068 33.0777L50.3775 27.607C51.0148 26.9696 52.0771 26.9696 52.7145 27.607C53.3519 28.2443 53.3519 29.3066 52.7145 29.944L47.2438 35.3616C42.3041 40.3013 42.3041 48.3215 47.2438 53.2611C52.1833 58.2007 60.2036 58.2007 65.1432 53.2611L75.2349 43.1694C75.8722 42.532 76.9345 42.532 77.5719 43.1694C78.2092 43.8067 78.2092 44.869 77.5719 45.5064L67.4802 55.5981C61.2659 61.8125 51.1211 61.8125 44.9068 55.5981Z" fill="white"/>
<path d="M49.634 50.8712C46.0222 47.2595 46.0222 41.3638 49.634 37.7521L55.1047 32.2813C55.7421 31.6439 56.8044 31.6439 57.4418 32.2813C58.0791 32.9187 58.0791 33.9809 57.4418 34.6183L51.971 40.0891C49.634 42.4261 49.634 46.1972 51.971 48.5342C54.308 50.8713 58.0791 50.8713 60.4161 48.5342L65.8869 43.0635C66.5242 42.4261 67.5865 42.4261 68.2239 43.0635C68.8613 43.7008 68.8613 44.7631 68.2239 45.4005L62.7532 50.8712C59.1414 54.483 53.2458 54.483 49.634 50.8712Z" fill="white"/>
<path d="M55.0519 15.815C54.9457 15.7619 54.8926 15.6557 54.8395 15.5495C54.7863 15.4432 54.7332 15.3901 54.6801 15.2839C54.627 15.1777 54.627 15.0714 54.5739 14.9652C54.5739 14.859 54.5208 14.7528 54.5208 14.6465C54.5208 14.5403 54.5208 14.4341 54.5739 14.3279C54.5739 14.2216 54.627 14.1154 54.6801 14.0092C54.7332 13.9029 54.7863 13.7967 54.8395 13.7436C54.8926 13.6374 54.9457 13.5843 55.0519 13.478C55.105 13.4249 55.2113 13.3187 55.3175 13.2656C55.4237 13.2125 55.5299 13.1593 55.583 13.1062C55.6893 13.0531 55.7955 13.0531 55.9017 13C56.008 13 56.1142 13 56.2204 13C56.3266 13 56.4329 13 56.5391 13.0531C56.6453 13.1062 56.7516 13.1062 56.8578 13.1593C56.964 13.2125 57.0703 13.2656 57.1233 13.3187C57.2827 13.4249 57.442 13.5843 57.6014 13.7967C57.6545 13.9029 57.7076 13.9561 57.7607 14.0623C57.8138 14.1685 57.8139 14.2747 57.867 14.381C57.867 14.4872 57.92 14.5934 57.92 14.6996C57.92 15.1246 57.7607 15.5495 57.442 15.8682C57.3889 15.9213 57.2827 16.0275 57.1765 16.0806C57.0703 16.1337 57.0171 16.1868 56.9109 16.24C56.8047 16.2931 56.6984 16.2931 56.5922 16.3462C56.486 16.3462 56.3797 16.3993 56.2736 16.3993C56.1673 16.3993 56.061 16.3993 55.9549 16.3462C55.8486 16.3462 55.7424 16.2931 55.6362 16.24C55.5299 16.1868 55.4237 16.1337 55.3706 16.0806C55.2113 15.9744 55.105 15.8682 55.0519 15.815Z" fill="white"/>
<path d="M50.3252 20.4888C50.2721 20.4357 50.1658 20.3294 50.1127 20.2232C50.0596 20.117 50.0065 20.0638 49.9534 19.9577C49.9003 19.8514 49.9003 19.7451 49.8471 19.639C49.8471 19.5327 49.7941 19.4265 49.7941 19.3203C49.7941 19.214 49.7941 19.1078 49.8471 19.0016C49.8471 18.8953 49.9003 18.7891 49.9534 18.6829C50.0065 18.5767 50.0596 18.4704 50.1127 18.4173C50.1658 18.3111 50.219 18.258 50.3252 18.1517C50.3783 18.0986 50.4845 17.9924 50.5908 17.9393C50.697 17.8862 50.7501 17.8331 50.8563 17.7799C50.9625 17.7268 51.0688 17.7268 51.175 17.6737C51.2812 17.6737 51.3875 17.6206 51.4937 17.6206C51.5999 17.6206 51.7061 17.6206 51.8124 17.6737C51.9186 17.6737 52.0248 17.7268 52.1311 17.7799C52.2373 17.8331 52.3435 17.8862 52.3966 17.9393C52.8747 18.258 53.1402 18.7891 53.1402 19.3203C53.1402 19.4265 53.1402 19.5327 53.0871 19.639C53.0871 19.7451 53.034 19.8514 52.9809 19.9577C52.9278 20.0638 52.8747 20.1701 52.8215 20.2232C52.7685 20.3294 52.7153 20.3825 52.6091 20.4888C52.556 20.5419 52.4498 20.6481 52.3435 20.7012C52.2373 20.7544 52.1311 20.8075 52.0779 20.8605C51.9717 20.9137 51.8655 20.9137 51.7592 20.9668C51.6531 20.9668 51.5468 21.0199 51.4406 21.0199C51.3344 21.0199 51.2281 21.0199 51.1219 20.9668C51.0157 20.9668 50.9094 20.9137 50.8032 20.8605C50.697 20.8075 50.5908 20.7544 50.5377 20.7012C50.4845 20.6481 50.4314 20.595 50.3252 20.4888Z" fill="white"/>
<path d="M55.0519 25.2148C54.9988 25.1617 54.8926 25.0555 54.8395 24.9493C54.7863 24.8431 54.7332 24.7899 54.6801 24.6837C54.627 24.5775 54.627 24.4712 54.5739 24.365C54.5739 24.2588 54.5208 24.1525 54.5208 24.0464C54.5208 23.9401 54.5208 23.8338 54.5739 23.7277C54.5739 23.6214 54.627 23.5152 54.6801 23.409C54.7332 23.3027 54.7863 23.1965 54.8395 23.1434C54.8926 23.0371 54.9457 22.9841 55.0519 22.8778C55.105 22.8247 55.2113 22.7185 55.3175 22.6654C55.4237 22.6123 55.4768 22.5591 55.583 22.506C55.6893 22.4529 55.7955 22.4529 55.9017 22.3998C56.008 22.3998 56.1142 22.3467 56.2204 22.3467C56.3266 22.3467 56.4329 22.3467 56.5391 22.3998C56.6453 22.3998 56.7516 22.4529 56.8578 22.506C56.964 22.5591 57.0703 22.6123 57.1233 22.6654C57.2827 22.7716 57.442 22.9309 57.6014 23.1434C57.6545 23.2496 57.7076 23.3027 57.7607 23.409C57.8138 23.5152 57.8139 23.6214 57.867 23.7277C57.867 23.8338 57.92 23.9401 57.92 24.0464C57.92 24.1525 57.92 24.2588 57.867 24.365C57.867 24.4712 57.8138 24.5775 57.7607 24.6837C57.7076 24.7899 57.6545 24.8961 57.6014 24.9493C57.5483 25.0555 57.4952 25.1086 57.3889 25.2148C57.3358 25.268 57.2296 25.3742 57.1233 25.4273C57.0171 25.4804 56.9109 25.5335 56.8578 25.5867C56.7516 25.6398 56.6453 25.6398 56.5391 25.6928C56.4329 25.6928 56.3266 25.746 56.2204 25.746C56.1142 25.746 56.008 25.746 55.9017 25.6928C55.7955 25.6928 55.6893 25.6398 55.583 25.5867C55.4768 25.5335 55.3706 25.4804 55.3175 25.4273C55.2113 25.3742 55.1581 25.3211 55.0519 25.2148Z" fill="white"/>
<path d="M107.316 30.1031C107.316 30.5811 107.262 31.006 107.103 31.3779C106.943 31.7496 106.731 32.0683 106.412 32.3339C106.094 32.5994 105.775 32.8119 105.297 32.9713C104.872 33.1306 104.394 33.1837 103.863 33.1837C103.332 33.1837 102.854 33.1306 102.429 32.9713C102.004 32.8119 101.632 32.5994 101.367 32.3339C101.048 32.0683 100.835 31.7496 100.676 31.3779C100.516 31.006 100.463 30.5811 100.463 30.1031V25.2166C100.57 25.2166 100.729 25.1635 100.889 25.1635C101.101 25.1104 101.314 25.1104 101.473 25.1104C101.685 25.1104 101.844 25.1104 102.004 25.1635C102.163 25.2166 102.269 25.2697 102.376 25.3228C102.482 25.3759 102.535 25.4822 102.588 25.6415C102.642 25.8008 102.642 25.9602 102.642 26.1726V30.1031C102.642 30.528 102.748 30.8467 102.96 31.0592C103.172 31.2716 103.491 31.4309 103.863 31.4309C104.235 31.4309 104.5 31.3247 104.766 31.0592C104.978 30.8467 105.084 30.528 105.084 30.1031V25.2166C105.19 25.2166 105.35 25.1635 105.509 25.1635C105.722 25.1104 105.934 25.1104 106.094 25.1104C106.306 25.1104 106.465 25.1104 106.625 25.1635C106.784 25.2166 106.89 25.2697 106.997 25.3228C107.103 25.3759 107.156 25.4822 107.209 25.6415C107.262 25.8008 107.262 25.9602 107.262 26.1726V30.1031H107.316Z" fill="white"/>
<path d="M113.212 29.0414C113.212 28.7758 113.159 28.5633 113 28.4571C112.841 28.3509 112.628 28.2978 112.415 28.2978C112.256 28.2978 112.096 28.2978 111.884 28.3509C111.672 28.404 111.566 28.4571 111.46 28.5633V33.025C111.353 33.025 111.247 33.0781 111.035 33.0781C110.822 33.0781 110.662 33.1311 110.45 33.1311C110.238 33.1311 110.078 33.1311 109.919 33.0781C109.76 33.025 109.654 33.025 109.548 32.9187C109.441 32.8656 109.388 32.7594 109.335 32.6C109.282 32.4407 109.229 32.2814 109.229 32.0689V28.2447C109.229 28.0322 109.282 27.8197 109.388 27.6604C109.494 27.501 109.601 27.3949 109.813 27.2886C110.078 27.0762 110.45 26.9168 110.928 26.8106C111.353 26.7043 111.831 26.5981 112.415 26.5981C113.371 26.5981 114.115 26.8106 114.646 27.2355C115.177 27.6604 115.443 28.2447 115.443 28.9883V33.025C115.336 33.025 115.23 33.0781 115.018 33.0781C114.859 33.0781 114.646 33.1311 114.434 33.1311C114.222 33.1311 114.062 33.1311 113.903 33.0781C113.743 33.025 113.637 33.025 113.531 32.9187C113.424 32.8656 113.371 32.7594 113.318 32.6C113.265 32.4938 113.212 32.2814 113.212 32.0689V29.0414Z" fill="white"/>
<path d="M117.142 25.0573C117.142 24.7386 117.248 24.473 117.46 24.2606C117.673 24.0481 117.991 23.9419 118.311 23.9419C118.682 23.9419 118.948 24.0481 119.16 24.2606C119.372 24.473 119.479 24.7386 119.479 25.0573C119.479 25.3759 119.372 25.6415 119.16 25.854C118.948 26.0665 118.629 26.1726 118.311 26.1726C117.938 26.1726 117.673 26.0665 117.46 25.854C117.248 25.6415 117.142 25.3759 117.142 25.0573ZM119.425 32.9713C119.319 32.9713 119.213 33.0244 119.001 33.0244C118.788 33.0244 118.629 33.0775 118.47 33.0775C118.257 33.0775 118.098 33.0775 117.938 33.0244C117.779 32.9713 117.673 32.9713 117.566 32.8651C117.46 32.812 117.407 32.7057 117.354 32.5464C117.301 32.387 117.248 32.2277 117.248 32.0153V26.81C117.354 26.81 117.46 26.7569 117.673 26.7569C117.832 26.7038 118.045 26.7038 118.204 26.7038C118.364 26.7038 118.576 26.7038 118.735 26.7569C118.894 26.81 119.001 26.81 119.107 26.9163C119.213 26.9694 119.266 27.0756 119.319 27.2349C119.372 27.3412 119.425 27.5536 119.425 27.7661V32.9713Z" fill="white"/>
<path d="M123.464 30.8457C123.464 31.0582 123.517 31.2175 123.676 31.3238C123.836 31.43 123.995 31.4831 124.26 31.4831C124.367 31.4831 124.526 31.4831 124.633 31.43C124.792 31.43 124.898 31.3769 125.004 31.3238C125.058 31.43 125.164 31.5362 125.217 31.6424C125.27 31.7487 125.323 31.908 125.323 32.0674C125.323 32.3861 125.217 32.6517 124.951 32.8641C124.686 33.0765 124.26 33.1828 123.676 33.1828C122.933 33.1828 122.348 33.0234 121.924 32.6517C121.499 32.333 121.339 31.7487 121.339 31.0051V25.5343C121.446 25.5343 121.552 25.4813 121.765 25.4281C121.924 25.375 122.136 25.375 122.295 25.375C122.667 25.375 122.986 25.4281 123.199 25.5874C123.411 25.6937 123.517 26.0124 123.517 26.4373V27.234H125.217C125.27 27.3402 125.323 27.4464 125.376 27.6058C125.429 27.7651 125.429 27.9244 125.429 28.0838C125.429 28.4025 125.376 28.615 125.217 28.7212C125.058 28.8274 124.898 28.9337 124.686 28.9337H123.517V30.8457H123.464Z" fill="white"/>
<path d="M130.102 33.1832C129.624 33.1832 129.145 33.1301 128.721 32.9708C128.296 32.8114 127.924 32.5989 127.605 32.3334C127.287 32.0678 127.021 31.696 126.862 31.2711C126.703 30.8462 126.596 30.3682 126.596 29.7839C126.596 29.1996 126.703 28.7216 126.862 28.3498C127.021 27.9249 127.287 27.6062 127.605 27.3407C127.924 27.0751 128.243 26.8626 128.615 26.7564C128.986 26.6502 129.411 26.5439 129.783 26.5439C130.261 26.5439 130.633 26.5971 131.004 26.7564C131.377 26.9158 131.695 27.0751 131.961 27.3407C132.226 27.6062 132.438 27.8718 132.598 28.1905C132.757 28.5092 132.811 28.881 132.811 29.3059C132.811 29.5715 132.704 29.837 132.545 29.9964C132.385 30.1557 132.173 30.2619 131.855 30.3151L128.668 30.7931C128.774 31.0586 128.933 31.2711 129.252 31.4305C129.517 31.5898 129.89 31.6429 130.261 31.6429C130.633 31.6429 130.951 31.5898 131.27 31.4836C131.589 31.3773 131.855 31.2711 132.014 31.1649C132.173 31.2711 132.279 31.3773 132.385 31.5367C132.492 31.696 132.545 31.8554 132.545 32.0147C132.545 32.3865 132.385 32.7052 132.014 32.8645C131.748 33.0239 131.43 33.1301 131.111 33.1832C130.739 33.1832 130.42 33.1832 130.102 33.1832ZM129.783 28.1374C129.57 28.1374 129.411 28.1905 129.252 28.2436C129.092 28.2967 128.986 28.4029 128.88 28.5092C128.774 28.6154 128.721 28.7216 128.668 28.8809C128.615 28.9872 128.615 29.1465 128.562 29.3059L130.792 28.9341C130.792 28.7748 130.686 28.6154 130.527 28.4029C130.314 28.2436 130.102 28.1374 129.783 28.1374Z" fill="white"/>
<path d="M134.086 29.8914C134.086 29.3072 134.192 28.8291 134.352 28.4042C134.511 27.9793 134.777 27.6606 135.042 27.3951C135.361 27.1295 135.679 26.917 136.105 26.8108C136.529 26.7045 136.954 26.5984 137.432 26.5984C137.592 26.5984 137.751 26.5984 137.91 26.6514C138.07 26.7045 138.229 26.7045 138.282 26.7577V24.6862C138.388 24.6862 138.494 24.6331 138.707 24.58C138.919 24.5269 139.079 24.5269 139.292 24.5269C139.504 24.5269 139.663 24.5269 139.822 24.58C139.982 24.58 140.088 24.6331 140.194 24.7394C140.3 24.7924 140.353 24.8987 140.407 25.058C140.46 25.1643 140.46 25.3767 140.46 25.5891V31.6441C140.46 32.0691 140.247 32.3878 139.875 32.6002C139.61 32.7595 139.292 32.9189 138.919 33.0251C138.547 33.1314 138.07 33.2375 137.539 33.2375C137.007 33.2375 136.476 33.1845 136.052 33.0251C135.626 32.8658 135.254 32.6533 134.936 32.3347C134.617 32.0691 134.405 31.6973 134.245 31.2724C134.192 30.8475 134.086 30.3695 134.086 29.8914ZM137.751 28.298C137.273 28.298 136.954 28.4042 136.689 28.6698C136.423 28.9354 136.317 29.3602 136.317 29.8914C136.317 30.4225 136.423 30.7944 136.689 31.1131C136.901 31.3786 137.273 31.5379 137.698 31.5379C137.857 31.5379 138.017 31.5379 138.123 31.4848C138.229 31.4317 138.335 31.3786 138.388 31.3255V28.4042C138.176 28.3511 137.964 28.298 137.751 28.298Z" fill="white"/>
<path d="M104.395 42.1603C103.758 42.1603 103.226 42.3727 102.908 42.7445C102.536 43.1694 102.377 43.7006 102.377 44.4441C102.377 45.1877 102.589 45.772 102.961 46.1438C103.333 46.5687 103.864 46.7281 104.554 46.7281C104.926 46.7281 105.192 46.675 105.457 46.5687C105.723 46.4625 105.936 46.3563 106.148 46.25C106.307 46.3563 106.413 46.5156 106.466 46.675C106.572 46.8343 106.572 47.0468 106.572 47.2592C106.572 47.631 106.36 47.8966 105.989 48.1621C105.617 48.4278 105.032 48.5339 104.236 48.5339C103.651 48.5339 103.12 48.4278 102.643 48.2684C102.164 48.1091 101.686 47.8435 101.315 47.5248C100.943 47.2061 100.624 46.7811 100.411 46.25C100.199 45.7189 100.093 45.1347 100.093 44.391C100.093 43.7006 100.199 43.1163 100.411 42.6383C100.624 42.1071 100.89 41.6822 101.261 41.3636C101.633 40.9917 102.058 40.7262 102.536 40.5668C103.014 40.4075 103.545 40.3013 104.077 40.3013C104.873 40.3013 105.457 40.4075 105.882 40.673C106.307 40.9386 106.519 41.2573 106.519 41.6822C106.519 41.8947 106.466 42.1071 106.36 42.2664C106.254 42.4258 106.095 42.532 105.989 42.6383C105.776 42.479 105.511 42.3727 105.298 42.2664C105.085 42.1603 104.714 42.1603 104.395 42.1603Z" fill="white"/>
<path d="M114.327 45.2405C114.327 45.7716 114.221 46.2496 114.061 46.6745C113.902 47.0995 113.69 47.4181 113.371 47.7368C113.052 48.0024 112.733 48.2148 112.309 48.3742C111.884 48.5335 111.459 48.5866 110.928 48.5866C110.45 48.5866 109.971 48.5335 109.547 48.3742C109.122 48.2148 108.803 48.0024 108.484 47.7368C108.166 47.4712 107.953 47.0995 107.794 46.6745C107.635 46.2496 107.529 45.8247 107.529 45.2935C107.529 44.8155 107.635 44.3375 107.794 43.9126C107.953 43.4877 108.166 43.169 108.484 42.8503C108.803 42.5848 109.122 42.3192 109.547 42.2129C109.971 42.0536 110.397 42.0005 110.928 42.0005C111.405 42.0005 111.884 42.0536 112.309 42.2129C112.733 42.3722 113.052 42.5848 113.371 42.9034C113.69 43.169 113.902 43.5408 114.061 43.9657C114.221 44.3906 114.327 44.7624 114.327 45.2405ZM109.865 45.2405C109.865 45.7716 109.971 46.1434 110.184 46.4621C110.397 46.7276 110.662 46.8869 111.034 46.8869C111.405 46.8869 111.671 46.7276 111.884 46.4621C112.097 46.1965 112.15 45.7716 112.15 45.2935C112.15 44.7624 112.043 44.3906 111.831 44.1251C111.618 43.8595 111.352 43.7001 110.981 43.7001C110.609 43.7001 110.344 43.8595 110.131 44.1251C109.918 44.3375 109.865 44.7624 109.865 45.2405Z" fill="white"/>
<path d="M119.851 44.4437C119.851 44.1782 119.798 43.9657 119.639 43.8595C119.479 43.7532 119.267 43.7001 119.054 43.7001C118.894 43.7001 118.735 43.7001 118.523 43.7532C118.311 43.8064 118.204 43.8595 118.098 43.9657V48.4273C117.992 48.4273 117.886 48.4804 117.673 48.4804C117.46 48.4804 117.301 48.5335 117.089 48.5335C116.876 48.5335 116.717 48.5335 116.558 48.4804C116.399 48.4273 116.292 48.4273 116.186 48.321C116.08 48.2679 116.026 48.1617 115.973 48.0024C115.92 47.843 115.867 47.6837 115.867 47.4712V43.647C115.867 43.4345 115.92 43.2221 116.026 43.0628C116.133 42.9034 116.239 42.7972 116.452 42.6909C116.717 42.4785 117.089 42.3192 117.567 42.2129C117.992 42.1067 118.47 42.0005 119.054 42.0005C120.01 42.0005 120.754 42.2129 121.285 42.6378C121.816 43.0628 122.081 43.647 122.081 44.3906V48.4273C121.975 48.4273 121.869 48.4804 121.657 48.4804C121.497 48.4804 121.285 48.5335 121.073 48.5335C120.86 48.5335 120.701 48.5335 120.541 48.4804C120.382 48.4273 120.276 48.4273 120.169 48.321C120.063 48.2679 120.01 48.1617 119.957 48.0024C119.904 47.8962 119.851 47.6837 119.851 47.4712V44.4437Z" fill="white"/>
<path d="M129.093 46.5152C129.093 47.1525 128.827 47.6837 128.349 48.0555C127.872 48.4273 127.128 48.5866 126.172 48.5866C125.8 48.5866 125.481 48.5866 125.163 48.5335C124.844 48.4804 124.579 48.4273 124.366 48.321C124.153 48.2148 123.994 48.0555 123.835 47.8962C123.728 47.7368 123.622 47.5243 123.622 47.3119C123.622 47.0995 123.675 46.9401 123.728 46.7808C123.835 46.6214 123.941 46.5152 124.047 46.4089C124.313 46.5683 124.579 46.6745 124.897 46.7808C125.216 46.8869 125.587 46.9401 126.013 46.9401C126.278 46.9401 126.491 46.8869 126.597 46.8339C126.756 46.7808 126.809 46.6745 126.809 46.5152C126.809 46.4089 126.756 46.3027 126.65 46.2496C126.544 46.1965 126.384 46.1434 126.119 46.0902L125.747 46.0372C125.003 45.8778 124.472 45.6653 124.1 45.3466C123.728 45.028 123.569 44.6031 123.569 44.0188C123.569 43.7001 123.622 43.4345 123.782 43.169C123.941 42.9034 124.1 42.6909 124.366 42.5316C124.632 42.3722 124.897 42.2129 125.269 42.1598C125.64 42.0536 126.013 42.0005 126.438 42.0005C126.756 42.0005 127.075 42.0005 127.34 42.0536C127.606 42.1067 127.872 42.1598 128.084 42.2661C128.296 42.3722 128.456 42.4785 128.562 42.6378C128.668 42.7972 128.721 42.9565 128.721 43.169C128.721 43.3815 128.668 43.5408 128.615 43.7001C128.562 43.8595 128.456 43.9657 128.349 44.0719C128.296 44.0188 128.19 43.9657 128.031 43.9126C127.872 43.8595 127.766 43.8064 127.606 43.8064C127.447 43.8064 127.287 43.7532 127.128 43.7001C126.968 43.7001 126.809 43.647 126.65 43.647C126.384 43.647 126.172 43.7001 126.013 43.7532C125.853 43.8064 125.8 43.9126 125.8 44.0719C125.8 44.1782 125.853 44.2312 125.906 44.2844C126.013 44.3375 126.172 44.3906 126.384 44.4437L126.756 44.5499C127.553 44.7624 128.137 44.9749 128.509 45.3466C128.934 45.5591 129.093 45.984 129.093 46.5152Z" fill="white"/>
<path d="M130.633 42.2132C130.739 42.2132 130.845 42.1601 131.057 42.1601C131.27 42.1601 131.43 42.1069 131.642 42.1069C131.854 42.1069 132.014 42.1069 132.173 42.1601C132.332 42.2132 132.438 42.2132 132.544 42.3194C132.651 42.3725 132.704 42.4788 132.757 42.6381C132.81 42.7443 132.863 42.9568 132.863 43.1692V45.9312C132.863 46.303 132.97 46.5154 133.129 46.6748C133.289 46.8341 133.554 46.8872 133.872 46.8872C134.085 46.8872 134.244 46.8872 134.351 46.8341C134.457 46.781 134.563 46.781 134.616 46.7279V42.2132C134.723 42.2132 134.829 42.1601 135.041 42.1601C135.254 42.1601 135.413 42.1069 135.625 42.1069C135.838 42.1069 135.997 42.1069 136.157 42.1601C136.316 42.2132 136.422 42.2132 136.528 42.3194C136.635 42.3725 136.688 42.4788 136.741 42.6381C136.794 42.7443 136.847 42.9568 136.847 43.1692V47.0466C136.847 47.4715 136.688 47.7902 136.316 48.0026C135.997 48.2151 135.678 48.3213 135.254 48.4276C134.829 48.5337 134.404 48.5869 133.926 48.5869C133.448 48.5869 133.023 48.5337 132.651 48.4276C132.279 48.3213 131.908 48.162 131.642 47.9495C131.376 47.737 131.164 47.4715 131.004 47.0997C130.845 46.781 130.792 46.3561 130.792 45.878V42.2132H130.633Z" fill="white"/>
<path d="M140.779 48.3747C140.672 48.3747 140.566 48.4278 140.354 48.4278C140.195 48.481 139.982 48.481 139.822 48.481C139.663 48.481 139.451 48.481 139.291 48.4278C139.132 48.3747 139.026 48.3747 138.92 48.2685C138.814 48.2154 138.761 48.1091 138.707 47.9498C138.654 47.7904 138.601 47.6311 138.601 47.4187V39.9827C138.707 39.9827 138.814 39.9296 139.026 39.9296C139.185 39.8765 139.397 39.8765 139.557 39.8765C139.716 39.8765 139.929 39.8765 140.088 39.9296C140.248 39.9827 140.354 39.9827 140.46 40.0889C140.566 40.142 140.619 40.2483 140.672 40.4076C140.726 40.5139 140.779 40.7263 140.779 40.9387V48.3747Z" fill="white"/>
<path d="M144.816 46.2485C144.816 46.4609 144.869 46.6202 145.028 46.7265C145.188 46.8327 145.347 46.8858 145.613 46.8858C145.719 46.8858 145.878 46.8858 145.984 46.8327C146.144 46.8327 146.25 46.7796 146.356 46.7265C146.409 46.8327 146.515 46.9389 146.568 47.0452C146.622 47.1514 146.675 47.3107 146.675 47.4701C146.675 47.7888 146.568 48.0544 146.303 48.2668C146.037 48.4793 145.613 48.5855 145.028 48.5855C144.285 48.5855 143.701 48.4261 143.275 48.0544C142.851 47.7357 142.691 47.1514 142.691 46.4078V40.8839C142.797 40.8839 142.904 40.8308 143.116 40.7777C143.275 40.7246 143.488 40.7246 143.647 40.7246C144.019 40.7246 144.338 40.7777 144.55 40.9371C144.762 41.0432 144.869 41.3619 144.869 41.7869V42.5836H146.568C146.622 42.6898 146.675 42.796 146.728 42.9554C146.781 43.1147 146.781 43.2741 146.781 43.4334C146.781 43.7521 146.728 43.9645 146.568 44.0708C146.409 44.177 146.25 44.2832 146.037 44.2832H144.869V46.2485H144.816Z" fill="white"/>
<path d="M148.213 40.4059C148.213 40.0872 148.32 39.8217 148.532 39.6092C148.745 39.3968 149.064 39.2905 149.382 39.2905C149.754 39.2905 150.019 39.3968 150.232 39.6092C150.444 39.8217 150.551 40.0872 150.551 40.4059C150.551 40.7246 150.444 40.9902 150.232 41.2026C150.019 41.4151 149.701 41.5213 149.382 41.5213C149.011 41.5213 148.745 41.4151 148.532 41.2026C148.32 40.9902 148.213 40.7246 148.213 40.4059ZM150.498 48.373C150.391 48.373 150.285 48.4262 150.072 48.4262C149.86 48.4262 149.701 48.4793 149.541 48.4793C149.329 48.4793 149.17 48.4793 149.011 48.4262C148.851 48.373 148.745 48.373 148.638 48.2668C148.532 48.2137 148.479 48.1075 148.426 47.9482C148.373 47.7888 148.32 47.6295 148.32 47.417V42.2118C148.426 42.2118 148.532 42.1587 148.745 42.1587C148.904 42.1056 149.117 42.1056 149.276 42.1056C149.435 42.1056 149.648 42.1056 149.807 42.1587C149.966 42.2119 150.072 42.2119 150.179 42.3181C150.285 42.3712 150.338 42.4774 150.391 42.6368C150.444 42.7429 150.498 42.9555 150.498 43.1679V48.373Z" fill="white"/>
<path d="M156.287 44.4437C156.287 44.1782 156.234 43.9657 156.075 43.8595C155.916 43.7532 155.703 43.7001 155.491 43.7001C155.331 43.7001 155.172 43.7001 154.959 43.7532C154.747 43.8064 154.641 43.8595 154.535 43.9657V48.4273C154.429 48.4273 154.322 48.4804 154.11 48.4804C153.897 48.4804 153.738 48.5335 153.525 48.5335C153.313 48.5335 153.154 48.5335 152.994 48.4804C152.835 48.4273 152.729 48.4273 152.623 48.321C152.516 48.2679 152.463 48.1617 152.41 48.0024C152.357 47.843 152.304 47.6837 152.304 47.4712V43.647C152.304 43.4345 152.357 43.2221 152.463 43.0628C152.57 42.9034 152.676 42.7972 152.888 42.6909C153.154 42.4785 153.525 42.3192 154.004 42.2129C154.429 42.1067 154.906 42.0005 155.491 42.0005C156.447 42.0005 157.191 42.2129 157.722 42.6378C158.252 43.0628 158.518 43.647 158.518 44.3906V48.4273C158.412 48.4273 158.305 48.4804 158.093 48.4804C157.934 48.4804 157.722 48.5335 157.509 48.5335C157.297 48.5335 157.137 48.5335 156.978 48.4804C156.818 48.4273 156.712 48.4273 156.606 48.321C156.5 48.2679 156.447 48.1617 156.394 48.0024C156.341 47.8962 156.287 47.6837 156.287 47.4712V44.4437Z" fill="white"/>
<path d="M163.351 41.9463C163.829 41.9463 164.254 41.9994 164.679 42.1587C165.05 42.265 165.422 42.4243 165.687 42.6367C165.847 42.743 166.007 42.9023 166.113 43.0086C166.219 43.1679 166.272 43.3273 166.272 43.5928V48.0544C166.272 48.5324 166.166 48.9042 166.007 49.2229C165.847 49.5416 165.581 49.8071 165.316 50.0197C164.997 50.2321 164.679 50.3914 164.254 50.4977C163.882 50.6039 163.457 50.657 162.979 50.657C162.182 50.657 161.598 50.5508 161.12 50.3384C160.695 50.1258 160.429 49.8072 160.429 49.3291C160.429 49.1167 160.483 48.9574 160.536 48.798C160.642 48.6387 160.695 48.5324 160.801 48.4793C161.067 48.6387 161.332 48.7449 161.651 48.8511C161.97 48.9574 162.288 49.0105 162.607 49.0105C163.085 49.0105 163.457 48.9574 163.722 48.798C163.988 48.6387 164.147 48.3731 164.147 48.0544V47.842C163.775 48.0013 163.351 48.0544 162.873 48.0544C162.501 48.0544 162.129 48.0013 161.757 47.8951C161.386 47.7888 161.12 47.5764 160.854 47.364C160.589 47.0984 160.376 46.8328 160.217 46.4079C160.058 46.0361 160.005 45.558 160.005 45.0269C160.005 44.4957 160.111 44.0709 160.27 43.646C160.429 43.221 160.642 42.9554 160.96 42.6899C161.279 42.4243 161.598 42.265 162.023 42.1056C162.447 41.9994 162.873 41.9463 163.351 41.9463ZM164.147 43.8053C164.094 43.7522 163.988 43.7522 163.882 43.699C163.775 43.646 163.616 43.646 163.457 43.646C163.032 43.646 162.713 43.7522 162.501 44.0177C162.288 44.2302 162.182 44.602 162.182 45.0269C162.182 45.505 162.288 45.8767 162.501 46.0892C162.713 46.3017 162.979 46.4079 163.298 46.4079C163.669 46.4079 163.935 46.3017 164.147 46.1423V43.8053Z" fill="white"/>
<path d="M107.422 62.5033C107.422 62.7689 107.369 62.9813 107.263 63.0876C107.156 63.1938 106.997 63.3532 106.838 63.4594C106.732 63.5125 106.572 63.6187 106.413 63.6718C106.253 63.7249 106.041 63.7781 105.828 63.8312C105.616 63.8842 105.404 63.9374 105.138 63.9374C104.926 63.9374 104.66 63.9905 104.447 63.9905C103.81 63.9905 103.279 63.8843 102.695 63.7249C102.164 63.5656 101.685 63.3 101.314 62.9813C100.942 62.6626 100.624 62.2378 100.358 61.7066C100.145 61.2285 99.9862 60.5912 99.9862 59.9538C99.9862 59.2634 100.092 58.626 100.358 58.0948C100.624 57.5637 100.942 57.1388 101.367 56.8201C101.792 56.4483 102.27 56.2358 102.801 56.0234C103.332 55.8641 103.863 55.7578 104.447 55.7578C105.244 55.7578 105.881 55.8641 106.359 56.1296C106.838 56.3952 107.05 56.7138 107.05 57.1388C107.05 57.3512 106.997 57.5637 106.891 57.7231C106.785 57.8824 106.625 57.9886 106.519 58.0948C106.306 57.9886 106.041 57.8292 105.722 57.7231C105.404 57.6168 105.032 57.5637 104.66 57.5637C103.916 57.5637 103.385 57.7761 102.96 58.2011C102.535 58.626 102.323 59.1571 102.323 59.9007C102.323 60.2725 102.376 60.6443 102.482 60.9099C102.588 61.1755 102.748 61.441 102.96 61.6004C103.173 61.7597 103.385 61.9191 103.651 62.0252C103.916 62.1315 104.182 62.1846 104.447 62.1846C104.66 62.1846 104.819 62.1846 104.926 62.1315C105.085 62.0784 105.191 62.0784 105.244 62.0252V60.8036H103.863C103.81 60.6974 103.757 60.5912 103.704 60.4318C103.651 60.2725 103.651 60.1132 103.651 59.9538C103.651 59.6351 103.704 59.4227 103.863 59.2634C104.023 59.104 104.182 59.0509 104.394 59.0509H106.572C106.838 59.0509 107.05 59.104 107.156 59.2634C107.316 59.4227 107.369 59.5821 107.369 59.8476V62.5033H107.422Z" fill="white"/>
<path d="M111.405 63.7237C111.299 63.7237 111.193 63.7768 110.981 63.7768C110.768 63.7768 110.609 63.8299 110.397 63.8299C110.184 63.8299 110.024 63.8299 109.865 63.7768C109.706 63.7237 109.6 63.7237 109.494 63.6174C109.387 63.5643 109.334 63.4581 109.281 63.2987C109.228 63.1394 109.175 62.98 109.175 62.7676V58.9434C109.175 58.7309 109.228 58.5716 109.281 58.4122C109.334 58.2529 109.44 58.1466 109.6 58.0405C109.759 57.9342 109.918 57.828 110.131 57.7218C110.343 57.6155 110.556 57.5624 110.768 57.5093C110.981 57.4562 111.246 57.4031 111.512 57.3499C111.777 57.2969 111.99 57.2969 112.256 57.2969C112.68 57.2969 112.999 57.3499 113.211 57.5093C113.477 57.6686 113.584 57.9342 113.584 58.306C113.584 58.4122 113.584 58.5185 113.53 58.6778C113.477 58.8372 113.477 58.8903 113.424 58.9965C113.264 58.9965 113.052 58.9965 112.893 58.9965C112.68 58.9965 112.521 59.0496 112.362 59.0496C112.203 59.0496 111.99 59.1027 111.831 59.1559C111.671 59.2089 111.512 59.2621 111.405 59.3152V63.7237Z" fill="white"/>
<path d="M121.179 60.6438C121.179 61.1749 121.073 61.6529 120.914 62.0779C120.754 62.5028 120.542 62.8215 120.223 63.1402C119.904 63.4057 119.586 63.6182 119.161 63.7775C118.735 63.9369 118.311 63.99 117.78 63.99C117.302 63.99 116.823 63.9369 116.399 63.7775C115.974 63.6182 115.655 63.4057 115.336 63.1402C115.018 62.8746 114.805 62.5028 114.646 62.0779C114.487 61.6529 114.38 61.228 114.38 60.6969C114.38 60.2189 114.487 59.7408 114.646 59.3159C114.805 58.891 115.018 58.5723 115.336 58.2536C115.655 57.9881 115.974 57.7225 116.399 57.6163C116.823 57.4569 117.248 57.4038 117.78 57.4038C118.258 57.4038 118.735 57.4569 119.161 57.6163C119.586 57.7756 119.904 57.9881 120.223 58.3068C120.542 58.5723 120.754 58.9441 120.914 59.3691C121.073 59.7939 121.179 60.1126 121.179 60.6438ZM116.717 60.6438C116.717 61.1749 116.823 61.5467 117.036 61.8654C117.248 62.131 117.514 62.2903 117.886 62.2903C118.258 62.2903 118.523 62.131 118.735 61.8654C118.948 61.5999 119.001 61.1749 119.001 60.6969C119.001 60.1658 118.895 59.7939 118.682 59.5284C118.47 59.2628 118.204 59.1035 117.833 59.1035C117.461 59.1035 117.195 59.2628 116.983 59.5284C116.823 59.7408 116.717 60.1126 116.717 60.6438Z" fill="white"/>
<path d="M122.772 57.6155C122.878 57.6155 122.984 57.5624 123.197 57.5624C123.409 57.5624 123.568 57.5093 123.781 57.5093C123.993 57.5093 124.153 57.5093 124.312 57.5624C124.472 57.6155 124.578 57.6155 124.684 57.7217C124.79 57.7748 124.843 57.881 124.896 58.0404C124.949 58.1466 125.002 58.3591 125.002 58.5716V61.3335C125.002 61.7053 125.109 61.9177 125.268 62.0771C125.427 62.2364 125.693 62.2895 126.012 62.2895C126.224 62.2895 126.384 62.2895 126.49 62.2364C126.596 62.1833 126.702 62.1833 126.755 62.1302V57.6155C126.861 57.6155 126.967 57.5624 127.18 57.5624C127.393 57.5624 127.552 57.5093 127.765 57.5093C127.977 57.5093 128.136 57.5093 128.295 57.5624C128.455 57.6155 128.561 57.6155 128.667 57.7217C128.773 57.7748 128.827 57.881 128.88 58.0404C128.933 58.1466 128.986 58.3591 128.986 58.5716V62.3957C128.986 62.8207 128.827 63.1394 128.455 63.3518C128.136 63.5643 127.818 63.6705 127.393 63.7767C126.967 63.883 126.543 63.9361 126.065 63.9361C125.586 63.9361 125.162 63.883 124.79 63.7767C124.418 63.6705 124.046 63.5111 123.781 63.2987C123.515 63.0863 123.303 62.8207 123.144 62.4489C122.984 62.1302 122.931 61.7053 122.931 61.2273V57.6155H122.772Z" fill="white"/>
<path d="M133.555 57.3496C134.086 57.3496 134.564 57.4027 134.989 57.5621C135.414 57.6683 135.785 57.8808 136.104 58.1463C136.423 58.4119 136.689 58.7837 136.848 59.1555C137.007 59.5273 137.113 60.0584 137.113 60.6427C137.113 61.1739 137.06 61.6519 136.901 62.0768C136.742 62.5017 136.529 62.8204 136.264 63.086C135.998 63.3515 135.626 63.564 135.255 63.7234C134.883 63.8827 134.404 63.9358 133.927 63.9358C133.555 63.9358 133.236 63.8827 132.917 63.7764V65.901C132.811 65.901 132.705 65.9541 132.492 66.0072C132.28 66.0603 132.121 66.0603 131.909 66.0603C131.696 66.0603 131.536 66.0603 131.377 66.0072C131.217 65.9541 131.111 65.9541 131.005 65.8479C130.899 65.7947 130.846 65.6885 130.793 65.5292C130.74 65.3698 130.74 65.2105 130.74 64.998V58.8368C130.74 58.6244 130.793 58.4119 130.899 58.2526C131.005 58.0933 131.111 57.987 131.324 57.8808C131.59 57.7214 131.908 57.5621 132.333 57.4559C132.599 57.4027 133.077 57.3496 133.555 57.3496ZM133.555 62.2361C134.457 62.2361 134.883 61.705 134.883 60.6427C134.883 60.1116 134.776 59.6867 134.564 59.4211C134.351 59.1555 134.033 59.0493 133.608 59.0493C133.449 59.0493 133.289 59.0493 133.183 59.1024C133.077 59.1555 132.917 59.2086 132.864 59.2617V62.0768C132.97 62.1299 133.077 62.183 133.183 62.183C133.289 62.183 133.449 62.2361 133.555 62.2361Z" fill="white"/>
</svg>
