<svg width="131" height="40" viewBox="0 0 131 40" fill="none" xmlns="http://www.w3.org/2000/svg">
<g clip-path="url(#clip0_505_1822)">
<path d="M11.2418 7.85718C12.3574 7.85718 13.3872 7.94299 14.3312 8.20044C15.2752 8.37207 16.0475 8.71533 16.734 9.14441C17.4206 9.57349 17.9355 10.1742 18.2787 10.9465C18.622 11.7189 18.7936 12.6629 18.7936 13.6926C18.7936 14.8941 18.5362 15.9238 17.9355 16.6962C17.4206 17.4685 16.5624 18.1551 15.5326 18.6699C16.9915 19.099 18.1071 19.8714 18.7936 20.9012C19.4801 21.9309 19.9092 23.2182 19.9092 24.677C19.9092 25.8785 19.6518 26.9082 19.2227 27.7664C18.7936 28.6246 18.1071 29.3969 17.3347 29.9118C16.5624 30.4267 15.6184 30.8558 14.5886 31.1132C13.5589 31.3707 12.5291 31.5423 11.4993 31.5423H0V7.85718H11.2418ZM10.5553 17.4685C11.4993 17.4685 12.2716 17.2111 12.8723 16.782C13.473 16.3529 13.7305 15.5806 13.7305 14.6366C13.7305 14.1217 13.6447 13.6068 13.473 13.2636C13.3014 12.9203 13.044 12.6629 12.7007 12.4054C12.3574 12.2338 12.0142 12.0621 11.5851 11.9763C11.156 11.8905 10.7269 11.8905 10.2121 11.8905H5.23475V17.4685H10.5553ZM10.8128 27.5948C11.3277 27.5948 11.8426 27.509 12.2716 27.4231C12.7007 27.3373 13.1298 27.1657 13.473 26.9082C13.8163 26.6508 14.0738 26.3934 14.3312 25.9643C14.5028 25.5352 14.6745 25.0203 14.6745 24.4196C14.6745 23.2182 14.3312 22.36 13.6447 21.7593C12.9582 21.2444 12.0142 20.987 10.8986 20.987H5.23475V27.5948H10.8128ZM27.3752 27.509C28.0617 28.1955 29.0915 28.5387 30.4645 28.5387C31.4085 28.5387 32.2667 28.2813 32.9532 27.8522C33.6397 27.3373 34.0688 26.8224 34.2404 26.3075H38.4454C37.7589 28.3671 36.7291 29.826 35.356 30.7699C33.983 31.6281 32.3525 32.143 30.3787 32.143C29.0057 32.143 27.8042 31.8855 26.6886 31.4565C25.573 31.0274 24.7149 30.4267 23.9425 29.5685C23.1702 28.7962 22.5695 27.8522 22.2262 26.7366C21.7972 25.621 21.6255 24.4196 21.6255 23.0465C21.6255 21.7593 21.7972 20.5579 22.2262 19.4423C22.6553 18.3267 23.256 17.3827 24.0284 16.5246C24.8007 15.7522 25.7447 15.0657 26.7745 14.6366C27.8901 14.2075 29.0057 13.9501 30.3787 13.9501C31.8376 13.9501 33.1248 14.2075 34.2404 14.8082C35.356 15.409 36.2142 16.0955 36.9007 17.1253C37.5872 18.0692 38.1021 19.1848 38.4454 20.3863C38.617 21.5877 38.7028 22.7891 38.617 24.1621H26.1738C26.1738 25.5352 26.6886 26.8224 27.3752 27.509ZM32.7816 18.4983C32.1808 17.8976 31.2369 17.5543 30.1213 17.5543C29.3489 17.5543 28.7482 17.726 28.2333 17.9834C27.7184 18.2409 27.3752 18.5841 27.0319 18.9274C26.6886 19.2707 26.517 19.6997 26.4312 20.1288C26.3454 20.5579 26.2596 20.9012 26.2596 21.2444H33.983C33.8113 19.9572 33.3823 19.099 32.7816 18.4983ZM45.3106 7.85718V16.782H45.3964C45.9972 15.7522 46.7695 15.0657 47.7135 14.6366C48.6574 14.2075 49.5156 13.9501 50.4596 13.9501C51.7468 13.9501 52.7766 14.1217 53.5489 14.465C54.3213 14.8082 55.0078 15.3231 55.4369 15.9238C55.8659 16.5246 56.2092 17.2969 56.3808 18.1551C56.5525 19.0132 56.6383 19.9572 56.6383 21.0728V31.6281H51.9184V21.9309C51.9184 20.4721 51.661 19.4423 51.2319 18.7558C50.8028 18.0692 50.0305 17.726 48.9149 17.726C47.6277 17.726 46.6837 18.1551 46.1688 18.8416C45.5681 19.6139 45.3106 20.9012 45.3106 22.6175V31.6281H40.5908V7.85718H45.3106ZM60.0709 16.9536C60.5858 16.1813 61.1865 15.6664 61.9589 15.1515C62.7312 14.7224 63.5893 14.3792 64.5333 14.2075C65.4773 14.0359 66.4213 13.9501 67.3652 13.9501C68.2234 13.9501 69.0815 14.0359 70.0255 14.1217C70.8837 14.2075 71.7418 14.465 72.4284 14.8082C73.2007 15.1515 73.7156 15.6664 74.2305 16.2671C74.6596 16.8678 74.917 17.726 74.917 18.7558V27.7664C74.917 28.5387 75.0028 29.3111 75.0886 29.9976C75.1745 30.6841 75.4319 31.2848 75.6893 31.6281H70.8837C70.712 31.4565 70.6262 31.1132 70.5404 30.8558C70.4546 30.5983 70.4546 30.2551 70.4546 29.9976C69.6823 30.7699 68.8241 31.2848 67.7943 31.6281C66.7645 31.9714 65.7347 32.0572 64.7049 32.0572C63.8468 32.0572 63.1603 31.9714 62.3879 31.7139C61.7014 31.5423 61.1007 31.199 60.5 30.7699C59.9851 30.3409 59.556 29.826 59.2128 29.1395C58.9553 28.4529 58.7837 27.7664 58.7837 26.8224C58.7837 25.8785 58.9553 25.0203 59.2986 24.4196C59.6418 23.8189 60.0709 23.304 60.5858 22.8749C61.1007 22.5316 61.7872 22.1884 62.4737 22.0168C63.1603 21.8451 63.8468 21.6735 64.6191 21.5877L66.6787 21.3302C67.3652 21.2444 67.9659 21.1586 68.4808 21.0728C68.9957 20.9012 69.4248 20.7295 69.7681 20.4721C70.1113 20.2146 70.1972 19.8714 70.1972 19.3565C70.1972 18.8416 70.1113 18.4125 69.9397 18.1551C69.7681 17.8976 69.5106 17.6402 69.2532 17.4685C68.9957 17.2969 68.6525 17.2111 68.3092 17.1253C67.9659 17.0394 67.5369 17.0394 67.1078 17.0394C66.1638 17.0394 65.4773 17.2111 64.9624 17.6402C64.4475 18.0692 64.1042 18.7558 64.0184 19.6139H59.2986C59.2986 18.5841 59.6418 17.6402 60.0709 16.9536ZM69.4248 23.6473C69.1674 23.7331 68.8241 23.8189 68.4808 23.9047C68.1376 23.9905 67.7943 23.9905 67.3652 24.0763C67.022 24.1621 66.5929 24.1621 66.2496 24.248L65.2198 24.5054C64.8766 24.5912 64.5333 24.7629 64.3617 24.9345C64.1042 25.1061 63.9326 25.3636 63.761 25.621C63.5035 25.9643 63.5035 26.3075 63.5035 26.7366C63.5035 27.1657 63.5894 27.509 63.761 27.7664C63.9326 28.0238 64.1042 28.2813 64.3617 28.4529C64.6191 28.6246 64.9624 28.7104 65.3057 28.7962C65.6489 28.882 65.9922 28.882 66.4213 28.882C67.3652 28.882 68.0518 28.7104 68.5667 28.4529C69.0816 28.1097 69.4248 27.7664 69.6823 27.3373C69.9397 26.9082 70.1113 26.4792 70.1113 26.0501C70.1971 25.621 70.1972 25.2777 70.1972 25.0203V23.2182C69.9397 23.3898 69.6823 23.5614 69.4248 23.6473ZM82.0397 14.3792V16.782H82.1255C82.7262 15.7522 83.4986 15.0657 84.4425 14.6366C85.3865 14.2075 86.4163 13.9501 87.3603 13.9501C88.6475 13.9501 89.6773 14.1217 90.4496 14.465C91.3078 14.8082 91.9085 15.3231 92.3376 15.9238C92.7666 16.5246 93.1099 17.2969 93.3674 18.1551C93.539 19.0132 93.6248 19.9572 93.6248 21.0728V31.6281H88.9049V21.9309C88.9049 20.4721 88.6475 19.4423 88.2184 18.7558C87.7893 18.0692 87.017 17.6402 85.8156 17.6402C84.5284 17.6402 83.5844 18.1551 82.9837 18.9274C82.383 19.6997 82.1255 20.987 82.1255 22.7033V31.7139H77.4057V14.3792H82.0397ZM104.18 17.4685C103.408 17.4685 102.807 17.6402 102.292 17.9834C101.777 18.3267 101.348 18.7558 101.005 19.3565C100.662 19.8714 100.49 20.4721 100.318 21.1586C100.147 21.8451 100.147 22.4458 100.147 23.1324C100.147 23.7331 100.233 24.4196 100.318 25.0203C100.49 25.7068 100.662 26.2217 101.005 26.7366C101.348 27.2515 101.691 27.6806 102.206 28.0238C102.721 28.3671 103.322 28.5387 104.094 28.5387C105.21 28.5387 106.068 28.1955 106.755 27.5948C107.355 26.9941 107.784 26.1359 107.87 25.0203H112.418C112.075 27.3373 111.217 29.0536 109.758 30.2551C108.299 31.4565 106.411 32.0572 104.094 32.0572C102.807 32.0572 101.606 31.7997 100.576 31.3707C99.4603 30.9416 98.6021 30.3409 97.8298 29.5685C97.0574 28.7962 96.4567 27.8522 96.0276 26.8224C95.5986 25.7068 95.4269 24.5912 95.4269 23.304C95.4269 21.9309 95.5986 20.7295 96.0276 19.6139C96.4567 18.4983 96.9716 17.4685 97.7439 16.6104C98.5163 15.7522 99.4603 15.1515 100.49 14.6366C101.606 14.2075 102.807 13.9501 104.18 13.9501C105.21 13.9501 106.154 14.1217 107.098 14.3792C108.042 14.6366 108.9 15.0657 109.587 15.5806C110.359 16.0955 110.96 16.782 111.389 17.6402C111.818 18.4125 112.075 19.4423 112.161 20.5579H107.527C107.355 18.4983 106.24 17.4685 104.18 17.4685ZM25.2298 9.48767H34.8411V11.8047H25.2298V9.48767ZM119.541 27.509C120.228 28.1955 121.343 28.5387 122.63 28.5387C123.574 28.5387 124.433 28.2813 125.119 27.8522C125.806 27.3373 126.235 26.8224 126.406 26.3075H130.526C129.839 28.3671 128.809 29.826 127.436 30.7699C126.063 31.6281 124.433 32.143 122.459 32.143C121.086 32.143 119.884 31.8855 118.769 31.4565C117.653 31.0274 116.795 30.4267 116.023 29.5685C115.25 28.7962 114.65 27.8522 114.306 26.7366C113.877 25.621 113.706 24.4196 113.706 23.0465C113.706 21.7593 113.877 20.5579 114.306 19.4423C114.735 18.3267 115.336 17.3827 116.108 16.5246C116.881 15.7522 117.825 15.0657 118.855 14.6366C119.97 14.2075 121.172 13.9501 122.459 13.9501C123.918 13.9501 125.205 14.2075 126.235 14.8082C127.35 15.409 128.208 16.0955 128.895 17.1253C129.582 18.0692 130.096 19.1848 130.44 20.3863C130.783 21.5877 130.869 22.8749 130.783 24.248H118.34C118.34 25.5352 118.855 26.8224 119.541 27.509ZM125.033 18.4983C124.433 17.8976 123.489 17.5543 122.373 17.5543C121.601 17.5543 121 17.726 120.485 17.9834C119.97 18.2409 119.541 18.5841 119.284 18.9274C119.026 19.2707 118.769 19.6997 118.683 20.1288C118.597 20.5579 118.511 20.9012 118.511 21.2444H126.235C125.977 19.9572 125.548 19.099 125.033 18.4983Z" fill="white"/>
</g>
<defs>
<clipPath id="clip0_505_1822">
<rect width="130.814" height="40" fill="white"/>
</clipPath>
</defs>
</svg>
