<svg width="375" height="223" viewBox="0 0 375 223" fill="none" xmlns="http://www.w3.org/2000/svg">
<g clip-path="url(#clip0_595_6917)">
<g clip-path="url(#clip1_595_6917)">
<path d="M-19 222.484C-7.74078 222.167 1.74334 218.772 12.3925 214.865C43.8963 203.306 74.4383 189.983 104.494 175.057C136.798 159.016 169.284 143.028 199.902 123.889C222.915 109.504 246.851 95.0804 267.438 77.2543C282.047 64.6047 336.484 16.946 293.626 4.31806C258.085 -6.15377 235.104 21.6866 220.922 50.8908C211.448 70.398 207.686 94.9265 208.559 116.525C209.353 136.173 223.982 153.462 240.304 163.09C261.829 175.787 295.952 172.36 315.445 157.087C321.626 152.244 353.347 115.553 347.703 102.905C344.801 95.131 335.428 92.0665 328.67 94.8066C318.187 99.0564 320.626 112.714 325.561 120.149C337.501 138.137 349.208 164.066 368.684 158.839C384.401 154.619 394.646 143.384 408.883 136.997C413.174 135.072 416.693 134.056 421.111 136.28C431.574 141.548 440.805 149.68 450.65 155.943C472.838 170.057 495.449 181.659 520.794 189.027C549.822 197.465 579.448 202.104 609.063 207.685" stroke="#D1D1D1" stroke-width="2" stroke-linecap="round" stroke-linejoin="round"/>
</g>
</g>
<defs>
<clipPath id="clip0_595_6917">
<rect width="375" height="223" fill="white"/>
</clipPath>
<clipPath id="clip1_595_6917">
<rect width="375" height="410" fill="white" transform="translate(0 -73)"/>
</clipPath>
</defs>
</svg>
