<svg width="40" height="40" viewBox="0 0 40 40" fill="none" xmlns="http://www.w3.org/2000/svg">
<path d="M20 40C31.0457 40 40 31.0457 40 20C40 8.95431 31.0457 0 20 0C8.95431 0 0 8.95431 0 20C0 31.0457 8.95431 40 20 40Z" fill="white"/>
<path fill-rule="evenodd" clip-rule="evenodd" d="M9.0532 19.7887C14.8836 17.2485 18.7715 15.5738 20.7167 14.7647C26.271 12.4545 27.4251 12.0532 28.1773 12.0399C28.3428 12.037 28.7127 12.078 28.9523 12.2725C29.1546 12.4366 29.2103 12.6584 29.237 12.8141C29.2636 12.9697 29.2968 13.3243 29.2704 13.6014C28.9694 16.7639 27.6671 24.4384 27.0045 27.9804C26.7241 29.4792 26.1721 29.9817 25.6377 30.0309C24.4762 30.1378 23.5943 29.2633 22.4694 28.5259C20.7091 27.3721 19.7147 26.6538 18.0061 25.5278C16.0314 24.2265 17.3115 23.5114 18.4368 22.3425C18.7313 22.0367 23.8487 17.3821 23.9477 16.9598C23.9601 16.907 23.9716 16.7102 23.8546 16.6062C23.7377 16.5023 23.5651 16.5378 23.4406 16.5661C23.264 16.6062 20.452 18.4648 15.0044 22.142C14.2063 22.6901 13.4833 22.9572 12.8355 22.9432C12.1214 22.9278 10.7478 22.5394 9.7266 22.2075C8.4741 21.8004 7.47864 21.5851 7.56532 20.8936C7.61047 20.5335 8.10643 20.1652 9.0532 19.7887Z" fill="white"/>
<path fill-rule="evenodd" clip-rule="evenodd" d="M9.0532 19.7887C14.8836 17.2485 18.7715 15.5738 20.7167 14.7647C26.271 12.4545 27.4251 12.0532 28.1773 12.0399C28.3428 12.037 28.7127 12.078 28.9523 12.2725C29.1546 12.4366 29.2103 12.6584 29.237 12.8141C29.2636 12.9697 29.2968 13.3243 29.2704 13.6014C28.9694 16.7639 27.6671 24.4384 27.0045 27.9804C26.7241 29.4792 26.1721 29.9817 25.6377 30.0309C24.4762 30.1378 23.5943 29.2633 22.4694 28.5259C20.7091 27.3721 19.7147 26.6538 18.0061 25.5278C16.0314 24.2265 17.3115 23.5114 18.4368 22.3425C18.7313 22.0367 23.8487 17.3821 23.9477 16.9598C23.9601 16.907 23.9716 16.7102 23.8546 16.6062C23.7377 16.5023 23.5651 16.5378 23.4406 16.5661C23.264 16.6062 20.452 18.4648 15.0044 22.142C14.2063 22.6901 13.4833 22.9572 12.8355 22.9432C12.1214 22.9278 10.7478 22.5394 9.7266 22.2075C8.4741 21.8004 7.47864 21.5851 7.56532 20.8936C7.61047 20.5335 8.10643 20.1652 9.0532 19.7887Z" fill="url(#paint0_linear_505_1814)"/>
<defs>
<linearGradient id="paint0_linear_505_1814" x1="1093.56" y1="12.0398" x2="1093.56" y2="1798.69" gradientUnits="userSpaceOnUse">
<stop stop-color="#2AABEE"/>
<stop offset="1" stop-color="#229ED9"/>
</linearGradient>
</defs>
</svg>
