<svg width="60" height="60" viewBox="0 0 60 60" fill="none" xmlns="http://www.w3.org/2000/svg">
<circle cx="30" cy="30" r="29.5" stroke="#3B3D3F"/>
<path d="M23.1687 29.027C27.7321 27.0513 30.775 25.7487 32.2976 25.1194C36.6447 23.3226 37.5481 23.0105 38.1369 23.0001C38.2663 22.9979 38.5559 23.0298 38.7434 23.1811C38.9019 23.3088 38.9453 23.4813 38.9662 23.6023C38.9871 23.7234 39.0131 23.9992 38.9924 24.2147C38.7569 26.6744 37.7375 32.6434 37.2189 35.3982C36.9994 36.5639 36.5674 36.9548 36.1491 36.9931C35.2401 37.0762 34.5497 36.3961 33.6694 35.8225C32.2917 34.9252 31.5133 34.3664 30.176 33.4907C28.6304 32.4786 29.6323 31.9224 30.5131 31.0133C30.7436 30.7754 34.7489 27.1552 34.8264 26.8268C34.8361 26.7857 34.8451 26.6326 34.7536 26.5517C34.6621 26.4709 34.5269 26.4985 34.4294 26.5205C34.2912 26.5517 32.0903 27.9973 27.8266 30.8573C27.2019 31.2836 26.636 31.4913 26.129 31.4805C25.5701 31.4685 24.495 31.1665 23.6957 30.9082C22.7154 30.5916 21.9363 30.4242 22.0041 29.8864C22.0395 29.6063 22.4276 29.3198 23.1687 29.027Z" fill="white"/>
</svg>
