<svg width="24" height="24" viewBox="0 0 24 24" fill="none" xmlns="http://www.w3.org/2000/svg">
<g clip-path="url(#clip0_563_5626)">
<path d="M4.16866 10.027C8.73205 8.05126 11.775 6.74874 13.2976 6.11944C17.6447 4.32264 18.5481 4.01051 19.1369 4.0001C19.2663 3.99794 19.5559 4.02983 19.7434 4.18107C19.9019 4.30876 19.9453 4.48126 19.9662 4.60232C19.9871 4.72339 20.0131 4.99919 19.9924 5.21469C19.7569 7.67438 18.7375 13.6434 18.2189 16.3982C17.9994 17.5639 17.5674 17.9548 17.1491 17.9931C16.2401 18.0762 15.5497 17.3961 14.6694 16.8225C13.2917 15.9252 12.5133 15.3664 11.176 14.4907C9.63044 13.4786 10.6323 12.9224 11.5131 12.0133C11.7436 11.7754 15.7489 8.15516 15.8264 7.82675C15.8361 7.78567 15.8451 7.63257 15.7536 7.55173C15.6621 7.47089 15.5269 7.49854 15.4294 7.52053C15.2912 7.55168 13.0903 8.9973 8.82662 11.8573C8.2019 12.2836 7.63603 12.4913 7.12904 12.4805C6.57012 12.4685 5.49498 12.1665 4.69572 11.9082C3.71541 11.5916 2.93628 11.4242 3.00412 10.8864C3.03945 10.6063 3.42764 10.3198 4.16866 10.027Z" fill="white"/>
</g>
<defs>
<clipPath id="clip0_563_5626">
<rect width="24" height="24" fill="white"/>
</clipPath>
</defs>
</svg>
