<svg width="24" height="24" viewBox="0 0 24 24" fill="none" xmlns="http://www.w3.org/2000/svg">
<path d="M16.8783 17.998C16.2622 18.0058 15.6502 17.8964 15.0743 17.6756C14.5583 17.4732 14.0921 17.1605 13.7078 16.7588C13.3293 16.3481 13.0371 15.8648 12.8485 15.3376C12.6414 14.7544 12.5388 14.1387 12.5456 13.5193C12.5412 12.9106 12.6468 12.3061 12.8571 11.7355C13.0531 11.2034 13.3549 10.7172 13.7439 10.3067C14.134 9.90134 14.6001 9.57801 15.1151 9.35547C15.6729 9.11764 16.2736 8.99935 16.8793 9.00809C17.5301 8.99407 18.1748 9.13851 18.7585 9.42917C19.2794 9.69848 19.7313 10.086 20.0783 10.5613C20.4285 11.0467 20.681 11.5964 20.8218 12.1795C20.9754 12.7995 21.0303 13.44 20.9842 14.0772H14.8777C14.8534 14.6825 15.0592 15.2744 15.4531 15.7319C15.8669 16.0977 16.4079 16.2828 16.9572 16.2467C17.3886 16.2569 17.8125 16.1322 18.1707 15.8898C18.4551 15.7148 18.6733 15.4491 18.7908 15.1347H20.837C20.605 16.0235 20.0716 16.8023 19.3291 17.3358C18.5942 17.7939 17.742 18.0242 16.8783 17.998ZM16.8129 10.7785C16.4938 10.7664 16.1765 10.8321 15.8879 10.9699C15.6624 11.0846 15.4621 11.2441 15.2993 11.4388C15.1561 11.6158 15.05 11.8203 14.9878 12.0399C14.9329 12.2227 14.8977 12.411 14.8825 12.6016H18.6635C18.6363 12.1053 18.4485 11.6317 18.1289 11.2532C17.7752 10.9167 17.2981 10.7446 16.8129 10.7785ZM7.66876 17.776H2V6.00028H7.50734C8.01752 5.99578 8.52676 6.0455 9.0266 6.14861C9.44997 6.23192 9.85335 6.397 10.2145 6.63476C10.5406 6.86294 10.8024 7.17259 10.9741 7.53337C11.1637 7.96797 11.2545 8.43978 11.24 8.9143C11.2606 9.43931 11.1225 9.95823 10.844 10.4024C10.5393 10.8264 10.1275 11.1605 9.6514 11.3699C10.2983 11.5329 10.867 11.9218 11.2561 12.4675C11.6176 13.0291 11.8004 13.6885 11.7802 14.3577C11.794 14.8928 11.6773 15.4232 11.4403 15.9022C11.2216 16.3271 10.9044 16.6925 10.5155 16.9673C10.1123 17.25 9.66206 17.4575 9.18613 17.5798C8.68929 17.7113 8.17769 17.7776 7.66402 17.777L7.66876 17.776ZM4.57325 12.5289V15.7731H7.31743C7.55996 15.7757 7.802 15.751 8.03908 15.6994C8.25612 15.6572 8.46267 15.5718 8.64679 15.4486C8.82409 15.3311 8.96806 15.1692 9.06459 14.9787C9.17654 14.7399 9.22932 14.4771 9.21841 14.2132C9.26443 13.7232 9.07612 13.2406 8.71136 12.9136C8.31781 12.6405 7.84586 12.5059 7.36871 12.5308L4.57325 12.5289ZM4.57325 8.00708V10.7584H7.17689C7.57966 10.7744 7.97672 10.6586 8.30875 10.4283C8.62174 10.1663 8.78655 9.76571 8.74933 9.35738C8.75736 9.123 8.70778 8.89026 8.605 8.67984C8.51219 8.50975 8.37534 8.3682 8.20904 8.27025C8.03394 8.16559 7.84054 8.09575 7.63933 8.0645C7.4202 8.0231 7.19757 8.00354 6.97465 8.00612L4.57325 8.00708ZM19.1401 7.95349H14.402V6.79075H19.1401V7.95349Z" fill="white"/>
</svg>
