<svg width="60" height="60" viewBox="0 0 60 60" fill="none" xmlns="http://www.w3.org/2000/svg">
<circle cx="30" cy="30" r="29.5" stroke="#3B3D3F"/>
<path d="M34.8783 35.998C34.2622 36.0058 33.6502 35.8964 33.0743 35.6756C32.5583 35.4732 32.0921 35.1605 31.7078 34.7588C31.3293 34.3481 31.0371 33.8648 30.8485 33.3376C30.6414 32.7544 30.5388 32.1387 30.5456 31.5193C30.5412 30.9106 30.6468 30.3061 30.8571 29.7355C31.0531 29.2034 31.3549 28.7172 31.7439 28.3067C32.134 27.9013 32.6001 27.578 33.1151 27.3555C33.6729 27.1176 34.2736 26.9993 34.8793 27.0081C35.5301 26.9941 36.1748 27.1385 36.7585 27.4292C37.2794 27.6985 37.7313 28.086 38.0783 28.5613C38.4285 29.0467 38.681 29.5964 38.8218 30.1795C38.9754 30.7995 39.0303 31.44 38.9842 32.0772H32.8777C32.8534 32.6825 33.0592 33.2744 33.4531 33.7319C33.8669 34.0977 34.4079 34.2828 34.9572 34.2467C35.3886 34.2569 35.8125 34.1322 36.1707 33.8898C36.4551 33.7148 36.6733 33.4491 36.7908 33.1347H38.837C38.605 34.0235 38.0716 34.8023 37.3291 35.3358C36.5942 35.7939 35.742 36.0242 34.8783 35.998ZM34.8129 28.7785C34.4938 28.7664 34.1765 28.8321 33.8879 28.9699C33.6624 29.0846 33.4621 29.2441 33.2993 29.4388C33.1561 29.6158 33.05 29.8203 32.9878 30.0399C32.9329 30.2227 32.8977 30.411 32.8825 30.6016H36.6635C36.6363 30.1053 36.4485 29.6317 36.1289 29.2532C35.7752 28.9167 35.2981 28.7446 34.8129 28.7785ZM25.6688 35.776H20V24.0003H25.5073C26.0175 23.9958 26.5268 24.0455 27.0266 24.1486C27.45 24.2319 27.8534 24.397 28.2145 24.6348C28.5406 24.8629 28.8024 25.1726 28.9741 25.5334C29.1637 25.968 29.2545 26.4398 29.24 26.9143C29.2606 27.4393 29.1225 27.9582 28.844 28.4024C28.5393 28.8264 28.1275 29.1605 27.6514 29.3699C28.2983 29.5329 28.867 29.9218 29.2561 30.4675C29.6176 31.0291 29.8004 31.6885 29.7802 32.3577C29.794 32.8928 29.6773 33.4232 29.4403 33.9022C29.2216 34.3271 28.9044 34.6925 28.5155 34.9673C28.1123 35.25 27.6621 35.4575 27.1861 35.5798C26.6893 35.7113 26.1777 35.7776 25.664 35.777L25.6688 35.776ZM22.5733 30.5289V33.7731H25.3174C25.56 33.7757 25.802 33.751 26.0391 33.6994C26.2561 33.6572 26.4627 33.5718 26.6468 33.4486C26.8241 33.3311 26.9681 33.1692 27.0646 32.9787C27.1765 32.7399 27.2293 32.4771 27.2184 32.2132C27.2644 31.7232 27.0761 31.2406 26.7114 30.9136C26.3178 30.6405 25.8459 30.5059 25.3687 30.5308L22.5733 30.5289ZM22.5733 26.0071V28.7584H25.1769C25.5797 28.7744 25.9767 28.6586 26.3087 28.4283C26.6217 28.1663 26.7865 27.7657 26.7493 27.3574C26.7574 27.123 26.7078 26.8903 26.605 26.6798C26.5122 26.5097 26.3753 26.3682 26.209 26.2703C26.0339 26.1656 25.8405 26.0957 25.6393 26.0645C25.4202 26.0231 25.1976 26.0035 24.9746 26.0061L22.5733 26.0071ZM37.1401 25.9535H32.402V24.7907H37.1401V25.9535Z" fill="white"/>
</svg>
